<svg width="620" height="1063" viewBox="0 0 620 1063" fill="none" xmlns="http://www.w3.org/2000/svg">
<g clip-path="url(#clip0_121_6634)">
<rect y="197" width="620" height="866" fill="#DEDEDE"/>
<g clip-path="url(#clip1_121_6634)">
<rect width="620" height="197" fill="#0D4D6B"/>
<path d="M144.359 146.328C144.562 146.422 144.664 146.555 144.664 146.727C144.664 147.492 143.891 148.672 142.344 150.266C140.906 151.734 138.844 152.469 136.156 152.469H133.812C131.125 152.469 128.961 151.695 127.32 150.148C125.695 148.602 124.883 146.547 124.883 143.984V129.781C124.883 127.219 125.695 125.164 127.32 123.617C128.961 122.055 131.125 121.273 133.812 121.273H136.156C138.344 121.273 140.156 121.805 141.594 122.867C142.453 123.508 143.203 124.289 143.844 125.211C144.391 126.008 144.664 126.586 144.664 126.945C144.664 127.102 144.562 127.227 144.359 127.32L140.188 129.383C140.125 129.414 140.047 129.43 139.953 129.43C139.797 129.43 139.57 129.164 139.273 128.633C138.445 127.086 137.406 126.312 136.156 126.312H133.812C132.844 126.312 132.023 126.648 131.352 127.32C130.68 127.992 130.344 128.812 130.344 129.781V143.984C130.344 144.938 130.68 145.75 131.352 146.422C132.023 147.094 132.844 147.43 133.812 147.43H136.156C137.406 147.43 138.43 146.664 139.227 145.133C139.555 144.523 139.797 144.219 139.953 144.219C140.047 144.219 140.125 144.234 140.188 144.266L144.359 146.328ZM169.508 151.367C169.539 151.43 169.555 151.516 169.555 151.625C169.555 151.875 169.391 152 169.062 152H164.117C163.961 152 163.82 151.891 163.695 151.672L159.477 139.461L159.078 139.18H154.812C154.5 139.18 154.344 139.344 154.344 139.672V151.531C154.344 151.844 154.18 152 153.852 152H149.281C148.969 152 148.812 151.844 148.812 151.531V122.234C148.812 121.922 148.969 121.766 149.281 121.766H160.086C162.836 121.766 165.008 122.57 166.602 124.18C168.211 125.773 169.016 127.945 169.016 130.695V131.164C169.016 133.148 168.312 134.859 166.906 136.297C166.688 136.531 166.258 136.883 165.617 137.352C165.164 137.711 164.938 137.969 164.938 138.125V138.172L169.508 151.367ZM163.555 130.695V130.25C163.555 129.328 163.211 128.523 162.523 127.836C161.836 127.148 161.023 126.805 160.086 126.805H154.812C154.5 126.805 154.344 126.961 154.344 127.273V133.672C154.344 133.984 154.5 134.141 154.812 134.141H160.086C161.023 134.141 161.836 133.805 162.523 133.133C163.211 132.461 163.555 131.648 163.555 130.695ZM193.648 143.984C193.648 146.547 192.828 148.602 191.188 150.148C189.562 151.695 187.406 152.469 184.719 152.469H182.375C179.688 152.469 177.523 151.695 175.883 150.148C174.258 148.602 173.445 146.547 173.445 143.984V122.234C173.445 121.922 173.602 121.766 173.914 121.766H178.438C178.75 121.766 178.906 121.922 178.906 122.234V143.984C178.906 144.938 179.242 145.75 179.914 146.422C180.586 147.094 181.406 147.43 182.375 147.43H184.719C185.688 147.43 186.5 147.102 187.156 146.445C187.812 145.789 188.141 144.969 188.141 143.984V122.234C188.141 121.922 188.297 121.766 188.609 121.766H193.18C193.492 121.766 193.648 121.922 193.648 122.234V143.984ZM218.234 146.328C218.438 146.422 218.539 146.555 218.539 146.727C218.539 147.492 217.766 148.672 216.219 150.266C214.781 151.734 212.719 152.469 210.031 152.469H207.688C205 152.469 202.836 151.695 201.195 150.148C199.57 148.602 198.758 146.547 198.758 143.984V129.781C198.758 127.219 199.57 125.164 201.195 123.617C202.836 122.055 205 121.273 207.688 121.273H210.031C212.219 121.273 214.031 121.805 215.469 122.867C216.328 123.508 217.078 124.289 217.719 125.211C218.266 126.008 218.539 126.586 218.539 126.945C218.539 127.102 218.438 127.227 218.234 127.32L214.062 129.383C214 129.414 213.922 129.43 213.828 129.43C213.672 129.43 213.445 129.164 213.148 128.633C212.32 127.086 211.281 126.312 210.031 126.312H207.688C206.719 126.312 205.898 126.648 205.227 127.32C204.555 127.992 204.219 128.812 204.219 129.781V143.984C204.219 144.938 204.555 145.75 205.227 146.422C205.898 147.094 206.719 147.43 207.688 147.43H210.031C211.281 147.43 212.305 146.664 213.102 145.133C213.43 144.523 213.672 144.219 213.828 144.219C213.922 144.219 214 144.234 214.062 144.266L218.234 146.328ZM228.219 151.531C228.219 151.844 228.055 152 227.727 152H223.156C222.844 152 222.688 151.844 222.688 151.531V122.234C222.688 121.922 222.844 121.766 223.156 121.766H227.727C228.055 121.766 228.219 121.922 228.219 122.234V151.531ZM254.844 143.164C254.844 145.883 254.039 148.039 252.43 149.633C250.836 151.211 248.664 152 245.914 152H235.109C234.797 152 234.641 151.844 234.641 151.531V122.234C234.641 121.922 234.797 121.766 235.109 121.766H245.914C248.664 121.766 250.836 122.57 252.43 124.18C254.039 125.773 254.844 127.945 254.844 130.695V131.164C254.844 132.383 254.492 133.469 253.789 134.422C252.664 135.938 252.102 136.695 252.102 136.695C252.102 136.602 252.633 137.32 253.695 138.852C254.461 139.977 254.844 141.172 254.844 142.438V143.164ZM249.383 130.695V130.25C249.383 129.328 249.039 128.523 248.352 127.836C247.664 127.148 246.852 126.805 245.914 126.805H240.641C240.328 126.805 240.172 126.961 240.172 127.273V133.672C240.172 133.984 240.328 134.141 240.641 134.141H245.914C246.852 134.141 247.664 133.805 248.352 133.133C249.039 132.461 249.383 131.648 249.383 130.695ZM249.383 143.516V142.602C249.383 141.633 249.055 140.82 248.398 140.164C247.742 139.508 246.914 139.18 245.914 139.18H240.641C240.328 139.18 240.172 139.344 240.172 139.672V146.469C240.172 146.797 240.328 146.961 240.641 146.961H245.914C246.883 146.961 247.703 146.625 248.375 145.953C249.047 145.281 249.383 144.469 249.383 143.516ZM278.281 151.531C278.281 151.844 278.117 152 277.789 152H260.844C260.531 152 260.375 151.844 260.375 151.531V122.234C260.375 121.922 260.531 121.766 260.844 121.766H265.414C265.742 121.766 265.906 121.922 265.906 122.234V146.469C265.906 146.797 266.062 146.961 266.375 146.961H277.789C278.117 146.961 278.281 147.117 278.281 147.43V151.531ZM300.078 151.531C300.078 151.844 299.914 152 299.586 152H282.641C282.328 152 282.172 151.844 282.172 151.531V122.234C282.172 121.922 282.328 121.766 282.641 121.766H299.586C299.914 121.766 300.078 121.922 300.078 122.234V126.312C300.078 126.641 299.914 126.805 299.586 126.805H288.172C287.859 126.805 287.703 126.961 287.703 127.273V133.672C287.703 133.984 287.859 134.141 288.172 134.141H297.523C297.852 134.141 298.016 134.305 298.016 134.633V138.711C298.016 139.023 297.852 139.18 297.523 139.18H288.172C287.859 139.18 287.703 139.344 287.703 139.672V146.469C287.703 146.797 287.859 146.961 288.172 146.961H299.586C299.914 146.961 300.078 147.117 300.078 147.43V151.531ZM333.102 143.984C333.102 146.547 332.281 148.602 330.641 150.148C329.016 151.695 326.859 152.469 324.172 152.469H321.828C319.141 152.469 316.977 151.695 315.336 150.148C313.711 148.602 312.898 146.547 312.898 143.984V129.781C312.898 127.219 313.711 125.164 315.336 123.617C316.977 122.055 319.141 121.273 321.828 121.273H324.172C326.859 121.273 329.016 122.055 330.641 123.617C332.281 125.164 333.102 127.219 333.102 129.781V143.984ZM327.594 143.984V129.781C327.594 128.781 327.266 127.953 326.609 127.297C325.953 126.641 325.141 126.312 324.172 126.312H321.828C320.859 126.312 320.039 126.648 319.367 127.32C318.695 127.992 318.359 128.812 318.359 129.781V143.984C318.359 144.938 318.695 145.75 319.367 146.422C320.039 147.094 320.859 147.43 321.828 147.43H324.172C325.141 147.43 325.953 147.102 326.609 146.445C327.266 145.789 327.594 144.969 327.594 143.984ZM356.797 126.312C356.797 126.641 356.633 126.805 356.305 126.805H344.891C344.578 126.805 344.422 126.961 344.422 127.273V133.672C344.422 133.984 344.578 134.141 344.891 134.141H354.242C354.57 134.141 354.734 134.305 354.734 134.633V138.711C354.734 139.023 354.57 139.18 354.242 139.18H344.891C344.578 139.18 344.422 139.344 344.422 139.672V151.531C344.422 151.844 344.258 152 343.93 152H339.359C339.047 152 338.891 151.844 338.891 151.531V122.234C338.891 121.922 339.047 121.766 339.359 121.766H356.305C356.633 121.766 356.797 121.922 356.797 122.234V126.312ZM389.375 143.164C389.375 145.883 388.57 148.039 386.961 149.633C385.367 151.211 383.195 152 380.445 152H369.641C369.328 152 369.172 151.844 369.172 151.531V122.234C369.172 121.922 369.328 121.766 369.641 121.766H380.445C383.195 121.766 385.367 122.57 386.961 124.18C388.57 125.773 389.375 127.945 389.375 130.695V131.164C389.375 132.383 389.023 133.469 388.32 134.422C387.195 135.938 386.633 136.695 386.633 136.695C386.633 136.602 387.164 137.32 388.227 138.852C388.992 139.977 389.375 141.172 389.375 142.438V143.164ZM383.914 130.695V130.25C383.914 129.328 383.57 128.523 382.883 127.836C382.195 127.148 381.383 126.805 380.445 126.805H375.172C374.859 126.805 374.703 126.961 374.703 127.273V133.672C374.703 133.984 374.859 134.141 375.172 134.141H380.445C381.383 134.141 382.195 133.805 382.883 133.133C383.57 132.461 383.914 131.648 383.914 130.695ZM383.914 143.516V142.602C383.914 141.633 383.586 140.82 382.93 140.164C382.273 139.508 381.445 139.18 380.445 139.18H375.172C374.859 139.18 374.703 139.344 374.703 139.672V146.469C374.703 146.797 374.859 146.961 375.172 146.961H380.445C381.414 146.961 382.234 146.625 382.906 145.953C383.578 145.281 383.914 144.469 383.914 143.516ZM413.633 151.367C413.633 151.305 413.648 151.375 413.68 151.578C413.68 151.859 413.508 152 413.164 152H408.312C408.062 152 407.906 151.891 407.844 151.672L406.391 146.633C406.328 146.43 406.172 146.328 405.922 146.328H399.055C398.789 146.328 398.625 146.43 398.562 146.633L397.133 151.672C397.07 151.891 396.906 152 396.641 152H391.859C391.5 152 391.32 151.859 391.32 151.578C391.367 151.406 391.391 151.336 391.391 151.367L400.297 122.094C400.359 121.875 400.516 121.766 400.766 121.766H404.234C404.484 121.766 404.641 121.875 404.703 122.094L413.633 151.367ZM404.703 140.68L403.133 134.328C403.07 134.141 402.891 133.266 402.594 131.703H402.453C402.328 132.281 402.141 133.156 401.891 134.328L400.25 140.68C400.25 140.711 400.25 140.742 400.25 140.773C400.219 140.805 400.203 140.836 400.203 140.867C400.203 141.148 400.375 141.289 400.719 141.289H404.234C404.578 141.289 404.75 141.148 404.75 140.867C404.75 140.836 404.75 140.805 404.75 140.773C404.719 140.742 404.703 140.711 404.703 140.68ZM431.867 126.312C431.867 126.641 431.703 126.805 431.375 126.805H426.148C425.836 126.805 425.68 126.961 425.68 127.273V151.531C425.68 151.844 425.516 152 425.188 152H420.688C420.359 152 420.195 151.844 420.195 151.531V127.273C420.195 126.961 420.039 126.805 419.727 126.805H414.477C414.164 126.805 414.008 126.641 414.008 126.312V122.234C414.008 121.922 414.164 121.766 414.477 121.766H431.375C431.703 121.766 431.867 121.922 431.867 122.234V126.312ZM451.18 126.312C451.18 126.641 451.016 126.805 450.688 126.805H445.461C445.148 126.805 444.992 126.961 444.992 127.273V151.531C444.992 151.844 444.828 152 444.5 152H440C439.672 152 439.508 151.844 439.508 151.531V127.273C439.508 126.961 439.352 126.805 439.039 126.805H433.789C433.477 126.805 433.32 126.641 433.32 126.312V122.234C433.32 121.922 433.477 121.766 433.789 121.766H450.688C451.016 121.766 451.18 121.922 451.18 122.234V126.312ZM473.047 151.531C473.047 151.844 472.883 152 472.555 152H455.609C455.297 152 455.141 151.844 455.141 151.531V122.234C455.141 121.922 455.297 121.766 455.609 121.766H460.18C460.508 121.766 460.672 121.922 460.672 122.234V146.469C460.672 146.797 460.828 146.961 461.141 146.961H472.555C472.883 146.961 473.047 147.117 473.047 147.43V151.531ZM494.844 151.531C494.844 151.844 494.68 152 494.352 152H477.406C477.094 152 476.938 151.844 476.938 151.531V122.234C476.938 121.922 477.094 121.766 477.406 121.766H494.352C494.68 121.766 494.844 121.922 494.844 122.234V126.312C494.844 126.641 494.68 126.805 494.352 126.805H482.938C482.625 126.805 482.469 126.961 482.469 127.273V133.672C482.469 133.984 482.625 134.141 482.938 134.141H492.289C492.617 134.141 492.781 134.305 492.781 134.633V138.711C492.781 139.023 492.617 139.18 492.289 139.18H482.938C482.625 139.18 482.469 139.344 482.469 139.672V146.469C482.469 146.797 482.625 146.961 482.938 146.961H494.352C494.68 146.961 494.844 147.117 494.844 147.43V151.531Z" fill="white"/>
<line x1="26" y1="173.001" x2="594" y2="173.001" stroke="white" stroke-width="5"/>
<path d="M245.609 92.7612C245.609 94.5737 245.073 96.0216 244 97.105C242.938 98.1779 241.49 98.7144 239.656 98.7144H232.453C232.245 98.7144 232.141 98.6102 232.141 98.4019V78.8706C232.141 78.6623 232.245 78.5581 232.453 78.5581H239.656C241.49 78.5581 242.938 79.0946 244 80.1675C245.073 81.23 245.609 82.6779 245.609 84.5112V92.7612ZM241.969 93.0581V84.2144C241.969 83.5998 241.74 83.0633 241.281 82.605C240.823 82.1466 240.281 81.9175 239.656 81.9175H236.141C235.932 81.9175 235.828 82.0216 235.828 82.23V95.0269C235.828 95.2456 235.932 95.355 236.141 95.355H239.656C240.302 95.355 240.849 95.131 241.297 94.6831C241.745 94.2352 241.969 93.6935 241.969 93.0581ZM261.391 98.4019C261.391 98.6102 261.281 98.7144 261.062 98.7144H249.766C249.557 98.7144 249.453 98.6102 249.453 98.4019V78.8706C249.453 78.6623 249.557 78.5581 249.766 78.5581H261.062C261.281 78.5581 261.391 78.6623 261.391 78.8706V81.5894C261.391 81.8081 261.281 81.9175 261.062 81.9175H253.453C253.245 81.9175 253.141 82.0216 253.141 82.23V86.4956C253.141 86.7039 253.245 86.8081 253.453 86.8081H259.688C259.906 86.8081 260.016 86.9175 260.016 87.1362V89.855C260.016 90.0633 259.906 90.1675 259.688 90.1675H253.453C253.245 90.1675 253.141 90.2769 253.141 90.4956V95.0269C253.141 95.2456 253.245 95.355 253.453 95.355H261.062C261.281 95.355 261.391 95.4591 261.391 95.6675V98.4019ZM271.609 78.5581C273.422 78.5581 274.865 79.0998 275.938 80.1831C277.021 81.256 277.562 82.6987 277.562 84.5112C277.562 86.1675 277.01 87.5269 275.906 88.5894C274.812 89.6414 273.38 90.1675 271.609 90.1675H268.734C268.526 90.1675 268.422 90.2769 268.422 90.4956V98.4019C268.422 98.6102 268.312 98.7144 268.094 98.7144H265.047C264.839 98.7144 264.734 98.6102 264.734 98.4019V78.8706C264.734 78.6623 264.839 78.5581 265.047 78.5581H271.609ZM273.922 84.5112V84.2144C273.922 83.5998 273.698 83.0633 273.25 82.605C272.802 82.1466 272.255 81.9175 271.609 81.9175H268.734C268.526 81.9175 268.422 82.0216 268.422 82.23V86.4956C268.422 86.7039 268.526 86.8081 268.734 86.8081H271.609C272.255 86.8081 272.802 86.5841 273.25 86.1362C273.698 85.6883 273.922 85.1466 273.922 84.5112ZM292.141 98.4019C292.141 98.6102 292.031 98.7144 291.812 98.7144H280.516C280.307 98.7144 280.203 98.6102 280.203 98.4019V78.8706C280.203 78.6623 280.307 78.5581 280.516 78.5581H283.562C283.781 78.5581 283.891 78.6623 283.891 78.8706V95.0269C283.891 95.2456 283.995 95.355 284.203 95.355H291.812C292.031 95.355 292.141 95.4591 292.141 95.6675V98.4019ZM307.75 93.3706C307.75 95.0789 307.203 96.4487 306.109 97.48C305.026 98.5112 303.589 99.0269 301.797 99.0269H300.234C298.443 99.0269 297 98.5112 295.906 97.48C294.823 96.4487 294.281 95.0789 294.281 93.3706V83.9019C294.281 82.1935 294.823 80.8237 295.906 79.7925C297 78.7508 298.443 78.23 300.234 78.23H301.797C303.589 78.23 305.026 78.7508 306.109 79.7925C307.203 80.8237 307.75 82.1935 307.75 83.9019V93.3706ZM304.078 93.3706V83.9019C304.078 83.2352 303.859 82.6831 303.422 82.2456C302.984 81.8081 302.443 81.5894 301.797 81.5894H300.234C299.589 81.5894 299.042 81.8133 298.594 82.2612C298.146 82.7091 297.922 83.256 297.922 83.9019V93.3706C297.922 94.006 298.146 94.5477 298.594 94.9956C299.042 95.4435 299.589 95.6675 300.234 95.6675H301.797C302.443 95.6675 302.984 95.4487 303.422 95.0112C303.859 94.5737 304.078 94.0269 304.078 93.3706ZM324.094 79.0269L318.5 89.5269V98.4019C318.5 98.6102 318.396 98.7144 318.188 98.7144H315.141C314.922 98.7144 314.812 98.6102 314.812 98.4019V89.5269L309.234 79.0269C309.182 78.9019 309.156 78.8289 309.156 78.8081C309.156 78.6414 309.276 78.5581 309.516 78.5581H313.062L313.344 78.7456L316.391 85.0112C316.453 85.1675 316.547 85.2456 316.672 85.2456C316.807 85.2456 316.906 85.1675 316.969 85.0112L320 78.7456L320.297 78.5581H323.812C324.052 78.5581 324.172 78.6414 324.172 78.8081C324.172 78.8289 324.146 78.9019 324.094 79.0269ZM342.078 98.4019C342.078 98.6102 341.974 98.7144 341.766 98.7144H338.812C338.604 98.7144 338.5 98.6102 338.5 98.4019L338.781 85.9175L335.172 95.7769C335.036 95.9019 334.938 95.9644 334.875 95.9644H333.25C333.125 95.9644 333.026 95.9019 332.953 95.7769L329.344 85.9175L329.625 98.4019C329.625 98.6102 329.521 98.7144 329.312 98.7144H326.328C326.12 98.7144 326.016 98.6102 326.016 98.4019V78.8706C326.016 78.6623 326.12 78.5581 326.328 78.5581H329.094C329.198 78.5789 329.292 78.6414 329.375 78.7456L334.047 91.4175L338.719 78.7456C338.823 78.6414 338.917 78.5789 339 78.5581H341.766C341.974 78.5581 342.078 78.6623 342.078 78.8706V98.4019ZM358.328 98.4019C358.328 98.6102 358.219 98.7144 358 98.7144H346.703C346.495 98.7144 346.391 98.6102 346.391 98.4019V78.8706C346.391 78.6623 346.495 78.5581 346.703 78.5581H358C358.219 78.5581 358.328 78.6623 358.328 78.8706V81.5894C358.328 81.8081 358.219 81.9175 358 81.9175H350.391C350.182 81.9175 350.078 82.0216 350.078 82.23V86.4956C350.078 86.7039 350.182 86.8081 350.391 86.8081H356.625C356.844 86.8081 356.953 86.9175 356.953 87.1362V89.855C356.953 90.0633 356.844 90.1675 356.625 90.1675H350.391C350.182 90.1675 350.078 90.2769 350.078 90.4956V95.0269C350.078 95.2456 350.182 95.355 350.391 95.355H358C358.219 95.355 358.328 95.4591 358.328 95.6675V98.4019ZM374.953 98.4019C374.953 98.6102 374.844 98.7144 374.625 98.7144H371.969L371.688 98.5581L365.125 85.6831L365.188 98.4019C365.188 98.6102 365.115 98.7144 364.969 98.7144H361.984C361.776 98.7144 361.672 98.6102 361.672 98.4019V78.8706C361.672 78.6623 361.776 78.5581 361.984 78.5581H364.688L364.969 78.7144L371.5 91.6987L371.438 78.8706C371.438 78.6623 371.521 78.5581 371.688 78.5581H374.625C374.844 78.5581 374.953 78.6623 374.953 78.8706V98.4019ZM389.5 81.5894C389.5 81.8081 389.391 81.9175 389.172 81.9175H385.688C385.479 81.9175 385.375 82.0216 385.375 82.23V98.4019C385.375 98.6102 385.266 98.7144 385.047 98.7144H382.047C381.828 98.7144 381.719 98.6102 381.719 98.4019V82.23C381.719 82.0216 381.615 81.9175 381.406 81.9175H377.906C377.698 81.9175 377.594 81.8081 377.594 81.5894V78.8706C377.594 78.6623 377.698 78.5581 377.906 78.5581H389.172C389.391 78.5581 389.5 78.6623 389.5 78.8706V81.5894Z" fill="white"/>
</g>
</g>
<rect x="93" y="310.5" width="434" height="596" stroke="black" stroke-width="4"/>
<rect x="95" y="312.654" width="430" height="592" fill="#D0D0D0"/>
<path d="M525 312.5H95V608.5L525 312.5Z" fill="#A72222"/>
<path d="M525 904.654V608.654L95 904.654H525Z" fill="#3C722E"/>
<line x1="310.5" y1="312.654" x2="310.5" y2="904.654" stroke="black" stroke-opacity="0.25" stroke-dasharray="2 2"/>
<line x1="95" y1="608.154" x2="525" y2="608.154" stroke="black" stroke-opacity="0.25" stroke-dasharray="2 2"/>
<ellipse cx="191.213" cy="451.502" rx="38.1625" ry="38.2109" fill="#0D4D6B"/>
<ellipse cx="191.213" cy="451.502" rx="8.0625" ry="8.07273" fill="black"/>
<path d="M191.406 446.662C192.24 446.699 194.161 446.99 194.813 448.845C195.365 450.428 194.318 452.215 194.536 452.458C195.388 453.421 194.23 454.954 194.069 455.082C193.782 455.307 192.873 454.846 193.017 455.086C193.121 455.265 193.223 456.606 193.225 456.636H192.942L192.806 456.159L192.563 456.155L192.519 456.633H192.028L191.983 456.175L191.819 456.152L191.795 456.63H191.403L191.382 456.138H191.058L191.037 456.63H190.638L190.614 456.152L190.45 456.175L190.406 456.633H189.914L189.87 456.155L189.628 456.159L189.491 456.636H189.208C189.21 456.607 189.308 455.265 189.416 455.086C189.56 454.846 188.652 455.31 188.365 455.082C188.205 454.959 187.041 453.425 187.898 452.458C188.113 452.218 187.058 450.431 187.614 448.845C188.263 446.99 190.187 446.699 191.017 446.662C191.017 446.662 191.085 446.658 191.208 446.658H191.215C191.334 446.658 191.406 446.662 191.406 446.662ZM191.249 453.951C191.178 453.988 191.116 454.029 191.072 454.074C190.713 454.422 190.703 454.898 190.717 455.133C190.717 455.164 190.758 455.178 190.779 455.154C190.826 455.092 190.894 455.021 190.987 454.956C191.082 454.887 191.178 454.842 191.249 454.815C191.321 454.842 191.416 454.884 191.512 454.956C191.601 455.021 191.672 455.092 191.72 455.154C191.74 455.178 191.778 455.167 191.781 455.133C191.795 454.901 191.789 454.419 191.427 454.074C191.379 454.03 191.321 453.988 191.249 453.951ZM188.743 452.779C188.501 452.864 188.426 453.005 188.406 453.046C188.273 453.322 188.447 453.766 188.905 454.049C188.915 454.056 188.928 454.06 188.942 454.063C189.15 454.091 189.669 454.135 190.195 453.844C190.413 453.725 190.573 453.582 190.686 453.459C190.727 453.411 190.713 453.339 190.658 453.308C190.437 453.196 190.16 453.076 189.836 452.977C189.437 452.854 189.075 452.799 188.784 452.772C188.771 452.772 188.757 452.776 188.743 452.779ZM193.658 452.775C193.368 452.802 193.007 452.857 192.608 452.98C192.283 453.076 192.01 453.196 191.784 453.312C191.73 453.34 191.717 453.411 191.757 453.459C191.87 453.578 192.031 453.726 192.249 453.845C192.771 454.135 193.289 454.091 193.501 454.064C193.515 454.061 193.526 454.057 193.539 454.05C194 453.77 194.174 453.325 194.037 453.049C194.017 453.007 193.938 452.867 193.699 452.782C193.686 452.775 193.672 452.772 193.658 452.775Z" fill="white"/>
<ellipse cx="428.25" cy="765.8" rx="38.1625" ry="38.2109" fill="#0D4D6B"/>
<ellipse cx="428.25" cy="765.8" rx="8.0625" ry="8.07273" fill="black"/>
<path d="M428.444 760.96C429.277 760.998 431.198 761.288 431.85 763.144C432.403 764.726 431.355 766.513 431.574 766.756C432.426 767.719 431.267 769.252 431.106 769.38C430.819 769.605 429.911 769.145 430.054 769.384C430.159 769.563 430.26 770.905 430.262 770.935H429.979L429.843 770.457L429.6 770.453L429.556 770.932H429.065L429.02 770.474L428.856 770.45L428.833 770.928H428.44L428.419 770.437H428.095L428.075 770.928H427.675L427.652 770.45L427.488 770.474L427.444 770.932H426.952L426.908 770.453L426.666 770.457L426.529 770.935H426.246C426.248 770.905 426.346 769.564 426.454 769.384C426.597 769.145 425.69 769.609 425.403 769.38C425.242 769.257 424.078 767.723 424.935 766.756C425.15 766.517 424.096 764.729 424.652 763.144C425.3 761.288 427.225 760.998 428.054 760.96C428.054 760.96 428.123 760.956 428.246 760.956H428.252C428.372 760.956 428.444 760.96 428.444 760.96ZM428.287 768.249C428.215 768.287 428.153 768.328 428.109 768.372C427.751 768.721 427.741 769.196 427.754 769.432C427.755 769.462 427.795 769.476 427.816 769.452C427.864 769.391 427.932 769.319 428.024 769.254C428.119 769.186 428.215 769.141 428.287 769.113C428.358 769.141 428.454 769.182 428.549 769.254C428.638 769.319 428.71 769.391 428.757 769.452C428.778 769.476 428.815 769.466 428.819 769.432C428.832 769.199 428.826 768.717 428.464 768.372C428.417 768.328 428.358 768.287 428.287 768.249ZM425.781 767.077C425.539 767.163 425.463 767.303 425.443 767.344C425.31 767.621 425.485 768.064 425.942 768.348C425.952 768.354 425.965 768.358 425.979 768.361C426.187 768.389 426.706 768.433 427.232 768.143C427.45 768.023 427.611 767.88 427.723 767.757C427.764 767.709 427.75 767.637 427.696 767.606C427.474 767.494 427.198 767.374 426.874 767.275C426.474 767.152 426.112 767.098 425.822 767.07C425.808 767.07 425.794 767.074 425.781 767.077ZM430.696 767.073C430.406 767.101 430.044 767.155 429.645 767.278C429.321 767.374 429.047 767.494 428.822 767.61C428.768 767.638 428.754 767.709 428.794 767.757C428.907 767.876 429.068 768.024 429.287 768.144C429.808 768.434 430.327 768.39 430.539 768.362C430.552 768.359 430.563 768.355 430.577 768.349C431.037 768.068 431.211 767.623 431.075 767.347C431.054 767.305 430.975 767.165 430.737 767.08C430.723 767.073 430.709 767.07 430.696 767.073Z" fill="white"/>
<ellipse cx="310.538" cy="608.116" rx="38.1625" ry="38.2109" fill="#0D4D6B"/>
<ellipse cx="310.538" cy="608.116" rx="8.0625" ry="8.07273" fill="black"/>
<path d="M310.731 603.276C311.564 603.313 313.486 603.604 314.138 605.459C314.69 607.042 313.643 608.829 313.861 609.072C314.713 610.035 313.555 611.568 313.394 611.696C313.107 611.921 312.198 611.46 312.342 611.7C312.446 611.879 312.548 613.22 312.55 613.25H312.267L312.131 612.773L311.888 612.769L311.844 613.247H311.353L311.308 612.789L311.144 612.766L311.12 613.244H310.728L310.707 612.752H310.383L310.362 613.244H309.963L309.939 612.766L309.775 612.789L309.731 613.247H309.239L309.195 612.769L308.953 612.773L308.816 613.25H308.533C308.535 613.221 308.633 611.879 308.741 611.7C308.885 611.46 307.977 611.924 307.69 611.696C307.53 611.573 306.366 610.039 307.223 609.072C307.438 608.832 306.383 607.045 306.939 605.459C307.588 603.604 309.512 603.313 310.342 603.276C310.342 603.276 310.41 603.272 310.533 603.272H310.54C310.659 603.272 310.731 603.276 310.731 603.276ZM310.574 610.565C310.503 610.602 310.441 610.643 310.396 610.688C310.038 611.036 310.028 611.512 310.042 611.747C310.042 611.778 310.083 611.792 310.104 611.768C310.151 611.706 310.219 611.635 310.312 611.57C310.407 611.501 310.503 611.456 310.574 611.429C310.646 611.456 310.741 611.498 310.837 611.57C310.926 611.635 310.997 611.706 311.045 611.768C311.065 611.792 311.103 611.781 311.106 611.747C311.12 611.515 311.114 611.033 310.752 610.688C310.704 610.643 310.646 610.602 310.574 610.565ZM308.068 609.393C307.826 609.478 307.751 609.619 307.73 609.66C307.598 609.936 307.772 610.38 308.229 610.663C308.24 610.67 308.253 610.674 308.267 610.677C308.475 610.704 308.994 610.749 309.52 610.458C309.738 610.339 309.898 610.196 310.011 610.073C310.052 610.025 310.038 609.953 309.983 609.922C309.762 609.81 309.485 609.69 309.161 609.591C308.762 609.468 308.399 609.413 308.109 609.386C308.096 609.386 308.082 609.39 308.068 609.393ZM312.983 609.389C312.693 609.416 312.332 609.471 311.933 609.594C311.608 609.69 311.335 609.81 311.109 609.926C311.055 609.954 311.041 610.025 311.082 610.073C311.195 610.192 311.356 610.34 311.574 610.459C312.096 610.749 312.614 610.705 312.826 610.678C312.84 610.675 312.851 610.671 312.864 610.664C313.325 610.384 313.499 609.939 313.362 609.662C313.342 609.621 313.263 609.481 313.024 609.396C313.011 609.389 312.997 609.386 312.983 609.389Z" fill="white"/>
<ellipse cx="170.788" cy="702.836" rx="38.1625" ry="38.2109" fill="#0D4D6B"/>
<ellipse cx="170.788" cy="702.836" rx="8.0625" ry="8.07273" fill="black"/>
<path d="M170.981 697.996C171.814 698.033 173.736 698.324 174.388 700.179C174.94 701.762 173.893 703.549 174.111 703.792C174.963 704.755 173.805 706.288 173.644 706.416C173.357 706.641 172.448 706.18 172.592 706.42C172.696 706.599 172.798 707.94 172.8 707.97H172.517L172.381 707.493L172.138 707.489L172.094 707.967H171.603L171.558 707.509L171.394 707.486L171.37 707.964H170.978L170.957 707.472H170.633L170.612 707.964H170.213L170.189 707.486L170.025 707.509L169.981 707.967H169.489L169.445 707.489L169.203 707.493L169.066 707.97H168.783C168.785 707.941 168.883 706.599 168.991 706.42C169.135 706.18 168.227 706.644 167.94 706.416C167.78 706.293 166.616 704.759 167.473 703.792C167.688 703.552 166.633 701.765 167.189 700.179C167.838 698.324 169.762 698.033 170.592 697.996C170.592 697.996 170.66 697.992 170.783 697.992H170.79C170.909 697.992 170.981 697.996 170.981 697.996ZM170.824 705.285C170.753 705.322 170.691 705.363 170.646 705.408C170.288 705.756 170.278 706.232 170.292 706.467C170.292 706.498 170.333 706.512 170.354 706.488C170.401 706.426 170.469 706.355 170.562 706.29C170.657 706.221 170.753 706.176 170.824 706.149C170.896 706.176 170.991 706.218 171.087 706.29C171.176 706.355 171.247 706.426 171.295 706.488C171.315 706.512 171.353 706.501 171.356 706.467C171.37 706.235 171.364 705.753 171.002 705.408C170.954 705.363 170.896 705.322 170.824 705.285ZM168.318 704.113C168.076 704.198 168.001 704.339 167.98 704.38C167.848 704.656 168.022 705.1 168.479 705.383C168.49 705.39 168.503 705.394 168.517 705.397C168.725 705.424 169.244 705.469 169.77 705.178C169.988 705.059 170.148 704.916 170.261 704.793C170.302 704.745 170.288 704.673 170.233 704.642C170.012 704.529 169.735 704.41 169.411 704.311C169.012 704.188 168.649 704.133 168.359 704.106C168.346 704.106 168.332 704.11 168.318 704.113ZM173.233 704.109C172.943 704.136 172.582 704.191 172.183 704.314C171.858 704.41 171.585 704.53 171.359 704.646C171.305 704.674 171.291 704.745 171.332 704.793C171.445 704.912 171.606 705.06 171.824 705.179C172.346 705.469 172.864 705.425 173.076 705.398C173.09 705.395 173.101 705.391 173.114 705.384C173.575 705.104 173.749 704.659 173.612 704.382C173.592 704.341 173.513 704.201 173.274 704.116C173.261 704.109 173.247 704.106 173.233 704.109Z" fill="white"/>
<ellipse cx="448.138" cy="513.396" rx="38.1625" ry="38.2109" fill="#0D4D6B"/>
<ellipse cx="448.138" cy="513.396" rx="8.0625" ry="8.07273" fill="black"/>
<path d="M448.332 508.556C449.165 508.593 451.086 508.884 451.738 510.739C452.29 512.322 451.243 514.109 451.461 514.352C452.313 515.315 451.155 516.848 450.994 516.976C450.707 517.201 449.799 516.74 449.942 516.98C450.046 517.159 450.148 518.5 450.15 518.53H449.867L449.731 518.053L449.488 518.049L449.444 518.527H448.953L448.908 518.069L448.744 518.046L448.72 518.523H448.328L448.307 518.032H447.983L447.962 518.523H447.563L447.54 518.046L447.375 518.069L447.332 518.527H446.839L446.795 518.049L446.553 518.053L446.416 518.53H446.133C446.135 518.501 446.233 517.159 446.341 516.98C446.485 516.74 445.577 517.204 445.291 516.976C445.13 516.853 443.966 515.319 444.823 514.352C445.038 514.112 443.983 512.325 444.54 510.739C445.188 508.884 447.112 508.593 447.942 508.556C447.942 508.556 448.01 508.552 448.133 508.552H448.14C448.259 508.552 448.332 508.556 448.332 508.556ZM448.174 515.845C448.103 515.882 448.041 515.923 447.997 515.968C447.638 516.316 447.628 516.792 447.642 517.027C447.642 517.058 447.683 517.072 447.704 517.048C447.751 516.986 447.819 516.915 447.912 516.85C448.007 516.781 448.103 516.736 448.174 516.709C448.246 516.736 448.341 516.778 448.437 516.85C448.526 516.915 448.597 516.986 448.645 517.048C448.665 517.072 448.703 517.061 448.707 517.027C448.72 516.795 448.714 516.313 448.352 515.968C448.304 515.923 448.246 515.882 448.174 515.845ZM445.668 514.673C445.426 514.758 445.351 514.899 445.331 514.94C445.198 515.216 445.372 515.66 445.83 515.943C445.84 515.95 445.853 515.954 445.867 515.957C446.075 515.984 446.594 516.029 447.12 515.738C447.338 515.619 447.498 515.476 447.611 515.353C447.652 515.305 447.638 515.233 447.583 515.202C447.362 515.089 447.085 514.97 446.761 514.871C446.362 514.748 446 514.693 445.709 514.666C445.696 514.666 445.682 514.67 445.668 514.673ZM450.583 514.669C450.293 514.696 449.932 514.751 449.533 514.874C449.208 514.97 448.935 515.09 448.709 515.206C448.655 515.234 448.642 515.305 448.682 515.353C448.795 515.472 448.956 515.62 449.174 515.739C449.696 516.029 450.214 515.985 450.426 515.958C450.44 515.955 450.451 515.951 450.464 515.944C450.925 515.664 451.099 515.219 450.962 514.942C450.942 514.901 450.863 514.761 450.624 514.676C450.611 514.669 450.597 514.666 450.583 514.669Z" fill="white"/>
<path d="M428 774L422.226 784L433.774 784L428 774ZM428 905L433.773 895L422.226 895L428 905ZM428 783L427 783L427 896L428 896L429 896L429 783L428 783Z" fill="white"/>
<path d="M443.793 844.551C443.793 844.708 443.715 844.786 443.559 844.786H435.801C435.645 844.786 435.566 844.708 435.566 844.551V842.5C435.566 842.344 435.645 842.266 435.801 842.266H438.062C438.219 842.266 438.297 842.184 438.297 842.02V834.989C438.297 834.817 438.227 834.731 438.086 834.731C438.016 834.731 437.949 834.762 437.887 834.825L437.172 835.575C437.109 835.637 437.055 835.668 437.008 835.668C436.953 835.668 436.895 835.637 436.832 835.575L435.344 834.11C435.281 834.04 435.25 833.981 435.25 833.934C435.25 833.887 435.281 833.833 435.344 833.77L439.352 829.739L439.527 829.668H440.816C440.98 829.668 441.062 829.747 441.062 829.903V842.02C441.062 842.184 441.141 842.266 441.297 842.266H443.559C443.715 842.266 443.793 842.344 443.793 842.5V844.551ZM456.918 841.235C456.918 841.391 456.836 841.469 456.672 841.469H455.113C454.957 841.469 454.879 841.551 454.879 841.715V844.551C454.879 844.708 454.797 844.786 454.633 844.786H452.359C452.195 844.786 452.113 844.708 452.113 844.551V841.715C452.113 841.551 452.035 841.469 451.879 841.469H446.207C446.051 841.469 445.973 841.391 445.973 841.235V839.196L452.43 829.668H454.633C454.797 829.668 454.879 829.747 454.879 829.903V838.715C454.879 838.872 454.957 838.95 455.113 838.95H456.672C456.836 838.95 456.918 839.032 456.918 839.196V841.235ZM452.113 838.715V834.989C452.113 834.801 452.043 834.708 451.902 834.708C451.824 834.708 451.75 834.754 451.68 834.848L449.207 838.575C449.16 838.653 449.137 838.715 449.137 838.762C449.137 838.887 449.227 838.95 449.406 838.95H451.879C452.035 838.95 452.113 838.872 452.113 838.715ZM465.004 831.567C465.004 832.856 464.715 833.836 464.137 834.508C463.527 835.235 463.031 835.598 462.648 835.598C462.586 835.598 462.531 835.547 462.484 835.446L461.816 834.227C461.777 834.165 461.758 834.125 461.758 834.11C461.758 834.04 461.816 833.965 461.934 833.887C462.527 833.442 462.824 833.02 462.824 832.622C462.824 832.442 462.742 832.352 462.578 832.352H462.367C462.203 832.352 462.121 832.274 462.121 832.118V829.903C462.121 829.747 462.203 829.668 462.367 829.668H464.758C464.922 829.668 465.004 829.747 465.004 829.903V831.567ZM461.23 831.567C461.23 832.856 460.93 833.852 460.328 834.555C459.734 835.25 459.246 835.598 458.863 835.598C458.793 835.598 458.734 835.547 458.688 835.446L458.066 834.25C458.035 834.188 458.02 834.141 458.02 834.11C458.02 834.094 458.191 833.938 458.535 833.641C458.879 833.344 459.051 833.004 459.051 832.622C459.051 832.442 458.973 832.352 458.816 832.352H458.617C458.461 832.352 458.383 832.274 458.383 832.118V829.903C458.383 829.747 458.461 829.668 458.617 829.668H460.996C461.152 829.668 461.23 829.747 461.23 829.903V831.567Z" fill="white"/>
<path d="M436 766L446 771.774V760.226L436 766ZM525 766L515 760.226V771.774L525 766ZM445 766V767H516V766V765H445V766Z" fill="white"/>
<path d="M472.793 761.908C472.793 762.065 472.715 762.143 472.559 762.143H464.801C464.645 762.143 464.566 762.065 464.566 761.908V759.858C464.566 759.701 464.645 759.623 464.801 759.623H467.062C467.219 759.623 467.297 759.541 467.297 759.377V752.346C467.297 752.174 467.227 752.088 467.086 752.088C467.016 752.088 466.949 752.119 466.887 752.182L466.172 752.932C466.109 752.994 466.055 753.026 466.008 753.026C465.953 753.026 465.895 752.994 465.832 752.932L464.344 751.467C464.281 751.397 464.25 751.338 464.25 751.291C464.25 751.244 464.281 751.19 464.344 751.127L468.352 747.096L468.527 747.026H469.816C469.98 747.026 470.062 747.104 470.062 747.26V759.377C470.062 759.541 470.141 759.623 470.297 759.623H472.559C472.715 759.623 472.793 759.701 472.793 759.858V761.908ZM485.238 758.135C485.238 759.401 484.828 760.424 484.008 761.205C483.195 761.987 482.117 762.377 480.773 762.377H480.082C478.738 762.377 477.656 761.99 476.836 761.217C476.023 760.444 475.617 759.416 475.617 758.135V751.033C475.617 749.752 476.023 748.725 476.836 747.951C477.656 747.17 478.738 746.78 480.082 746.78H480.773C482.117 746.78 483.195 747.17 484.008 747.951C484.828 748.725 485.238 749.752 485.238 751.033V758.135ZM482.484 758.135V751.033C482.484 750.533 482.32 750.119 481.992 749.791C481.664 749.463 481.258 749.299 480.773 749.299H480.082C479.598 749.299 479.188 749.467 478.852 749.803C478.516 750.139 478.348 750.549 478.348 751.033V758.135C478.348 758.612 478.516 759.018 478.852 759.354C479.188 759.69 479.598 759.858 480.082 759.858H480.773C481.258 759.858 481.664 759.694 481.992 759.365C482.32 759.037 482.484 758.627 482.484 758.135ZM494.004 748.924C494.004 750.213 493.715 751.194 493.137 751.865C492.527 752.592 492.031 752.955 491.648 752.955C491.586 752.955 491.531 752.905 491.484 752.803L490.816 751.584C490.777 751.522 490.758 751.483 490.758 751.467C490.758 751.397 490.816 751.323 490.934 751.244C491.527 750.799 491.824 750.377 491.824 749.979C491.824 749.799 491.742 749.709 491.578 749.709H491.367C491.203 749.709 491.121 749.631 491.121 749.475V747.26C491.121 747.104 491.203 747.026 491.367 747.026H493.758C493.922 747.026 494.004 747.104 494.004 747.26V748.924ZM490.23 748.924C490.23 750.213 489.93 751.209 489.328 751.912C488.734 752.608 488.246 752.955 487.863 752.955C487.793 752.955 487.734 752.905 487.688 752.803L487.066 751.608C487.035 751.545 487.02 751.498 487.02 751.467C487.02 751.451 487.191 751.295 487.535 750.998C487.879 750.701 488.051 750.362 488.051 749.979C488.051 749.799 487.973 749.709 487.816 749.709H487.617C487.461 749.709 487.383 749.631 487.383 749.475V747.26C487.383 747.104 487.461 747.026 487.617 747.026H489.996C490.152 747.026 490.23 747.104 490.23 747.26V748.924Z" fill="white"/>
<path d="M191 313L185.226 323L196.774 323L191 313ZM191 444L196.773 434L185.226 434L191 444ZM191 322L190 322L190 435L191 435L192 435L192 322L191 322Z" fill="white"/>
<path d="M206.793 383.551C206.793 383.708 206.715 383.786 206.559 383.786H198.801C198.645 383.786 198.566 383.708 198.566 383.551V381.5C198.566 381.344 198.645 381.266 198.801 381.266H201.062C201.219 381.266 201.297 381.184 201.297 381.02V373.989C201.297 373.817 201.227 373.731 201.086 373.731C201.016 373.731 200.949 373.762 200.887 373.825L200.172 374.575C200.109 374.637 200.055 374.668 200.008 374.668C199.953 374.668 199.895 374.637 199.832 374.575L198.344 373.11C198.281 373.04 198.25 372.981 198.25 372.934C198.25 372.887 198.281 372.833 198.344 372.77L202.352 368.739L202.527 368.668H203.816C203.98 368.668 204.062 368.747 204.062 368.903V381.02C204.062 381.184 204.141 381.266 204.297 381.266H206.559C206.715 381.266 206.793 381.344 206.793 381.5V383.551ZM219.918 380.235C219.918 380.391 219.836 380.469 219.672 380.469H218.113C217.957 380.469 217.879 380.551 217.879 380.715V383.551C217.879 383.708 217.797 383.786 217.633 383.786H215.359C215.195 383.786 215.113 383.708 215.113 383.551V380.715C215.113 380.551 215.035 380.469 214.879 380.469H209.207C209.051 380.469 208.973 380.391 208.973 380.235V378.196L215.43 368.668H217.633C217.797 368.668 217.879 368.747 217.879 368.903V377.715C217.879 377.872 217.957 377.95 218.113 377.95H219.672C219.836 377.95 219.918 378.032 219.918 378.196V380.235ZM215.113 377.715V373.989C215.113 373.801 215.043 373.708 214.902 373.708C214.824 373.708 214.75 373.754 214.68 373.848L212.207 377.575C212.16 377.653 212.137 377.715 212.137 377.762C212.137 377.887 212.227 377.95 212.406 377.95H214.879C215.035 377.95 215.113 377.872 215.113 377.715ZM228.004 370.567C228.004 371.856 227.715 372.836 227.137 373.508C226.527 374.235 226.031 374.598 225.648 374.598C225.586 374.598 225.531 374.547 225.484 374.446L224.816 373.227C224.777 373.165 224.758 373.125 224.758 373.11C224.758 373.04 224.816 372.965 224.934 372.887C225.527 372.442 225.824 372.02 225.824 371.622C225.824 371.442 225.742 371.352 225.578 371.352H225.367C225.203 371.352 225.121 371.274 225.121 371.118V368.903C225.121 368.747 225.203 368.668 225.367 368.668H227.758C227.922 368.668 228.004 368.747 228.004 368.903V370.567ZM224.23 370.567C224.23 371.856 223.93 372.852 223.328 373.555C222.734 374.25 222.246 374.598 221.863 374.598C221.793 374.598 221.734 374.547 221.688 374.446L221.066 373.25C221.035 373.188 221.02 373.141 221.02 373.11C221.02 373.094 221.191 372.938 221.535 372.641C221.879 372.344 222.051 372.004 222.051 371.622C222.051 371.442 221.973 371.352 221.816 371.352H221.617C221.461 371.352 221.383 371.274 221.383 371.118V368.903C221.383 368.747 221.461 368.668 221.617 368.668H223.996C224.152 368.668 224.23 368.747 224.23 368.903V370.567Z" fill="white"/>
<path d="M95 452L105 457.774V446.226L95 452ZM183 452L173 446.226V457.774L183 452ZM104 452V453H174V452V451H104V452Z" fill="white"/>
<path d="M131.793 447.908C131.793 448.065 131.715 448.143 131.559 448.143H123.801C123.645 448.143 123.566 448.065 123.566 447.908V445.858C123.566 445.701 123.645 445.623 123.801 445.623H126.062C126.219 445.623 126.297 445.541 126.297 445.377V438.346C126.297 438.174 126.227 438.088 126.086 438.088C126.016 438.088 125.949 438.119 125.887 438.182L125.172 438.932C125.109 438.994 125.055 439.026 125.008 439.026C124.953 439.026 124.895 438.994 124.832 438.932L123.344 437.467C123.281 437.397 123.25 437.338 123.25 437.291C123.25 437.244 123.281 437.19 123.344 437.127L127.352 433.096L127.527 433.026H128.816C128.98 433.026 129.062 433.104 129.062 433.26V445.377C129.062 445.541 129.141 445.623 129.297 445.623H131.559C131.715 445.623 131.793 445.701 131.793 445.858V447.908ZM144.238 444.135C144.238 445.401 143.828 446.424 143.008 447.205C142.195 447.987 141.117 448.377 139.773 448.377H139.082C137.738 448.377 136.656 447.99 135.836 447.217C135.023 446.444 134.617 445.416 134.617 444.135V437.033C134.617 435.752 135.023 434.725 135.836 433.951C136.656 433.17 137.738 432.78 139.082 432.78H139.773C141.117 432.78 142.195 433.17 143.008 433.951C143.828 434.725 144.238 435.752 144.238 437.033V444.135ZM141.484 444.135V437.033C141.484 436.533 141.32 436.119 140.992 435.791C140.664 435.463 140.258 435.299 139.773 435.299H139.082C138.598 435.299 138.188 435.467 137.852 435.803C137.516 436.139 137.348 436.549 137.348 437.033V444.135C137.348 444.612 137.516 445.018 137.852 445.354C138.188 445.69 138.598 445.858 139.082 445.858H139.773C140.258 445.858 140.664 445.694 140.992 445.365C141.32 445.037 141.484 444.627 141.484 444.135ZM153.004 434.924C153.004 436.213 152.715 437.194 152.137 437.865C151.527 438.592 151.031 438.955 150.648 438.955C150.586 438.955 150.531 438.905 150.484 438.803L149.816 437.584C149.777 437.522 149.758 437.483 149.758 437.467C149.758 437.397 149.816 437.323 149.934 437.244C150.527 436.799 150.824 436.377 150.824 435.979C150.824 435.799 150.742 435.709 150.578 435.709H150.367C150.203 435.709 150.121 435.631 150.121 435.475V433.26C150.121 433.104 150.203 433.026 150.367 433.026H152.758C152.922 433.026 153.004 433.104 153.004 433.26V434.924ZM149.23 434.924C149.23 436.213 148.93 437.209 148.328 437.912C147.734 438.608 147.246 438.955 146.863 438.955C146.793 438.955 146.734 438.905 146.688 438.803L146.066 437.608C146.035 437.545 146.02 437.498 146.02 437.467C146.02 437.451 146.191 437.295 146.535 436.998C146.879 436.701 147.051 436.362 147.051 435.979C147.051 435.799 146.973 435.709 146.816 435.709H146.617C146.461 435.709 146.383 435.631 146.383 435.475V433.26C146.383 433.104 146.461 433.026 146.617 433.026H148.996C149.152 433.026 149.23 433.104 149.23 433.26V434.924Z" fill="white"/>
<path d="M171 710L165.226 720L176.774 720L171 710ZM171 905L176.773 895L165.226 895L171 905ZM171 719L170 719L170 896L171 896L172 896L172 719L171 719Z" fill="black"/>
<path d="M182.445 765.422C183.789 765.422 184.867 765.813 185.68 766.594C186.5 767.368 186.91 768.395 186.91 769.676C186.91 770.809 186.574 771.778 185.902 772.583C185.395 773.184 184.449 773.918 183.066 774.786C182.145 775.364 181.531 775.813 181.227 776.133C180.773 776.61 180.547 777.161 180.547 777.786V778.02C180.547 778.184 180.629 778.266 180.793 778.266H186.5C186.664 778.266 186.746 778.344 186.746 778.5V780.551C186.746 780.708 186.664 780.786 186.5 780.786H178.027C177.871 780.786 177.793 780.708 177.793 780.551V777.786C177.793 776.567 178.145 775.512 178.848 774.622C179.473 773.817 180.512 772.993 181.965 772.149C182.77 771.68 183.316 771.293 183.605 770.989C183.988 770.606 184.18 770.168 184.18 769.676C184.18 769.192 184.008 768.782 183.664 768.446C183.32 768.11 182.914 767.942 182.445 767.942H181.578C181.023 767.942 180.578 768.2 180.242 768.715C180.195 768.793 180.082 768.985 179.902 769.29C179.824 769.446 179.754 769.524 179.691 769.524C179.691 769.524 179.641 769.508 179.539 769.477L177.477 768.422C177.383 768.375 177.336 768.321 177.336 768.258C177.336 767.875 177.703 767.309 178.438 766.559C179.172 765.801 180.219 765.422 181.578 765.422H182.445ZM199.238 776.778C199.238 778.043 198.828 779.067 198.008 779.848C197.195 780.629 196.117 781.02 194.773 781.02H194.082C192.738 781.02 191.656 780.633 190.836 779.86C190.023 779.086 189.617 778.059 189.617 776.778V769.676C189.617 768.395 190.023 767.368 190.836 766.594C191.656 765.813 192.738 765.422 194.082 765.422H194.773C196.117 765.422 197.195 765.813 198.008 766.594C198.828 767.368 199.238 768.395 199.238 769.676V776.778ZM196.484 776.778V769.676C196.484 769.176 196.32 768.762 195.992 768.434C195.664 768.106 195.258 767.942 194.773 767.942H194.082C193.598 767.942 193.188 768.11 192.852 768.446C192.516 768.782 192.348 769.192 192.348 769.676V776.778C192.348 777.254 192.516 777.661 192.852 777.997C193.188 778.333 193.598 778.5 194.082 778.5H194.773C195.258 778.5 195.664 778.336 195.992 778.008C196.32 777.68 196.484 777.27 196.484 776.778ZM208.004 767.567C208.004 768.856 207.715 769.836 207.137 770.508C206.527 771.235 206.031 771.598 205.648 771.598C205.586 771.598 205.531 771.547 205.484 771.446L204.816 770.227C204.777 770.165 204.758 770.125 204.758 770.11C204.758 770.04 204.816 769.965 204.934 769.887C205.527 769.442 205.824 769.02 205.824 768.622C205.824 768.442 205.742 768.352 205.578 768.352H205.367C205.203 768.352 205.121 768.274 205.121 768.118V765.903C205.121 765.747 205.203 765.668 205.367 765.668H207.758C207.922 765.668 208.004 765.747 208.004 765.903V767.567ZM204.23 767.567C204.23 768.856 203.93 769.852 203.328 770.555C202.734 771.25 202.246 771.598 201.863 771.598C201.793 771.598 201.734 771.547 201.688 771.446L201.066 770.25C201.035 770.188 201.02 770.141 201.02 770.11C201.02 770.094 201.191 769.938 201.535 769.641C201.879 769.344 202.051 769.004 202.051 768.622C202.051 768.442 201.973 768.352 201.816 768.352H201.617C201.461 768.352 201.383 768.274 201.383 768.118V765.903C201.383 765.747 201.461 765.668 201.617 765.668H203.996C204.152 765.668 204.23 765.747 204.23 765.903V767.567Z" fill="black"/>
<path d="M95 703L105 708.774V697.226L95 703ZM163 703L153 697.226V708.774L163 703ZM104 703V704H154V703V702H104V703Z" fill="black"/>
<path d="M118.156 694.948C118.156 696.307 117.75 697.385 116.938 698.182C116.133 698.979 115.051 699.377 113.691 699.377H113C111.625 699.377 110.535 698.983 109.73 698.194C108.934 697.405 108.535 696.323 108.535 694.948V694.362C108.535 693.729 108.734 693.123 109.133 692.545C109.648 691.811 109.906 691.459 109.906 691.49C109.906 691.49 109.633 691.119 109.086 690.377C108.719 689.885 108.535 689.334 108.535 688.725V688.268C108.535 686.893 108.934 685.803 109.73 684.998C110.535 684.186 111.625 683.78 113 683.78H113.691C115.051 683.78 116.133 684.19 116.938 685.01C117.75 685.823 118.156 686.908 118.156 688.268V688.725C118.156 689.334 117.973 689.885 117.605 690.377C117.066 691.119 116.797 691.49 116.797 691.49C116.797 691.459 117.051 691.811 117.559 692.545C117.957 693.123 118.156 693.729 118.156 694.362V694.948ZM115.402 688.49V688.033C115.402 687.533 115.238 687.119 114.91 686.791C114.582 686.463 114.176 686.299 113.691 686.299H113C112.516 686.299 112.105 686.467 111.77 686.803C111.434 687.139 111.266 687.549 111.266 688.033V688.49C111.266 688.967 111.434 689.373 111.77 689.709C112.105 690.045 112.516 690.213 113 690.213H113.691C114.176 690.213 114.582 690.049 114.91 689.721C115.238 689.393 115.402 688.983 115.402 688.49ZM115.402 695.135V694.444C115.402 693.959 115.238 693.553 114.91 693.225C114.582 692.897 114.176 692.733 113.691 692.733H113C112.5 692.733 112.086 692.897 111.758 693.225C111.43 693.553 111.266 693.959 111.266 694.444V695.135C111.266 695.612 111.434 696.018 111.77 696.354C112.105 696.69 112.516 696.858 113 696.858H113.691C114.176 696.858 114.582 696.694 114.91 696.365C115.238 696.037 115.402 695.627 115.402 695.135ZM126.922 685.924C126.922 687.213 126.633 688.194 126.055 688.865C125.445 689.592 124.949 689.955 124.566 689.955C124.504 689.955 124.449 689.905 124.402 689.803L123.734 688.584C123.695 688.522 123.676 688.483 123.676 688.467C123.676 688.397 123.734 688.323 123.852 688.244C124.445 687.799 124.742 687.377 124.742 686.979C124.742 686.799 124.66 686.709 124.496 686.709H124.285C124.121 686.709 124.039 686.631 124.039 686.475V684.26C124.039 684.104 124.121 684.026 124.285 684.026H126.676C126.84 684.026 126.922 684.104 126.922 684.26V685.924ZM123.148 685.924C123.148 687.213 122.848 688.209 122.246 688.912C121.652 689.608 121.164 689.955 120.781 689.955C120.711 689.955 120.652 689.905 120.605 689.803L119.984 688.608C119.953 688.545 119.938 688.498 119.938 688.467C119.938 688.451 120.109 688.295 120.453 687.998C120.797 687.701 120.969 687.362 120.969 686.979C120.969 686.799 120.891 686.709 120.734 686.709H120.535C120.379 686.709 120.301 686.631 120.301 686.475V684.26C120.301 684.104 120.379 684.026 120.535 684.026H122.914C123.07 684.026 123.148 684.104 123.148 684.26V685.924Z" fill="black"/>
<path d="M448 313L442.226 323L453.774 323L448 313ZM448 506L453.773 496L442.226 496L448 506ZM448 322L447 322L447 497L448 497L449 497L449 322L448 322Z" fill="black"/>
<path d="M459.445 423.422C460.789 423.422 461.867 423.813 462.68 424.594C463.5 425.368 463.91 426.395 463.91 427.676C463.91 428.809 463.574 429.778 462.902 430.583C462.395 431.184 461.449 431.918 460.066 432.786C459.145 433.364 458.531 433.813 458.227 434.133C457.773 434.61 457.547 435.161 457.547 435.786V436.02C457.547 436.184 457.629 436.266 457.793 436.266H463.5C463.664 436.266 463.746 436.344 463.746 436.5V438.551C463.746 438.708 463.664 438.786 463.5 438.786H455.027C454.871 438.786 454.793 438.708 454.793 438.551V435.786C454.793 434.567 455.145 433.512 455.848 432.622C456.473 431.817 457.512 430.993 458.965 430.149C459.77 429.68 460.316 429.293 460.605 428.989C460.988 428.606 461.18 428.168 461.18 427.676C461.18 427.192 461.008 426.782 460.664 426.446C460.32 426.11 459.914 425.942 459.445 425.942H458.578C458.023 425.942 457.578 426.2 457.242 426.715C457.195 426.793 457.082 426.985 456.902 427.29C456.824 427.446 456.754 427.524 456.691 427.524C456.691 427.524 456.641 427.508 456.539 427.477L454.477 426.422C454.383 426.375 454.336 426.321 454.336 426.258C454.336 425.875 454.703 425.309 455.438 424.559C456.172 423.801 457.219 423.422 458.578 423.422H459.445ZM476.238 434.778C476.238 436.043 475.828 437.067 475.008 437.848C474.195 438.629 473.117 439.02 471.773 439.02H471.082C469.738 439.02 468.656 438.633 467.836 437.86C467.023 437.086 466.617 436.059 466.617 434.778V427.676C466.617 426.395 467.023 425.368 467.836 424.594C468.656 423.813 469.738 423.422 471.082 423.422H471.773C473.117 423.422 474.195 423.813 475.008 424.594C475.828 425.368 476.238 426.395 476.238 427.676V434.778ZM473.484 434.778V427.676C473.484 427.176 473.32 426.762 472.992 426.434C472.664 426.106 472.258 425.942 471.773 425.942H471.082C470.598 425.942 470.188 426.11 469.852 426.446C469.516 426.782 469.348 427.192 469.348 427.676V434.778C469.348 435.254 469.516 435.661 469.852 435.997C470.188 436.333 470.598 436.5 471.082 436.5H471.773C472.258 436.5 472.664 436.336 472.992 436.008C473.32 435.68 473.484 435.27 473.484 434.778ZM485.004 425.567C485.004 426.856 484.715 427.836 484.137 428.508C483.527 429.235 483.031 429.598 482.648 429.598C482.586 429.598 482.531 429.547 482.484 429.446L481.816 428.227C481.777 428.165 481.758 428.125 481.758 428.11C481.758 428.04 481.816 427.965 481.934 427.887C482.527 427.442 482.824 427.02 482.824 426.622C482.824 426.442 482.742 426.352 482.578 426.352H482.367C482.203 426.352 482.121 426.274 482.121 426.118V423.903C482.121 423.747 482.203 423.668 482.367 423.668H484.758C484.922 423.668 485.004 423.747 485.004 423.903V425.567ZM481.23 425.567C481.23 426.856 480.93 427.852 480.328 428.555C479.734 429.25 479.246 429.598 478.863 429.598C478.793 429.598 478.734 429.547 478.688 429.446L478.066 428.25C478.035 428.188 478.02 428.141 478.02 428.11C478.02 428.094 478.191 427.938 478.535 427.641C478.879 427.344 479.051 427.004 479.051 426.622C479.051 426.442 478.973 426.352 478.816 426.352H478.617C478.461 426.352 478.383 426.274 478.383 426.118V423.903C478.383 423.747 478.461 423.668 478.617 423.668H480.996C481.152 423.668 481.23 423.747 481.23 423.903V425.567Z" fill="black"/>
<path d="M456 513L466 518.774L466 507.226L456 513ZM525 513L515 507.227L515 518.774L525 513ZM465 513L465 514L516 514L516 513L516 512L465 512L465 513Z" fill="black"/>
<path d="M505.156 504.948C505.156 506.307 504.75 507.385 503.938 508.182C503.133 508.979 502.051 509.377 500.691 509.377H500C498.625 509.377 497.535 508.983 496.73 508.194C495.934 507.405 495.535 506.323 495.535 504.948V504.362C495.535 503.729 495.734 503.123 496.133 502.545C496.648 501.811 496.906 501.459 496.906 501.49C496.906 501.49 496.633 501.119 496.086 500.377C495.719 499.885 495.535 499.334 495.535 498.725V498.268C495.535 496.893 495.934 495.803 496.73 494.998C497.535 494.186 498.625 493.78 500 493.78H500.691C502.051 493.78 503.133 494.19 503.938 495.01C504.75 495.823 505.156 496.908 505.156 498.268V498.725C505.156 499.334 504.973 499.885 504.605 500.377C504.066 501.119 503.797 501.49 503.797 501.49C503.797 501.459 504.051 501.811 504.559 502.545C504.957 503.123 505.156 503.729 505.156 504.362V504.948ZM502.402 498.49V498.033C502.402 497.533 502.238 497.119 501.91 496.791C501.582 496.463 501.176 496.299 500.691 496.299H500C499.516 496.299 499.105 496.467 498.77 496.803C498.434 497.139 498.266 497.549 498.266 498.033V498.49C498.266 498.967 498.434 499.373 498.77 499.709C499.105 500.045 499.516 500.213 500 500.213H500.691C501.176 500.213 501.582 500.049 501.91 499.721C502.238 499.393 502.402 498.983 502.402 498.49ZM502.402 505.135V504.444C502.402 503.959 502.238 503.553 501.91 503.225C501.582 502.897 501.176 502.733 500.691 502.733H500C499.5 502.733 499.086 502.897 498.758 503.225C498.43 503.553 498.266 503.959 498.266 504.444V505.135C498.266 505.612 498.434 506.018 498.77 506.354C499.105 506.69 499.516 506.858 500 506.858H500.691C501.176 506.858 501.582 506.694 501.91 506.365C502.238 506.037 502.402 505.627 502.402 505.135ZM513.922 495.924C513.922 497.213 513.633 498.194 513.055 498.865C512.445 499.592 511.949 499.955 511.566 499.955C511.504 499.955 511.449 499.905 511.402 499.803L510.734 498.584C510.695 498.522 510.676 498.483 510.676 498.467C510.676 498.397 510.734 498.323 510.852 498.244C511.445 497.799 511.742 497.377 511.742 496.979C511.742 496.799 511.66 496.709 511.496 496.709H511.285C511.121 496.709 511.039 496.631 511.039 496.475V494.26C511.039 494.104 511.121 494.026 511.285 494.026H513.676C513.84 494.026 513.922 494.104 513.922 494.26V495.924ZM510.148 495.924C510.148 497.213 509.848 498.209 509.246 498.912C508.652 499.608 508.164 499.955 507.781 499.955C507.711 499.955 507.652 499.905 507.605 499.803L506.984 498.608C506.953 498.545 506.938 498.498 506.938 498.467C506.938 498.451 507.109 498.295 507.453 497.998C507.797 497.701 507.969 497.362 507.969 496.979C507.969 496.799 507.891 496.709 507.734 496.709H507.535C507.379 496.709 507.301 496.631 507.301 496.475V494.26C507.301 494.104 507.379 494.026 507.535 494.026H509.914C510.07 494.026 510.148 494.104 510.148 494.26V495.924Z" fill="black"/>
<path d="M327.181 926L311.548 919.487C311.071 919.289 310.561 919.188 310.045 919.188C309.53 919.188 309.019 919.289 308.543 919.487L292.91 926C291.453 926.603 290.5 928.028 290.5 929.607C290.5 945.77 299.823 956.941 308.535 960.572C309.496 960.971 310.579 960.971 311.539 960.572C318.517 957.665 329.583 947.626 329.583 929.607C329.583 928.028 328.63 926.603 327.181 926ZM310.049 955.524L310.041 924.502L324.363 930.471C324.095 942.798 317.679 951.73 310.049 955.524Z" fill="#3C722E"/>
<g clip-path="url(#clip2_121_6634)">
<path d="M297.828 257.5L306.587 266.259L299.259 273.587L290.5 264.828V257.5H297.828Z" fill="#A72222"/>
<path d="M306.883 287.527L310.547 291.191L307.093 294.646L301.492 289.045L297.822 292.715C297.826 292.782 297.828 292.85 297.828 292.919C297.828 294.942 296.188 296.583 294.164 296.583C292.14 296.583 290.5 294.942 290.5 292.919C290.5 290.895 292.14 289.255 294.164 289.255C294.232 289.255 294.3 289.256 294.368 289.26L298.038 285.591L292.437 279.99L295.891 276.535L299.555 280.199L322.255 257.5H329.583V264.828L306.883 287.527Z" fill="#A72222"/>
<path d="M325.919 296.582C323.895 296.582 322.255 294.942 322.255 292.919C322.255 292.85 322.257 292.782 322.26 292.715L315.136 285.591L324.191 276.535L327.646 279.99L322.045 285.591L325.715 289.26C325.782 289.256 325.85 289.255 325.919 289.255C327.942 289.255 329.583 290.895 329.583 292.919C329.583 294.942 327.942 296.582 325.919 296.582Z" fill="#A72222"/>
</g>
<defs>
<clipPath id="clip0_121_6634">
<rect width="620" height="1063" fill="white"/>
</clipPath>
<clipPath id="clip1_121_6634">
<rect width="620" height="197" fill="white"/>
</clipPath>
<clipPath id="clip2_121_6634">
<rect width="39.0825" height="39.0825" fill="white" transform="translate(290.5 257.5)"/>
</clipPath>
</defs>
</svg>
