<svg width="620" height="1063" viewBox="0 0 620 1063" fill="none" xmlns="http://www.w3.org/2000/svg">
<g clip-path="url(#clip0_121_6670)">
<rect y="197" width="620" height="866" fill="#DEDEDE"/>
<g clip-path="url(#clip1_121_6670)">
<rect width="620" height="197" fill="#0D4D6B"/>
<path d="M208.883 143.07C208.883 145.789 208.078 147.961 206.469 149.586C204.875 151.195 202.703 152 199.953 152H189.148C188.836 152 188.68 151.844 188.68 151.531V122.234C188.68 121.922 188.836 121.766 189.148 121.766H199.953C202.703 121.766 204.875 122.57 206.469 124.18C208.078 125.773 208.883 127.945 208.883 130.695V143.07ZM203.422 143.516V130.25C203.422 129.328 203.078 128.523 202.391 127.836C201.703 127.148 200.891 126.805 199.953 126.805H194.68C194.367 126.805 194.211 126.961 194.211 127.273V146.469C194.211 146.797 194.367 146.961 194.68 146.961H199.953C200.922 146.961 201.742 146.625 202.414 145.953C203.086 145.281 203.422 144.469 203.422 143.516ZM233.375 151.367C233.375 151.305 233.391 151.375 233.422 151.578C233.422 151.859 233.25 152 232.906 152H228.055C227.805 152 227.648 151.891 227.586 151.672L226.133 146.633C226.07 146.43 225.914 146.328 225.664 146.328H218.797C218.531 146.328 218.367 146.43 218.305 146.633L216.875 151.672C216.812 151.891 216.648 152 216.383 152H211.602C211.242 152 211.062 151.859 211.062 151.578C211.109 151.406 211.133 151.336 211.133 151.367L220.039 122.094C220.102 121.875 220.258 121.766 220.508 121.766H223.977C224.227 121.766 224.383 121.875 224.445 122.094L233.375 151.367ZM224.445 140.68L222.875 134.328C222.812 134.141 222.633 133.266 222.336 131.703H222.195C222.07 132.281 221.883 133.156 221.633 134.328L219.992 140.68C219.992 140.711 219.992 140.742 219.992 140.773C219.961 140.805 219.945 140.836 219.945 140.867C219.945 141.148 220.117 141.289 220.461 141.289H223.977C224.32 141.289 224.492 141.148 224.492 140.867C224.492 140.836 224.492 140.805 224.492 140.773C224.461 140.742 224.445 140.711 224.445 140.68ZM264.43 122.328L258.102 151.625C258.039 151.875 257.875 152 257.609 152H254.117C253.867 152 253.703 151.891 253.625 151.672L248.797 132.664L243.992 151.672C243.93 151.891 243.766 152 243.5 152H240.008C239.742 152 239.578 151.875 239.516 151.625L233.188 122.328C233.188 122.297 233.188 122.266 233.188 122.234C233.156 122.203 233.141 122.172 233.141 122.141C233.141 121.891 233.32 121.766 233.68 121.766H238.555C238.852 121.766 239.016 121.891 239.047 122.141L242.539 141.688L247.109 122C247.172 121.781 247.328 121.672 247.578 121.672H249.992C250.242 121.672 250.398 121.781 250.461 122L255.031 141.688L258.57 122.141C258.602 121.891 258.766 121.766 259.062 121.766H263.961C264.305 121.766 264.477 121.891 264.477 122.141C264.477 122.172 264.477 122.203 264.477 122.234C264.445 122.266 264.43 122.297 264.43 122.328ZM287.727 151.531C287.727 151.844 287.562 152 287.234 152H283.25L282.828 151.766L272.984 132.453L273.078 151.531C273.078 151.844 272.969 152 272.75 152H268.273C267.961 152 267.805 151.844 267.805 151.531V122.234C267.805 121.922 267.961 121.766 268.273 121.766H272.328L272.75 122L282.547 141.477L282.453 122.234C282.453 121.922 282.578 121.766 282.828 121.766H287.234C287.562 121.766 287.727 121.922 287.727 122.234V151.531ZM322.203 143.984C322.203 146.547 321.383 148.602 319.742 150.148C318.117 151.695 315.961 152.469 313.273 152.469H310.93C308.242 152.469 306.078 151.695 304.438 150.148C302.812 148.602 302 146.547 302 143.984V129.781C302 127.219 302.812 125.164 304.438 123.617C306.078 122.055 308.242 121.273 310.93 121.273H313.273C315.961 121.273 318.117 122.055 319.742 123.617C321.383 125.164 322.203 127.219 322.203 129.781V143.984ZM316.695 143.984V129.781C316.695 128.781 316.367 127.953 315.711 127.297C315.055 126.641 314.242 126.312 313.273 126.312H310.93C309.961 126.312 309.141 126.648 308.469 127.32C307.797 127.992 307.461 128.812 307.461 129.781V143.984C307.461 144.938 307.797 145.75 308.469 146.422C309.141 147.094 309.961 147.43 310.93 147.43H313.273C314.242 147.43 315.055 147.102 315.711 146.445C316.367 145.789 316.695 144.969 316.695 143.984ZM345.898 126.312C345.898 126.641 345.734 126.805 345.406 126.805H333.992C333.68 126.805 333.523 126.961 333.523 127.273V133.672C333.523 133.984 333.68 134.141 333.992 134.141H343.344C343.672 134.141 343.836 134.305 343.836 134.633V138.711C343.836 139.023 343.672 139.18 343.344 139.18H333.992C333.68 139.18 333.523 139.344 333.523 139.672V151.531C333.523 151.844 333.359 152 333.031 152H328.461C328.148 152 327.992 151.844 327.992 151.531V122.234C327.992 121.922 328.148 121.766 328.461 121.766H345.406C345.734 121.766 345.898 121.922 345.898 122.234V126.312ZM386.445 122.328L380.117 151.625C380.055 151.875 379.891 152 379.625 152H376.133C375.883 152 375.719 151.891 375.641 151.672L370.812 132.664L366.008 151.672C365.945 151.891 365.781 152 365.516 152H362.023C361.758 152 361.594 151.875 361.531 151.625L355.203 122.328C355.203 122.297 355.203 122.266 355.203 122.234C355.172 122.203 355.156 122.172 355.156 122.141C355.156 121.891 355.336 121.766 355.695 121.766H360.57C360.867 121.766 361.031 121.891 361.062 122.141L364.555 141.688L369.125 122C369.188 121.781 369.344 121.672 369.594 121.672H372.008C372.258 121.672 372.414 121.781 372.477 122L377.047 141.688L380.586 122.141C380.617 121.891 380.781 121.766 381.078 121.766H385.977C386.32 121.766 386.492 121.891 386.492 122.141C386.492 122.172 386.492 122.203 386.492 122.234C386.461 122.266 386.445 122.297 386.445 122.328ZM408.547 151.367C408.547 151.305 408.562 151.375 408.594 151.578C408.594 151.859 408.422 152 408.078 152H403.227C402.977 152 402.82 151.891 402.758 151.672L401.305 146.633C401.242 146.43 401.086 146.328 400.836 146.328H393.969C393.703 146.328 393.539 146.43 393.477 146.633L392.047 151.672C391.984 151.891 391.82 152 391.555 152H386.773C386.414 152 386.234 151.859 386.234 151.578C386.281 151.406 386.305 151.336 386.305 151.367L395.211 122.094C395.273 121.875 395.43 121.766 395.68 121.766H399.148C399.398 121.766 399.555 121.875 399.617 122.094L408.547 151.367ZM399.617 140.68L398.047 134.328C397.984 134.141 397.805 133.266 397.508 131.703H397.367C397.242 132.281 397.055 133.156 396.805 134.328L395.164 140.68C395.164 140.711 395.164 140.742 395.164 140.773C395.133 140.805 395.117 140.836 395.117 140.867C395.117 141.148 395.289 141.289 395.633 141.289H399.148C399.492 141.289 399.664 141.148 399.664 140.867C399.664 140.836 399.664 140.805 399.664 140.773C399.633 140.742 399.617 140.711 399.617 140.68ZM432.125 151.367C432.156 151.43 432.172 151.516 432.172 151.625C432.172 151.875 432.008 152 431.68 152H426.734C426.578 152 426.438 151.891 426.312 151.672L422.094 139.461L421.695 139.18H417.43C417.117 139.18 416.961 139.344 416.961 139.672V151.531C416.961 151.844 416.797 152 416.469 152H411.898C411.586 152 411.43 151.844 411.43 151.531V122.234C411.43 121.922 411.586 121.766 411.898 121.766H422.703C425.453 121.766 427.625 122.57 429.219 124.18C430.828 125.773 431.633 127.945 431.633 130.695V131.164C431.633 133.148 430.93 134.859 429.523 136.297C429.305 136.531 428.875 136.883 428.234 137.352C427.781 137.711 427.555 137.969 427.555 138.125V138.172L432.125 151.367ZM426.172 130.695V130.25C426.172 129.328 425.828 128.523 425.141 127.836C424.453 127.148 423.641 126.805 422.703 126.805H417.43C417.117 126.805 416.961 126.961 416.961 127.273V133.672C416.961 133.984 417.117 134.141 417.43 134.141H422.703C423.641 134.141 424.453 133.805 425.141 133.133C425.828 132.461 426.172 131.648 426.172 130.695Z" fill="white"/>
<line x1="26" y1="173.001" x2="594" y2="173.001" stroke="white" stroke-width="5"/>
<path d="M245.609 92.7612C245.609 94.5737 245.073 96.0216 244 97.105C242.938 98.1779 241.49 98.7144 239.656 98.7144H232.453C232.245 98.7144 232.141 98.6102 232.141 98.4019V78.8706C232.141 78.6623 232.245 78.5581 232.453 78.5581H239.656C241.49 78.5581 242.938 79.0946 244 80.1675C245.073 81.23 245.609 82.6779 245.609 84.5112V92.7612ZM241.969 93.0581V84.2144C241.969 83.5998 241.74 83.0633 241.281 82.605C240.823 82.1466 240.281 81.9175 239.656 81.9175H236.141C235.932 81.9175 235.828 82.0216 235.828 82.23V95.0269C235.828 95.2456 235.932 95.355 236.141 95.355H239.656C240.302 95.355 240.849 95.131 241.297 94.6831C241.745 94.2352 241.969 93.6935 241.969 93.0581ZM261.391 98.4019C261.391 98.6102 261.281 98.7144 261.062 98.7144H249.766C249.557 98.7144 249.453 98.6102 249.453 98.4019V78.8706C249.453 78.6623 249.557 78.5581 249.766 78.5581H261.062C261.281 78.5581 261.391 78.6623 261.391 78.8706V81.5894C261.391 81.8081 261.281 81.9175 261.062 81.9175H253.453C253.245 81.9175 253.141 82.0216 253.141 82.23V86.4956C253.141 86.7039 253.245 86.8081 253.453 86.8081H259.688C259.906 86.8081 260.016 86.9175 260.016 87.1362V89.855C260.016 90.0633 259.906 90.1675 259.688 90.1675H253.453C253.245 90.1675 253.141 90.2769 253.141 90.4956V95.0269C253.141 95.2456 253.245 95.355 253.453 95.355H261.062C261.281 95.355 261.391 95.4591 261.391 95.6675V98.4019ZM271.609 78.5581C273.422 78.5581 274.865 79.0998 275.938 80.1831C277.021 81.256 277.562 82.6987 277.562 84.5112C277.562 86.1675 277.01 87.5269 275.906 88.5894C274.812 89.6414 273.38 90.1675 271.609 90.1675H268.734C268.526 90.1675 268.422 90.2769 268.422 90.4956V98.4019C268.422 98.6102 268.312 98.7144 268.094 98.7144H265.047C264.839 98.7144 264.734 98.6102 264.734 98.4019V78.8706C264.734 78.6623 264.839 78.5581 265.047 78.5581H271.609ZM273.922 84.5112V84.2144C273.922 83.5998 273.698 83.0633 273.25 82.605C272.802 82.1466 272.255 81.9175 271.609 81.9175H268.734C268.526 81.9175 268.422 82.0216 268.422 82.23V86.4956C268.422 86.7039 268.526 86.8081 268.734 86.8081H271.609C272.255 86.8081 272.802 86.5841 273.25 86.1362C273.698 85.6883 273.922 85.1466 273.922 84.5112ZM292.141 98.4019C292.141 98.6102 292.031 98.7144 291.812 98.7144H280.516C280.307 98.7144 280.203 98.6102 280.203 98.4019V78.8706C280.203 78.6623 280.307 78.5581 280.516 78.5581H283.562C283.781 78.5581 283.891 78.6623 283.891 78.8706V95.0269C283.891 95.2456 283.995 95.355 284.203 95.355H291.812C292.031 95.355 292.141 95.4591 292.141 95.6675V98.4019ZM307.75 93.3706C307.75 95.0789 307.203 96.4487 306.109 97.48C305.026 98.5112 303.589 99.0269 301.797 99.0269H300.234C298.443 99.0269 297 98.5112 295.906 97.48C294.823 96.4487 294.281 95.0789 294.281 93.3706V83.9019C294.281 82.1935 294.823 80.8237 295.906 79.7925C297 78.7508 298.443 78.23 300.234 78.23H301.797C303.589 78.23 305.026 78.7508 306.109 79.7925C307.203 80.8237 307.75 82.1935 307.75 83.9019V93.3706ZM304.078 93.3706V83.9019C304.078 83.2352 303.859 82.6831 303.422 82.2456C302.984 81.8081 302.443 81.5894 301.797 81.5894H300.234C299.589 81.5894 299.042 81.8133 298.594 82.2612C298.146 82.7091 297.922 83.256 297.922 83.9019V93.3706C297.922 94.006 298.146 94.5477 298.594 94.9956C299.042 95.4435 299.589 95.6675 300.234 95.6675H301.797C302.443 95.6675 302.984 95.4487 303.422 95.0112C303.859 94.5737 304.078 94.0269 304.078 93.3706ZM324.094 79.0269L318.5 89.5269V98.4019C318.5 98.6102 318.396 98.7144 318.188 98.7144H315.141C314.922 98.7144 314.812 98.6102 314.812 98.4019V89.5269L309.234 79.0269C309.182 78.9019 309.156 78.8289 309.156 78.8081C309.156 78.6414 309.276 78.5581 309.516 78.5581H313.062L313.344 78.7456L316.391 85.0112C316.453 85.1675 316.547 85.2456 316.672 85.2456C316.807 85.2456 316.906 85.1675 316.969 85.0112L320 78.7456L320.297 78.5581H323.812C324.052 78.5581 324.172 78.6414 324.172 78.8081C324.172 78.8289 324.146 78.9019 324.094 79.0269ZM342.078 98.4019C342.078 98.6102 341.974 98.7144 341.766 98.7144H338.812C338.604 98.7144 338.5 98.6102 338.5 98.4019L338.781 85.9175L335.172 95.7769C335.036 95.9019 334.938 95.9644 334.875 95.9644H333.25C333.125 95.9644 333.026 95.9019 332.953 95.7769L329.344 85.9175L329.625 98.4019C329.625 98.6102 329.521 98.7144 329.312 98.7144H326.328C326.12 98.7144 326.016 98.6102 326.016 98.4019V78.8706C326.016 78.6623 326.12 78.5581 326.328 78.5581H329.094C329.198 78.5789 329.292 78.6414 329.375 78.7456L334.047 91.4175L338.719 78.7456C338.823 78.6414 338.917 78.5789 339 78.5581H341.766C341.974 78.5581 342.078 78.6623 342.078 78.8706V98.4019ZM358.328 98.4019C358.328 98.6102 358.219 98.7144 358 98.7144H346.703C346.495 98.7144 346.391 98.6102 346.391 98.4019V78.8706C346.391 78.6623 346.495 78.5581 346.703 78.5581H358C358.219 78.5581 358.328 78.6623 358.328 78.8706V81.5894C358.328 81.8081 358.219 81.9175 358 81.9175H350.391C350.182 81.9175 350.078 82.0216 350.078 82.23V86.4956C350.078 86.7039 350.182 86.8081 350.391 86.8081H356.625C356.844 86.8081 356.953 86.9175 356.953 87.1362V89.855C356.953 90.0633 356.844 90.1675 356.625 90.1675H350.391C350.182 90.1675 350.078 90.2769 350.078 90.4956V95.0269C350.078 95.2456 350.182 95.355 350.391 95.355H358C358.219 95.355 358.328 95.4591 358.328 95.6675V98.4019ZM374.953 98.4019C374.953 98.6102 374.844 98.7144 374.625 98.7144H371.969L371.688 98.5581L365.125 85.6831L365.188 98.4019C365.188 98.6102 365.115 98.7144 364.969 98.7144H361.984C361.776 98.7144 361.672 98.6102 361.672 98.4019V78.8706C361.672 78.6623 361.776 78.5581 361.984 78.5581H364.688L364.969 78.7144L371.5 91.6987L371.438 78.8706C371.438 78.6623 371.521 78.5581 371.688 78.5581H374.625C374.844 78.5581 374.953 78.6623 374.953 78.8706V98.4019ZM389.5 81.5894C389.5 81.8081 389.391 81.9175 389.172 81.9175H385.688C385.479 81.9175 385.375 82.0216 385.375 82.23V98.4019C385.375 98.6102 385.266 98.7144 385.047 98.7144H382.047C381.828 98.7144 381.719 98.6102 381.719 98.4019V82.23C381.719 82.0216 381.615 81.9175 381.406 81.9175H377.906C377.698 81.9175 377.594 81.8081 377.594 81.5894V78.8706C377.594 78.6623 377.698 78.5581 377.906 78.5581H389.172C389.391 78.5581 389.5 78.6623 389.5 78.8706V81.5894Z" fill="white"/>
</g>
</g>
<rect x="93" y="311" width="434" height="595" stroke="black" stroke-width="4"/>
<rect x="95" y="313.154" width="430" height="591" fill="#D0D0D0"/>
<rect x="95" y="313.153" width="116.1" height="591" fill="#A72222"/>
<rect x="408.9" y="313.153" width="116.1" height="591" fill="#3C722E"/>
<line x1="310.5" y1="313.153" x2="310.5" y2="904.154" stroke="black" stroke-opacity="0.25" stroke-dasharray="2 2"/>
<line x1="95" y1="608.153" x2="525" y2="608.153" stroke="black" stroke-opacity="0.25" stroke-dasharray="2 2"/>
<circle cx="164.5" cy="608.143" r="35.5" fill="#0D4D6B"/>
<circle cx="164.5" cy="608.143" r="7.5" fill="black"/>
<path fill-rule="evenodd" clip-rule="evenodd" d="M167.157 611.469C167.306 611.352 168.385 609.926 167.591 609.031C167.521 608.952 167.593 608.699 167.695 608.341C167.887 607.671 168.184 606.632 167.849 605.675C167.242 603.951 165.455 603.681 164.68 603.646C164.68 603.646 164.613 603.643 164.502 603.643H164.499H164.496C164.382 603.643 164.318 603.646 164.318 603.646C163.547 603.681 161.756 603.951 161.153 605.675C160.814 606.638 161.117 607.682 161.311 608.351C161.413 608.705 161.485 608.954 161.416 609.031C160.619 609.929 161.702 611.355 161.851 611.469C161.997 611.585 162.315 611.509 162.552 611.452C162.749 611.405 162.889 611.372 162.829 611.472C162.727 611.641 162.635 612.914 162.635 612.914H162.899L163.026 612.469L163.251 612.466L163.293 612.911H163.75L163.791 612.485L163.943 612.463L163.966 612.907H164.337L164.356 612.45H164.658L164.677 612.907H165.042L165.064 612.463L165.217 612.485L165.258 612.911H165.715L165.756 612.466L165.982 612.469L166.109 612.914H166.372C166.372 612.914 166.277 611.641 166.179 611.472C166.118 611.371 166.26 611.405 166.458 611.452C166.694 611.508 167.011 611.583 167.157 611.469ZM163.219 609.513C163.521 609.605 163.778 609.717 163.985 609.821C164.035 609.85 164.048 609.917 164.01 609.961C163.905 610.075 163.756 610.209 163.553 610.32C163.064 610.59 162.581 610.548 162.388 610.523C162.375 610.52 162.362 610.517 162.353 610.51C161.927 610.247 161.765 609.834 161.889 609.577C161.908 609.539 161.978 609.409 162.203 609.329C162.216 609.326 162.229 609.323 162.242 609.323C162.511 609.348 162.848 609.399 163.219 609.513ZM166.814 609.332C166.801 609.326 166.788 609.323 166.775 609.326C166.506 609.352 166.169 609.402 165.798 609.517C165.496 609.606 165.242 609.717 165.032 609.825C164.982 609.85 164.969 609.917 165.007 609.961C165.112 610.072 165.261 610.209 165.464 610.32C165.95 610.59 166.433 610.548 166.629 610.523C166.642 610.52 166.652 610.517 166.664 610.51C167.093 610.25 167.255 609.837 167.128 609.58C167.109 609.542 167.036 609.412 166.814 609.332ZM164.534 610.418C164.601 610.453 164.655 610.491 164.699 610.533C165.036 610.853 165.042 611.301 165.029 611.517C165.026 611.549 164.991 611.558 164.972 611.536C164.928 611.479 164.861 611.412 164.779 611.352C164.69 611.285 164.601 611.247 164.534 611.222C164.467 611.247 164.378 611.288 164.29 611.352C164.204 611.412 164.14 611.479 164.096 611.536C164.077 611.558 164.039 611.545 164.039 611.517C164.026 611.298 164.036 610.856 164.369 610.533C164.41 610.491 164.467 610.453 164.534 610.418Z" fill="white"/>
<circle cx="456.5" cy="608.143" r="35.5" fill="#0D4D6B"/>
<circle cx="456.5" cy="608.143" r="7.5" fill="black"/>
<path fill-rule="evenodd" clip-rule="evenodd" d="M459.157 611.469C459.306 611.352 460.385 609.926 459.591 609.031C459.521 608.952 459.593 608.699 459.695 608.341C459.887 607.671 460.184 606.632 459.849 605.675C459.242 603.951 457.455 603.681 456.68 603.646C456.68 603.646 456.613 603.643 456.502 603.643H456.499H456.496C456.382 603.643 456.318 603.646 456.318 603.646C455.547 603.681 453.756 603.951 453.153 605.675C452.814 606.638 453.117 607.682 453.311 608.351C453.413 608.705 453.485 608.954 453.416 609.031C452.619 609.929 453.702 611.355 453.851 611.469C453.997 611.585 454.315 611.509 454.552 611.452C454.749 611.405 454.889 611.372 454.829 611.472C454.727 611.641 454.635 612.914 454.635 612.914H454.899L455.026 612.469L455.251 612.466L455.293 612.911H455.75L455.791 612.485L455.943 612.463L455.966 612.907H456.337L456.356 612.45H456.658L456.677 612.907H457.042L457.064 612.463L457.217 612.485L457.258 612.911H457.715L457.756 612.466L457.982 612.469L458.109 612.914H458.372C458.372 612.914 458.277 611.641 458.179 611.472C458.118 611.371 458.26 611.405 458.458 611.452C458.694 611.508 459.011 611.583 459.157 611.469ZM455.219 609.513C455.521 609.605 455.778 609.717 455.985 609.821C456.035 609.85 456.048 609.917 456.01 609.961C455.905 610.075 455.756 610.209 455.553 610.32C455.064 610.59 454.581 610.548 454.388 610.523C454.375 610.52 454.362 610.517 454.353 610.51C453.927 610.247 453.765 609.834 453.889 609.577C453.908 609.539 453.978 609.409 454.203 609.329C454.216 609.326 454.229 609.323 454.242 609.323C454.511 609.348 454.848 609.399 455.219 609.513ZM458.814 609.332C458.801 609.326 458.788 609.323 458.775 609.326C458.506 609.352 458.169 609.402 457.798 609.517C457.496 609.606 457.242 609.717 457.032 609.825C456.982 609.85 456.969 609.917 457.007 609.961C457.112 610.072 457.261 610.209 457.464 610.32C457.95 610.59 458.433 610.548 458.629 610.523C458.642 610.52 458.652 610.517 458.664 610.51C459.093 610.25 459.255 609.837 459.128 609.58C459.109 609.542 459.036 609.412 458.814 609.332ZM456.534 610.418C456.601 610.453 456.655 610.491 456.699 610.533C457.036 610.853 457.042 611.301 457.029 611.517C457.026 611.549 456.991 611.558 456.972 611.536C456.928 611.479 456.861 611.412 456.779 611.352C456.69 611.285 456.601 611.247 456.534 611.222C456.467 611.247 456.378 611.288 456.29 611.352C456.204 611.412 456.14 611.479 456.096 611.536C456.077 611.558 456.039 611.545 456.039 611.517C456.026 611.298 456.036 610.856 456.369 610.533C456.41 610.491 456.467 610.453 456.534 610.418Z" fill="white"/>
<circle cx="310.5" cy="608.643" r="35.5" fill="#0D4D6B"/>
<circle cx="310.5" cy="608.643" r="7.5" fill="black"/>
<path fill-rule="evenodd" clip-rule="evenodd" d="M313.157 611.969C313.306 611.852 314.385 610.426 313.591 609.531C313.521 609.452 313.593 609.199 313.695 608.841C313.887 608.171 314.184 607.132 313.849 606.175C313.242 604.451 311.455 604.181 310.68 604.146C310.68 604.146 310.613 604.143 310.502 604.143H310.499H310.496C310.382 604.143 310.318 604.146 310.318 604.146C309.547 604.181 307.756 604.451 307.153 606.175C306.814 607.138 307.117 608.182 307.311 608.851C307.413 609.205 307.485 609.454 307.416 609.531C306.619 610.429 307.702 611.855 307.851 611.969C307.997 612.085 308.315 612.009 308.552 611.952C308.749 611.905 308.889 611.872 308.829 611.972C308.727 612.141 308.635 613.414 308.635 613.414H308.899L309.026 612.969L309.251 612.966L309.293 613.411H309.75L309.791 612.985L309.943 612.963L309.966 613.407H310.337L310.356 612.95H310.658L310.677 613.407H311.042L311.064 612.963L311.217 612.985L311.258 613.411H311.715L311.756 612.966L311.982 612.969L312.109 613.414H312.372C312.372 613.414 312.277 612.141 312.179 611.972C312.118 611.871 312.26 611.905 312.458 611.952C312.694 612.008 313.011 612.083 313.157 611.969ZM309.219 610.013C309.521 610.105 309.778 610.217 309.985 610.321C310.035 610.35 310.048 610.417 310.01 610.461C309.905 610.575 309.756 610.709 309.553 610.82C309.064 611.09 308.581 611.048 308.388 611.023C308.375 611.02 308.362 611.017 308.353 611.01C307.927 610.747 307.765 610.334 307.889 610.077C307.908 610.039 307.978 609.909 308.203 609.829C308.216 609.826 308.229 609.823 308.242 609.823C308.511 609.848 308.848 609.899 309.219 610.013ZM312.814 609.832C312.801 609.826 312.788 609.823 312.775 609.826C312.506 609.852 312.169 609.902 311.798 610.017C311.496 610.106 311.242 610.217 311.032 610.325C310.982 610.35 310.969 610.417 311.007 610.461C311.112 610.572 311.261 610.709 311.464 610.82C311.95 611.09 312.433 611.048 312.629 611.023C312.642 611.02 312.652 611.017 312.664 611.01C313.093 610.75 313.255 610.337 313.128 610.08C313.109 610.042 313.036 609.912 312.814 609.832ZM310.534 610.918C310.601 610.953 310.655 610.991 310.699 611.033C311.036 611.353 311.042 611.801 311.029 612.017C311.026 612.049 310.991 612.058 310.972 612.036C310.928 611.979 310.861 611.912 310.779 611.852C310.69 611.785 310.601 611.747 310.534 611.722C310.467 611.747 310.378 611.788 310.29 611.852C310.204 611.912 310.14 611.979 310.096 612.036C310.077 612.058 310.039 612.045 310.039 612.017C310.026 611.798 310.036 611.356 310.369 611.033C310.41 610.991 310.467 610.953 310.534 610.918Z" fill="white"/>
<circle cx="310.5" cy="810.643" r="35.5" fill="#0D4D6B"/>
<circle cx="310.5" cy="810.643" r="7.5" fill="black"/>
<path fill-rule="evenodd" clip-rule="evenodd" d="M313.157 813.969C313.306 813.852 314.385 812.426 313.591 811.531C313.521 811.452 313.593 811.199 313.695 810.841C313.887 810.171 314.184 809.132 313.849 808.175C313.242 806.451 311.455 806.181 310.68 806.146C310.68 806.146 310.613 806.143 310.502 806.143H310.499H310.496C310.382 806.143 310.318 806.146 310.318 806.146C309.547 806.181 307.756 806.451 307.153 808.175C306.814 809.138 307.117 810.182 307.311 810.851C307.413 811.205 307.485 811.454 307.416 811.531C306.619 812.429 307.702 813.855 307.851 813.969C307.997 814.085 308.315 814.009 308.552 813.952C308.749 813.905 308.889 813.872 308.829 813.972C308.727 814.141 308.635 815.414 308.635 815.414H308.899L309.026 814.969L309.251 814.966L309.293 815.411H309.75L309.791 814.985L309.943 814.963L309.966 815.407H310.337L310.356 814.95H310.658L310.677 815.407H311.042L311.064 814.963L311.217 814.985L311.258 815.411H311.715L311.756 814.966L311.982 814.969L312.109 815.414H312.372C312.372 815.414 312.277 814.141 312.179 813.972C312.118 813.871 312.26 813.905 312.458 813.952C312.694 814.008 313.011 814.083 313.157 813.969ZM309.219 812.013C309.521 812.105 309.778 812.217 309.985 812.321C310.035 812.35 310.048 812.417 310.01 812.461C309.905 812.575 309.756 812.709 309.553 812.82C309.064 813.09 308.581 813.048 308.388 813.023C308.375 813.02 308.362 813.017 308.353 813.01C307.927 812.747 307.765 812.334 307.889 812.077C307.908 812.039 307.978 811.909 308.203 811.829C308.216 811.826 308.229 811.823 308.242 811.823C308.511 811.848 308.848 811.899 309.219 812.013ZM312.814 811.832C312.801 811.826 312.788 811.823 312.775 811.826C312.506 811.852 312.169 811.902 311.798 812.017C311.496 812.106 311.242 812.217 311.032 812.325C310.982 812.35 310.969 812.417 311.007 812.461C311.112 812.572 311.261 812.709 311.464 812.82C311.95 813.09 312.433 813.048 312.629 813.023C312.642 813.02 312.652 813.017 312.664 813.01C313.093 812.75 313.255 812.337 313.128 812.08C313.109 812.042 313.036 811.912 312.814 811.832ZM310.534 812.918C310.601 812.953 310.655 812.991 310.699 813.033C311.036 813.353 311.042 813.801 311.029 814.017C311.026 814.049 310.991 814.058 310.972 814.036C310.928 813.979 310.861 813.912 310.779 813.852C310.69 813.785 310.601 813.747 310.534 813.722C310.467 813.747 310.378 813.788 310.29 813.852C310.204 813.912 310.14 813.979 310.096 814.036C310.077 814.058 310.039 814.045 310.039 814.017C310.026 813.798 310.036 813.356 310.369 813.033C310.41 812.991 310.467 812.953 310.534 812.918Z" fill="white"/>
<circle cx="310.5" cy="406.643" r="35.5" fill="#0D4D6B"/>
<circle cx="310.5" cy="406.643" r="7.5" fill="black"/>
<path fill-rule="evenodd" clip-rule="evenodd" d="M313.157 409.969C313.306 409.852 314.385 408.426 313.591 407.531C313.521 407.452 313.593 407.199 313.695 406.841C313.887 406.171 314.184 405.132 313.849 404.175C313.242 402.451 311.455 402.181 310.68 402.146C310.68 402.146 310.613 402.143 310.502 402.143H310.499H310.496C310.382 402.143 310.318 402.146 310.318 402.146C309.547 402.181 307.756 402.451 307.153 404.175C306.814 405.138 307.117 406.182 307.311 406.851C307.413 407.205 307.485 407.454 307.416 407.531C306.619 408.429 307.702 409.855 307.851 409.969C307.997 410.085 308.315 410.009 308.552 409.952C308.749 409.905 308.889 409.872 308.829 409.972C308.727 410.141 308.635 411.414 308.635 411.414H308.899L309.026 410.969L309.251 410.966L309.293 411.411H309.75L309.791 410.985L309.943 410.963L309.966 411.407H310.337L310.356 410.95H310.658L310.677 411.407H311.042L311.064 410.963L311.217 410.985L311.258 411.411H311.715L311.756 410.966L311.982 410.969L312.109 411.414H312.372C312.372 411.414 312.277 410.141 312.179 409.972C312.118 409.871 312.26 409.905 312.458 409.952C312.694 410.008 313.011 410.083 313.157 409.969ZM309.219 408.013C309.521 408.105 309.778 408.217 309.985 408.321C310.035 408.35 310.048 408.417 310.01 408.461C309.905 408.575 309.756 408.709 309.553 408.82C309.064 409.09 308.581 409.048 308.388 409.023C308.375 409.02 308.362 409.017 308.353 409.01C307.927 408.747 307.765 408.334 307.889 408.077C307.908 408.039 307.978 407.909 308.203 407.829C308.216 407.826 308.229 407.823 308.242 407.823C308.511 407.848 308.848 407.899 309.219 408.013ZM312.814 407.832C312.801 407.826 312.788 407.823 312.775 407.826C312.506 407.852 312.169 407.902 311.798 408.017C311.496 408.106 311.242 408.217 311.032 408.325C310.982 408.35 310.969 408.417 311.007 408.461C311.112 408.572 311.261 408.709 311.464 408.82C311.95 409.09 312.433 409.048 312.629 409.023C312.642 409.02 312.652 409.017 312.664 409.01C313.093 408.75 313.255 408.337 313.128 408.08C313.109 408.042 313.036 407.912 312.814 407.832ZM310.534 408.918C310.601 408.953 310.655 408.991 310.699 409.033C311.036 409.353 311.042 409.801 311.029 410.017C311.026 410.049 310.991 410.058 310.972 410.036C310.928 409.979 310.861 409.912 310.779 409.852C310.69 409.785 310.601 409.747 310.534 409.722C310.467 409.747 310.378 409.788 310.29 409.852C310.204 409.912 310.14 409.979 310.096 410.036C310.077 410.058 310.039 410.045 310.039 410.017C310.026 409.798 310.036 409.356 310.369 409.033C310.41 408.991 310.467 408.953 310.534 408.918Z" fill="white"/>
<path d="M310 313L304.226 323L315.774 323L310 313ZM310 400L315.773 390L304.226 390L310 400ZM310 322L309 322L309 391L310 391L311 391L311 322L310 322Z" fill="black"/>
<path d="M325.793 358.408C325.793 358.565 325.715 358.643 325.559 358.643H317.801C317.645 358.643 317.566 358.565 317.566 358.408V356.358C317.566 356.201 317.645 356.123 317.801 356.123H320.062C320.219 356.123 320.297 356.041 320.297 355.877V348.846C320.297 348.674 320.227 348.588 320.086 348.588C320.016 348.588 319.949 348.619 319.887 348.682L319.172 349.432C319.109 349.494 319.055 349.526 319.008 349.526C318.953 349.526 318.895 349.494 318.832 349.432L317.344 347.967C317.281 347.897 317.25 347.838 317.25 347.791C317.25 347.744 317.281 347.69 317.344 347.627L321.352 343.596L321.527 343.526H322.816C322.98 343.526 323.062 343.604 323.062 343.76V355.877C323.062 356.041 323.141 356.123 323.297 356.123H325.559C325.715 356.123 325.793 356.201 325.793 356.358V358.408ZM338.238 354.635C338.238 355.901 337.828 356.924 337.008 357.705C336.195 358.487 335.117 358.877 333.773 358.877H333.082C331.738 358.877 330.656 358.49 329.836 357.717C329.023 356.944 328.617 355.916 328.617 354.635V347.533C328.617 346.252 329.023 345.225 329.836 344.451C330.656 343.67 331.738 343.28 333.082 343.28H333.773C335.117 343.28 336.195 343.67 337.008 344.451C337.828 345.225 338.238 346.252 338.238 347.533V354.635ZM335.484 354.635V347.533C335.484 347.033 335.32 346.619 334.992 346.291C334.664 345.963 334.258 345.799 333.773 345.799H333.082C332.598 345.799 332.188 345.967 331.852 346.303C331.516 346.639 331.348 347.049 331.348 347.533V354.635C331.348 355.112 331.516 355.518 331.852 355.854C332.188 356.19 332.598 356.358 333.082 356.358H333.773C334.258 356.358 334.664 356.194 334.992 355.865C335.32 355.537 335.484 355.127 335.484 354.635ZM347.004 345.424C347.004 346.713 346.715 347.694 346.137 348.365C345.527 349.092 345.031 349.455 344.648 349.455C344.586 349.455 344.531 349.405 344.484 349.303L343.816 348.084C343.777 348.022 343.758 347.983 343.758 347.967C343.758 347.897 343.816 347.823 343.934 347.744C344.527 347.299 344.824 346.877 344.824 346.479C344.824 346.299 344.742 346.209 344.578 346.209H344.367C344.203 346.209 344.121 346.131 344.121 345.975V343.76C344.121 343.604 344.203 343.526 344.367 343.526H346.758C346.922 343.526 347.004 343.604 347.004 343.76V345.424ZM343.23 345.424C343.23 346.713 342.93 347.709 342.328 348.412C341.734 349.108 341.246 349.455 340.863 349.455C340.793 349.455 340.734 349.405 340.688 349.303L340.066 348.108C340.035 348.045 340.02 347.998 340.02 347.967C340.02 347.951 340.191 347.795 340.535 347.498C340.879 347.201 341.051 346.862 341.051 346.479C341.051 346.299 340.973 346.209 340.816 346.209H340.617C340.461 346.209 340.383 346.131 340.383 345.975V343.76C340.383 343.604 340.461 343.526 340.617 343.526H342.996C343.152 343.526 343.23 343.604 343.23 343.76V345.424Z" fill="black"/>
<path d="M310 818L304.226 828L315.774 828L310 818ZM310 905L315.774 895L304.227 895L310 905ZM310 827L309 827L309 896L310 896L311 896L311 827L310 827Z" fill="black"/>
<path d="M325.793 874.408C325.793 874.565 325.715 874.643 325.559 874.643H317.801C317.645 874.643 317.566 874.565 317.566 874.408V872.358C317.566 872.201 317.645 872.123 317.801 872.123H320.062C320.219 872.123 320.297 872.041 320.297 871.877V864.846C320.297 864.674 320.227 864.588 320.086 864.588C320.016 864.588 319.949 864.619 319.887 864.682L319.172 865.432C319.109 865.494 319.055 865.526 319.008 865.526C318.953 865.526 318.895 865.494 318.832 865.432L317.344 863.967C317.281 863.897 317.25 863.838 317.25 863.791C317.25 863.744 317.281 863.69 317.344 863.627L321.352 859.596L321.527 859.526H322.816C322.98 859.526 323.062 859.604 323.062 859.76V871.877C323.062 872.041 323.141 872.123 323.297 872.123H325.559C325.715 872.123 325.793 872.201 325.793 872.358V874.408ZM338.238 870.635C338.238 871.901 337.828 872.924 337.008 873.705C336.195 874.487 335.117 874.877 333.773 874.877H333.082C331.738 874.877 330.656 874.49 329.836 873.717C329.023 872.944 328.617 871.916 328.617 870.635V863.533C328.617 862.252 329.023 861.225 329.836 860.451C330.656 859.67 331.738 859.28 333.082 859.28H333.773C335.117 859.28 336.195 859.67 337.008 860.451C337.828 861.225 338.238 862.252 338.238 863.533V870.635ZM335.484 870.635V863.533C335.484 863.033 335.32 862.619 334.992 862.291C334.664 861.963 334.258 861.799 333.773 861.799H333.082C332.598 861.799 332.188 861.967 331.852 862.303C331.516 862.639 331.348 863.049 331.348 863.533V870.635C331.348 871.112 331.516 871.518 331.852 871.854C332.188 872.19 332.598 872.358 333.082 872.358H333.773C334.258 872.358 334.664 872.194 334.992 871.865C335.32 871.537 335.484 871.127 335.484 870.635ZM347.004 861.424C347.004 862.713 346.715 863.694 346.137 864.365C345.527 865.092 345.031 865.455 344.648 865.455C344.586 865.455 344.531 865.405 344.484 865.303L343.816 864.084C343.777 864.022 343.758 863.983 343.758 863.967C343.758 863.897 343.816 863.823 343.934 863.744C344.527 863.299 344.824 862.877 344.824 862.479C344.824 862.299 344.742 862.209 344.578 862.209H344.367C344.203 862.209 344.121 862.131 344.121 861.975V859.76C344.121 859.604 344.203 859.526 344.367 859.526H346.758C346.922 859.526 347.004 859.604 347.004 859.76V861.424ZM343.23 861.424C343.23 862.713 342.93 863.709 342.328 864.412C341.734 865.108 341.246 865.455 340.863 865.455C340.793 865.455 340.734 865.405 340.688 865.303L340.066 864.108C340.035 864.045 340.02 863.998 340.02 863.967C340.02 863.951 340.191 863.795 340.535 863.498C340.879 863.201 341.051 862.862 341.051 862.479C341.051 862.299 340.973 862.209 340.816 862.209H340.617C340.461 862.209 340.383 862.131 340.383 861.975V859.76C340.383 859.604 340.461 859.526 340.617 859.526H342.996C343.152 859.526 343.23 859.604 343.23 859.76V861.424Z" fill="black"/>
<path d="M95 825L105 830.774L105 819.226L95 825ZM211 825L201 819.226L201 830.773L211 825ZM104 825L104 826L202 826L202 825L202 824L104 824L104 825Z" fill="white"/>
<path d="M137.793 820.766C137.793 820.922 137.715 821 137.559 821H129.801C129.645 821 129.566 820.922 129.566 820.766V818.715C129.566 818.559 129.645 818.48 129.801 818.48H132.062C132.219 818.48 132.297 818.398 132.297 818.234V811.203C132.297 811.031 132.227 810.945 132.086 810.945C132.016 810.945 131.949 810.977 131.887 811.039L131.172 811.789C131.109 811.852 131.055 811.883 131.008 811.883C130.953 811.883 130.895 811.852 130.832 811.789L129.344 810.324C129.281 810.254 129.25 810.195 129.25 810.148C129.25 810.102 129.281 810.047 129.344 809.984L133.352 805.953L133.527 805.883H134.816C134.98 805.883 135.062 805.961 135.062 806.117V818.234C135.062 818.398 135.141 818.48 135.297 818.48H137.559C137.715 818.48 137.793 818.559 137.793 818.715V820.766ZM145.609 805.637C146.953 805.637 148.031 806.027 148.844 806.809C149.664 807.582 150.074 808.609 150.074 809.891C150.074 811.023 149.738 811.992 149.066 812.797C148.559 813.398 147.613 814.133 146.23 815C145.309 815.578 144.695 816.027 144.391 816.348C143.938 816.824 143.711 817.375 143.711 818V818.234C143.711 818.398 143.793 818.48 143.957 818.48H149.664C149.828 818.48 149.91 818.559 149.91 818.715V820.766C149.91 820.922 149.828 821 149.664 821H141.191C141.035 821 140.957 820.922 140.957 820.766V818C140.957 816.781 141.309 815.727 142.012 814.836C142.637 814.031 143.676 813.207 145.129 812.363C145.934 811.895 146.48 811.508 146.77 811.203C147.152 810.82 147.344 810.383 147.344 809.891C147.344 809.406 147.172 808.996 146.828 808.66C146.484 808.324 146.078 808.156 145.609 808.156H144.742C144.188 808.156 143.742 808.414 143.406 808.93C143.359 809.008 143.246 809.199 143.066 809.504C142.988 809.66 142.918 809.738 142.855 809.738C142.855 809.738 142.805 809.723 142.703 809.691L140.641 808.637C140.547 808.59 140.5 808.535 140.5 808.473C140.5 808.09 140.867 807.523 141.602 806.773C142.336 806.016 143.383 805.637 144.742 805.637H145.609ZM159.004 807.781C159.004 809.07 158.715 810.051 158.137 810.723C157.527 811.449 157.031 811.812 156.648 811.812C156.586 811.812 156.531 811.762 156.484 811.66L155.816 810.441C155.777 810.379 155.758 810.34 155.758 810.324C155.758 810.254 155.816 810.18 155.934 810.102C156.527 809.656 156.824 809.234 156.824 808.836C156.824 808.656 156.742 808.566 156.578 808.566H156.367C156.203 808.566 156.121 808.488 156.121 808.332V806.117C156.121 805.961 156.203 805.883 156.367 805.883H158.758C158.922 805.883 159.004 805.961 159.004 806.117V807.781ZM155.23 807.781C155.23 809.07 154.93 810.066 154.328 810.77C153.734 811.465 153.246 811.812 152.863 811.812C152.793 811.812 152.734 811.762 152.688 811.66L152.066 810.465C152.035 810.402 152.02 810.355 152.02 810.324C152.02 810.309 152.191 810.152 152.535 809.855C152.879 809.559 153.051 809.219 153.051 808.836C153.051 808.656 152.973 808.566 152.816 808.566H152.617C152.461 808.566 152.383 808.488 152.383 808.332V806.117C152.383 805.961 152.461 805.883 152.617 805.883H154.996C155.152 805.883 155.23 805.961 155.23 806.117V807.781Z" fill="white"/>
<path d="M409 393L419 398.774L419 387.226L409 393ZM525 393L515 387.227L515 398.774L525 393ZM418 393L418 394L516 394L516 393L516 392L418 392L418 393Z" fill="white"/>
<path d="M470.793 388.766C470.793 388.922 470.715 389 470.559 389H462.801C462.645 389 462.566 388.922 462.566 388.766V386.715C462.566 386.559 462.645 386.48 462.801 386.48H465.062C465.219 386.48 465.297 386.398 465.297 386.234V379.203C465.297 379.031 465.227 378.945 465.086 378.945C465.016 378.945 464.949 378.977 464.887 379.039L464.172 379.789C464.109 379.852 464.055 379.883 464.008 379.883C463.953 379.883 463.895 379.852 463.832 379.789L462.344 378.324C462.281 378.254 462.25 378.195 462.25 378.148C462.25 378.102 462.281 378.047 462.344 377.984L466.352 373.953L466.527 373.883H467.816C467.98 373.883 468.062 373.961 468.062 374.117V386.234C468.062 386.398 468.141 386.48 468.297 386.48H470.559C470.715 386.48 470.793 386.559 470.793 386.715V388.766ZM478.609 373.637C479.953 373.637 481.031 374.027 481.844 374.809C482.664 375.582 483.074 376.609 483.074 377.891C483.074 379.023 482.738 379.992 482.066 380.797C481.559 381.398 480.613 382.133 479.23 383C478.309 383.578 477.695 384.027 477.391 384.348C476.938 384.824 476.711 385.375 476.711 386V386.234C476.711 386.398 476.793 386.48 476.957 386.48H482.664C482.828 386.48 482.91 386.559 482.91 386.715V388.766C482.91 388.922 482.828 389 482.664 389H474.191C474.035 389 473.957 388.922 473.957 388.766V386C473.957 384.781 474.309 383.727 475.012 382.836C475.637 382.031 476.676 381.207 478.129 380.363C478.934 379.895 479.48 379.508 479.77 379.203C480.152 378.82 480.344 378.383 480.344 377.891C480.344 377.406 480.172 376.996 479.828 376.66C479.484 376.324 479.078 376.156 478.609 376.156H477.742C477.188 376.156 476.742 376.414 476.406 376.93C476.359 377.008 476.246 377.199 476.066 377.504C475.988 377.66 475.918 377.738 475.855 377.738C475.855 377.738 475.805 377.723 475.703 377.691L473.641 376.637C473.547 376.59 473.5 376.535 473.5 376.473C473.5 376.09 473.867 375.523 474.602 374.773C475.336 374.016 476.383 373.637 477.742 373.637H478.609ZM492.004 375.781C492.004 377.07 491.715 378.051 491.137 378.723C490.527 379.449 490.031 379.812 489.648 379.812C489.586 379.812 489.531 379.762 489.484 379.66L488.816 378.441C488.777 378.379 488.758 378.34 488.758 378.324C488.758 378.254 488.816 378.18 488.934 378.102C489.527 377.656 489.824 377.234 489.824 376.836C489.824 376.656 489.742 376.566 489.578 376.566H489.367C489.203 376.566 489.121 376.488 489.121 376.332V374.117C489.121 373.961 489.203 373.883 489.367 373.883H491.758C491.922 373.883 492.004 373.961 492.004 374.117V375.781ZM488.23 375.781C488.23 377.07 487.93 378.066 487.328 378.77C486.734 379.465 486.246 379.812 485.863 379.812C485.793 379.812 485.734 379.762 485.688 379.66L485.066 378.465C485.035 378.402 485.02 378.355 485.02 378.324C485.02 378.309 485.191 378.152 485.535 377.855C485.879 377.559 486.051 377.219 486.051 376.836C486.051 376.656 485.973 376.566 485.816 376.566H485.617C485.461 376.566 485.383 376.488 485.383 376.332V374.117C485.383 373.961 485.461 373.883 485.617 373.883H487.996C488.152 373.883 488.23 373.961 488.23 374.117V375.781Z" fill="white"/>
<path d="M464 609L474 614.774L474 603.226L464 609ZM525 609L515 603.226L515 614.773L525 609ZM473 609L473 610L516 610L516 609L516 608L473 608L473 609Z" fill="white"/>
<path d="M500.203 600.992C500.203 602.273 499.793 603.301 498.973 604.074C498.16 604.848 497.074 605.234 495.715 605.234H495C493.656 605.234 492.574 604.848 491.754 604.074C490.941 603.301 490.535 602.273 490.535 600.992V593.891C490.535 592.609 490.941 591.582 491.754 590.809C492.574 590.027 493.656 589.637 495 589.637H495.715C496.809 589.637 497.723 589.902 498.457 590.434C498.871 590.738 499.246 591.129 499.582 591.605C499.855 592.004 499.992 592.293 499.992 592.473C499.992 592.551 499.945 592.613 499.852 592.66L497.754 593.668C497.723 593.684 497.684 593.691 497.637 593.691C497.559 593.691 497.457 593.574 497.332 593.34C496.895 592.551 496.355 592.156 495.715 592.156H495C494.516 592.156 494.109 592.32 493.781 592.648C493.461 592.977 493.301 593.391 493.301 593.891V596.07C493.301 596.25 493.355 596.34 493.465 596.34C493.527 596.34 493.754 596.258 494.145 596.094C494.535 595.922 494.898 595.836 495.234 595.836H495.961C497.195 595.836 498.211 596.234 499.008 597.031C499.805 597.828 500.203 598.844 500.203 600.078V600.992ZM497.449 600.992V600.078C497.449 599.617 497.281 599.215 496.945 598.871C496.609 598.527 496.199 598.355 495.715 598.355H495C494.516 598.355 494.109 598.52 493.781 598.848C493.461 599.176 493.301 599.586 493.301 600.078V600.992C493.301 601.484 493.461 601.895 493.781 602.223C494.109 602.551 494.516 602.715 495 602.715H495.715C496.199 602.715 496.609 602.547 496.945 602.211C497.281 601.875 497.449 601.469 497.449 600.992ZM508.922 591.781C508.922 593.07 508.633 594.051 508.055 594.723C507.445 595.449 506.949 595.812 506.566 595.812C506.504 595.812 506.449 595.762 506.402 595.66L505.734 594.441C505.695 594.379 505.676 594.34 505.676 594.324C505.676 594.254 505.734 594.18 505.852 594.102C506.445 593.656 506.742 593.234 506.742 592.836C506.742 592.656 506.66 592.566 506.496 592.566H506.285C506.121 592.566 506.039 592.488 506.039 592.332V590.117C506.039 589.961 506.121 589.883 506.285 589.883H508.676C508.84 589.883 508.922 589.961 508.922 590.117V591.781ZM505.148 591.781C505.148 593.07 504.848 594.066 504.246 594.77C503.652 595.465 503.164 595.812 502.781 595.812C502.711 595.812 502.652 595.762 502.605 595.66L501.984 594.465C501.953 594.402 501.938 594.355 501.938 594.324C501.938 594.309 502.109 594.152 502.453 593.855C502.797 593.559 502.969 593.219 502.969 592.836C502.969 592.656 502.891 592.566 502.734 592.566H502.535C502.379 592.566 502.301 592.488 502.301 592.332V590.117C502.301 589.961 502.379 589.883 502.535 589.883H504.914C505.07 589.883 505.148 589.961 505.148 590.117V591.781Z" fill="white"/>
<path d="M95 609L105 614.774L105 603.226L95 609ZM157 609L147 603.227L147 614.774L157 609ZM104 609L104 610L148 610L148 609L148 608L104 608L104 609Z" fill="white"/>
<path d="M121.203 600.992C121.203 602.273 120.793 603.301 119.973 604.074C119.16 604.848 118.074 605.234 116.715 605.234H116C114.656 605.234 113.574 604.848 112.754 604.074C111.941 603.301 111.535 602.273 111.535 600.992V593.891C111.535 592.609 111.941 591.582 112.754 590.809C113.574 590.027 114.656 589.637 116 589.637H116.715C117.809 589.637 118.723 589.902 119.457 590.434C119.871 590.738 120.246 591.129 120.582 591.605C120.855 592.004 120.992 592.293 120.992 592.473C120.992 592.551 120.945 592.613 120.852 592.66L118.754 593.668C118.723 593.684 118.684 593.691 118.637 593.691C118.559 593.691 118.457 593.574 118.332 593.34C117.895 592.551 117.355 592.156 116.715 592.156H116C115.516 592.156 115.109 592.32 114.781 592.648C114.461 592.977 114.301 593.391 114.301 593.891V596.07C114.301 596.25 114.355 596.34 114.465 596.34C114.527 596.34 114.754 596.258 115.145 596.094C115.535 595.922 115.898 595.836 116.234 595.836H116.961C118.195 595.836 119.211 596.234 120.008 597.031C120.805 597.828 121.203 598.844 121.203 600.078V600.992ZM118.449 600.992V600.078C118.449 599.617 118.281 599.215 117.945 598.871C117.609 598.527 117.199 598.355 116.715 598.355H116C115.516 598.355 115.109 598.52 114.781 598.848C114.461 599.176 114.301 599.586 114.301 600.078V600.992C114.301 601.484 114.461 601.895 114.781 602.223C115.109 602.551 115.516 602.715 116 602.715H116.715C117.199 602.715 117.609 602.547 117.945 602.211C118.281 601.875 118.449 601.469 118.449 600.992ZM129.922 591.781C129.922 593.07 129.633 594.051 129.055 594.723C128.445 595.449 127.949 595.812 127.566 595.812C127.504 595.812 127.449 595.762 127.402 595.66L126.734 594.441C126.695 594.379 126.676 594.34 126.676 594.324C126.676 594.254 126.734 594.18 126.852 594.102C127.445 593.656 127.742 593.234 127.742 592.836C127.742 592.656 127.66 592.566 127.496 592.566H127.285C127.121 592.566 127.039 592.488 127.039 592.332V590.117C127.039 589.961 127.121 589.883 127.285 589.883H129.676C129.84 589.883 129.922 589.961 129.922 590.117V591.781ZM126.148 591.781C126.148 593.07 125.848 594.066 125.246 594.77C124.652 595.465 124.164 595.812 123.781 595.812C123.711 595.812 123.652 595.762 123.605 595.66L122.984 594.465C122.953 594.402 122.938 594.355 122.938 594.324C122.938 594.309 123.109 594.152 123.453 593.855C123.797 593.559 123.969 593.219 123.969 592.836C123.969 592.656 123.891 592.566 123.734 592.566H123.535C123.379 592.566 123.301 592.488 123.301 592.332V590.117C123.301 589.961 123.379 589.883 123.535 589.883H125.914C126.07 589.883 126.148 589.961 126.148 590.117V591.781Z" fill="white"/>
<path d="M577.181 594L561.548 587.487C561.071 587.289 560.561 587.188 560.045 587.188C559.53 587.188 559.019 587.289 558.543 587.487L542.91 594C541.453 594.603 540.5 596.028 540.5 597.607C540.5 613.77 549.823 624.941 558.535 628.572C559.496 628.971 560.579 628.971 561.539 628.572C568.517 625.665 579.583 615.626 579.583 597.607C579.583 596.028 578.63 594.603 577.181 594ZM560.049 623.524L560.041 592.502L574.363 598.471C574.095 610.798 567.679 619.73 560.049 623.524Z" fill="#3C722E"/>
<g clip-path="url(#clip2_121_6670)">
<path d="M47.828 588.5L56.5868 597.259L49.2589 604.587L40.5 595.828V588.5H47.828Z" fill="#A72222"/>
<path d="M56.8832 618.527L60.5471 622.191L57.0927 625.646L51.492 620.045L47.8224 623.715C47.8261 623.782 47.828 623.85 47.828 623.919C47.828 625.942 46.1876 627.583 44.164 627.583C42.1404 627.583 40.5 625.942 40.5 623.919C40.5 621.895 42.1404 620.255 44.164 620.255C44.2324 620.255 44.3004 620.256 44.3679 620.26L48.0375 616.591L42.4368 610.99L45.8912 607.535L49.5552 611.199L72.2545 588.5H79.5825V595.828L56.8832 618.527Z" fill="#A72222"/>
<path d="M75.9185 627.582C73.895 627.582 72.2545 625.942 72.2545 623.919C72.2545 623.85 72.2565 623.782 72.2601 623.715L65.1361 616.591L74.1913 607.535L77.6457 610.99L72.0449 616.591L75.7145 620.26C75.7819 620.256 75.8501 620.255 75.9185 620.255C77.942 620.255 79.5825 621.895 79.5825 623.919C79.5825 625.942 77.942 627.582 75.9185 627.582Z" fill="#A72222"/>
</g>
<defs>
<clipPath id="clip0_121_6670">
<rect width="620" height="1063" fill="white"/>
</clipPath>
<clipPath id="clip1_121_6670">
<rect width="620" height="197" fill="white"/>
</clipPath>
<clipPath id="clip2_121_6670">
<rect width="39.0825" height="39.0825" fill="white" transform="translate(40.5 588.5)"/>
</clipPath>
</defs>
</svg>
