<svg width="620" height="1063" viewBox="0 0 620 1063" fill="none" xmlns="http://www.w3.org/2000/svg">
<g clip-path="url(#clip0_121_6452)">
<rect y="197" width="620" height="866" fill="#DEDEDE"/>
<g clip-path="url(#clip1_121_6452)">
<rect width="620" height="197" fill="#0D4D6B"/>
<path d="M157.273 151.531C157.273 151.844 157.109 152 156.781 152H152.281C151.953 152 151.789 151.844 151.789 151.531V139.672C151.789 139.344 151.633 139.18 151.32 139.18H142.391C142.078 139.18 141.922 139.344 141.922 139.672V151.531C141.922 151.844 141.758 152 141.43 152H136.859C136.547 152 136.391 151.844 136.391 151.531V122.234C136.391 121.922 136.547 121.766 136.859 121.766H141.43C141.758 121.766 141.922 121.922 141.922 122.234V133.672C141.922 133.984 142.078 134.141 142.391 134.141H151.32C151.633 134.141 151.789 133.984 151.789 133.672V122.234C151.789 121.922 151.953 121.766 152.281 121.766H156.781C157.109 121.766 157.273 121.922 157.273 122.234V151.531ZM182.492 151.367C182.492 151.305 182.508 151.375 182.539 151.578C182.539 151.859 182.367 152 182.023 152H177.172C176.922 152 176.766 151.891 176.703 151.672L175.25 146.633C175.188 146.43 175.031 146.328 174.781 146.328H167.914C167.648 146.328 167.484 146.43 167.422 146.633L165.992 151.672C165.93 151.891 165.766 152 165.5 152H160.719C160.359 152 160.18 151.859 160.18 151.578C160.227 151.406 160.25 151.336 160.25 151.367L169.156 122.094C169.219 121.875 169.375 121.766 169.625 121.766H173.094C173.344 121.766 173.5 121.875 173.562 122.094L182.492 151.367ZM173.562 140.68L171.992 134.328C171.93 134.141 171.75 133.266 171.453 131.703H171.312C171.188 132.281 171 133.156 170.75 134.328L169.109 140.68C169.109 140.711 169.109 140.742 169.109 140.773C169.078 140.805 169.062 140.836 169.062 140.867C169.062 141.148 169.234 141.289 169.578 141.289H173.094C173.438 141.289 173.609 141.148 173.609 140.867C173.609 140.836 173.609 140.805 173.609 140.773C173.578 140.742 173.562 140.711 173.562 140.68ZM209.469 151.531C209.469 151.844 209.312 152 209 152H204.57C204.258 152 204.102 151.844 204.102 151.531L204.523 132.805L199.109 147.594C198.906 147.781 198.758 147.875 198.664 147.875H196.227C196.039 147.875 195.891 147.781 195.781 147.594L190.367 132.805L190.789 151.531C190.789 151.844 190.633 152 190.32 152H185.844C185.531 152 185.375 151.844 185.375 151.531V122.234C185.375 121.922 185.531 121.766 185.844 121.766H189.992C190.148 121.797 190.289 121.891 190.414 122.047L197.422 141.055L204.43 122.047C204.586 121.891 204.727 121.797 204.852 121.766H209C209.312 121.766 209.469 121.922 209.469 122.234V151.531ZM240.031 151.531C240.031 151.844 239.875 152 239.562 152H235.133C234.82 152 234.664 151.844 234.664 151.531L235.086 132.805L229.672 147.594C229.469 147.781 229.32 147.875 229.227 147.875H226.789C226.602 147.875 226.453 147.781 226.344 147.594L220.93 132.805L221.352 151.531C221.352 151.844 221.195 152 220.883 152H216.406C216.094 152 215.938 151.844 215.938 151.531V122.234C215.938 121.922 216.094 121.766 216.406 121.766H220.555C220.711 121.797 220.852 121.891 220.977 122.047L227.984 141.055L234.992 122.047C235.148 121.891 235.289 121.797 235.414 121.766H239.562C239.875 121.766 240.031 121.922 240.031 122.234V151.531ZM264.406 151.531C264.406 151.844 264.242 152 263.914 152H246.969C246.656 152 246.5 151.844 246.5 151.531V122.234C246.5 121.922 246.656 121.766 246.969 121.766H263.914C264.242 121.766 264.406 121.922 264.406 122.234V126.312C264.406 126.641 264.242 126.805 263.914 126.805H252.5C252.188 126.805 252.031 126.961 252.031 127.273V133.672C252.031 133.984 252.188 134.141 252.5 134.141H261.852C262.18 134.141 262.344 134.305 262.344 134.633V138.711C262.344 139.023 262.18 139.18 261.852 139.18H252.5C252.188 139.18 252.031 139.344 252.031 139.672V146.469C252.031 146.797 252.188 146.961 252.5 146.961H263.914C264.242 146.961 264.406 147.117 264.406 147.43V151.531ZM290.117 151.367C290.148 151.43 290.164 151.516 290.164 151.625C290.164 151.875 290 152 289.672 152H284.727C284.57 152 284.43 151.891 284.305 151.672L280.086 139.461L279.688 139.18H275.422C275.109 139.18 274.953 139.344 274.953 139.672V151.531C274.953 151.844 274.789 152 274.461 152H269.891C269.578 152 269.422 151.844 269.422 151.531V122.234C269.422 121.922 269.578 121.766 269.891 121.766H280.695C283.445 121.766 285.617 122.57 287.211 124.18C288.82 125.773 289.625 127.945 289.625 130.695V131.164C289.625 133.148 288.922 134.859 287.516 136.297C287.297 136.531 286.867 136.883 286.227 137.352C285.773 137.711 285.547 137.969 285.547 138.125V138.172L290.117 151.367ZM284.164 130.695V130.25C284.164 129.328 283.82 128.523 283.133 127.836C282.445 127.148 281.633 126.805 280.695 126.805H275.422C275.109 126.805 274.953 126.961 274.953 127.273V133.672C274.953 133.984 275.109 134.141 275.422 134.141H280.695C281.633 134.141 282.445 133.805 283.133 133.133C283.82 132.461 284.164 131.648 284.164 130.695ZM321.945 151.367C321.945 151.305 321.961 151.375 321.992 151.578C321.992 151.859 321.82 152 321.477 152H316.625C316.375 152 316.219 151.891 316.156 151.672L314.703 146.633C314.641 146.43 314.484 146.328 314.234 146.328H307.367C307.102 146.328 306.938 146.43 306.875 146.633L305.445 151.672C305.383 151.891 305.219 152 304.953 152H300.172C299.812 152 299.633 151.859 299.633 151.578C299.68 151.406 299.703 151.336 299.703 151.367L308.609 122.094C308.672 121.875 308.828 121.766 309.078 121.766H312.547C312.797 121.766 312.953 121.875 313.016 122.094L321.945 151.367ZM313.016 140.68L311.445 134.328C311.383 134.141 311.203 133.266 310.906 131.703H310.766C310.641 132.281 310.453 133.156 310.203 134.328L308.562 140.68C308.562 140.711 308.562 140.742 308.562 140.773C308.531 140.805 308.516 140.836 308.516 140.867C308.516 141.148 308.688 141.289 309.031 141.289H312.547C312.891 141.289 313.062 141.148 313.062 140.867C313.062 140.836 313.062 140.805 313.062 140.773C313.031 140.742 313.016 140.711 313.016 140.68ZM344.75 151.531C344.75 151.844 344.586 152 344.258 152H340.273L339.852 151.766L330.008 132.453L330.102 151.531C330.102 151.844 329.992 152 329.773 152H325.297C324.984 152 324.828 151.844 324.828 151.531V122.234C324.828 121.922 324.984 121.766 325.297 121.766H329.352L329.773 122L339.57 141.477L339.477 122.234C339.477 121.922 339.602 121.766 339.852 121.766H344.258C344.586 121.766 344.75 121.922 344.75 122.234V151.531ZM371.422 143.07C371.422 145.789 370.617 147.961 369.008 149.586C367.414 151.195 365.242 152 362.492 152H351.688C351.375 152 351.219 151.844 351.219 151.531V122.234C351.219 121.922 351.375 121.766 351.688 121.766H362.492C365.242 121.766 367.414 122.57 369.008 124.18C370.617 125.773 371.422 127.945 371.422 130.695V143.07ZM365.961 143.516V130.25C365.961 129.328 365.617 128.523 364.93 127.836C364.242 127.148 363.43 126.805 362.492 126.805H357.219C356.906 126.805 356.75 126.961 356.75 127.273V146.469C356.75 146.797 356.906 146.961 357.219 146.961H362.492C363.461 146.961 364.281 146.625 364.953 145.953C365.625 145.281 365.961 144.469 365.961 143.516ZM404.398 151.367C404.398 151.305 404.414 151.375 404.445 151.578C404.445 151.859 404.273 152 403.93 152H399.078C398.828 152 398.672 151.891 398.609 151.672L397.156 146.633C397.094 146.43 396.938 146.328 396.688 146.328H389.82C389.555 146.328 389.391 146.43 389.328 146.633L387.898 151.672C387.836 151.891 387.672 152 387.406 152H382.625C382.266 152 382.086 151.859 382.086 151.578C382.133 151.406 382.156 151.336 382.156 151.367L391.062 122.094C391.125 121.875 391.281 121.766 391.531 121.766H395C395.25 121.766 395.406 121.875 395.469 122.094L404.398 151.367ZM395.469 140.68L393.898 134.328C393.836 134.141 393.656 133.266 393.359 131.703H393.219C393.094 132.281 392.906 133.156 392.656 134.328L391.016 140.68C391.016 140.711 391.016 140.742 391.016 140.773C390.984 140.805 390.969 140.836 390.969 140.867C390.969 141.148 391.141 141.289 391.484 141.289H395C395.344 141.289 395.516 141.148 395.516 140.867C395.516 140.836 395.516 140.805 395.516 140.773C395.484 140.742 395.469 140.711 395.469 140.68ZM427.203 151.531C427.203 151.844 427.039 152 426.711 152H422.727L422.305 151.766L412.461 132.453L412.555 151.531C412.555 151.844 412.445 152 412.227 152H407.75C407.438 152 407.281 151.844 407.281 151.531V122.234C407.281 121.922 407.438 121.766 407.75 121.766H411.805L412.227 122L422.023 141.477L421.93 122.234C421.93 121.922 422.055 121.766 422.305 121.766H426.711C427.039 121.766 427.203 121.922 427.203 122.234V151.531ZM452.398 122.375L443.469 151.672C443.438 151.891 443.281 152 443 152H439.531C439.281 152 439.125 151.891 439.062 151.672L430.156 122.375C430.156 122.344 430.133 122.312 430.086 122.281C430.086 122.25 430.086 122.219 430.086 122.188C430.086 121.906 430.266 121.766 430.625 121.766H435.406C435.672 121.766 435.836 121.875 435.898 122.094L441.359 141.594L446.609 122.094C446.672 121.875 446.828 121.766 447.078 121.766H451.93C452.273 121.766 452.445 121.906 452.445 122.188C452.445 122.219 452.445 122.25 452.445 122.281C452.414 122.312 452.398 122.344 452.398 122.375ZM460.812 151.531C460.812 151.844 460.648 152 460.32 152H455.75C455.438 152 455.281 151.844 455.281 151.531V122.234C455.281 121.922 455.438 121.766 455.75 121.766H460.32C460.648 121.766 460.812 121.922 460.812 122.234V151.531ZM485.141 151.531C485.141 151.844 484.977 152 484.648 152H467.703C467.391 152 467.234 151.844 467.234 151.531V122.234C467.234 121.922 467.391 121.766 467.703 121.766H472.273C472.602 121.766 472.766 121.922 472.766 122.234V146.469C472.766 146.797 472.922 146.961 473.234 146.961H484.648C484.977 146.961 485.141 147.117 485.141 147.43V151.531Z" fill="white"/>
<line x1="26" y1="173.001" x2="594" y2="173.001" stroke="white" stroke-width="5"/>
<path d="M245.609 92.7612C245.609 94.5737 245.073 96.0216 244 97.105C242.938 98.1779 241.49 98.7144 239.656 98.7144H232.453C232.245 98.7144 232.141 98.6102 232.141 98.4019V78.8706C232.141 78.6623 232.245 78.5581 232.453 78.5581H239.656C241.49 78.5581 242.938 79.0946 244 80.1675C245.073 81.23 245.609 82.6779 245.609 84.5112V92.7612ZM241.969 93.0581V84.2144C241.969 83.5998 241.74 83.0633 241.281 82.605C240.823 82.1466 240.281 81.9175 239.656 81.9175H236.141C235.932 81.9175 235.828 82.0216 235.828 82.23V95.0269C235.828 95.2456 235.932 95.355 236.141 95.355H239.656C240.302 95.355 240.849 95.131 241.297 94.6831C241.745 94.2352 241.969 93.6935 241.969 93.0581ZM261.391 98.4019C261.391 98.6102 261.281 98.7144 261.062 98.7144H249.766C249.557 98.7144 249.453 98.6102 249.453 98.4019V78.8706C249.453 78.6623 249.557 78.5581 249.766 78.5581H261.062C261.281 78.5581 261.391 78.6623 261.391 78.8706V81.5894C261.391 81.8081 261.281 81.9175 261.062 81.9175H253.453C253.245 81.9175 253.141 82.0216 253.141 82.23V86.4956C253.141 86.7039 253.245 86.8081 253.453 86.8081H259.688C259.906 86.8081 260.016 86.9175 260.016 87.1362V89.855C260.016 90.0633 259.906 90.1675 259.688 90.1675H253.453C253.245 90.1675 253.141 90.2769 253.141 90.4956V95.0269C253.141 95.2456 253.245 95.355 253.453 95.355H261.062C261.281 95.355 261.391 95.4591 261.391 95.6675V98.4019ZM271.609 78.5581C273.422 78.5581 274.865 79.0998 275.938 80.1831C277.021 81.256 277.562 82.6987 277.562 84.5112C277.562 86.1675 277.01 87.5269 275.906 88.5894C274.812 89.6414 273.38 90.1675 271.609 90.1675H268.734C268.526 90.1675 268.422 90.2769 268.422 90.4956V98.4019C268.422 98.6102 268.312 98.7144 268.094 98.7144H265.047C264.839 98.7144 264.734 98.6102 264.734 98.4019V78.8706C264.734 78.6623 264.839 78.5581 265.047 78.5581H271.609ZM273.922 84.5112V84.2144C273.922 83.5998 273.698 83.0633 273.25 82.605C272.802 82.1466 272.255 81.9175 271.609 81.9175H268.734C268.526 81.9175 268.422 82.0216 268.422 82.23V86.4956C268.422 86.7039 268.526 86.8081 268.734 86.8081H271.609C272.255 86.8081 272.802 86.5841 273.25 86.1362C273.698 85.6883 273.922 85.1466 273.922 84.5112ZM292.141 98.4019C292.141 98.6102 292.031 98.7144 291.812 98.7144H280.516C280.307 98.7144 280.203 98.6102 280.203 98.4019V78.8706C280.203 78.6623 280.307 78.5581 280.516 78.5581H283.562C283.781 78.5581 283.891 78.6623 283.891 78.8706V95.0269C283.891 95.2456 283.995 95.355 284.203 95.355H291.812C292.031 95.355 292.141 95.4591 292.141 95.6675V98.4019ZM307.75 93.3706C307.75 95.0789 307.203 96.4487 306.109 97.48C305.026 98.5112 303.589 99.0269 301.797 99.0269H300.234C298.443 99.0269 297 98.5112 295.906 97.48C294.823 96.4487 294.281 95.0789 294.281 93.3706V83.9019C294.281 82.1935 294.823 80.8237 295.906 79.7925C297 78.7508 298.443 78.23 300.234 78.23H301.797C303.589 78.23 305.026 78.7508 306.109 79.7925C307.203 80.8237 307.75 82.1935 307.75 83.9019V93.3706ZM304.078 93.3706V83.9019C304.078 83.2352 303.859 82.6831 303.422 82.2456C302.984 81.8081 302.443 81.5894 301.797 81.5894H300.234C299.589 81.5894 299.042 81.8133 298.594 82.2612C298.146 82.7091 297.922 83.256 297.922 83.9019V93.3706C297.922 94.006 298.146 94.5477 298.594 94.9956C299.042 95.4435 299.589 95.6675 300.234 95.6675H301.797C302.443 95.6675 302.984 95.4487 303.422 95.0112C303.859 94.5737 304.078 94.0269 304.078 93.3706ZM324.094 79.0269L318.5 89.5269V98.4019C318.5 98.6102 318.396 98.7144 318.188 98.7144H315.141C314.922 98.7144 314.812 98.6102 314.812 98.4019V89.5269L309.234 79.0269C309.182 78.9019 309.156 78.8289 309.156 78.8081C309.156 78.6414 309.276 78.5581 309.516 78.5581H313.062L313.344 78.7456L316.391 85.0112C316.453 85.1675 316.547 85.2456 316.672 85.2456C316.807 85.2456 316.906 85.1675 316.969 85.0112L320 78.7456L320.297 78.5581H323.812C324.052 78.5581 324.172 78.6414 324.172 78.8081C324.172 78.8289 324.146 78.9019 324.094 79.0269ZM342.078 98.4019C342.078 98.6102 341.974 98.7144 341.766 98.7144H338.812C338.604 98.7144 338.5 98.6102 338.5 98.4019L338.781 85.9175L335.172 95.7769C335.036 95.9019 334.938 95.9644 334.875 95.9644H333.25C333.125 95.9644 333.026 95.9019 332.953 95.7769L329.344 85.9175L329.625 98.4019C329.625 98.6102 329.521 98.7144 329.312 98.7144H326.328C326.12 98.7144 326.016 98.6102 326.016 98.4019V78.8706C326.016 78.6623 326.12 78.5581 326.328 78.5581H329.094C329.198 78.5789 329.292 78.6414 329.375 78.7456L334.047 91.4175L338.719 78.7456C338.823 78.6414 338.917 78.5789 339 78.5581H341.766C341.974 78.5581 342.078 78.6623 342.078 78.8706V98.4019ZM358.328 98.4019C358.328 98.6102 358.219 98.7144 358 98.7144H346.703C346.495 98.7144 346.391 98.6102 346.391 98.4019V78.8706C346.391 78.6623 346.495 78.5581 346.703 78.5581H358C358.219 78.5581 358.328 78.6623 358.328 78.8706V81.5894C358.328 81.8081 358.219 81.9175 358 81.9175H350.391C350.182 81.9175 350.078 82.0216 350.078 82.23V86.4956C350.078 86.7039 350.182 86.8081 350.391 86.8081H356.625C356.844 86.8081 356.953 86.9175 356.953 87.1362V89.855C356.953 90.0633 356.844 90.1675 356.625 90.1675H350.391C350.182 90.1675 350.078 90.2769 350.078 90.4956V95.0269C350.078 95.2456 350.182 95.355 350.391 95.355H358C358.219 95.355 358.328 95.4591 358.328 95.6675V98.4019ZM374.953 98.4019C374.953 98.6102 374.844 98.7144 374.625 98.7144H371.969L371.688 98.5581L365.125 85.6831L365.188 98.4019C365.188 98.6102 365.115 98.7144 364.969 98.7144H361.984C361.776 98.7144 361.672 98.6102 361.672 98.4019V78.8706C361.672 78.6623 361.776 78.5581 361.984 78.5581H364.688L364.969 78.7144L371.5 91.6987L371.438 78.8706C371.438 78.6623 371.521 78.5581 371.688 78.5581H374.625C374.844 78.5581 374.953 78.6623 374.953 78.8706V98.4019ZM389.5 81.5894C389.5 81.8081 389.391 81.9175 389.172 81.9175H385.688C385.479 81.9175 385.375 82.0216 385.375 82.23V98.4019C385.375 98.6102 385.266 98.7144 385.047 98.7144H382.047C381.828 98.7144 381.719 98.6102 381.719 98.4019V82.23C381.719 82.0216 381.615 81.9175 381.406 81.9175H377.906C377.698 81.9175 377.594 81.8081 377.594 81.5894V78.8706C377.594 78.6623 377.698 78.5581 377.906 78.5581H389.172C389.391 78.5581 389.5 78.6623 389.5 78.8706V81.5894Z" fill="white"/>
</g>
</g>
<rect x="93" y="310.5" width="434" height="596" stroke="black" stroke-width="4"/>
<rect x="95" y="490.254" width="430" height="237.445" fill="#D0D0D0"/>
<rect x="95" y="312.5" width="430" height="177.6" fill="#A72222"/>
<rect x="95" y="727.054" width="430" height="177.6" fill="#3C722E"/>
<line x1="309.962" y1="312.116" x2="309.962" y2="904.116" stroke="black" stroke-opacity="0.25" stroke-dasharray="2 2"/>
<line x1="94.4624" y1="607.616" x2="524.462" y2="607.616" stroke="black" stroke-opacity="0.25" stroke-dasharray="2 2"/>
<ellipse cx="310" cy="412.064" rx="38.1625" ry="38.2109" fill="#0D4D6B"/>
<ellipse cx="310" cy="412.064" rx="8.0625" ry="8.07273" fill="black"/>
<path d="M310.194 407.224C311.027 407.261 312.948 407.552 313.6 409.407C314.153 410.989 313.105 412.777 313.323 413.02C314.175 413.983 313.018 415.516 312.856 415.644C312.569 415.869 311.661 415.408 311.804 415.648C311.909 415.827 312.01 417.168 312.012 417.198H311.729L311.593 416.721L311.35 416.717L311.306 417.195H310.815L310.77 416.737L310.606 416.714L310.583 417.192H310.19L310.169 416.7H309.845L309.825 417.192H309.425L309.402 416.714L309.238 416.737L309.194 417.195H308.702L308.658 416.717L308.416 416.721L308.279 417.198H307.996C307.998 417.169 308.096 415.827 308.204 415.648C308.347 415.408 307.439 415.873 307.152 415.644C306.99 415.518 305.829 413.986 306.685 413.02C306.9 412.78 305.846 410.993 306.402 409.407C307.05 407.552 308.975 407.261 309.804 407.224C309.804 407.224 309.873 407.22 309.996 407.22H310.002C310.122 407.22 310.194 407.224 310.194 407.224ZM310.037 414.513C309.965 414.55 309.903 414.591 309.859 414.636C309.501 414.984 309.491 415.46 309.504 415.695C309.505 415.726 309.545 415.74 309.566 415.716C309.614 415.654 309.682 415.583 309.774 415.518C309.869 415.449 309.965 415.404 310.037 415.377C310.108 415.404 310.204 415.446 310.299 415.518C310.388 415.583 310.46 415.655 310.507 415.716C310.528 415.74 310.565 415.729 310.569 415.695C310.582 415.463 310.576 414.981 310.214 414.636C310.167 414.592 310.108 414.55 310.037 414.513ZM307.531 413.341C307.289 413.426 307.213 413.567 307.193 413.608C307.06 413.884 307.235 414.328 307.692 414.612C307.702 414.618 307.715 414.622 307.729 414.625C307.937 414.653 308.456 414.697 308.982 414.406C309.2 414.287 309.361 414.144 309.473 414.021C309.514 413.973 309.5 413.901 309.446 413.87C309.224 413.758 308.948 413.638 308.624 413.539C308.224 413.416 307.862 413.362 307.572 413.334C307.558 413.334 307.544 413.338 307.531 413.341ZM312.446 413.337C312.156 413.364 311.794 413.419 311.395 413.542C311.071 413.638 310.797 413.758 310.572 413.874C310.518 413.902 310.504 413.973 310.544 414.021C310.657 414.14 310.818 414.288 311.037 414.407C311.558 414.697 312.077 414.653 312.289 414.626C312.302 414.623 312.313 414.619 312.327 414.612C312.787 414.332 312.961 413.887 312.825 413.611C312.804 413.569 312.725 413.429 312.487 413.344C312.473 413.337 312.459 413.334 312.446 413.337Z" fill="white"/>
<ellipse cx="310" cy="806.013" rx="38.1625" ry="38.2109" fill="#0D4D6B"/>
<ellipse cx="310" cy="806.013" rx="8.0625" ry="8.07273" fill="black"/>
<path d="M310.194 801.173C311.027 801.211 312.948 801.501 313.6 803.357C314.153 804.939 313.105 806.726 313.323 806.969C314.175 807.932 313.018 809.465 312.856 809.593C312.569 809.818 311.661 809.358 311.804 809.597C311.909 809.776 312.01 811.117 312.012 811.148H311.729L311.593 810.67L311.35 810.666L311.306 811.145H310.815L310.77 810.687L310.606 810.663L310.583 811.141H310.19L310.169 810.649H309.845L309.825 811.141H309.425L309.402 810.663L309.238 810.687L309.194 811.145H308.702L308.658 810.666L308.416 810.67L308.279 811.148H307.996C307.998 811.118 308.096 809.777 308.204 809.597C308.347 809.358 307.439 809.822 307.152 809.593C306.99 809.467 305.829 807.935 306.685 806.969C306.9 806.73 305.846 804.942 306.402 803.357C307.05 801.501 308.975 801.211 309.804 801.173C309.804 801.173 309.873 801.169 309.996 801.169H310.002C310.122 801.169 310.194 801.173 310.194 801.173ZM310.037 808.462C309.965 808.5 309.903 808.541 309.859 808.585C309.501 808.934 309.491 809.409 309.504 809.645C309.505 809.675 309.545 809.689 309.566 809.665C309.614 809.604 309.682 809.532 309.774 809.467C309.869 809.399 309.965 809.354 310.037 809.326C310.108 809.354 310.204 809.395 310.299 809.467C310.388 809.532 310.46 809.604 310.507 809.665C310.528 809.689 310.565 809.679 310.569 809.645C310.582 809.412 310.576 808.93 310.214 808.585C310.167 808.541 310.108 808.5 310.037 808.462ZM307.531 807.29C307.289 807.376 307.213 807.516 307.193 807.557C307.06 807.834 307.235 808.277 307.692 808.561C307.702 808.567 307.715 808.571 307.729 808.574C307.937 808.602 308.456 808.646 308.982 808.356C309.2 808.236 309.361 808.093 309.473 807.97C309.514 807.922 309.5 807.85 309.446 807.819C309.224 807.707 308.948 807.587 308.624 807.488C308.224 807.365 307.862 807.311 307.572 807.283C307.558 807.283 307.544 807.287 307.531 807.29ZM312.446 807.286C312.156 807.314 311.794 807.368 311.395 807.491C311.071 807.587 310.797 807.707 310.572 807.823C310.518 807.851 310.504 807.922 310.544 807.97C310.657 808.089 310.818 808.237 311.037 808.357C311.558 808.647 312.077 808.603 312.289 808.575C312.302 808.572 312.313 808.568 312.327 808.562C312.787 808.281 312.961 807.836 312.825 807.56C312.804 807.518 312.725 807.378 312.487 807.293C312.473 807.286 312.459 807.283 312.446 807.286Z" fill="white"/>
<ellipse cx="310" cy="607.577" rx="38.1625" ry="38.2109" fill="#0D4D6B"/>
<ellipse cx="310" cy="607.577" rx="8.0625" ry="8.07273" fill="black"/>
<path d="M310.194 602.738C311.027 602.775 312.948 603.066 313.6 604.921C314.153 606.503 313.105 608.291 313.323 608.533C314.175 609.497 313.018 611.029 312.856 611.157C312.569 611.383 311.661 610.922 311.804 611.161C311.909 611.341 312.01 612.682 312.012 612.712H311.729L311.593 612.235L311.35 612.231L311.306 612.709H310.815L310.77 612.251L310.606 612.228L310.583 612.705H310.19L310.169 612.214H309.845L309.825 612.705H309.425L309.402 612.228L309.238 612.251L309.194 612.709H308.702L308.658 612.231L308.416 612.235L308.279 612.712H307.996C307.998 612.683 308.096 611.341 308.204 611.161C308.347 610.922 307.439 611.386 307.152 611.157C306.99 611.032 305.829 609.5 306.685 608.533C306.9 608.294 305.846 606.507 306.402 604.921C307.05 603.066 308.975 602.775 309.804 602.738C309.804 602.738 309.873 602.734 309.996 602.734H310.002C310.122 602.734 310.194 602.738 310.194 602.738ZM310.037 610.027C309.965 610.064 309.903 610.105 309.859 610.15C309.501 610.498 309.491 610.973 309.504 611.209C309.505 611.24 309.545 611.254 309.566 611.23C309.614 611.168 309.682 611.096 309.774 611.031C309.869 610.963 309.965 610.918 310.037 610.891C310.108 610.918 310.204 610.96 310.299 611.031C310.388 611.096 310.46 611.168 310.507 611.23C310.528 611.254 310.565 611.243 310.569 611.209C310.582 610.977 310.576 610.495 310.214 610.15C310.167 610.105 310.108 610.064 310.037 610.027ZM307.531 608.855C307.289 608.94 307.213 609.08 307.193 609.121C307.06 609.398 307.235 609.842 307.692 610.125C307.702 610.132 307.715 610.136 307.729 610.139C307.937 610.166 308.456 610.211 308.982 609.92C309.2 609.801 309.361 609.657 309.473 609.534C309.514 609.487 309.5 609.415 309.446 609.384C309.224 609.271 308.948 609.152 308.624 609.053C308.224 608.93 307.862 608.875 307.572 608.848C307.558 608.848 307.544 608.851 307.531 608.855ZM312.446 608.851C312.156 608.878 311.794 608.933 311.395 609.056C311.071 609.152 310.797 609.272 310.572 609.388C310.518 609.415 310.504 609.487 310.544 609.534C310.657 609.654 310.818 609.802 311.037 609.921C311.558 610.211 312.077 610.167 312.289 610.14C312.302 610.136 312.313 610.133 312.327 610.126C312.787 609.846 312.961 609.401 312.825 609.124C312.804 609.083 312.725 608.943 312.487 608.858C312.473 608.851 312.459 608.847 312.446 608.851Z" fill="white"/>
<ellipse cx="463.187" cy="607.577" rx="38.1625" ry="38.2109" fill="#0D4D6B"/>
<ellipse cx="463.188" cy="607.577" rx="8.0625" ry="8.07273" fill="black"/>
<path d="M463.381 602.738C464.214 602.775 466.136 603.066 466.788 604.921C467.34 606.503 466.292 608.291 466.51 608.533C467.363 609.497 466.205 611.029 466.043 611.157C465.757 611.383 464.848 610.922 464.992 611.161C465.096 611.341 465.197 612.682 465.2 612.712H464.916L464.781 612.235L464.538 612.231L464.494 612.709H464.002L463.958 612.251L463.793 612.228L463.77 612.705H463.377L463.357 612.214H463.033L463.012 612.705H462.613L462.589 612.228L462.425 612.251L462.381 612.709H461.889L461.845 612.231L461.603 612.235L461.466 612.712H461.183C461.185 612.683 461.283 611.341 461.391 611.161C461.534 610.922 460.626 611.386 460.339 611.157C460.177 611.032 459.017 609.5 459.873 608.533C460.088 608.294 459.033 606.507 459.589 604.921C460.238 603.066 462.162 602.775 462.992 602.738C462.992 602.738 463.06 602.734 463.183 602.734H463.19C463.309 602.734 463.381 602.738 463.381 602.738ZM463.224 610.027C463.152 610.064 463.091 610.105 463.046 610.15C462.688 610.498 462.678 610.973 462.692 611.209C462.692 611.24 462.733 611.254 462.753 611.23C462.801 611.168 462.869 611.096 462.961 611.031C463.057 610.963 463.152 610.918 463.224 610.891C463.296 610.918 463.391 610.96 463.487 611.031C463.575 611.096 463.647 611.168 463.695 611.23C463.715 611.254 463.753 611.243 463.756 611.209C463.77 610.977 463.763 610.495 463.402 610.15C463.354 610.105 463.296 610.064 463.224 610.027ZM460.718 608.855C460.476 608.94 460.401 609.08 460.38 609.121C460.248 609.398 460.422 609.842 460.879 610.125C460.89 610.132 460.903 610.136 460.916 610.139C461.125 610.166 461.644 610.211 462.169 609.92C462.388 609.801 462.548 609.657 462.661 609.534C462.702 609.487 462.688 609.415 462.633 609.384C462.412 609.271 462.135 609.152 461.811 609.053C461.412 608.93 461.049 608.875 460.759 608.848C460.746 608.848 460.732 608.851 460.718 608.855ZM465.633 608.851C465.343 608.878 464.982 608.933 464.583 609.056C464.258 609.152 463.985 609.272 463.759 609.388C463.705 609.415 463.691 609.487 463.732 609.534C463.845 609.654 464.006 609.802 464.224 609.921C464.746 610.211 465.264 610.167 465.476 610.14C465.49 610.136 465.501 610.133 465.514 610.126C465.975 609.846 466.149 609.401 466.012 609.124C465.992 609.083 465.913 608.943 465.674 608.858C465.661 608.851 465.647 608.847 465.633 608.851Z" fill="white"/>
<ellipse cx="156.812" cy="607.577" rx="38.1625" ry="38.2109" fill="#0D4D6B"/>
<ellipse cx="156.812" cy="607.577" rx="8.0625" ry="8.07273" fill="black"/>
<path d="M157.006 602.738C157.839 602.775 159.761 603.066 160.413 604.921C160.965 606.503 159.917 608.291 160.135 608.533C160.988 609.497 159.83 611.029 159.668 611.157C159.382 611.383 158.473 610.922 158.617 611.161C158.721 611.341 158.822 612.682 158.825 612.712H158.541L158.406 612.235L158.163 612.231L158.119 612.709H157.627L157.583 612.251L157.418 612.228L157.395 612.705H157.002L156.982 612.214H156.658L156.637 612.705H156.238L156.214 612.228L156.05 612.251L156.006 612.709H155.514L155.47 612.231L155.228 612.235L155.091 612.712H154.808C154.81 612.683 154.908 611.341 155.016 611.161C155.159 610.922 154.251 611.386 153.964 611.157C153.802 611.032 152.642 609.5 153.498 608.533C153.713 608.294 152.658 606.507 153.214 604.921C153.863 603.066 155.787 602.775 156.617 602.738C156.617 602.738 156.685 602.734 156.808 602.734H156.815C156.934 602.734 157.006 602.738 157.006 602.738ZM156.849 610.027C156.777 610.064 156.716 610.105 156.671 610.15C156.313 610.498 156.303 610.973 156.317 611.209C156.317 611.24 156.358 611.254 156.378 611.23C156.426 611.168 156.494 611.096 156.586 611.031C156.682 610.963 156.777 610.918 156.849 610.891C156.921 610.918 157.016 610.96 157.112 611.031C157.2 611.096 157.272 611.168 157.32 611.23C157.34 611.254 157.378 611.243 157.381 611.209C157.395 610.977 157.388 610.495 157.027 610.15C156.979 610.105 156.921 610.064 156.849 610.027ZM154.343 608.855C154.101 608.94 154.026 609.08 154.005 609.121C153.873 609.398 154.047 609.842 154.504 610.125C154.515 610.132 154.528 610.136 154.541 610.139C154.75 610.166 155.269 610.211 155.794 609.92C156.013 609.801 156.173 609.657 156.286 609.534C156.327 609.487 156.313 609.415 156.258 609.384C156.037 609.271 155.76 609.152 155.436 609.053C155.037 608.93 154.674 608.875 154.384 608.848C154.371 608.848 154.357 608.851 154.343 608.855ZM159.258 608.851C158.968 608.878 158.607 608.933 158.208 609.056C157.883 609.152 157.61 609.272 157.384 609.388C157.33 609.415 157.316 609.487 157.357 609.534C157.47 609.654 157.631 609.802 157.849 609.921C158.371 610.211 158.889 610.167 159.101 610.14C159.115 610.136 159.126 610.133 159.139 610.126C159.6 609.846 159.774 609.401 159.637 609.124C159.617 609.083 159.538 608.943 159.299 608.858C159.286 608.851 159.272 608.847 159.258 608.851Z" fill="white"/>
<path d="M310 312L304.226 322L315.774 322L310 312ZM310 404L315.774 394L304.227 394L310 404ZM310 321L309 321L309 395L310 395L311 395L311 321L310 321Z" fill="white"/>
<path d="M323.793 368.863C323.793 369.019 323.715 369.097 323.559 369.097H315.801C315.645 369.097 315.566 369.019 315.566 368.863V366.812C315.566 366.656 315.645 366.578 315.801 366.578H318.062C318.219 366.578 318.297 366.496 318.297 366.332V359.3C318.297 359.129 318.227 359.043 318.086 359.043C318.016 359.043 317.949 359.074 317.887 359.136L317.172 359.886C317.109 359.949 317.055 359.98 317.008 359.98C316.953 359.98 316.895 359.949 316.832 359.886L315.344 358.422C315.281 358.351 315.25 358.293 315.25 358.246C315.25 358.199 315.281 358.144 315.344 358.082L319.352 354.05L319.527 353.98H320.816C320.98 353.98 321.062 354.058 321.062 354.215V366.332C321.062 366.496 321.141 366.578 321.297 366.578H323.559C323.715 366.578 323.793 366.656 323.793 366.812V368.863ZM336.238 365.09C336.238 366.355 335.828 367.379 335.008 368.16C334.195 368.941 333.117 369.332 331.773 369.332H331.082C329.738 369.332 328.656 368.945 327.836 368.172C327.023 367.398 326.617 366.371 326.617 365.09V357.988C326.617 356.707 327.023 355.679 327.836 354.906C328.656 354.125 329.738 353.734 331.082 353.734H331.773C333.117 353.734 334.195 354.125 335.008 354.906C335.828 355.679 336.238 356.707 336.238 357.988V365.09ZM333.484 365.09V357.988C333.484 357.488 333.32 357.074 332.992 356.746C332.664 356.418 332.258 356.254 331.773 356.254H331.082C330.598 356.254 330.188 356.422 329.852 356.758C329.516 357.093 329.348 357.504 329.348 357.988V365.09C329.348 365.566 329.516 365.972 329.852 366.308C330.188 366.644 330.598 366.812 331.082 366.812H331.773C332.258 366.812 332.664 366.648 332.992 366.32C333.32 365.992 333.484 365.582 333.484 365.09ZM345.004 355.879C345.004 357.168 344.715 358.148 344.137 358.82C343.527 359.547 343.031 359.91 342.648 359.91C342.586 359.91 342.531 359.859 342.484 359.758L341.816 358.539C341.777 358.476 341.758 358.437 341.758 358.422C341.758 358.351 341.816 358.277 341.934 358.199C342.527 357.754 342.824 357.332 342.824 356.933C342.824 356.754 342.742 356.664 342.578 356.664H342.367C342.203 356.664 342.121 356.586 342.121 356.429V354.215C342.121 354.058 342.203 353.98 342.367 353.98H344.758C344.922 353.98 345.004 354.058 345.004 354.215V355.879ZM341.23 355.879C341.23 357.168 340.93 358.164 340.328 358.867C339.734 359.562 339.246 359.91 338.863 359.91C338.793 359.91 338.734 359.859 338.688 359.758L338.066 358.562C338.035 358.5 338.02 358.453 338.02 358.422C338.02 358.406 338.191 358.25 338.535 357.953C338.879 357.656 339.051 357.316 339.051 356.933C339.051 356.754 338.973 356.664 338.816 356.664H338.617C338.461 356.664 338.383 356.586 338.383 356.429V354.215C338.383 354.058 338.461 353.98 338.617 353.98H340.996C341.152 353.98 341.23 354.058 341.23 354.215V355.879Z" fill="white"/>
<path d="M471 608L481 613.774L481 602.226L471 608ZM525 608L515 602.226L515 613.773L525 608ZM480 608L480 609L516 609L516 608L516 607L480 607L480 608Z" fill="black"/>
<path d="M511.678 599.66C511.678 600.942 511.268 601.969 510.448 602.742C509.635 603.516 508.549 603.903 507.19 603.903H506.475C505.131 603.903 504.049 603.516 503.229 602.742C502.417 601.969 502.01 600.942 502.01 599.66V592.559C502.01 591.278 502.417 590.25 503.229 589.477C504.049 588.696 505.131 588.305 506.475 588.305H507.19C508.284 588.305 509.198 588.571 509.932 589.102C510.346 589.407 510.721 589.797 511.057 590.274C511.331 590.672 511.467 590.961 511.467 591.141C511.467 591.219 511.42 591.282 511.327 591.328L509.229 592.336C509.198 592.352 509.159 592.36 509.112 592.36C509.034 592.36 508.932 592.242 508.807 592.008C508.37 591.219 507.831 590.825 507.19 590.825H506.475C505.991 590.825 505.584 590.989 505.256 591.317C504.936 591.645 504.776 592.059 504.776 592.559V594.739C504.776 594.918 504.831 595.008 504.94 595.008C505.002 595.008 505.229 594.926 505.62 594.762C506.01 594.59 506.374 594.504 506.709 594.504H507.436C508.67 594.504 509.686 594.903 510.483 595.7C511.28 596.496 511.678 597.512 511.678 598.746V599.66ZM508.924 599.66V598.746C508.924 598.285 508.756 597.883 508.42 597.539C508.084 597.196 507.674 597.024 507.19 597.024H506.475C505.991 597.024 505.584 597.188 505.256 597.516C504.936 597.844 504.776 598.254 504.776 598.746V599.66C504.776 600.153 504.936 600.563 505.256 600.891C505.584 601.219 505.991 601.383 506.475 601.383H507.19C507.674 601.383 508.084 601.215 508.42 600.879C508.756 600.543 508.924 600.137 508.924 599.66ZM520.397 590.45C520.397 591.739 520.108 592.719 519.53 593.391C518.92 594.117 518.424 594.481 518.042 594.481C517.979 594.481 517.924 594.43 517.877 594.328L517.209 593.11C517.17 593.047 517.151 593.008 517.151 592.992C517.151 592.922 517.209 592.848 517.327 592.77C517.92 592.325 518.217 591.903 518.217 591.504C518.217 591.325 518.135 591.235 517.971 591.235H517.76C517.596 591.235 517.514 591.157 517.514 591V588.785C517.514 588.629 517.596 588.551 517.76 588.551H520.151C520.315 588.551 520.397 588.629 520.397 588.785V590.45ZM516.624 590.45C516.624 591.739 516.323 592.735 515.721 593.438C515.127 594.133 514.639 594.481 514.256 594.481C514.186 594.481 514.127 594.43 514.081 594.328L513.459 593.133C513.428 593.071 513.413 593.024 513.413 592.992C513.413 592.977 513.584 592.821 513.928 592.524C514.272 592.227 514.444 591.887 514.444 591.504C514.444 591.325 514.366 591.235 514.209 591.235H514.01C513.854 591.235 513.776 591.157 513.776 591V588.785C513.776 588.629 513.854 588.551 514.01 588.551H516.389C516.545 588.551 516.624 588.629 516.624 588.785V590.45Z" fill="black"/>
<path d="M95 608L105 613.774L105 602.226L95 608ZM149 608L139 602.227L139 613.774L149 608ZM104 608L104 609L140 609L140 608L140 607L104 607L104 608Z" fill="black"/>
<path d="M119.428 599.663C119.428 600.945 119.018 601.972 118.198 602.745C117.385 603.519 116.299 603.906 114.94 603.906H114.225C112.881 603.906 111.799 603.519 110.979 602.745C110.167 601.972 109.76 600.945 109.76 599.663V592.562C109.76 591.281 110.167 590.253 110.979 589.48C111.799 588.699 112.881 588.308 114.225 588.308H114.94C116.034 588.308 116.948 588.574 117.682 589.105C118.096 589.41 118.471 589.8 118.807 590.277C119.081 590.675 119.217 590.964 119.217 591.144C119.217 591.222 119.17 591.285 119.077 591.331L116.979 592.339C116.948 592.355 116.909 592.363 116.862 592.363C116.784 592.363 116.682 592.245 116.557 592.011C116.12 591.222 115.581 590.828 114.94 590.828H114.225C113.741 590.828 113.334 590.992 113.006 591.32C112.686 591.648 112.526 592.062 112.526 592.562V594.742C112.526 594.921 112.581 595.011 112.69 595.011C112.752 595.011 112.979 594.929 113.37 594.765C113.76 594.593 114.124 594.507 114.459 594.507H115.186C116.42 594.507 117.436 594.906 118.233 595.703C119.03 596.499 119.428 597.515 119.428 598.749V599.663ZM116.674 599.663V598.749C116.674 598.288 116.506 597.886 116.17 597.542C115.834 597.199 115.424 597.027 114.94 597.027H114.225C113.741 597.027 113.334 597.191 113.006 597.519C112.686 597.847 112.526 598.257 112.526 598.749V599.663C112.526 600.156 112.686 600.566 113.006 600.894C113.334 601.222 113.741 601.386 114.225 601.386H114.94C115.424 601.386 115.834 601.218 116.17 600.882C116.506 600.546 116.674 600.14 116.674 599.663ZM128.147 590.453C128.147 591.742 127.858 592.722 127.28 593.394C126.67 594.12 126.174 594.484 125.792 594.484C125.729 594.484 125.674 594.433 125.627 594.331L124.959 593.113C124.92 593.05 124.901 593.011 124.901 592.995C124.901 592.925 124.959 592.851 125.077 592.773C125.67 592.328 125.967 591.906 125.967 591.507C125.967 591.328 125.885 591.238 125.721 591.238H125.51C125.346 591.238 125.264 591.16 125.264 591.003V588.788C125.264 588.632 125.346 588.554 125.51 588.554H127.901C128.065 588.554 128.147 588.632 128.147 588.788V590.453ZM124.374 590.453C124.374 591.742 124.073 592.738 123.471 593.441C122.877 594.136 122.389 594.484 122.006 594.484C121.936 594.484 121.877 594.433 121.831 594.331L121.209 593.136C121.178 593.074 121.163 593.027 121.163 592.995C121.163 592.98 121.334 592.824 121.678 592.527C122.022 592.23 122.194 591.89 122.194 591.507C122.194 591.328 122.116 591.238 121.959 591.238H121.76C121.604 591.238 121.526 591.16 121.526 591.003V588.788C121.526 588.632 121.604 588.554 121.76 588.554H124.139C124.295 588.554 124.374 588.632 124.374 588.788V590.453Z" fill="black"/>
<rect x="310" y="821.082" width="1.7703e-06" height="87.1855" stroke="white" stroke-width="1.7703e-06"/>
<path d="M310 814L304.226 824L315.774 824L310 814ZM310 905L315.774 895L304.227 895L310 905ZM310 823L309 823L309 896L310 896L311 896L311 823L310 823Z" fill="white"/>
<path d="M322.793 873.677C322.793 873.834 322.715 873.912 322.559 873.912H314.801C314.645 873.912 314.566 873.834 314.566 873.677V871.627C314.566 871.47 314.645 871.392 314.801 871.392H317.062C317.219 871.392 317.297 871.31 317.297 871.146V864.115C317.297 863.943 317.227 863.857 317.086 863.857C317.016 863.857 316.949 863.888 316.887 863.951L316.172 864.701C316.109 864.763 316.055 864.795 316.008 864.795C315.953 864.795 315.895 864.763 315.832 864.701L314.344 863.236C314.281 863.166 314.25 863.107 314.25 863.06C314.25 863.013 314.281 862.959 314.344 862.896L318.352 858.865L318.527 858.795H319.816C319.98 858.795 320.062 858.873 320.062 859.029V871.146C320.062 871.31 320.141 871.392 320.297 871.392H322.559C322.715 871.392 322.793 871.47 322.793 871.627V873.677ZM335.238 869.904C335.238 871.17 334.828 872.193 334.008 872.974C333.195 873.756 332.117 874.146 330.773 874.146H330.082C328.738 874.146 327.656 873.76 326.836 872.986C326.023 872.213 325.617 871.185 325.617 869.904V862.802C325.617 861.521 326.023 860.494 326.836 859.72C327.656 858.939 328.738 858.549 330.082 858.549H330.773C332.117 858.549 333.195 858.939 334.008 859.72C334.828 860.494 335.238 861.521 335.238 862.802V869.904ZM332.484 869.904V862.802C332.484 862.302 332.32 861.888 331.992 861.56C331.664 861.232 331.258 861.068 330.773 861.068H330.082C329.598 861.068 329.188 861.236 328.852 861.572C328.516 861.908 328.348 862.318 328.348 862.802V869.904C328.348 870.381 328.516 870.787 328.852 871.123C329.188 871.459 329.598 871.627 330.082 871.627H330.773C331.258 871.627 331.664 871.463 331.992 871.135C332.32 870.806 332.484 870.396 332.484 869.904ZM344.004 860.693C344.004 861.982 343.715 862.963 343.137 863.635C342.527 864.361 342.031 864.724 341.648 864.724C341.586 864.724 341.531 864.674 341.484 864.572L340.816 863.353C340.777 863.291 340.758 863.252 340.758 863.236C340.758 863.166 340.816 863.092 340.934 863.013C341.527 862.568 341.824 862.146 341.824 861.748C341.824 861.568 341.742 861.478 341.578 861.478H341.367C341.203 861.478 341.121 861.4 341.121 861.244V859.029C341.121 858.873 341.203 858.795 341.367 858.795H343.758C343.922 858.795 344.004 858.873 344.004 859.029V860.693ZM340.23 860.693C340.23 861.982 339.93 862.978 339.328 863.681C338.734 864.377 338.246 864.724 337.863 864.724C337.793 864.724 337.734 864.674 337.688 864.572L337.066 863.377C337.035 863.314 337.02 863.267 337.02 863.236C337.02 863.22 337.191 863.064 337.535 862.767C337.879 862.47 338.051 862.131 338.051 861.748C338.051 861.568 337.973 861.478 337.816 861.478H337.617C337.461 861.478 337.383 861.4 337.383 861.244V859.029C337.383 858.873 337.461 858.795 337.617 858.795H339.996C340.152 858.795 340.23 858.873 340.23 859.029V860.693Z" fill="white"/>
<path d="M428 312L422.226 322L433.774 322L428 312ZM428 490L433.774 480L422.227 480L428 490ZM428 321L427 321L427 481L428 481L429 481L429 321L428 321Z" fill="white"/>
<path d="M444.043 410.841C444.043 410.997 443.965 411.076 443.809 411.076H436.051C435.895 411.076 435.816 410.997 435.816 410.841V408.79C435.816 408.634 435.895 408.556 436.051 408.556H438.312C438.469 408.556 438.547 408.474 438.547 408.31V401.279C438.547 401.107 438.477 401.021 438.336 401.021C438.266 401.021 438.199 401.052 438.137 401.115L437.422 401.865C437.359 401.927 437.305 401.958 437.258 401.958C437.203 401.958 437.145 401.927 437.082 401.865L435.594 400.4C435.531 400.329 435.5 400.271 435.5 400.224C435.5 400.177 435.531 400.122 435.594 400.06L439.602 396.029L439.777 395.958H441.066C441.23 395.958 441.312 396.036 441.312 396.193V408.31C441.312 408.474 441.391 408.556 441.547 408.556H443.809C443.965 408.556 444.043 408.634 444.043 408.79V410.841ZM456.488 406.88C456.488 408.24 456.082 409.318 455.27 410.115C454.465 410.911 453.383 411.31 452.023 411.31H451.332C449.957 411.31 448.867 410.915 448.062 410.126C447.266 409.337 446.867 408.255 446.867 406.88V406.294C446.867 405.661 447.066 405.056 447.465 404.478C447.98 403.744 448.238 403.392 448.238 403.423C448.238 403.423 447.965 403.052 447.418 402.31C447.051 401.818 446.867 401.267 446.867 400.658V400.201C446.867 398.826 447.266 397.736 448.062 396.931C448.867 396.119 449.957 395.712 451.332 395.712H452.023C453.383 395.712 454.465 396.122 455.27 396.943C456.082 397.755 456.488 398.841 456.488 400.201V400.658C456.488 401.267 456.305 401.818 455.938 402.31C455.398 403.052 455.129 403.423 455.129 403.423C455.129 403.392 455.383 403.744 455.891 404.478C456.289 405.056 456.488 405.661 456.488 406.294V406.88ZM453.734 400.423V399.966C453.734 399.466 453.57 399.052 453.242 398.724C452.914 398.396 452.508 398.232 452.023 398.232H451.332C450.848 398.232 450.438 398.4 450.102 398.736C449.766 399.072 449.598 399.482 449.598 399.966V400.423C449.598 400.9 449.766 401.306 450.102 401.642C450.438 401.978 450.848 402.146 451.332 402.146H452.023C452.508 402.146 452.914 401.982 453.242 401.654C453.57 401.326 453.734 400.915 453.734 400.423ZM453.734 407.068V406.376C453.734 405.892 453.57 405.486 453.242 405.158C452.914 404.829 452.508 404.665 452.023 404.665H451.332C450.832 404.665 450.418 404.829 450.09 405.158C449.762 405.486 449.598 405.892 449.598 406.376V407.068C449.598 407.544 449.766 407.951 450.102 408.286C450.438 408.622 450.848 408.79 451.332 408.79H452.023C452.508 408.79 452.914 408.626 453.242 408.298C453.57 407.97 453.734 407.56 453.734 407.068ZM465.254 397.857C465.254 399.146 464.965 400.126 464.387 400.798C463.777 401.525 463.281 401.888 462.898 401.888C462.836 401.888 462.781 401.837 462.734 401.736L462.066 400.517C462.027 400.454 462.008 400.415 462.008 400.4C462.008 400.329 462.066 400.255 462.184 400.177C462.777 399.732 463.074 399.31 463.074 398.911C463.074 398.732 462.992 398.642 462.828 398.642H462.617C462.453 398.642 462.371 398.564 462.371 398.408V396.193C462.371 396.036 462.453 395.958 462.617 395.958H465.008C465.172 395.958 465.254 396.036 465.254 396.193V397.857ZM461.48 397.857C461.48 399.146 461.18 400.142 460.578 400.845C459.984 401.54 459.496 401.888 459.113 401.888C459.043 401.888 458.984 401.837 458.938 401.736L458.316 400.54C458.285 400.478 458.27 400.431 458.27 400.4C458.27 400.384 458.441 400.228 458.785 399.931C459.129 399.634 459.301 399.294 459.301 398.911C459.301 398.732 459.223 398.642 459.066 398.642H458.867C458.711 398.642 458.633 398.564 458.633 398.408V396.193C458.633 396.036 458.711 395.958 458.867 395.958H461.246C461.402 395.958 461.48 396.036 461.48 396.193V397.857Z" fill="white"/>
<rect x="191.75" y="731.744" width="1.7703e-06" height="176.524" stroke="white" stroke-width="1.7703e-06"/>
<path d="M192 727L186.226 737L197.774 737L192 727ZM192 905L197.774 895L186.227 895L192 905ZM192 736L191 736L191 896L192 896L193 896L193 736L192 736Z" fill="white"/>
<path d="M206.543 828.47C206.543 828.627 206.465 828.705 206.309 828.705H198.551C198.395 828.705 198.316 828.627 198.316 828.47V826.419C198.316 826.263 198.395 826.185 198.551 826.185H200.812C200.969 826.185 201.047 826.103 201.047 825.939V818.908C201.047 818.736 200.977 818.65 200.836 818.65C200.766 818.65 200.699 818.681 200.637 818.744L199.922 819.494C199.859 819.556 199.805 819.587 199.758 819.587C199.703 819.587 199.645 819.556 199.582 819.494L198.094 818.029C198.031 817.959 198 817.9 198 817.853C198 817.806 198.031 817.752 198.094 817.689L202.102 813.658L202.277 813.587H203.566C203.73 813.587 203.812 813.666 203.812 813.822V825.939C203.812 826.103 203.891 826.185 204.047 826.185H206.309C206.465 826.185 206.543 826.263 206.543 826.419V828.47ZM218.988 824.509C218.988 825.869 218.582 826.947 217.77 827.744C216.965 828.541 215.883 828.939 214.523 828.939H213.832C212.457 828.939 211.367 828.544 210.562 827.755C209.766 826.966 209.367 825.884 209.367 824.509V823.923C209.367 823.291 209.566 822.685 209.965 822.107C210.48 821.373 210.738 821.021 210.738 821.052C210.738 821.052 210.465 820.681 209.918 819.939C209.551 819.447 209.367 818.896 209.367 818.287V817.83C209.367 816.455 209.766 815.365 210.562 814.56C211.367 813.748 212.457 813.341 213.832 813.341H214.523C215.883 813.341 216.965 813.752 217.77 814.572C218.582 815.384 218.988 816.47 218.988 817.83V818.287C218.988 818.896 218.805 819.447 218.438 819.939C217.898 820.681 217.629 821.052 217.629 821.052C217.629 821.021 217.883 821.373 218.391 822.107C218.789 822.685 218.988 823.291 218.988 823.923V824.509ZM216.234 818.052V817.595C216.234 817.095 216.07 816.681 215.742 816.353C215.414 816.025 215.008 815.861 214.523 815.861H213.832C213.348 815.861 212.938 816.029 212.602 816.365C212.266 816.701 212.098 817.111 212.098 817.595V818.052C212.098 818.529 212.266 818.935 212.602 819.271C212.938 819.607 213.348 819.775 213.832 819.775H214.523C215.008 819.775 215.414 819.611 215.742 819.283C216.07 818.955 216.234 818.544 216.234 818.052ZM216.234 824.697V824.005C216.234 823.521 216.07 823.115 215.742 822.787C215.414 822.459 215.008 822.294 214.523 822.294H213.832C213.332 822.294 212.918 822.459 212.59 822.787C212.262 823.115 212.098 823.521 212.098 824.005V824.697C212.098 825.173 212.266 825.58 212.602 825.916C212.938 826.252 213.348 826.419 213.832 826.419H214.523C215.008 826.419 215.414 826.255 215.742 825.927C216.07 825.599 216.234 825.189 216.234 824.697ZM227.754 815.486C227.754 816.775 227.465 817.755 226.887 818.427C226.277 819.154 225.781 819.517 225.398 819.517C225.336 819.517 225.281 819.466 225.234 819.365L224.566 818.146C224.527 818.084 224.508 818.044 224.508 818.029C224.508 817.959 224.566 817.884 224.684 817.806C225.277 817.361 225.574 816.939 225.574 816.541C225.574 816.361 225.492 816.271 225.328 816.271H225.117C224.953 816.271 224.871 816.193 224.871 816.037V813.822C224.871 813.666 224.953 813.587 225.117 813.587H227.508C227.672 813.587 227.754 813.666 227.754 813.822V815.486ZM223.98 815.486C223.98 816.775 223.68 817.771 223.078 818.474C222.484 819.169 221.996 819.517 221.613 819.517C221.543 819.517 221.484 819.466 221.438 819.365L220.816 818.169C220.785 818.107 220.77 818.06 220.77 818.029C220.77 818.013 220.941 817.857 221.285 817.56C221.629 817.263 221.801 816.923 221.801 816.541C221.801 816.361 221.723 816.271 221.566 816.271H221.367C221.211 816.271 221.133 816.193 221.133 816.037V813.822C221.133 813.666 221.211 813.587 221.367 813.587H223.746C223.902 813.587 223.98 813.666 223.98 813.822V815.486Z" fill="white"/>
<path d="M327.181 926L311.548 919.487C311.071 919.289 310.561 919.188 310.045 919.188C309.53 919.188 309.019 919.289 308.543 919.487L292.91 926C291.453 926.603 290.5 928.028 290.5 929.607C290.5 945.77 299.823 956.941 308.535 960.572C309.496 960.971 310.579 960.971 311.539 960.572C318.517 957.665 329.583 947.626 329.583 929.607C329.583 928.028 328.63 926.603 327.181 926ZM310.049 955.524L310.041 924.502L324.363 930.471C324.095 942.798 317.679 951.73 310.049 955.524Z" fill="#3C722E"/>
<g clip-path="url(#clip2_121_6452)">
<path d="M297.828 257.5L306.587 266.259L299.259 273.587L290.5 264.828V257.5H297.828Z" fill="#A72222"/>
<path d="M306.883 287.527L310.547 291.191L307.093 294.646L301.492 289.045L297.822 292.715C297.826 292.782 297.828 292.85 297.828 292.919C297.828 294.942 296.188 296.583 294.164 296.583C292.14 296.583 290.5 294.942 290.5 292.919C290.5 290.895 292.14 289.255 294.164 289.255C294.232 289.255 294.3 289.256 294.368 289.26L298.038 285.591L292.437 279.99L295.891 276.535L299.555 280.199L322.255 257.5H329.583V264.828L306.883 287.527Z" fill="#A72222"/>
<path d="M325.919 296.582C323.895 296.582 322.255 294.942 322.255 292.919C322.255 292.85 322.257 292.782 322.26 292.715L315.136 285.591L324.191 276.535L327.646 279.99L322.045 285.591L325.715 289.26C325.782 289.256 325.85 289.255 325.919 289.255C327.942 289.255 329.583 290.895 329.583 292.919C329.583 294.942 327.942 296.582 325.919 296.582Z" fill="#A72222"/>
</g>
<defs>
<clipPath id="clip0_121_6452">
<rect width="620" height="1063" fill="white"/>
</clipPath>
<clipPath id="clip1_121_6452">
<rect width="620" height="197" fill="white"/>
</clipPath>
<clipPath id="clip2_121_6452">
<rect width="39.0825" height="39.0825" fill="white" transform="translate(290.5 257.5)"/>
</clipPath>
</defs>
</svg>
