<svg width="620" height="1063" viewBox="0 0 620 1063" fill="none" xmlns="http://www.w3.org/2000/svg">
<g clip-path="url(#clip0_121_6738)">
<rect y="197" width="620" height="866" fill="#DEDEDE"/>
<path d="M98 430.098V685.2C98 693.538 106.414 699.239 114.15 696.146L215.778 649.857V367L112.811 408.213C108.439 409.963 104.692 412.983 102.052 416.883C99.4125 420.784 98.001 425.387 98 430.098ZM239.333 649.857L380.667 697V414.143L239.333 367V649.857ZM505.85 367.854L404.222 414.143V697L507.189 655.787C511.561 654.038 515.309 651.018 517.949 647.118C520.589 643.217 522 638.613 522 633.902V378.8C522 370.462 513.586 364.761 505.85 367.854Z" fill="white" fill-opacity="0.4"/>
<g clip-path="url(#clip1_121_6738)">
<rect width="620" height="197" fill="#0D4D6B"/>
<path d="M100.781 126.312C99.8125 126.312 98.9922 126.648 98.3203 127.32C97.6484 127.992 97.3125 128.812 97.3125 129.781C97.3125 130.766 97.8281 131.594 98.8594 132.266C99.2031 132.531 100.547 133.188 102.891 134.234C105.547 135.453 107.445 136.781 108.586 138.219C109.805 139.766 110.414 141.688 110.414 143.984C110.414 146.547 109.594 148.602 107.953 150.148C106.328 151.695 104.172 152.469 101.484 152.469H99.5625C96.875 152.469 94.7969 151.719 93.3281 150.219C91.8594 148.719 91.125 147.555 91.125 146.727C91.125 146.602 91.2188 146.484 91.4062 146.375L95.5781 144.312C95.6562 144.281 95.7422 144.266 95.8359 144.266C95.9609 144.266 96.2656 144.75 96.75 145.719C97.3125 146.859 98.25 147.43 99.5625 147.43H101.484C102.422 147.43 103.234 147.094 103.922 146.422C104.609 145.75 104.953 144.938 104.953 143.984C104.953 142.891 104.484 141.977 103.547 141.242C103.016 140.836 101.773 140.164 99.8203 139.227C96.9609 137.852 94.9766 136.555 93.8672 135.336C92.5234 133.867 91.8516 132.016 91.8516 129.781C91.8516 127.219 92.6641 125.164 94.2891 123.617C95.9297 122.055 98.0938 121.273 100.781 121.273H101.484C103.672 121.273 105.5 121.805 106.969 122.867C107.797 123.477 108.547 124.258 109.219 125.211C109.766 126.008 110.039 126.586 110.039 126.945C110.039 127.102 109.945 127.227 109.758 127.32L105.562 129.383C105.5 129.414 105.422 129.43 105.328 129.43C105.203 129.43 105 129.195 104.719 128.727C103.75 127.117 102.672 126.312 101.484 126.312H100.781ZM142.758 122.328L136.43 151.625C136.367 151.875 136.203 152 135.938 152H132.445C132.195 152 132.031 151.891 131.953 151.672L127.125 132.664L122.32 151.672C122.258 151.891 122.094 152 121.828 152H118.336C118.07 152 117.906 151.875 117.844 151.625L111.516 122.328C111.516 122.297 111.516 122.266 111.516 122.234C111.484 122.203 111.469 122.172 111.469 122.141C111.469 121.891 111.648 121.766 112.008 121.766H116.883C117.18 121.766 117.344 121.891 117.375 122.141L120.867 141.688L125.438 122C125.5 121.781 125.656 121.672 125.906 121.672H128.32C128.57 121.672 128.727 121.781 128.789 122L133.359 141.688L136.898 122.141C136.93 121.891 137.094 121.766 137.391 121.766H142.289C142.633 121.766 142.805 121.891 142.805 122.141C142.805 122.172 142.805 122.203 142.805 122.234C142.773 122.266 142.758 122.297 142.758 122.328ZM164.039 151.531C164.039 151.844 163.875 152 163.547 152H146.602C146.289 152 146.133 151.844 146.133 151.531V122.234C146.133 121.922 146.289 121.766 146.602 121.766H163.547C163.875 121.766 164.039 121.922 164.039 122.234V126.312C164.039 126.641 163.875 126.805 163.547 126.805H152.133C151.82 126.805 151.664 126.961 151.664 127.273V133.672C151.664 133.984 151.82 134.141 152.133 134.141H161.484C161.812 134.141 161.977 134.305 161.977 134.633V138.711C161.977 139.023 161.812 139.18 161.484 139.18H152.133C151.82 139.18 151.664 139.344 151.664 139.672V146.469C151.664 146.797 151.82 146.961 152.133 146.961H163.547C163.875 146.961 164.039 147.117 164.039 147.43V151.531ZM186.961 151.531C186.961 151.844 186.797 152 186.469 152H169.523C169.211 152 169.055 151.844 169.055 151.531V122.234C169.055 121.922 169.211 121.766 169.523 121.766H186.469C186.797 121.766 186.961 121.922 186.961 122.234V126.312C186.961 126.641 186.797 126.805 186.469 126.805H175.055C174.742 126.805 174.586 126.961 174.586 127.273V133.672C174.586 133.984 174.742 134.141 175.055 134.141H184.406C184.734 134.141 184.898 134.305 184.898 134.633V138.711C184.898 139.023 184.734 139.18 184.406 139.18H175.055C174.742 139.18 174.586 139.344 174.586 139.672V146.469C174.586 146.797 174.742 146.961 175.055 146.961H186.469C186.797 146.961 186.961 147.117 186.961 147.43V151.531ZM202.289 121.766C205.008 121.766 207.172 122.578 208.781 124.203C210.406 125.812 211.219 127.977 211.219 130.695C211.219 133.18 210.391 135.219 208.734 136.812C207.094 138.391 204.945 139.18 202.289 139.18H197.977C197.664 139.18 197.508 139.344 197.508 139.672V151.531C197.508 151.844 197.344 152 197.016 152H192.445C192.133 152 191.977 151.844 191.977 151.531V122.234C191.977 121.922 192.133 121.766 192.445 121.766H202.289ZM205.758 130.695V130.25C205.758 129.328 205.422 128.523 204.75 127.836C204.078 127.148 203.258 126.805 202.289 126.805H197.977C197.664 126.805 197.508 126.961 197.508 127.273V133.672C197.508 133.984 197.664 134.141 197.977 134.141H202.289C203.258 134.141 204.078 133.805 204.75 133.133C205.422 132.461 205.758 131.648 205.758 130.695ZM220.711 151.531C220.711 151.844 220.547 152 220.219 152H215.648C215.336 152 215.18 151.844 215.18 151.531V122.234C215.18 121.922 215.336 121.766 215.648 121.766H220.219C220.547 121.766 220.711 121.922 220.711 122.234V151.531ZM247.055 151.531C247.055 151.844 246.891 152 246.562 152H242.578L242.156 151.766L232.312 132.453L232.406 151.531C232.406 151.844 232.297 152 232.078 152H227.602C227.289 152 227.133 151.844 227.133 151.531V122.234C227.133 121.922 227.289 121.766 227.602 121.766H231.656L232.078 122L241.875 141.477L241.781 122.234C241.781 121.922 241.906 121.766 242.156 121.766H246.562C246.891 121.766 247.055 121.922 247.055 122.234V151.531ZM264.938 121.273C267.109 121.273 268.938 121.805 270.422 122.867C271.25 123.477 271.984 124.242 272.625 125.164C273.172 125.992 273.445 126.586 273.445 126.945C273.445 127.102 273.344 127.227 273.141 127.32L268.969 129.383C268.906 129.414 268.828 129.43 268.734 129.43C268.578 129.43 268.352 129.164 268.055 128.633C267.227 127.086 266.188 126.312 264.938 126.312H261.773C260.805 126.312 259.984 126.648 259.312 127.32C258.641 127.992 258.305 128.812 258.305 129.781V143.984C258.305 144.938 258.641 145.75 259.312 146.422C259.984 147.094 260.805 147.43 261.773 147.43H264.117C265.086 147.43 265.898 147.102 266.555 146.445C267.211 145.789 267.539 144.969 267.539 143.984V141.734C267.539 141.406 267.375 141.242 267.047 141.242H262.547C262.219 141.242 262.055 141.086 262.055 140.773V136.695C262.055 136.367 262.219 136.203 262.547 136.203H272.578C272.891 136.203 273.047 136.367 273.047 136.695V143.984C273.047 146.547 272.227 148.602 270.586 150.148C268.961 151.695 266.805 152.469 264.117 152.469H261.773C259.086 152.469 256.922 151.695 255.281 150.148C253.656 148.602 252.844 146.547 252.844 143.984V129.781C252.844 127.219 253.656 125.164 255.281 123.617C256.922 122.055 259.086 121.273 261.773 121.273H264.938ZM305.227 151.531C305.227 151.844 305.062 152 304.734 152H287.789C287.477 152 287.32 151.844 287.32 151.531V122.234C287.32 121.922 287.477 121.766 287.789 121.766H304.734C305.062 121.766 305.227 121.922 305.227 122.234V126.312C305.227 126.641 305.062 126.805 304.734 126.805H293.32C293.008 126.805 292.852 126.961 292.852 127.273V133.672C292.852 133.984 293.008 134.141 293.32 134.141H302.672C303 134.141 303.164 134.305 303.164 134.633V138.711C303.164 139.023 303 139.18 302.672 139.18H293.32C293.008 139.18 292.852 139.344 292.852 139.672V146.469C292.852 146.797 293.008 146.961 293.32 146.961H304.734C305.062 146.961 305.227 147.117 305.227 147.43V151.531ZM330.164 151.531C330.164 151.844 330 152 329.672 152H325.688L325.266 151.766L315.422 132.453L315.516 151.531C315.516 151.844 315.406 152 315.188 152H310.711C310.398 152 310.242 151.844 310.242 151.531V122.234C310.242 121.922 310.398 121.766 310.711 121.766H314.766L315.188 122L324.984 141.477L324.891 122.234C324.891 121.922 325.016 121.766 325.266 121.766H329.672C330 121.766 330.164 121.922 330.164 122.234V151.531ZM348.047 121.273C350.219 121.273 352.047 121.805 353.531 122.867C354.359 123.477 355.094 124.242 355.734 125.164C356.281 125.992 356.555 126.586 356.555 126.945C356.555 127.102 356.453 127.227 356.25 127.32L352.078 129.383C352.016 129.414 351.938 129.43 351.844 129.43C351.688 129.43 351.461 129.164 351.164 128.633C350.336 127.086 349.297 126.312 348.047 126.312H344.883C343.914 126.312 343.094 126.648 342.422 127.32C341.75 127.992 341.414 128.812 341.414 129.781V143.984C341.414 144.938 341.75 145.75 342.422 146.422C343.094 147.094 343.914 147.43 344.883 147.43H347.227C348.195 147.43 349.008 147.102 349.664 146.445C350.32 145.789 350.648 144.969 350.648 143.984V141.734C350.648 141.406 350.484 141.242 350.156 141.242H345.656C345.328 141.242 345.164 141.086 345.164 140.773V136.695C345.164 136.367 345.328 136.203 345.656 136.203H355.688C356 136.203 356.156 136.367 356.156 136.695V143.984C356.156 146.547 355.336 148.602 353.695 150.148C352.07 151.695 349.914 152.469 347.227 152.469H344.883C342.195 152.469 340.031 151.695 338.391 150.148C336.766 148.602 335.953 146.547 335.953 143.984V129.781C335.953 127.219 336.766 125.164 338.391 123.617C340.031 122.055 342.195 121.273 344.883 121.273H348.047ZM380.672 151.367C380.672 151.305 380.688 151.375 380.719 151.578C380.719 151.859 380.547 152 380.203 152H375.352C375.102 152 374.945 151.891 374.883 151.672L373.43 146.633C373.367 146.43 373.211 146.328 372.961 146.328H366.094C365.828 146.328 365.664 146.43 365.602 146.633L364.172 151.672C364.109 151.891 363.945 152 363.68 152H358.898C358.539 152 358.359 151.859 358.359 151.578C358.406 151.406 358.43 151.336 358.43 151.367L367.336 122.094C367.398 121.875 367.555 121.766 367.805 121.766H371.273C371.523 121.766 371.68 121.875 371.742 122.094L380.672 151.367ZM371.742 140.68L370.172 134.328C370.109 134.141 369.93 133.266 369.633 131.703H369.492C369.367 132.281 369.18 133.156 368.93 134.328L367.289 140.68C367.289 140.711 367.289 140.742 367.289 140.773C367.258 140.805 367.242 140.836 367.242 140.867C367.242 141.148 367.414 141.289 367.758 141.289H371.273C371.617 141.289 371.789 141.148 371.789 140.867C371.789 140.836 371.789 140.805 371.789 140.773C371.758 140.742 371.742 140.711 371.742 140.68ZM394.969 121.273C397.141 121.273 398.969 121.805 400.453 122.867C401.281 123.477 402.016 124.242 402.656 125.164C403.203 125.992 403.477 126.586 403.477 126.945C403.477 127.102 403.375 127.227 403.172 127.32L399 129.383C398.938 129.414 398.859 129.43 398.766 129.43C398.609 129.43 398.383 129.164 398.086 128.633C397.258 127.086 396.219 126.312 394.969 126.312H391.805C390.836 126.312 390.016 126.648 389.344 127.32C388.672 127.992 388.336 128.812 388.336 129.781V143.984C388.336 144.938 388.672 145.75 389.344 146.422C390.016 147.094 390.836 147.43 391.805 147.43H394.148C395.117 147.43 395.93 147.102 396.586 146.445C397.242 145.789 397.57 144.969 397.57 143.984V141.734C397.57 141.406 397.406 141.242 397.078 141.242H392.578C392.25 141.242 392.086 141.086 392.086 140.773V136.695C392.086 136.367 392.25 136.203 392.578 136.203H402.609C402.922 136.203 403.078 136.367 403.078 136.695V143.984C403.078 146.547 402.258 148.602 400.617 150.148C398.992 151.695 396.836 152.469 394.148 152.469H391.805C389.117 152.469 386.953 151.695 385.312 150.148C383.688 148.602 382.875 146.547 382.875 143.984V129.781C382.875 127.219 383.688 125.164 385.312 123.617C386.953 122.055 389.117 121.273 391.805 121.273H394.969ZM426.773 151.531C426.773 151.844 426.609 152 426.281 152H409.336C409.023 152 408.867 151.844 408.867 151.531V122.234C408.867 121.922 409.023 121.766 409.336 121.766H426.281C426.609 121.766 426.773 121.922 426.773 122.234V126.312C426.773 126.641 426.609 126.805 426.281 126.805H414.867C414.555 126.805 414.398 126.961 414.398 127.273V133.672C414.398 133.984 414.555 134.141 414.867 134.141H424.219C424.547 134.141 424.711 134.305 424.711 134.633V138.711C424.711 139.023 424.547 139.18 424.219 139.18H414.867C414.555 139.18 414.398 139.344 414.398 139.672V146.469C414.398 146.797 414.555 146.961 414.867 146.961H426.281C426.609 146.961 426.773 147.117 426.773 147.43V151.531ZM455.883 151.531C455.883 151.844 455.727 152 455.414 152H450.984C450.672 152 450.516 151.844 450.516 151.531L450.938 132.805L445.523 147.594C445.32 147.781 445.172 147.875 445.078 147.875H442.641C442.453 147.875 442.305 147.781 442.195 147.594L436.781 132.805L437.203 151.531C437.203 151.844 437.047 152 436.734 152H432.258C431.945 152 431.789 151.844 431.789 151.531V122.234C431.789 121.922 431.945 121.766 432.258 121.766H436.406C436.562 121.797 436.703 121.891 436.828 122.047L443.836 141.055L450.844 122.047C451 121.891 451.141 121.797 451.266 121.766H455.414C455.727 121.766 455.883 121.922 455.883 122.234V151.531ZM480.258 151.531C480.258 151.844 480.094 152 479.766 152H462.82C462.508 152 462.352 151.844 462.352 151.531V122.234C462.352 121.922 462.508 121.766 462.82 121.766H479.766C480.094 121.766 480.258 121.922 480.258 122.234V126.312C480.258 126.641 480.094 126.805 479.766 126.805H468.352C468.039 126.805 467.883 126.961 467.883 127.273V133.672C467.883 133.984 468.039 134.141 468.352 134.141H477.703C478.031 134.141 478.195 134.305 478.195 134.633V138.711C478.195 139.023 478.031 139.18 477.703 139.18H468.352C468.039 139.18 467.883 139.344 467.883 139.672V146.469C467.883 146.797 468.039 146.961 468.352 146.961H479.766C480.094 146.961 480.258 147.117 480.258 147.43V151.531ZM505.195 151.531C505.195 151.844 505.031 152 504.703 152H500.719L500.297 151.766L490.453 132.453L490.547 151.531C490.547 151.844 490.438 152 490.219 152H485.742C485.43 152 485.273 151.844 485.273 151.531V122.234C485.273 121.922 485.43 121.766 485.742 121.766H489.797L490.219 122L500.016 141.477L499.922 122.234C499.922 121.922 500.047 121.766 500.297 121.766H504.703C505.031 121.766 505.195 121.922 505.195 122.234V151.531ZM527.016 126.312C527.016 126.641 526.852 126.805 526.523 126.805H521.297C520.984 126.805 520.828 126.961 520.828 127.273V151.531C520.828 151.844 520.664 152 520.336 152H515.836C515.508 152 515.344 151.844 515.344 151.531V127.273C515.344 126.961 515.188 126.805 514.875 126.805H509.625C509.312 126.805 509.156 126.641 509.156 126.312V122.234C509.156 121.922 509.312 121.766 509.625 121.766H526.523C526.852 121.766 527.016 121.922 527.016 122.234V126.312Z" fill="white"/>
<line x1="26" y1="173.001" x2="594" y2="173.001" stroke="white" stroke-width="5"/>
<path d="M245.609 92.7612C245.609 94.5737 245.073 96.0216 244 97.105C242.938 98.1779 241.49 98.7144 239.656 98.7144H232.453C232.245 98.7144 232.141 98.6102 232.141 98.4019V78.8706C232.141 78.6623 232.245 78.5581 232.453 78.5581H239.656C241.49 78.5581 242.938 79.0946 244 80.1675C245.073 81.23 245.609 82.6779 245.609 84.5112V92.7612ZM241.969 93.0581V84.2144C241.969 83.5998 241.74 83.0633 241.281 82.605C240.823 82.1466 240.281 81.9175 239.656 81.9175H236.141C235.932 81.9175 235.828 82.0216 235.828 82.23V95.0269C235.828 95.2456 235.932 95.355 236.141 95.355H239.656C240.302 95.355 240.849 95.131 241.297 94.6831C241.745 94.2352 241.969 93.6935 241.969 93.0581ZM261.391 98.4019C261.391 98.6102 261.281 98.7144 261.062 98.7144H249.766C249.557 98.7144 249.453 98.6102 249.453 98.4019V78.8706C249.453 78.6623 249.557 78.5581 249.766 78.5581H261.062C261.281 78.5581 261.391 78.6623 261.391 78.8706V81.5894C261.391 81.8081 261.281 81.9175 261.062 81.9175H253.453C253.245 81.9175 253.141 82.0216 253.141 82.23V86.4956C253.141 86.7039 253.245 86.8081 253.453 86.8081H259.688C259.906 86.8081 260.016 86.9175 260.016 87.1362V89.855C260.016 90.0633 259.906 90.1675 259.688 90.1675H253.453C253.245 90.1675 253.141 90.2769 253.141 90.4956V95.0269C253.141 95.2456 253.245 95.355 253.453 95.355H261.062C261.281 95.355 261.391 95.4591 261.391 95.6675V98.4019ZM271.609 78.5581C273.422 78.5581 274.865 79.0998 275.938 80.1831C277.021 81.256 277.562 82.6987 277.562 84.5112C277.562 86.1675 277.01 87.5269 275.906 88.5894C274.812 89.6414 273.38 90.1675 271.609 90.1675H268.734C268.526 90.1675 268.422 90.2769 268.422 90.4956V98.4019C268.422 98.6102 268.312 98.7144 268.094 98.7144H265.047C264.839 98.7144 264.734 98.6102 264.734 98.4019V78.8706C264.734 78.6623 264.839 78.5581 265.047 78.5581H271.609ZM273.922 84.5112V84.2144C273.922 83.5998 273.698 83.0633 273.25 82.605C272.802 82.1466 272.255 81.9175 271.609 81.9175H268.734C268.526 81.9175 268.422 82.0216 268.422 82.23V86.4956C268.422 86.7039 268.526 86.8081 268.734 86.8081H271.609C272.255 86.8081 272.802 86.5841 273.25 86.1362C273.698 85.6883 273.922 85.1466 273.922 84.5112ZM292.141 98.4019C292.141 98.6102 292.031 98.7144 291.812 98.7144H280.516C280.307 98.7144 280.203 98.6102 280.203 98.4019V78.8706C280.203 78.6623 280.307 78.5581 280.516 78.5581H283.562C283.781 78.5581 283.891 78.6623 283.891 78.8706V95.0269C283.891 95.2456 283.995 95.355 284.203 95.355H291.812C292.031 95.355 292.141 95.4591 292.141 95.6675V98.4019ZM307.75 93.3706C307.75 95.0789 307.203 96.4487 306.109 97.48C305.026 98.5112 303.589 99.0269 301.797 99.0269H300.234C298.443 99.0269 297 98.5112 295.906 97.48C294.823 96.4487 294.281 95.0789 294.281 93.3706V83.9019C294.281 82.1935 294.823 80.8237 295.906 79.7925C297 78.7508 298.443 78.23 300.234 78.23H301.797C303.589 78.23 305.026 78.7508 306.109 79.7925C307.203 80.8237 307.75 82.1935 307.75 83.9019V93.3706ZM304.078 93.3706V83.9019C304.078 83.2352 303.859 82.6831 303.422 82.2456C302.984 81.8081 302.443 81.5894 301.797 81.5894H300.234C299.589 81.5894 299.042 81.8133 298.594 82.2612C298.146 82.7091 297.922 83.256 297.922 83.9019V93.3706C297.922 94.006 298.146 94.5477 298.594 94.9956C299.042 95.4435 299.589 95.6675 300.234 95.6675H301.797C302.443 95.6675 302.984 95.4487 303.422 95.0112C303.859 94.5737 304.078 94.0269 304.078 93.3706ZM324.094 79.0269L318.5 89.5269V98.4019C318.5 98.6102 318.396 98.7144 318.188 98.7144H315.141C314.922 98.7144 314.812 98.6102 314.812 98.4019V89.5269L309.234 79.0269C309.182 78.9019 309.156 78.8289 309.156 78.8081C309.156 78.6414 309.276 78.5581 309.516 78.5581H313.062L313.344 78.7456L316.391 85.0112C316.453 85.1675 316.547 85.2456 316.672 85.2456C316.807 85.2456 316.906 85.1675 316.969 85.0112L320 78.7456L320.297 78.5581H323.812C324.052 78.5581 324.172 78.6414 324.172 78.8081C324.172 78.8289 324.146 78.9019 324.094 79.0269ZM342.078 98.4019C342.078 98.6102 341.974 98.7144 341.766 98.7144H338.812C338.604 98.7144 338.5 98.6102 338.5 98.4019L338.781 85.9175L335.172 95.7769C335.036 95.9019 334.938 95.9644 334.875 95.9644H333.25C333.125 95.9644 333.026 95.9019 332.953 95.7769L329.344 85.9175L329.625 98.4019C329.625 98.6102 329.521 98.7144 329.312 98.7144H326.328C326.12 98.7144 326.016 98.6102 326.016 98.4019V78.8706C326.016 78.6623 326.12 78.5581 326.328 78.5581H329.094C329.198 78.5789 329.292 78.6414 329.375 78.7456L334.047 91.4175L338.719 78.7456C338.823 78.6414 338.917 78.5789 339 78.5581H341.766C341.974 78.5581 342.078 78.6623 342.078 78.8706V98.4019ZM358.328 98.4019C358.328 98.6102 358.219 98.7144 358 98.7144H346.703C346.495 98.7144 346.391 98.6102 346.391 98.4019V78.8706C346.391 78.6623 346.495 78.5581 346.703 78.5581H358C358.219 78.5581 358.328 78.6623 358.328 78.8706V81.5894C358.328 81.8081 358.219 81.9175 358 81.9175H350.391C350.182 81.9175 350.078 82.0216 350.078 82.23V86.4956C350.078 86.7039 350.182 86.8081 350.391 86.8081H356.625C356.844 86.8081 356.953 86.9175 356.953 87.1362V89.855C356.953 90.0633 356.844 90.1675 356.625 90.1675H350.391C350.182 90.1675 350.078 90.2769 350.078 90.4956V95.0269C350.078 95.2456 350.182 95.355 350.391 95.355H358C358.219 95.355 358.328 95.4591 358.328 95.6675V98.4019ZM374.953 98.4019C374.953 98.6102 374.844 98.7144 374.625 98.7144H371.969L371.688 98.5581L365.125 85.6831L365.188 98.4019C365.188 98.6102 365.115 98.7144 364.969 98.7144H361.984C361.776 98.7144 361.672 98.6102 361.672 98.4019V78.8706C361.672 78.6623 361.776 78.5581 361.984 78.5581H364.688L364.969 78.7144L371.5 91.6987L371.438 78.8706C371.438 78.6623 371.521 78.5581 371.688 78.5581H374.625C374.844 78.5581 374.953 78.6623 374.953 78.8706V98.4019ZM389.5 81.5894C389.5 81.8081 389.391 81.9175 389.172 81.9175H385.688C385.479 81.9175 385.375 82.0216 385.375 82.23V98.4019C385.375 98.6102 385.266 98.7144 385.047 98.7144H382.047C381.828 98.7144 381.719 98.6102 381.719 98.4019V82.23C381.719 82.0216 381.615 81.9175 381.406 81.9175H377.906C377.698 81.9175 377.594 81.8081 377.594 81.5894V78.8706C377.594 78.6623 377.698 78.5581 377.906 78.5581H389.172C389.391 78.5581 389.5 78.6623 389.5 78.8706V81.5894Z" fill="white"/>
</g>
</g>
<rect x="90" y="306.5" width="440" height="604" stroke="black" stroke-width="4"/>
<rect x="92" y="308.656" width="436" height="600" fill="#D0D0D0"/>
<rect x="92" y="608.5" width="77.39" height="300.16" fill="#A72222"/>
<rect x="92" y="308.5" width="137.34" height="300" fill="#A72222"/>
<rect x="390.66" y="608.5" width="137.34" height="300.16" fill="#3C722E"/>
<rect x="450.61" y="308.5" width="77.39" height="300" fill="#3C722E"/>
<line x1="310.5" y1="308.656" x2="310.5" y2="908.656" stroke="black" stroke-opacity="0.25" stroke-dasharray="2 2"/>
<line x1="92" y1="608.156" x2="528" y2="608.156" stroke="black" stroke-opacity="0.25" stroke-dasharray="2 2"/>
<ellipse cx="151.405" cy="492.474" rx="38.695" ry="38.7273" fill="#0D4D6B"/>
<ellipse cx="151.405" cy="492.474" rx="8.175" ry="8.18182" fill="black"/>
<path d="M151.601 487.568C152.446 487.606 154.394 487.901 155.055 489.782C155.615 491.385 154.553 493.197 154.774 493.443C155.639 494.42 154.463 495.975 154.301 496.103C154.01 496.332 153.09 495.864 153.234 496.106C153.341 496.288 153.443 497.654 153.445 497.678H153.158L153.02 497.194L152.774 497.19L152.729 497.675H152.231L152.186 497.212L152.019 497.187L151.996 497.672H151.598L151.577 497.172H151.248L151.227 497.672H150.822L150.798 497.187L150.632 497.212L150.587 497.675H150.089L150.044 497.19L149.798 497.194L149.66 497.678H149.372C149.374 497.656 149.474 496.288 149.584 496.106C149.728 495.864 148.808 496.335 148.517 496.103C148.355 495.978 147.175 494.423 148.044 493.443C148.262 493.201 147.192 491.389 147.756 489.782C148.413 487.901 150.366 487.606 151.207 487.568C151.213 487.568 151.281 487.565 151.4 487.565H151.407C151.528 487.565 151.601 487.568 151.601 487.568ZM151.442 494.957C151.37 494.995 151.307 495.036 151.262 495.081C150.898 495.434 150.888 495.916 150.902 496.155C150.902 496.186 150.944 496.2 150.965 496.175C151.013 496.113 151.082 496.04 151.176 495.974C151.272 495.905 151.37 495.86 151.442 495.833C151.515 495.86 151.612 495.902 151.709 495.974C151.799 496.04 151.871 496.113 151.92 496.175C151.941 496.199 151.979 496.189 151.982 496.155C151.996 495.919 151.989 495.431 151.622 495.081C151.574 495.036 151.515 494.995 151.442 494.957ZM148.901 493.768C148.656 493.855 148.58 493.997 148.559 494.039C148.425 494.319 148.601 494.769 149.064 495.056C149.075 495.063 149.089 495.067 149.102 495.071C149.314 495.099 149.839 495.143 150.372 494.849C150.593 494.728 150.757 494.582 150.871 494.458C150.912 494.409 150.898 494.336 150.843 494.305C150.618 494.191 150.337 494.07 150.009 493.969C149.604 493.845 149.237 493.789 148.943 493.761C148.929 493.761 148.915 493.765 148.901 493.768ZM153.885 493.765C153.591 493.793 153.224 493.848 152.819 493.972C152.491 494.069 152.214 494.191 151.985 494.308C151.93 494.336 151.916 494.409 151.958 494.458C152.072 494.579 152.235 494.728 152.456 494.849C152.985 495.143 153.511 495.099 153.725 495.071C153.739 495.068 153.75 495.064 153.764 495.057C154.231 494.773 154.408 494.322 154.269 494.042C154.249 494 154.168 493.859 153.927 493.772C153.913 493.765 153.898 493.762 153.885 493.765Z" fill="white"/>
<ellipse cx="468.595" cy="724.838" rx="38.695" ry="38.7273" fill="#0D4D6B"/>
<ellipse cx="468.595" cy="724.838" rx="8.175" ry="8.18182" fill="black"/>
<path d="M468.791 719.932C469.636 719.97 471.584 720.265 472.245 722.146C472.805 723.749 471.743 725.561 471.964 725.807C472.829 726.783 471.653 728.339 471.491 728.467C471.2 728.695 470.279 728.228 470.424 728.47C470.531 728.652 470.633 730.017 470.635 730.042H470.348L470.21 729.558L469.964 729.554L469.919 730.039H469.421L469.376 729.575L469.209 729.551L469.186 730.035H468.787L468.767 729.536H468.438L468.417 730.035H468.012L467.988 729.551L467.822 729.575L467.777 730.039H467.279L467.234 729.554L466.988 729.558L466.85 730.042H466.562C466.564 730.02 466.664 728.652 466.774 728.47C466.918 728.228 465.998 728.698 465.707 728.467C465.545 728.342 464.365 726.787 465.234 725.807C465.452 725.564 464.382 723.753 464.946 722.146C465.603 720.265 467.556 719.97 468.397 719.932C468.402 719.931 468.471 719.929 468.59 719.929H468.597C468.718 719.929 468.791 719.932 468.791 719.932ZM468.632 727.32C468.56 727.358 468.497 727.399 468.452 727.444C468.088 727.798 468.078 728.28 468.092 728.519C468.092 728.55 468.134 728.563 468.155 728.539C468.203 728.477 468.272 728.404 468.366 728.338C468.462 728.269 468.56 728.224 468.632 728.196C468.705 728.224 468.802 728.265 468.899 728.338C468.989 728.404 469.061 728.477 469.11 728.539C469.13 728.563 469.169 728.553 469.172 728.519C469.186 728.283 469.179 727.794 468.812 727.444C468.764 727.399 468.705 727.358 468.632 727.32ZM466.091 726.132C465.846 726.218 465.77 726.361 465.749 726.402C465.615 726.683 465.791 727.132 466.254 727.42C466.265 727.427 466.279 727.431 466.292 727.435C466.503 727.462 467.029 727.507 467.562 727.213C467.783 727.092 467.947 726.946 468.061 726.821C468.102 726.773 468.088 726.7 468.033 726.669C467.808 726.555 467.527 726.433 467.199 726.333C466.794 726.208 466.427 726.153 466.133 726.125C466.119 726.125 466.105 726.128 466.091 726.132ZM471.075 726.129C470.781 726.157 470.414 726.211 470.009 726.336C469.681 726.433 469.404 726.554 469.175 726.672C469.12 726.7 469.106 726.773 469.148 726.821C469.262 726.942 469.425 727.092 469.646 727.213C470.175 727.507 470.701 727.462 470.915 727.435C470.929 727.431 470.94 727.428 470.953 727.421C471.421 727.137 471.598 726.686 471.459 726.405C471.438 726.363 471.358 726.222 471.117 726.136C471.103 726.129 471.088 726.125 471.075 726.129Z" fill="white"/>
<ellipse cx="310.545" cy="608.11" rx="38.695" ry="38.7273" fill="#0D4D6B"/>
<ellipse cx="310.545" cy="608.11" rx="8.175" ry="8.18182" fill="black"/>
<path d="M310.742 603.204C311.586 603.243 313.534 603.538 314.195 605.418C314.755 607.022 313.693 608.833 313.914 609.079C314.78 610.056 313.603 611.611 313.441 611.74C313.15 611.968 312.23 611.5 312.374 611.742C312.481 611.924 312.583 613.29 312.585 613.315H312.298L312.161 612.83L311.914 612.826L311.87 613.312H311.371L311.327 612.848L311.16 612.823L311.136 613.308H310.738L310.717 612.809H310.388L310.368 613.308H309.962L309.938 612.823L309.772 612.848L309.727 613.312H309.229L309.184 612.826L308.938 612.83L308.8 613.315H308.512C308.514 613.293 308.614 611.925 308.724 611.742C308.869 611.501 307.948 611.971 307.658 611.74C307.495 611.615 306.315 610.06 307.184 609.079C307.402 608.837 306.332 607.025 306.896 605.418C307.553 603.537 309.506 603.242 310.347 603.204C310.353 603.204 310.421 603.201 310.54 603.201H310.547C310.668 603.201 310.742 603.204 310.742 603.204ZM310.582 610.593C310.51 610.631 310.447 610.672 310.402 610.717C310.038 611.07 310.029 611.552 310.042 611.791C310.043 611.822 310.084 611.836 310.105 611.812C310.153 611.749 310.222 611.676 310.316 611.611C310.413 611.541 310.51 611.497 310.582 611.469C310.655 611.497 310.752 611.538 310.849 611.611C310.939 611.676 311.012 611.749 311.06 611.812C311.081 611.836 311.119 611.826 311.122 611.791C311.136 611.556 311.129 611.067 310.762 610.717C310.714 610.672 310.655 610.631 310.582 610.593ZM308.041 609.405C307.796 609.491 307.72 609.634 307.7 609.675C307.565 609.956 307.741 610.405 308.204 610.693C308.215 610.7 308.229 610.704 308.243 610.707C308.454 610.735 308.979 610.78 309.512 610.486C309.734 610.364 309.897 610.219 310.011 610.094C310.053 610.046 310.038 609.973 309.983 609.942C309.758 609.827 309.477 609.706 309.149 609.606C308.744 609.481 308.377 609.425 308.083 609.398C308.07 609.398 308.055 609.401 308.041 609.405ZM313.025 609.402C312.731 609.429 312.364 609.484 311.959 609.609C311.631 609.706 311.354 609.827 311.125 609.945C311.07 609.972 311.057 610.046 311.098 610.094C311.212 610.215 311.375 610.364 311.596 610.486C312.125 610.78 312.651 610.735 312.866 610.707C312.879 610.704 312.89 610.7 312.904 610.694C313.371 610.41 313.548 609.959 313.41 609.678C313.389 609.636 313.309 609.495 313.067 609.408C313.053 609.402 313.039 609.398 313.025 609.402Z" fill="white"/>
<ellipse cx="268.035" cy="806.656" rx="38.695" ry="38.7273" fill="#0D4D6B"/>
<ellipse cx="268.035" cy="806.656" rx="8.175" ry="8.18182" fill="black"/>
<path d="M268.232 801.75C269.076 801.788 271.024 802.083 271.685 803.964C272.245 805.567 271.183 807.379 271.404 807.625C272.27 808.602 271.093 810.157 270.931 810.285C270.64 810.513 269.72 810.046 269.864 810.288C269.971 810.47 270.073 811.836 270.075 811.86H269.788L269.651 811.376L269.404 811.372L269.36 811.857H268.861L268.817 811.393L268.65 811.369L268.626 811.853H268.228L268.207 811.354H267.878L267.858 811.853H267.452L267.428 811.369L267.262 811.393L267.217 811.857H266.719L266.674 811.372L266.428 811.376L266.29 811.86H266.002C266.004 811.838 266.104 810.47 266.214 810.288C266.359 810.046 265.438 810.517 265.148 810.285C264.985 810.16 263.805 808.605 264.674 807.625C264.892 807.382 263.822 805.571 264.386 803.964C265.043 802.083 266.996 801.788 267.837 801.75C267.843 801.75 267.911 801.747 268.03 801.747H268.037C268.158 801.747 268.232 801.75 268.232 801.75ZM268.072 809.138C268 809.177 267.937 809.217 267.892 809.263C267.528 809.616 267.519 810.098 267.532 810.337C267.533 810.368 267.574 810.381 267.595 810.357C267.643 810.295 267.712 810.222 267.806 810.156C267.903 810.087 268 810.042 268.072 810.014C268.145 810.042 268.242 810.083 268.339 810.156C268.429 810.222 268.502 810.295 268.55 810.357C268.571 810.381 268.609 810.371 268.612 810.337C268.626 810.101 268.619 809.612 268.252 809.263C268.204 809.218 268.145 809.177 268.072 809.138ZM265.531 807.95C265.286 808.037 265.21 808.179 265.19 808.221C265.055 808.501 265.231 808.951 265.694 809.238C265.705 809.245 265.719 809.249 265.733 809.253C265.944 809.28 266.469 809.325 267.002 809.031C267.224 808.91 267.387 808.764 267.501 808.639C267.543 808.591 267.528 808.518 267.473 808.487C267.248 808.373 266.967 808.252 266.639 808.151C266.234 808.027 265.867 807.971 265.573 807.943C265.56 807.943 265.545 807.947 265.531 807.95ZM270.515 807.947C270.221 807.975 269.854 808.03 269.449 808.154C269.121 808.251 268.844 808.372 268.615 808.49C268.56 808.518 268.546 808.591 268.588 808.639C268.702 808.761 268.865 808.91 269.086 809.031C269.615 809.325 270.141 809.28 270.356 809.253C270.369 809.249 270.38 809.246 270.394 809.239C270.861 808.955 271.038 808.504 270.9 808.223C270.879 808.182 270.799 808.04 270.557 807.954C270.543 807.947 270.529 807.944 270.515 807.947Z" fill="white"/>
<ellipse cx="351.965" cy="410.656" rx="38.695" ry="38.7273" fill="#0D4D6B"/>
<ellipse cx="351.965" cy="410.656" rx="8.175" ry="8.18182" fill="black"/>
<path d="M352.162 405.75C353.006 405.788 354.954 406.083 355.615 407.964C356.175 409.567 355.113 411.379 355.334 411.625C356.199 412.602 355.023 414.157 354.861 414.285C354.57 414.513 353.65 414.046 353.794 414.288C353.901 414.47 354.003 415.836 354.005 415.86H353.718L353.58 415.376L353.334 415.372L353.289 415.857H352.791L352.746 415.393L352.579 415.369L352.556 415.853H352.158L352.137 415.354H351.808L351.787 415.853H351.382L351.358 415.369L351.192 415.393L351.147 415.857H350.649L350.604 415.372L350.358 415.376L350.22 415.86H349.932C349.934 415.838 350.034 414.47 350.144 414.288C350.289 414.046 349.368 414.517 349.078 414.285C348.915 414.16 347.735 412.605 348.604 411.625C348.822 411.382 347.752 409.571 348.316 407.964C348.973 406.083 350.926 405.788 351.767 405.75C351.773 405.75 351.841 405.747 351.96 405.747H351.967C352.088 405.747 352.162 405.75 352.162 405.75ZM352.002 413.138C351.93 413.177 351.867 413.217 351.822 413.263C351.458 413.616 351.448 414.098 351.462 414.337C351.463 414.368 351.504 414.381 351.525 414.357C351.573 414.295 351.642 414.222 351.736 414.156C351.833 414.087 351.93 414.042 352.002 414.014C352.075 414.042 352.172 414.083 352.269 414.156C352.359 414.222 352.431 414.295 352.48 414.357C352.501 414.381 352.539 414.371 352.542 414.337C352.556 414.101 352.549 413.612 352.182 413.263C352.134 413.218 352.075 413.177 352.002 413.138ZM349.461 411.95C349.216 412.037 349.14 412.179 349.12 412.221C348.985 412.501 349.161 412.951 349.624 413.238C349.635 413.245 349.649 413.249 349.662 413.253C349.874 413.28 350.399 413.325 350.932 413.031C351.154 412.91 351.317 412.764 351.431 412.639C351.473 412.591 351.458 412.518 351.403 412.487C351.178 412.373 350.897 412.252 350.569 412.151C350.164 412.027 349.797 411.971 349.503 411.943C349.489 411.943 349.475 411.947 349.461 411.95ZM354.445 411.947C354.151 411.975 353.784 412.03 353.379 412.154C353.051 412.251 352.774 412.372 352.545 412.49C352.49 412.518 352.476 412.591 352.518 412.639C352.632 412.761 352.795 412.91 353.016 413.031C353.545 413.325 354.071 413.28 354.286 413.253C354.299 413.249 354.31 413.246 354.324 413.239C354.791 412.955 354.968 412.504 354.829 412.223C354.809 412.182 354.729 412.04 354.487 411.954C354.473 411.947 354.459 411.944 354.445 411.947Z" fill="white"/>
<path d="M451 576L461 581.774L461 570.226L451 576ZM528 576L518 570.227L518 581.774L528 576ZM460 576L460 577L519 577L519 576L519 575L460 575L460 576Z" fill="white"/>
<path d="M483.043 568.128C483.043 569.488 482.637 570.566 481.825 571.363C481.02 572.16 479.938 572.558 478.579 572.558H477.887C476.512 572.558 475.422 572.164 474.618 571.375C473.821 570.585 473.422 569.503 473.422 568.128V567.542C473.422 566.91 473.622 566.304 474.02 565.726C474.536 564.992 474.793 564.64 474.793 564.671C474.793 564.671 474.52 564.3 473.973 563.558C473.606 563.066 473.422 562.515 473.422 561.906V561.449C473.422 560.074 473.821 558.984 474.618 558.179C475.422 557.367 476.512 556.96 477.887 556.96H478.579C479.938 556.96 481.02 557.371 481.825 558.191C482.637 559.003 483.043 560.089 483.043 561.449V561.906C483.043 562.515 482.86 563.066 482.493 563.558C481.954 564.3 481.684 564.671 481.684 564.671C481.684 564.64 481.938 564.992 482.446 565.726C482.844 566.304 483.043 566.91 483.043 567.542V568.128ZM480.29 561.671V561.214C480.29 560.714 480.125 560.3 479.797 559.972C479.469 559.644 479.063 559.48 478.579 559.48H477.887C477.403 559.48 476.993 559.648 476.657 559.984C476.321 560.32 476.153 560.73 476.153 561.214V561.671C476.153 562.148 476.321 562.554 476.657 562.89C476.993 563.226 477.403 563.394 477.887 563.394H478.579C479.063 563.394 479.469 563.23 479.797 562.902C480.125 562.574 480.29 562.164 480.29 561.671ZM480.29 568.316V567.625C480.29 567.14 480.125 566.734 479.797 566.406C479.469 566.078 479.063 565.914 478.579 565.914H477.887C477.387 565.914 476.973 566.078 476.645 566.406C476.317 566.734 476.153 567.14 476.153 567.625V568.316C476.153 568.792 476.321 569.199 476.657 569.535C476.993 569.871 477.403 570.039 477.887 570.039H478.579C479.063 570.039 479.469 569.875 479.797 569.546C480.125 569.218 480.29 568.808 480.29 568.316ZM491.809 559.105C491.809 560.394 491.52 561.375 490.942 562.046C490.333 562.773 489.836 563.136 489.454 563.136C489.391 563.136 489.336 563.085 489.29 562.984L488.622 561.765C488.583 561.703 488.563 561.664 488.563 561.648C488.563 561.578 488.622 561.503 488.739 561.425C489.333 560.98 489.629 560.558 489.629 560.16C489.629 559.98 489.547 559.89 489.383 559.89H489.172C489.008 559.89 488.926 559.812 488.926 559.656V557.441C488.926 557.285 489.008 557.207 489.172 557.207H491.563C491.727 557.207 491.809 557.285 491.809 557.441V559.105ZM488.036 559.105C488.036 560.394 487.735 561.39 487.133 562.093C486.54 562.789 486.051 563.136 485.668 563.136C485.598 563.136 485.54 563.085 485.493 562.984L484.872 561.789C484.84 561.726 484.825 561.679 484.825 561.648C484.825 561.632 484.997 561.476 485.34 561.179C485.684 560.882 485.856 560.542 485.856 560.16C485.856 559.98 485.778 559.89 485.622 559.89H485.422C485.266 559.89 485.188 559.812 485.188 559.656V557.441C485.188 557.285 485.266 557.207 485.422 557.207H487.801C487.958 557.207 488.036 557.285 488.036 557.441V559.105Z" fill="white"/>
<path d="M92 652L102 657.774L102 646.226L92 652ZM169 652L159 646.227L159 657.774L169 652ZM101 652L101 653L160 653L160 652L160 651L101 651L101 652Z" fill="white"/>
<path d="M123.924 643.456C123.924 644.815 123.518 645.893 122.705 646.69C121.9 647.487 120.818 647.885 119.459 647.885H118.768C117.393 647.885 116.303 647.491 115.498 646.702C114.701 645.913 114.303 644.831 114.303 643.456V642.87C114.303 642.237 114.502 641.631 114.9 641.053C115.416 640.319 115.674 639.967 115.674 639.998C115.674 639.998 115.4 639.627 114.854 638.885C114.486 638.393 114.303 637.842 114.303 637.233V636.776C114.303 635.401 114.701 634.311 115.498 633.506C116.303 632.694 117.393 632.288 118.768 632.288H119.459C120.818 632.288 121.9 632.698 122.705 633.518C123.518 634.331 123.924 635.416 123.924 636.776V637.233C123.924 637.842 123.74 638.393 123.373 638.885C122.834 639.627 122.564 639.998 122.564 639.998C122.564 639.967 122.818 640.319 123.326 641.053C123.725 641.631 123.924 642.237 123.924 642.87V643.456ZM121.17 636.998V636.541C121.17 636.041 121.006 635.627 120.678 635.299C120.35 634.971 119.943 634.807 119.459 634.807H118.768C118.283 634.807 117.873 634.975 117.537 635.311C117.201 635.647 117.033 636.057 117.033 636.541V636.998C117.033 637.475 117.201 637.881 117.537 638.217C117.873 638.553 118.283 638.721 118.768 638.721H119.459C119.943 638.721 120.35 638.557 120.678 638.229C121.006 637.901 121.17 637.491 121.17 636.998ZM121.17 643.643V642.952C121.17 642.467 121.006 642.061 120.678 641.733C120.35 641.405 119.943 641.241 119.459 641.241H118.768C118.268 641.241 117.854 641.405 117.525 641.733C117.197 642.061 117.033 642.467 117.033 642.952V643.643C117.033 644.12 117.201 644.526 117.537 644.862C117.873 645.198 118.283 645.366 118.768 645.366H119.459C119.943 645.366 120.35 645.202 120.678 644.873C121.006 644.545 121.17 644.135 121.17 643.643ZM132.689 634.432C132.689 635.721 132.4 636.702 131.822 637.373C131.213 638.1 130.717 638.463 130.334 638.463C130.271 638.463 130.217 638.413 130.17 638.311L129.502 637.092C129.463 637.03 129.443 636.991 129.443 636.975C129.443 636.905 129.502 636.831 129.619 636.752C130.213 636.307 130.51 635.885 130.51 635.487C130.51 635.307 130.428 635.217 130.264 635.217H130.053C129.889 635.217 129.807 635.139 129.807 634.983V632.768C129.807 632.612 129.889 632.534 130.053 632.534H132.443C132.607 632.534 132.689 632.612 132.689 632.768V634.432ZM128.916 634.432C128.916 635.721 128.615 636.717 128.014 637.42C127.42 638.116 126.932 638.463 126.549 638.463C126.479 638.463 126.42 638.413 126.373 638.311L125.752 637.116C125.721 637.053 125.705 637.006 125.705 636.975C125.705 636.959 125.877 636.803 126.221 636.506C126.564 636.209 126.736 635.87 126.736 635.487C126.736 635.307 126.658 635.217 126.502 635.217H126.303C126.146 635.217 126.068 635.139 126.068 634.983V632.768C126.068 632.612 126.146 632.534 126.303 632.534H128.682C128.838 632.534 128.916 632.612 128.916 632.768V634.432Z" fill="white"/>
<path d="M391 653L401 658.774L401 647.226L391 653ZM528 653L518 647.227L518 658.774L528 653ZM400 653L400 654L519 654L519 653L519 652L400 652L400 653Z" fill="white"/>
<path d="M476.68 648.508C476.68 648.664 476.602 648.742 476.446 648.742H468.688C468.532 648.742 468.454 648.664 468.454 648.508V646.457C468.454 646.301 468.532 646.223 468.688 646.223H470.95C471.106 646.223 471.184 646.141 471.184 645.977V638.946C471.184 638.774 471.114 638.688 470.973 638.688C470.903 638.688 470.836 638.719 470.774 638.782L470.059 639.532C469.997 639.594 469.942 639.625 469.895 639.625C469.84 639.625 469.782 639.594 469.719 639.532L468.231 638.067C468.168 637.996 468.137 637.938 468.137 637.891C468.137 637.844 468.168 637.789 468.231 637.727L472.239 633.696L472.415 633.625H473.704C473.868 633.625 473.95 633.703 473.95 633.86V645.977C473.95 646.141 474.028 646.223 474.184 646.223H476.446C476.602 646.223 476.68 646.301 476.68 646.457V648.508ZM489.805 645.192C489.805 645.348 489.723 645.426 489.559 645.426H488C487.844 645.426 487.766 645.508 487.766 645.672V648.508C487.766 648.664 487.684 648.742 487.52 648.742H485.247C485.083 648.742 485 648.664 485 648.508V645.672C485 645.508 484.922 645.426 484.766 645.426H479.094C478.938 645.426 478.86 645.348 478.86 645.192V643.153L485.317 633.625H487.52C487.684 633.625 487.766 633.703 487.766 633.86V642.672C487.766 642.828 487.844 642.907 488 642.907H489.559C489.723 642.907 489.805 642.989 489.805 643.153V645.192ZM485 642.672V638.946C485 638.758 484.93 638.664 484.79 638.664C484.711 638.664 484.637 638.711 484.567 638.805L482.094 642.532C482.047 642.61 482.024 642.672 482.024 642.719C482.024 642.844 482.114 642.907 482.293 642.907H484.766C484.922 642.907 485 642.828 485 642.672ZM497.891 635.524C497.891 636.813 497.602 637.793 497.024 638.465C496.415 639.192 495.918 639.555 495.536 639.555C495.473 639.555 495.418 639.504 495.372 639.403L494.704 638.184C494.665 638.121 494.645 638.082 494.645 638.067C494.645 637.996 494.704 637.922 494.821 637.844C495.415 637.399 495.711 636.977 495.711 636.578C495.711 636.399 495.629 636.309 495.465 636.309H495.254C495.09 636.309 495.008 636.231 495.008 636.075V633.86C495.008 633.703 495.09 633.625 495.254 633.625H497.645C497.809 633.625 497.891 633.703 497.891 633.86V635.524ZM494.118 635.524C494.118 636.813 493.817 637.809 493.215 638.512C492.622 639.207 492.133 639.555 491.75 639.555C491.68 639.555 491.622 639.504 491.575 639.403L490.954 638.207C490.922 638.145 490.907 638.098 490.907 638.067C490.907 638.051 491.079 637.895 491.422 637.598C491.766 637.301 491.938 636.961 491.938 636.578C491.938 636.399 491.86 636.309 491.704 636.309H491.504C491.348 636.309 491.27 636.231 491.27 636.075V633.86C491.27 633.703 491.348 633.625 491.504 633.625H493.883C494.04 633.625 494.118 633.703 494.118 633.86V635.524Z" fill="white"/>
<path d="M92 577L102 582.774L102 571.226L92 577ZM229 577L219 571.227L219 582.774L229 577ZM101 577L101 578L220 578L220 577L220 576L101 576L101 577Z" fill="white"/>
<path d="M177.596 573.181C177.596 573.337 177.518 573.415 177.361 573.415H169.604C169.447 573.415 169.369 573.337 169.369 573.181V571.13C169.369 570.974 169.447 570.896 169.604 570.896H171.865C172.021 570.896 172.1 570.814 172.1 570.65V563.619C172.1 563.447 172.029 563.361 171.889 563.361C171.818 563.361 171.752 563.392 171.689 563.455L170.975 564.205C170.912 564.267 170.857 564.298 170.811 564.298C170.756 564.298 170.697 564.267 170.635 564.205L169.146 562.74C169.084 562.669 169.053 562.611 169.053 562.564C169.053 562.517 169.084 562.462 169.146 562.4L173.154 558.369L173.33 558.298H174.619C174.783 558.298 174.865 558.376 174.865 558.533V570.65C174.865 570.814 174.943 570.896 175.1 570.896H177.361C177.518 570.896 177.596 570.974 177.596 571.13V573.181ZM190.721 569.865C190.721 570.021 190.639 570.099 190.475 570.099H188.916C188.76 570.099 188.682 570.181 188.682 570.345V573.181C188.682 573.337 188.6 573.415 188.436 573.415H186.162C185.998 573.415 185.916 573.337 185.916 573.181V570.345C185.916 570.181 185.838 570.099 185.682 570.099H180.01C179.854 570.099 179.775 570.021 179.775 569.865V567.826L186.232 558.298H188.436C188.6 558.298 188.682 558.376 188.682 558.533V567.345C188.682 567.501 188.76 567.58 188.916 567.58H190.475C190.639 567.58 190.721 567.662 190.721 567.826V569.865ZM185.916 567.345V563.619C185.916 563.431 185.846 563.337 185.705 563.337C185.627 563.337 185.553 563.384 185.482 563.478L183.01 567.205C182.963 567.283 182.939 567.345 182.939 567.392C182.939 567.517 183.029 567.58 183.209 567.58H185.682C185.838 567.58 185.916 567.501 185.916 567.345ZM198.807 560.197C198.807 561.486 198.518 562.466 197.939 563.138C197.33 563.865 196.834 564.228 196.451 564.228C196.389 564.228 196.334 564.177 196.287 564.076L195.619 562.857C195.58 562.794 195.561 562.755 195.561 562.74C195.561 562.669 195.619 562.595 195.736 562.517C196.33 562.072 196.627 561.65 196.627 561.251C196.627 561.072 196.545 560.982 196.381 560.982H196.17C196.006 560.982 195.924 560.904 195.924 560.747V558.533C195.924 558.376 196.006 558.298 196.17 558.298H198.561C198.725 558.298 198.807 558.376 198.807 558.533V560.197ZM195.033 560.197C195.033 561.486 194.732 562.482 194.131 563.185C193.537 563.88 193.049 564.228 192.666 564.228C192.596 564.228 192.537 564.177 192.49 564.076L191.869 562.88C191.838 562.818 191.822 562.771 191.822 562.74C191.822 562.724 191.994 562.568 192.338 562.271C192.682 561.974 192.854 561.634 192.854 561.251C192.854 561.072 192.775 560.982 192.619 560.982H192.42C192.264 560.982 192.186 560.904 192.186 560.747V558.533C192.186 558.376 192.264 558.298 192.42 558.298H194.799C194.955 558.298 195.033 558.376 195.033 558.533V560.197Z" fill="white"/>
<path d="M92 807L102 812.774L102 801.226L92 807ZM260 807L250 801.227L250 812.774L260 807ZM101 807L101 808L251 808L251 807L251 806L101 806L101 807Z" fill="black"/>
<path d="M179.596 802.987C179.596 803.144 179.518 803.222 179.361 803.222H171.604C171.447 803.222 171.369 803.144 171.369 802.987V800.937C171.369 800.78 171.447 800.702 171.604 800.702H173.865C174.021 800.702 174.1 800.62 174.1 800.456V793.425C174.1 793.253 174.029 793.167 173.889 793.167C173.818 793.167 173.752 793.198 173.689 793.261L172.975 794.011C172.912 794.073 172.857 794.105 172.811 794.105C172.756 794.105 172.697 794.073 172.635 794.011L171.146 792.546C171.084 792.476 171.053 792.417 171.053 792.37C171.053 792.323 171.084 792.269 171.146 792.206L175.154 788.175L175.33 788.105H176.619C176.783 788.105 176.865 788.183 176.865 788.339V800.456C176.865 800.62 176.943 800.702 177.1 800.702H179.361C179.518 800.702 179.596 800.78 179.596 800.937V802.987ZM192.041 799.027C192.041 800.386 191.635 801.464 190.822 802.261C190.018 803.058 188.936 803.456 187.576 803.456H186.885C185.51 803.456 184.42 803.062 183.615 802.273C182.818 801.484 182.42 800.402 182.42 799.027V798.441C182.42 797.808 182.619 797.202 183.018 796.624C183.533 795.89 183.791 795.538 183.791 795.57C183.791 795.57 183.518 795.198 182.971 794.456C182.604 793.964 182.42 793.413 182.42 792.804V792.347C182.42 790.972 182.818 789.882 183.615 789.077C184.42 788.265 185.51 787.859 186.885 787.859H187.576C188.936 787.859 190.018 788.269 190.822 789.089C191.635 789.902 192.041 790.987 192.041 792.347V792.804C192.041 793.413 191.857 793.964 191.49 794.456C190.951 795.198 190.682 795.57 190.682 795.57C190.682 795.538 190.936 795.89 191.443 796.624C191.842 797.202 192.041 797.808 192.041 798.441V799.027ZM189.287 792.57V792.112C189.287 791.612 189.123 791.198 188.795 790.87C188.467 790.542 188.061 790.378 187.576 790.378H186.885C186.4 790.378 185.99 790.546 185.654 790.882C185.318 791.218 185.15 791.628 185.15 792.112V792.57C185.15 793.046 185.318 793.452 185.654 793.788C185.99 794.124 186.4 794.292 186.885 794.292H187.576C188.061 794.292 188.467 794.128 188.795 793.8C189.123 793.472 189.287 793.062 189.287 792.57ZM189.287 799.214V798.523C189.287 798.038 189.123 797.632 188.795 797.304C188.467 796.976 188.061 796.812 187.576 796.812H186.885C186.385 796.812 185.971 796.976 185.643 797.304C185.314 797.632 185.15 798.038 185.15 798.523V799.214C185.15 799.691 185.318 800.097 185.654 800.433C185.99 800.769 186.4 800.937 186.885 800.937H187.576C188.061 800.937 188.467 800.773 188.795 800.445C189.123 800.116 189.287 799.706 189.287 799.214ZM200.807 790.003C200.807 791.292 200.518 792.273 199.939 792.945C199.33 793.671 198.834 794.034 198.451 794.034C198.389 794.034 198.334 793.984 198.287 793.882L197.619 792.663C197.58 792.601 197.561 792.562 197.561 792.546C197.561 792.476 197.619 792.402 197.736 792.323C198.33 791.878 198.627 791.456 198.627 791.058C198.627 790.878 198.545 790.788 198.381 790.788H198.17C198.006 790.788 197.924 790.71 197.924 790.554V788.339C197.924 788.183 198.006 788.105 198.17 788.105H200.561C200.725 788.105 200.807 788.183 200.807 788.339V790.003ZM197.033 790.003C197.033 791.292 196.732 792.288 196.131 792.991C195.537 793.687 195.049 794.034 194.666 794.034C194.596 794.034 194.537 793.984 194.49 793.882L193.869 792.687C193.838 792.624 193.822 792.577 193.822 792.546C193.822 792.53 193.994 792.374 194.338 792.077C194.682 791.78 194.854 791.441 194.854 791.058C194.854 790.878 194.775 790.788 194.619 790.788H194.42C194.264 790.788 194.186 790.71 194.186 790.554V788.339C194.186 788.183 194.264 788.105 194.42 788.105H196.799C196.955 788.105 197.033 788.183 197.033 788.339V790.003Z" fill="black"/>
<path d="M477 725L487 730.774V719.226L477 725ZM528 725L518 719.226V730.774L528 725ZM486 725V726H519V725V724H486V725Z" fill="white"/>
<path d="M502.168 717.429C502.168 718.71 501.758 719.737 500.938 720.511C500.125 721.284 499.039 721.671 497.68 721.671H496.965C495.621 721.671 494.539 721.284 493.719 720.511C492.906 719.737 492.5 718.71 492.5 717.429V710.327C492.5 709.046 492.906 708.018 493.719 707.245C494.539 706.464 495.621 706.073 496.965 706.073H497.68C498.773 706.073 499.688 706.339 500.422 706.87C500.836 707.175 501.211 707.565 501.547 708.042C501.82 708.44 501.957 708.729 501.957 708.909C501.957 708.987 501.91 709.05 501.816 709.096L499.719 710.104C499.688 710.12 499.648 710.128 499.602 710.128C499.523 710.128 499.422 710.011 499.297 709.776C498.859 708.987 498.32 708.593 497.68 708.593H496.965C496.48 708.593 496.074 708.757 495.746 709.085C495.426 709.413 495.266 709.827 495.266 710.327V712.507C495.266 712.686 495.32 712.776 495.43 712.776C495.492 712.776 495.719 712.694 496.109 712.53C496.5 712.358 496.863 712.272 497.199 712.272H497.926C499.16 712.272 500.176 712.671 500.973 713.468C501.77 714.264 502.168 715.28 502.168 716.514V717.429ZM499.414 717.429V716.514C499.414 716.054 499.246 715.651 498.91 715.307C498.574 714.964 498.164 714.792 497.68 714.792H496.965C496.48 714.792 496.074 714.956 495.746 715.284C495.426 715.612 495.266 716.022 495.266 716.514V717.429C495.266 717.921 495.426 718.331 495.746 718.659C496.074 718.987 496.48 719.151 496.965 719.151H497.68C498.164 719.151 498.574 718.983 498.91 718.647C499.246 718.311 499.414 717.905 499.414 717.429ZM510.887 708.218C510.887 709.507 510.598 710.487 510.02 711.159C509.41 711.886 508.914 712.249 508.531 712.249C508.469 712.249 508.414 712.198 508.367 712.096L507.699 710.878C507.66 710.815 507.641 710.776 507.641 710.761C507.641 710.69 507.699 710.616 507.816 710.538C508.41 710.093 508.707 709.671 508.707 709.272C508.707 709.093 508.625 709.003 508.461 709.003H508.25C508.086 709.003 508.004 708.925 508.004 708.768V706.554C508.004 706.397 508.086 706.319 508.25 706.319H510.641C510.805 706.319 510.887 706.397 510.887 706.554V708.218ZM507.113 708.218C507.113 709.507 506.812 710.503 506.211 711.206C505.617 711.901 505.129 712.249 504.746 712.249C504.676 712.249 504.617 712.198 504.57 712.096L503.949 710.901C503.918 710.839 503.902 710.792 503.902 710.761C503.902 710.745 504.074 710.589 504.418 710.292C504.762 709.995 504.934 709.655 504.934 709.272C504.934 709.093 504.855 709.003 504.699 709.003H504.5C504.344 709.003 504.266 708.925 504.266 708.768V706.554C504.266 706.397 504.344 706.319 504.5 706.319H506.879C507.035 706.319 507.113 706.397 507.113 706.554V708.218Z" fill="white"/>
<path d="M93 493L103 498.774V487.226L93 493ZM143 493L133 487.226V498.774L143 493ZM102 493V494H134V493V492H102V493Z" fill="white"/>
<path d="M121.76 484.714C121.76 485.995 121.349 487.022 120.529 487.796C119.717 488.569 118.631 488.956 117.271 488.956H116.556C115.213 488.956 114.131 488.569 113.31 487.796C112.498 487.022 112.092 485.995 112.092 484.714V477.612C112.092 476.331 112.498 475.304 113.31 474.53C114.131 473.749 115.213 473.358 116.556 473.358H117.271C118.365 473.358 119.279 473.624 120.013 474.155C120.427 474.46 120.802 474.851 121.138 475.327C121.412 475.726 121.549 476.015 121.549 476.194C121.549 476.272 121.502 476.335 121.408 476.382L119.31 477.39C119.279 477.405 119.24 477.413 119.193 477.413C119.115 477.413 119.013 477.296 118.888 477.062C118.451 476.272 117.912 475.878 117.271 475.878H116.556C116.072 475.878 115.666 476.042 115.338 476.37C115.017 476.698 114.857 477.112 114.857 477.612V479.792C114.857 479.972 114.912 480.062 115.021 480.062C115.084 480.062 115.31 479.979 115.701 479.815C116.092 479.644 116.455 479.558 116.791 479.558H117.517C118.752 479.558 119.767 479.956 120.564 480.753C121.361 481.55 121.76 482.565 121.76 483.8V484.714ZM119.006 484.714V483.8C119.006 483.339 118.838 482.937 118.502 482.593C118.166 482.249 117.756 482.077 117.271 482.077H116.556C116.072 482.077 115.666 482.241 115.338 482.569C115.017 482.897 114.857 483.308 114.857 483.8V484.714C114.857 485.206 115.017 485.616 115.338 485.944C115.666 486.272 116.072 486.437 116.556 486.437H117.271C117.756 486.437 118.166 486.269 118.502 485.933C118.838 485.597 119.006 485.19 119.006 484.714ZM130.478 475.503C130.478 476.792 130.189 477.772 129.611 478.444C129.002 479.171 128.506 479.534 128.123 479.534C128.06 479.534 128.006 479.483 127.959 479.382L127.291 478.163C127.252 478.101 127.232 478.062 127.232 478.046C127.232 477.976 127.291 477.901 127.408 477.823C128.002 477.378 128.299 476.956 128.299 476.558C128.299 476.378 128.217 476.288 128.052 476.288H127.842C127.677 476.288 127.595 476.21 127.595 476.054V473.839C127.595 473.683 127.677 473.604 127.842 473.604H130.232C130.396 473.604 130.478 473.683 130.478 473.839V475.503ZM126.705 475.503C126.705 476.792 126.404 477.788 125.802 478.491C125.209 479.187 124.72 479.534 124.338 479.534C124.267 479.534 124.209 479.483 124.162 479.382L123.541 478.187C123.51 478.124 123.494 478.077 123.494 478.046C123.494 478.03 123.666 477.874 124.01 477.577C124.353 477.28 124.525 476.94 124.525 476.558C124.525 476.378 124.447 476.288 124.291 476.288H124.092C123.935 476.288 123.857 476.21 123.857 476.054V473.839C123.857 473.683 123.935 473.604 124.092 473.604H126.47C126.627 473.604 126.705 473.683 126.705 473.839V475.503Z" fill="white"/>
<rect x="469.275" y="740.56" width="1.7703e-06" height="179.038" stroke="white" stroke-width="1.7703e-06"/>
<path d="M469 733L463.226 743L474.774 743L469 733ZM469 908L474.774 898L463.227 898L469 908ZM469 742L468 742L468 899L469 899L470 899L470 742L469 742Z" fill="white"/>
<path d="M484.068 839.968C484.068 840.125 483.99 840.203 483.833 840.203H476.075C475.919 840.203 475.841 840.125 475.841 839.968V837.917C475.841 837.761 475.919 837.683 476.075 837.683H478.337C478.493 837.683 478.572 837.601 478.572 837.437V830.406C478.572 830.234 478.501 830.148 478.361 830.148C478.29 830.148 478.224 830.179 478.161 830.242L477.447 830.992C477.384 831.054 477.329 831.085 477.282 831.085C477.228 831.085 477.169 831.054 477.107 830.992L475.618 829.527C475.556 829.457 475.525 829.398 475.525 829.351C475.525 829.304 475.556 829.25 475.618 829.187L479.626 825.156L479.802 825.085H481.091C481.255 825.085 481.337 825.164 481.337 825.32V837.437C481.337 837.601 481.415 837.683 481.572 837.683H483.833C483.99 837.683 484.068 837.761 484.068 837.917V839.968ZM496.513 836.007C496.513 837.367 496.107 838.445 495.294 839.242C494.49 840.039 493.407 840.437 492.048 840.437H491.357C489.982 840.437 488.892 840.042 488.087 839.253C487.29 838.464 486.892 837.382 486.892 836.007V835.421C486.892 834.789 487.091 834.183 487.49 833.605C488.005 832.871 488.263 832.519 488.263 832.55C488.263 832.55 487.99 832.179 487.443 831.437C487.075 830.945 486.892 830.394 486.892 829.785V829.328C486.892 827.953 487.29 826.863 488.087 826.058C488.892 825.246 489.982 824.839 491.357 824.839H492.048C493.407 824.839 494.49 825.25 495.294 826.07C496.107 826.882 496.513 827.968 496.513 829.328V829.785C496.513 830.394 496.329 830.945 495.962 831.437C495.423 832.179 495.154 832.55 495.154 832.55C495.154 832.519 495.407 832.871 495.915 833.605C496.314 834.183 496.513 834.789 496.513 835.421V836.007ZM493.759 829.55V829.093C493.759 828.593 493.595 828.179 493.267 827.851C492.939 827.523 492.532 827.359 492.048 827.359H491.357C490.872 827.359 490.462 827.527 490.126 827.863C489.79 828.199 489.622 828.609 489.622 829.093V829.55C489.622 830.027 489.79 830.433 490.126 830.769C490.462 831.105 490.872 831.273 491.357 831.273H492.048C492.532 831.273 492.939 831.109 493.267 830.781C493.595 830.453 493.759 830.042 493.759 829.55ZM493.759 836.195V835.503C493.759 835.019 493.595 834.613 493.267 834.285C492.939 833.957 492.532 833.792 492.048 833.792H491.357C490.857 833.792 490.443 833.957 490.115 834.285C489.786 834.613 489.622 835.019 489.622 835.503V836.195C489.622 836.671 489.79 837.078 490.126 837.414C490.462 837.75 490.872 837.917 491.357 837.917H492.048C492.532 837.917 492.939 837.753 493.267 837.425C493.595 837.097 493.759 836.687 493.759 836.195ZM505.279 826.984C505.279 828.273 504.99 829.253 504.411 829.925C503.802 830.652 503.306 831.015 502.923 831.015C502.861 831.015 502.806 830.964 502.759 830.863L502.091 829.644C502.052 829.582 502.032 829.542 502.032 829.527C502.032 829.457 502.091 829.382 502.208 829.304C502.802 828.859 503.099 828.437 503.099 828.039C503.099 827.859 503.017 827.769 502.853 827.769H502.642C502.478 827.769 502.396 827.691 502.396 827.535V825.32C502.396 825.164 502.478 825.085 502.642 825.085H505.032C505.197 825.085 505.279 825.164 505.279 825.32V826.984ZM501.505 826.984C501.505 828.273 501.204 829.269 500.603 829.972C500.009 830.667 499.521 831.015 499.138 831.015C499.068 831.015 499.009 830.964 498.962 830.863L498.341 829.667C498.31 829.605 498.294 829.558 498.294 829.527C498.294 829.511 498.466 829.355 498.81 829.058C499.154 828.761 499.325 828.421 499.325 828.039C499.325 827.859 499.247 827.769 499.091 827.769H498.892C498.736 827.769 498.657 827.691 498.657 827.535V825.32C498.657 825.164 498.736 825.085 498.892 825.085H501.271C501.427 825.085 501.505 825.164 501.505 825.32V826.984Z" fill="white"/>
<rect x="150.725" y="308.89" width="1.7703e-06" height="179.038" stroke="white" stroke-width="1.7703e-06"/>
<path d="M151 309L145.226 319L156.774 319L151 309ZM151 484L156.773 474L145.226 474L151 484ZM151 318L150 318L150 475L151 475L152 475L152 318L151 318Z" fill="white"/>
<path d="M165.518 408.299C165.518 408.455 165.44 408.533 165.284 408.533H157.526C157.37 408.533 157.292 408.455 157.292 408.299V406.248C157.292 406.091 157.37 406.013 157.526 406.013H159.788C159.944 406.013 160.022 405.931 160.022 405.767V398.736C160.022 398.564 159.952 398.478 159.811 398.478C159.741 398.478 159.675 398.509 159.612 398.572L158.897 399.322C158.835 399.384 158.78 399.416 158.733 399.416C158.678 399.416 158.62 399.384 158.557 399.322L157.069 397.857C157.007 397.787 156.975 397.728 156.975 397.681C156.975 397.634 157.007 397.58 157.069 397.517L161.077 393.486L161.253 393.416H162.542C162.706 393.416 162.788 393.494 162.788 393.65V405.767C162.788 405.931 162.866 406.013 163.022 406.013H165.284C165.44 406.013 165.518 406.091 165.518 406.248V408.299ZM177.964 404.338C177.964 405.697 177.557 406.775 176.745 407.572C175.94 408.369 174.858 408.767 173.499 408.767H172.807C171.432 408.767 170.343 408.373 169.538 407.584C168.741 406.795 168.343 405.713 168.343 404.338V403.752C168.343 403.119 168.542 402.513 168.94 401.935C169.456 401.201 169.714 400.849 169.714 400.881C169.714 400.881 169.44 400.509 168.893 399.767C168.526 399.275 168.343 398.724 168.343 398.115V397.658C168.343 396.283 168.741 395.193 169.538 394.388C170.343 393.576 171.432 393.17 172.807 393.17H173.499C174.858 393.17 175.94 393.58 176.745 394.4C177.557 395.213 177.964 396.299 177.964 397.658V398.115C177.964 398.724 177.78 399.275 177.413 399.767C176.874 400.509 176.604 400.881 176.604 400.881C176.604 400.849 176.858 401.201 177.366 401.935C177.764 402.513 177.964 403.119 177.964 403.752V404.338ZM175.21 397.881V397.424C175.21 396.924 175.046 396.509 174.718 396.181C174.389 395.853 173.983 395.689 173.499 395.689H172.807C172.323 395.689 171.913 395.857 171.577 396.193C171.241 396.529 171.073 396.939 171.073 397.424V397.881C171.073 398.357 171.241 398.763 171.577 399.099C171.913 399.435 172.323 399.603 172.807 399.603H173.499C173.983 399.603 174.389 399.439 174.718 399.111C175.046 398.783 175.21 398.373 175.21 397.881ZM175.21 404.525V403.834C175.21 403.349 175.046 402.943 174.718 402.615C174.389 402.287 173.983 402.123 173.499 402.123H172.807C172.307 402.123 171.893 402.287 171.565 402.615C171.237 402.943 171.073 403.349 171.073 403.834V404.525C171.073 405.002 171.241 405.408 171.577 405.744C171.913 406.08 172.323 406.248 172.807 406.248H173.499C173.983 406.248 174.389 406.084 174.718 405.756C175.046 405.427 175.21 405.017 175.21 404.525ZM186.729 395.314C186.729 396.603 186.44 397.584 185.862 398.256C185.253 398.982 184.757 399.345 184.374 399.345C184.311 399.345 184.257 399.295 184.21 399.193L183.542 397.974C183.503 397.912 183.483 397.873 183.483 397.857C183.483 397.787 183.542 397.713 183.659 397.634C184.253 397.189 184.55 396.767 184.55 396.369C184.55 396.189 184.468 396.099 184.303 396.099H184.093C183.928 396.099 183.846 396.021 183.846 395.865V393.65C183.846 393.494 183.928 393.416 184.093 393.416H186.483C186.647 393.416 186.729 393.494 186.729 393.65V395.314ZM182.956 395.314C182.956 396.603 182.655 397.599 182.053 398.302C181.46 398.998 180.971 399.345 180.589 399.345C180.518 399.345 180.46 399.295 180.413 399.193L179.792 397.998C179.76 397.935 179.745 397.888 179.745 397.857C179.745 397.841 179.917 397.685 180.26 397.388C180.604 397.091 180.776 396.752 180.776 396.369C180.776 396.189 180.698 396.099 180.542 396.099H180.343C180.186 396.099 180.108 396.021 180.108 395.865V393.65C180.108 393.494 180.186 393.416 180.343 393.416H182.721C182.878 393.416 182.956 393.494 182.956 393.65V395.314Z" fill="white"/>
<path d="M268 815L262.226 825L273.774 825L268 815ZM268 908L273.774 898L262.227 898L268 908ZM268 824L267 824L267 899L268 899L269 899L269 824L268 824Z" fill="black"/>
<path d="M284.223 865.731C284.223 865.887 284.145 865.965 283.988 865.965H276.23C276.074 865.965 275.996 865.887 275.996 865.731V863.68C275.996 863.524 276.074 863.445 276.23 863.445H278.492C278.648 863.445 278.727 863.363 278.727 863.199V856.168C278.727 855.996 278.656 855.91 278.516 855.91C278.445 855.91 278.379 855.942 278.316 856.004L277.602 856.754C277.539 856.817 277.484 856.848 277.438 856.848C277.383 856.848 277.324 856.817 277.262 856.754L275.773 855.289C275.711 855.219 275.68 855.16 275.68 855.113C275.68 855.067 275.711 855.012 275.773 854.949L279.781 850.918L279.957 850.848H281.246C281.41 850.848 281.492 850.926 281.492 851.082V863.199C281.492 863.363 281.57 863.445 281.727 863.445H283.988C284.145 863.445 284.223 863.524 284.223 863.68V865.731ZM296.668 861.957C296.668 863.223 296.258 864.246 295.438 865.027C294.625 865.809 293.547 866.199 292.203 866.199H291.512C290.168 866.199 289.086 865.813 288.266 865.039C287.453 864.266 287.047 863.238 287.047 861.957V854.856C287.047 853.574 287.453 852.547 288.266 851.774C289.086 850.992 290.168 850.602 291.512 850.602H292.203C293.547 850.602 294.625 850.992 295.438 851.774C296.258 852.547 296.668 853.574 296.668 854.856V861.957ZM293.914 861.957V854.856C293.914 854.356 293.75 853.942 293.422 853.613C293.094 853.285 292.688 853.121 292.203 853.121H291.512C291.027 853.121 290.617 853.289 290.281 853.625C289.945 853.961 289.777 854.371 289.777 854.856V861.957C289.777 862.434 289.945 862.84 290.281 863.176C290.617 863.512 291.027 863.68 291.512 863.68H292.203C292.688 863.68 293.094 863.516 293.422 863.188C293.75 862.859 293.914 862.449 293.914 861.957ZM305.434 852.746C305.434 854.035 305.145 855.016 304.566 855.688C303.957 856.414 303.461 856.777 303.078 856.777C303.016 856.777 302.961 856.727 302.914 856.625L302.246 855.406C302.207 855.344 302.188 855.305 302.188 855.289C302.188 855.219 302.246 855.145 302.363 855.067C302.957 854.621 303.254 854.199 303.254 853.801C303.254 853.621 303.172 853.531 303.008 853.531H302.797C302.633 853.531 302.551 853.453 302.551 853.297V851.082C302.551 850.926 302.633 850.848 302.797 850.848H305.188C305.352 850.848 305.434 850.926 305.434 851.082V852.746ZM301.66 852.746C301.66 854.035 301.359 855.031 300.758 855.734C300.164 856.43 299.676 856.777 299.293 856.777C299.223 856.777 299.164 856.727 299.117 856.625L298.496 855.43C298.465 855.367 298.449 855.32 298.449 855.289C298.449 855.274 298.621 855.117 298.965 854.82C299.309 854.524 299.48 854.184 299.48 853.801C299.48 853.621 299.402 853.531 299.246 853.531H299.047C298.891 853.531 298.812 853.453 298.812 853.297V851.082C298.812 850.926 298.891 850.848 299.047 850.848H301.426C301.582 850.848 301.66 850.926 301.66 851.082V852.746Z" fill="black"/>
<path d="M351.57 308.5L345.797 318.5L357.344 318.5L351.57 308.5ZM351.57 402.386L357.344 392.386L345.797 392.386L351.57 402.386ZM351.57 317.5L350.57 317.5L350.57 393.386L351.57 393.386L352.57 393.386L352.57 317.5L351.57 317.5Z" fill="black"/>
<path d="M367.363 359.184C367.363 359.34 367.285 359.418 367.129 359.418H359.371C359.215 359.418 359.137 359.34 359.137 359.184V357.133C359.137 356.977 359.215 356.899 359.371 356.899H361.633C361.789 356.899 361.867 356.817 361.867 356.652V349.621C361.867 349.449 361.797 349.363 361.656 349.363C361.586 349.363 361.52 349.395 361.457 349.457L360.742 350.207C360.68 350.27 360.625 350.301 360.578 350.301C360.523 350.301 360.465 350.27 360.402 350.207L358.914 348.742C358.852 348.672 358.82 348.613 358.82 348.567C358.82 348.52 358.852 348.465 358.914 348.402L362.922 344.371L363.098 344.301H364.387C364.551 344.301 364.633 344.379 364.633 344.535V356.652C364.633 356.817 364.711 356.899 364.867 356.899H367.129C367.285 356.899 367.363 356.977 367.363 357.133V359.184ZM379.809 355.41C379.809 356.676 379.398 357.699 378.578 358.481C377.766 359.262 376.688 359.652 375.344 359.652H374.652C373.309 359.652 372.227 359.266 371.406 358.492C370.594 357.719 370.188 356.692 370.188 355.41V348.309C370.188 347.027 370.594 346 371.406 345.227C372.227 344.445 373.309 344.055 374.652 344.055H375.344C376.688 344.055 377.766 344.445 378.578 345.227C379.398 346 379.809 347.027 379.809 348.309V355.41ZM377.055 355.41V348.309C377.055 347.809 376.891 347.395 376.562 347.067C376.234 346.738 375.828 346.574 375.344 346.574H374.652C374.168 346.574 373.758 346.742 373.422 347.078C373.086 347.414 372.918 347.824 372.918 348.309V355.41C372.918 355.887 373.086 356.293 373.422 356.629C373.758 356.965 374.168 357.133 374.652 357.133H375.344C375.828 357.133 376.234 356.969 376.562 356.641C376.891 356.313 377.055 355.902 377.055 355.41ZM388.574 346.199C388.574 347.488 388.285 348.469 387.707 349.141C387.098 349.867 386.602 350.231 386.219 350.231C386.156 350.231 386.102 350.18 386.055 350.078L385.387 348.859C385.348 348.797 385.328 348.758 385.328 348.742C385.328 348.672 385.387 348.598 385.504 348.52C386.098 348.074 386.395 347.652 386.395 347.254C386.395 347.074 386.312 346.984 386.148 346.984H385.938C385.773 346.984 385.691 346.906 385.691 346.75V344.535C385.691 344.379 385.773 344.301 385.938 344.301H388.328C388.492 344.301 388.574 344.379 388.574 344.535V346.199ZM384.801 346.199C384.801 347.488 384.5 348.484 383.898 349.188C383.305 349.883 382.816 350.231 382.434 350.231C382.363 350.231 382.305 350.18 382.258 350.078L381.637 348.883C381.605 348.82 381.59 348.774 381.59 348.742C381.59 348.727 381.762 348.57 382.105 348.274C382.449 347.977 382.621 347.637 382.621 347.254C382.621 347.074 382.543 346.984 382.387 346.984H382.188C382.031 346.984 381.953 346.906 381.953 346.75V344.535C381.953 344.379 382.031 344.301 382.188 344.301H384.566C384.723 344.301 384.801 344.379 384.801 344.535V346.199Z" fill="black"/>
<path d="M360.211 411.12L370.211 416.893L370.211 405.346L360.211 411.12ZM528.31 411.119L518.31 405.346L518.31 416.893L528.31 411.119ZM369.211 411.12L369.211 412.12L519.31 412.119L519.31 411.119L519.31 410.119L369.211 410.12L369.211 411.12Z" fill="black"/>
<path d="M427.117 406.793C427.117 406.95 427.039 407.028 426.883 407.028H419.125C418.969 407.028 418.89 406.95 418.89 406.793V404.743C418.89 404.586 418.969 404.508 419.125 404.508H421.386C421.543 404.508 421.621 404.426 421.621 404.262V397.231C421.621 397.059 421.551 396.973 421.41 396.973C421.34 396.973 421.273 397.004 421.211 397.067L420.496 397.817C420.433 397.879 420.379 397.911 420.332 397.911C420.277 397.911 420.219 397.879 420.156 397.817L418.668 396.352C418.605 396.282 418.574 396.223 418.574 396.176C418.574 396.129 418.605 396.075 418.668 396.012L422.676 391.981L422.851 391.911H424.14C424.304 391.911 424.386 391.989 424.386 392.145V404.262C424.386 404.426 424.465 404.508 424.621 404.508H426.883C427.039 404.508 427.117 404.586 427.117 404.743V406.793ZM439.562 402.833C439.562 404.192 439.156 405.27 438.344 406.067C437.539 406.864 436.457 407.262 435.097 407.262H434.406C433.031 407.262 431.941 406.868 431.136 406.079C430.34 405.29 429.941 404.208 429.941 402.833V402.247C429.941 401.614 430.14 401.008 430.539 400.43C431.054 399.696 431.312 399.344 431.312 399.375C431.312 399.375 431.039 399.004 430.492 398.262C430.125 397.77 429.941 397.219 429.941 396.61V396.153C429.941 394.778 430.34 393.688 431.136 392.883C431.941 392.071 433.031 391.665 434.406 391.665H435.097C436.457 391.665 437.539 392.075 438.344 392.895C439.156 393.708 439.562 394.793 439.562 396.153V396.61C439.562 397.219 439.379 397.77 439.011 398.262C438.472 399.004 438.203 399.375 438.203 399.375C438.203 399.344 438.457 399.696 438.965 400.43C439.363 401.008 439.562 401.614 439.562 402.247V402.833ZM436.808 396.375V395.918C436.808 395.418 436.644 395.004 436.316 394.676C435.988 394.348 435.582 394.184 435.097 394.184H434.406C433.922 394.184 433.511 394.352 433.176 394.688C432.84 395.024 432.672 395.434 432.672 395.918V396.375C432.672 396.852 432.84 397.258 433.176 397.594C433.511 397.93 433.922 398.098 434.406 398.098H435.097C435.582 398.098 435.988 397.934 436.316 397.606C436.644 397.278 436.808 396.868 436.808 396.375ZM436.808 403.02V402.329C436.808 401.844 436.644 401.438 436.316 401.11C435.988 400.782 435.582 400.618 435.097 400.618H434.406C433.906 400.618 433.492 400.782 433.164 401.11C432.836 401.438 432.672 401.844 432.672 402.329V403.02C432.672 403.497 432.84 403.903 433.176 404.239C433.511 404.575 433.922 404.743 434.406 404.743H435.097C435.582 404.743 435.988 404.579 436.316 404.25C436.644 403.922 436.808 403.512 436.808 403.02ZM448.328 393.809C448.328 395.098 448.039 396.079 447.461 396.75C446.851 397.477 446.355 397.84 445.972 397.84C445.91 397.84 445.855 397.79 445.808 397.688L445.14 396.469C445.101 396.407 445.082 396.368 445.082 396.352C445.082 396.282 445.14 396.208 445.258 396.129C445.851 395.684 446.148 395.262 446.148 394.864C446.148 394.684 446.066 394.594 445.902 394.594H445.691C445.527 394.594 445.445 394.516 445.445 394.36V392.145C445.445 391.989 445.527 391.911 445.691 391.911H448.082C448.246 391.911 448.328 391.989 448.328 392.145V393.809ZM444.554 393.809C444.554 395.098 444.254 396.094 443.652 396.797C443.058 397.493 442.57 397.84 442.187 397.84C442.117 397.84 442.058 397.79 442.011 397.688L441.39 396.493C441.359 396.43 441.344 396.383 441.344 396.352C441.344 396.336 441.515 396.18 441.859 395.883C442.203 395.586 442.375 395.247 442.375 394.864C442.375 394.684 442.297 394.594 442.14 394.594H441.941C441.785 394.594 441.707 394.516 441.707 394.36V392.145C441.707 391.989 441.785 391.911 441.941 391.911H444.32C444.476 391.911 444.554 391.989 444.554 392.145V393.809Z" fill="black"/>
<path d="M577.181 594L561.548 587.487C561.071 587.289 560.561 587.188 560.045 587.188C559.53 587.188 559.019 587.289 558.543 587.487L542.91 594C541.453 594.603 540.5 596.028 540.5 597.607C540.5 613.77 549.823 624.941 558.535 628.572C559.496 628.971 560.579 628.971 561.539 628.572C568.517 625.665 579.583 615.626 579.583 597.607C579.583 596.028 578.63 594.603 577.181 594ZM560.049 623.524L560.041 592.502L574.363 598.471C574.095 610.798 567.679 619.73 560.049 623.524Z" fill="#3C722E"/>
<g clip-path="url(#clip2_121_6738)">
<path d="M47.828 588.5L56.5868 597.259L49.2589 604.587L40.5 595.828V588.5H47.828Z" fill="#A72222"/>
<path d="M56.8832 618.527L60.5471 622.191L57.0927 625.646L51.492 620.045L47.8224 623.715C47.8261 623.782 47.828 623.85 47.828 623.919C47.828 625.942 46.1876 627.583 44.164 627.583C42.1404 627.583 40.5 625.942 40.5 623.919C40.5 621.895 42.1404 620.255 44.164 620.255C44.2324 620.255 44.3004 620.256 44.3679 620.26L48.0375 616.591L42.4368 610.99L45.8912 607.535L49.5552 611.199L72.2545 588.5H79.5825V595.828L56.8832 618.527Z" fill="#A72222"/>
<path d="M75.9186 627.582C73.8951 627.582 72.2546 625.942 72.2546 623.919C72.2546 623.85 72.2566 623.782 72.2602 623.715L65.1362 616.591L74.1914 607.535L77.6458 610.99L72.045 616.591L75.7146 620.26C75.7821 620.256 75.8502 620.255 75.9186 620.255C77.9421 620.255 79.5826 621.895 79.5826 623.919C79.5826 625.942 77.9421 627.582 75.9186 627.582Z" fill="#A72222"/>
</g>
<defs>
<clipPath id="clip0_121_6738">
<rect width="620" height="1063" fill="white"/>
</clipPath>
<clipPath id="clip1_121_6738">
<rect width="620" height="197" fill="white"/>
</clipPath>
<clipPath id="clip2_121_6738">
<rect width="39.0825" height="39.0825" fill="white" transform="translate(40.5 588.5)"/>
</clipPath>
</defs>
</svg>
