<svg width="620" height="1063" viewBox="0 0 620 1063" fill="none" xmlns="http://www.w3.org/2000/svg">
<g clip-path="url(#clip0_121_6600)">
<rect y="197" width="620" height="866" fill="#DEDEDE"/>
<g clip-path="url(#clip1_121_6600)">
<rect width="620" height="197" fill="#0D4D6B"/>
<path d="M122.984 126.312C122.016 126.312 121.195 126.648 120.523 127.32C119.852 127.992 119.516 128.812 119.516 129.781C119.516 130.766 120.031 131.594 121.062 132.266C121.406 132.531 122.75 133.188 125.094 134.234C127.75 135.453 129.648 136.781 130.789 138.219C132.008 139.766 132.617 141.688 132.617 143.984C132.617 146.547 131.797 148.602 130.156 150.148C128.531 151.695 126.375 152.469 123.688 152.469H121.766C119.078 152.469 117 151.719 115.531 150.219C114.062 148.719 113.328 147.555 113.328 146.727C113.328 146.602 113.422 146.484 113.609 146.375L117.781 144.312C117.859 144.281 117.945 144.266 118.039 144.266C118.164 144.266 118.469 144.75 118.953 145.719C119.516 146.859 120.453 147.43 121.766 147.43H123.688C124.625 147.43 125.438 147.094 126.125 146.422C126.812 145.75 127.156 144.938 127.156 143.984C127.156 142.891 126.688 141.977 125.75 141.242C125.219 140.836 123.977 140.164 122.023 139.227C119.164 137.852 117.18 136.555 116.07 135.336C114.727 133.867 114.055 132.016 114.055 129.781C114.055 127.219 114.867 125.164 116.492 123.617C118.133 122.055 120.297 121.273 122.984 121.273H123.688C125.875 121.273 127.703 121.805 129.172 122.867C130 123.477 130.75 124.258 131.422 125.211C131.969 126.008 132.242 126.586 132.242 126.945C132.242 127.102 132.148 127.227 131.961 127.32L127.766 129.383C127.703 129.414 127.625 129.43 127.531 129.43C127.406 129.43 127.203 129.195 126.922 128.727C125.953 127.117 124.875 126.312 123.688 126.312H122.984ZM154.695 151.531C154.695 151.844 154.531 152 154.203 152H137.258C136.945 152 136.789 151.844 136.789 151.531V122.234C136.789 121.922 136.945 121.766 137.258 121.766H154.203C154.531 121.766 154.695 121.922 154.695 122.234V126.312C154.695 126.641 154.531 126.805 154.203 126.805H142.789C142.477 126.805 142.32 126.961 142.32 127.273V133.672C142.32 133.984 142.477 134.141 142.789 134.141H152.141C152.469 134.141 152.633 134.305 152.633 134.633V138.711C152.633 139.023 152.469 139.18 152.141 139.18H142.789C142.477 139.18 142.32 139.344 142.32 139.672V146.469C142.32 146.797 142.477 146.961 142.789 146.961H154.203C154.531 146.961 154.695 147.117 154.695 147.43V151.531ZM178.438 151.367C178.438 151.305 178.453 151.375 178.484 151.578C178.484 151.859 178.312 152 177.969 152H173.117C172.867 152 172.711 151.891 172.648 151.672L171.195 146.633C171.133 146.43 170.977 146.328 170.727 146.328H163.859C163.594 146.328 163.43 146.43 163.367 146.633L161.938 151.672C161.875 151.891 161.711 152 161.445 152H156.664C156.305 152 156.125 151.859 156.125 151.578C156.172 151.406 156.195 151.336 156.195 151.367L165.102 122.094C165.164 121.875 165.32 121.766 165.57 121.766H169.039C169.289 121.766 169.445 121.875 169.508 122.094L178.438 151.367ZM169.508 140.68L167.938 134.328C167.875 134.141 167.695 133.266 167.398 131.703H167.258C167.133 132.281 166.945 133.156 166.695 134.328L165.055 140.68C165.055 140.711 165.055 140.742 165.055 140.773C165.023 140.805 165.008 140.836 165.008 140.867C165.008 141.148 165.18 141.289 165.523 141.289H169.039C169.383 141.289 169.555 141.148 169.555 140.867C169.555 140.836 169.555 140.805 169.555 140.773C169.523 140.742 169.508 140.711 169.508 140.68ZM202.016 151.367C202.047 151.43 202.062 151.516 202.062 151.625C202.062 151.875 201.898 152 201.57 152H196.625C196.469 152 196.328 151.891 196.203 151.672L191.984 139.461L191.586 139.18H187.32C187.008 139.18 186.852 139.344 186.852 139.672V151.531C186.852 151.844 186.688 152 186.359 152H181.789C181.477 152 181.32 151.844 181.32 151.531V122.234C181.32 121.922 181.477 121.766 181.789 121.766H192.594C195.344 121.766 197.516 122.57 199.109 124.18C200.719 125.773 201.523 127.945 201.523 130.695V131.164C201.523 133.148 200.82 134.859 199.414 136.297C199.195 136.531 198.766 136.883 198.125 137.352C197.672 137.711 197.445 137.969 197.445 138.125V138.172L202.016 151.367ZM196.062 130.695V130.25C196.062 129.328 195.719 128.523 195.031 127.836C194.344 127.148 193.531 126.805 192.594 126.805H187.32C187.008 126.805 186.852 126.961 186.852 127.273V133.672C186.852 133.984 187.008 134.141 187.32 134.141H192.594C193.531 134.141 194.344 133.805 195.031 133.133C195.719 132.461 196.062 131.648 196.062 130.695ZM225.43 146.328C225.633 146.422 225.734 146.555 225.734 146.727C225.734 147.492 224.961 148.672 223.414 150.266C221.977 151.734 219.914 152.469 217.227 152.469H214.883C212.195 152.469 210.031 151.695 208.391 150.148C206.766 148.602 205.953 146.547 205.953 143.984V129.781C205.953 127.219 206.766 125.164 208.391 123.617C210.031 122.055 212.195 121.273 214.883 121.273H217.227C219.414 121.273 221.227 121.805 222.664 122.867C223.523 123.508 224.273 124.289 224.914 125.211C225.461 126.008 225.734 126.586 225.734 126.945C225.734 127.102 225.633 127.227 225.43 127.32L221.258 129.383C221.195 129.414 221.117 129.43 221.023 129.43C220.867 129.43 220.641 129.164 220.344 128.633C219.516 127.086 218.477 126.312 217.227 126.312H214.883C213.914 126.312 213.094 126.648 212.422 127.32C211.75 127.992 211.414 128.812 211.414 129.781V143.984C211.414 144.938 211.75 145.75 212.422 146.422C213.094 147.094 213.914 147.43 214.883 147.43H217.227C218.477 147.43 219.5 146.664 220.297 145.133C220.625 144.523 220.867 144.219 221.023 144.219C221.117 144.219 221.195 144.234 221.258 144.266L225.43 146.328ZM250.766 151.531C250.766 151.844 250.602 152 250.273 152H245.773C245.445 152 245.281 151.844 245.281 151.531V139.672C245.281 139.344 245.125 139.18 244.812 139.18H235.883C235.57 139.18 235.414 139.344 235.414 139.672V151.531C235.414 151.844 235.25 152 234.922 152H230.352C230.039 152 229.883 151.844 229.883 151.531V122.234C229.883 121.922 230.039 121.766 230.352 121.766H234.922C235.25 121.766 235.414 121.922 235.414 122.234V133.672C235.414 133.984 235.57 134.141 235.883 134.141H244.812C245.125 134.141 245.281 133.984 245.281 133.672V122.234C245.281 121.922 245.445 121.766 245.773 121.766H250.273C250.602 121.766 250.766 121.922 250.766 122.234V151.531ZM284.469 151.367C284.469 151.305 284.484 151.375 284.516 151.578C284.516 151.859 284.344 152 284 152H279.148C278.898 152 278.742 151.891 278.68 151.672L277.227 146.633C277.164 146.43 277.008 146.328 276.758 146.328H269.891C269.625 146.328 269.461 146.43 269.398 146.633L267.969 151.672C267.906 151.891 267.742 152 267.477 152H262.695C262.336 152 262.156 151.859 262.156 151.578C262.203 151.406 262.227 151.336 262.227 151.367L271.133 122.094C271.195 121.875 271.352 121.766 271.602 121.766H275.07C275.32 121.766 275.477 121.875 275.539 122.094L284.469 151.367ZM275.539 140.68L273.969 134.328C273.906 134.141 273.727 133.266 273.43 131.703H273.289C273.164 132.281 272.977 133.156 272.727 134.328L271.086 140.68C271.086 140.711 271.086 140.742 271.086 140.773C271.055 140.805 271.039 140.836 271.039 140.867C271.039 141.148 271.211 141.289 271.555 141.289H275.07C275.414 141.289 275.586 141.148 275.586 140.867C275.586 140.836 275.586 140.805 275.586 140.773C275.555 140.742 275.539 140.711 275.539 140.68ZM307.273 151.531C307.273 151.844 307.109 152 306.781 152H302.797L302.375 151.766L292.531 132.453L292.625 151.531C292.625 151.844 292.516 152 292.297 152H287.82C287.508 152 287.352 151.844 287.352 151.531V122.234C287.352 121.922 287.508 121.766 287.82 121.766H291.875L292.297 122L302.094 141.477L302 122.234C302 121.922 302.125 121.766 302.375 121.766H306.781C307.109 121.766 307.273 121.922 307.273 122.234V151.531ZM333.945 143.07C333.945 145.789 333.141 147.961 331.531 149.586C329.938 151.195 327.766 152 325.016 152H314.211C313.898 152 313.742 151.844 313.742 151.531V122.234C313.742 121.922 313.898 121.766 314.211 121.766H325.016C327.766 121.766 329.938 122.57 331.531 124.18C333.141 125.773 333.945 127.945 333.945 130.695V143.07ZM328.484 143.516V130.25C328.484 129.328 328.141 128.523 327.453 127.836C326.766 127.148 325.953 126.805 325.016 126.805H319.742C319.43 126.805 319.273 126.961 319.273 127.273V146.469C319.273 146.797 319.43 146.961 319.742 146.961H325.016C325.984 146.961 326.805 146.625 327.477 145.953C328.148 145.281 328.484 144.469 328.484 143.516ZM368.398 143.07C368.398 145.789 367.594 147.961 365.984 149.586C364.391 151.195 362.219 152 359.469 152H348.664C348.352 152 348.195 151.844 348.195 151.531V122.234C348.195 121.922 348.352 121.766 348.664 121.766H359.469C362.219 121.766 364.391 122.57 365.984 124.18C367.594 125.773 368.398 127.945 368.398 130.695V143.07ZM362.938 143.516V130.25C362.938 129.328 362.594 128.523 361.906 127.836C361.219 127.148 360.406 126.805 359.469 126.805H354.195C353.883 126.805 353.727 126.961 353.727 127.273V146.469C353.727 146.797 353.883 146.961 354.195 146.961H359.469C360.438 146.961 361.258 146.625 361.93 145.953C362.602 145.281 362.938 144.469 362.938 143.516ZM392.07 151.531C392.07 151.844 391.906 152 391.578 152H374.633C374.32 152 374.164 151.844 374.164 151.531V122.234C374.164 121.922 374.32 121.766 374.633 121.766H391.578C391.906 121.766 392.07 121.922 392.07 122.234V126.312C392.07 126.641 391.906 126.805 391.578 126.805H380.164C379.852 126.805 379.695 126.961 379.695 127.273V133.672C379.695 133.984 379.852 134.141 380.164 134.141H389.516C389.844 134.141 390.008 134.305 390.008 134.633V138.711C390.008 139.023 389.844 139.18 389.516 139.18H380.164C379.852 139.18 379.695 139.344 379.695 139.672V146.469C379.695 146.797 379.852 146.961 380.164 146.961H391.578C391.906 146.961 392.07 147.117 392.07 147.43V151.531ZM404.422 126.312C403.453 126.312 402.633 126.648 401.961 127.32C401.289 127.992 400.953 128.812 400.953 129.781C400.953 130.766 401.469 131.594 402.5 132.266C402.844 132.531 404.188 133.188 406.531 134.234C409.188 135.453 411.086 136.781 412.227 138.219C413.445 139.766 414.055 141.688 414.055 143.984C414.055 146.547 413.234 148.602 411.594 150.148C409.969 151.695 407.812 152.469 405.125 152.469H403.203C400.516 152.469 398.438 151.719 396.969 150.219C395.5 148.719 394.766 147.555 394.766 146.727C394.766 146.602 394.859 146.484 395.047 146.375L399.219 144.312C399.297 144.281 399.383 144.266 399.477 144.266C399.602 144.266 399.906 144.75 400.391 145.719C400.953 146.859 401.891 147.43 403.203 147.43H405.125C406.062 147.43 406.875 147.094 407.562 146.422C408.25 145.75 408.594 144.938 408.594 143.984C408.594 142.891 408.125 141.977 407.188 141.242C406.656 140.836 405.414 140.164 403.461 139.227C400.602 137.852 398.617 136.555 397.508 135.336C396.164 133.867 395.492 132.016 395.492 129.781C395.492 127.219 396.305 125.164 397.93 123.617C399.57 122.055 401.734 121.273 404.422 121.273H405.125C407.312 121.273 409.141 121.805 410.609 122.867C411.438 123.477 412.188 124.258 412.859 125.211C413.406 126.008 413.68 126.586 413.68 126.945C413.68 127.102 413.586 127.227 413.398 127.32L409.203 129.383C409.141 129.414 409.062 129.43 408.969 129.43C408.844 129.43 408.641 129.195 408.359 128.727C407.391 127.117 406.312 126.312 405.125 126.312H404.422ZM433.578 126.312C433.578 126.641 433.414 126.805 433.086 126.805H427.859C427.547 126.805 427.391 126.961 427.391 127.273V151.531C427.391 151.844 427.227 152 426.898 152H422.398C422.07 152 421.906 151.844 421.906 151.531V127.273C421.906 126.961 421.75 126.805 421.438 126.805H416.188C415.875 126.805 415.719 126.641 415.719 126.312V122.234C415.719 121.922 415.875 121.766 416.188 121.766H433.086C433.414 121.766 433.578 121.922 433.578 122.234V126.312ZM458.234 151.367C458.266 151.43 458.281 151.516 458.281 151.625C458.281 151.875 458.117 152 457.789 152H452.844C452.688 152 452.547 151.891 452.422 151.672L448.203 139.461L447.805 139.18H443.539C443.227 139.18 443.07 139.344 443.07 139.672V151.531C443.07 151.844 442.906 152 442.578 152H438.008C437.695 152 437.539 151.844 437.539 151.531V122.234C437.539 121.922 437.695 121.766 438.008 121.766H448.812C451.562 121.766 453.734 122.57 455.328 124.18C456.938 125.773 457.742 127.945 457.742 130.695V131.164C457.742 133.148 457.039 134.859 455.633 136.297C455.414 136.531 454.984 136.883 454.344 137.352C453.891 137.711 453.664 137.969 453.664 138.125V138.172L458.234 151.367ZM452.281 130.695V130.25C452.281 129.328 451.938 128.523 451.25 127.836C450.562 127.148 449.75 126.805 448.812 126.805H443.539C443.227 126.805 443.07 126.961 443.07 127.273V133.672C443.07 133.984 443.227 134.141 443.539 134.141H448.812C449.75 134.141 450.562 133.805 451.25 133.133C451.938 132.461 452.281 131.648 452.281 130.695ZM482.375 143.984C482.375 146.547 481.555 148.602 479.914 150.148C478.289 151.695 476.133 152.469 473.445 152.469H471.102C468.414 152.469 466.25 151.695 464.609 150.148C462.984 148.602 462.172 146.547 462.172 143.984V129.781C462.172 127.219 462.984 125.164 464.609 123.617C466.25 122.055 468.414 121.273 471.102 121.273H473.445C476.133 121.273 478.289 122.055 479.914 123.617C481.555 125.164 482.375 127.219 482.375 129.781V143.984ZM476.867 143.984V129.781C476.867 128.781 476.539 127.953 475.883 127.297C475.227 126.641 474.414 126.312 473.445 126.312H471.102C470.133 126.312 469.312 126.648 468.641 127.32C467.969 127.992 467.633 128.812 467.633 129.781V143.984C467.633 144.938 467.969 145.75 468.641 146.422C469.312 147.094 470.133 147.43 471.102 147.43H473.445C474.414 147.43 475.227 147.102 475.883 146.445C476.539 145.789 476.867 144.969 476.867 143.984ZM506.891 122.469L498.5 138.219V151.531C498.5 151.844 498.344 152 498.031 152H493.461C493.133 152 492.969 151.844 492.969 151.531V138.219L484.602 122.469C484.523 122.281 484.484 122.172 484.484 122.141C484.484 121.891 484.664 121.766 485.023 121.766H490.344L490.766 122.047L495.336 131.445C495.43 131.68 495.57 131.797 495.758 131.797C495.961 131.797 496.109 131.68 496.203 131.445L500.75 122.047L501.195 121.766H506.469C506.828 121.766 507.008 121.891 507.008 122.141C507.008 122.172 506.969 122.281 506.891 122.469Z" fill="white"/>
<line x1="26" y1="173.001" x2="594" y2="173.001" stroke="white" stroke-width="5"/>
<path d="M245.609 92.7612C245.609 94.5737 245.073 96.0216 244 97.105C242.938 98.1779 241.49 98.7144 239.656 98.7144H232.453C232.245 98.7144 232.141 98.6102 232.141 98.4019V78.8706C232.141 78.6623 232.245 78.5581 232.453 78.5581H239.656C241.49 78.5581 242.938 79.0946 244 80.1675C245.073 81.23 245.609 82.6779 245.609 84.5112V92.7612ZM241.969 93.0581V84.2144C241.969 83.5998 241.74 83.0633 241.281 82.605C240.823 82.1466 240.281 81.9175 239.656 81.9175H236.141C235.932 81.9175 235.828 82.0216 235.828 82.23V95.0269C235.828 95.2456 235.932 95.355 236.141 95.355H239.656C240.302 95.355 240.849 95.131 241.297 94.6831C241.745 94.2352 241.969 93.6935 241.969 93.0581ZM261.391 98.4019C261.391 98.6102 261.281 98.7144 261.062 98.7144H249.766C249.557 98.7144 249.453 98.6102 249.453 98.4019V78.8706C249.453 78.6623 249.557 78.5581 249.766 78.5581H261.062C261.281 78.5581 261.391 78.6623 261.391 78.8706V81.5894C261.391 81.8081 261.281 81.9175 261.062 81.9175H253.453C253.245 81.9175 253.141 82.0216 253.141 82.23V86.4956C253.141 86.7039 253.245 86.8081 253.453 86.8081H259.688C259.906 86.8081 260.016 86.9175 260.016 87.1362V89.855C260.016 90.0633 259.906 90.1675 259.688 90.1675H253.453C253.245 90.1675 253.141 90.2769 253.141 90.4956V95.0269C253.141 95.2456 253.245 95.355 253.453 95.355H261.062C261.281 95.355 261.391 95.4591 261.391 95.6675V98.4019ZM271.609 78.5581C273.422 78.5581 274.865 79.0998 275.938 80.1831C277.021 81.256 277.562 82.6987 277.562 84.5112C277.562 86.1675 277.01 87.5269 275.906 88.5894C274.812 89.6414 273.38 90.1675 271.609 90.1675H268.734C268.526 90.1675 268.422 90.2769 268.422 90.4956V98.4019C268.422 98.6102 268.312 98.7144 268.094 98.7144H265.047C264.839 98.7144 264.734 98.6102 264.734 98.4019V78.8706C264.734 78.6623 264.839 78.5581 265.047 78.5581H271.609ZM273.922 84.5112V84.2144C273.922 83.5998 273.698 83.0633 273.25 82.605C272.802 82.1466 272.255 81.9175 271.609 81.9175H268.734C268.526 81.9175 268.422 82.0216 268.422 82.23V86.4956C268.422 86.7039 268.526 86.8081 268.734 86.8081H271.609C272.255 86.8081 272.802 86.5841 273.25 86.1362C273.698 85.6883 273.922 85.1466 273.922 84.5112ZM292.141 98.4019C292.141 98.6102 292.031 98.7144 291.812 98.7144H280.516C280.307 98.7144 280.203 98.6102 280.203 98.4019V78.8706C280.203 78.6623 280.307 78.5581 280.516 78.5581H283.562C283.781 78.5581 283.891 78.6623 283.891 78.8706V95.0269C283.891 95.2456 283.995 95.355 284.203 95.355H291.812C292.031 95.355 292.141 95.4591 292.141 95.6675V98.4019ZM307.75 93.3706C307.75 95.0789 307.203 96.4487 306.109 97.48C305.026 98.5112 303.589 99.0269 301.797 99.0269H300.234C298.443 99.0269 297 98.5112 295.906 97.48C294.823 96.4487 294.281 95.0789 294.281 93.3706V83.9019C294.281 82.1935 294.823 80.8237 295.906 79.7925C297 78.7508 298.443 78.23 300.234 78.23H301.797C303.589 78.23 305.026 78.7508 306.109 79.7925C307.203 80.8237 307.75 82.1935 307.75 83.9019V93.3706ZM304.078 93.3706V83.9019C304.078 83.2352 303.859 82.6831 303.422 82.2456C302.984 81.8081 302.443 81.5894 301.797 81.5894H300.234C299.589 81.5894 299.042 81.8133 298.594 82.2612C298.146 82.7091 297.922 83.256 297.922 83.9019V93.3706C297.922 94.006 298.146 94.5477 298.594 94.9956C299.042 95.4435 299.589 95.6675 300.234 95.6675H301.797C302.443 95.6675 302.984 95.4487 303.422 95.0112C303.859 94.5737 304.078 94.0269 304.078 93.3706ZM324.094 79.0269L318.5 89.5269V98.4019C318.5 98.6102 318.396 98.7144 318.188 98.7144H315.141C314.922 98.7144 314.812 98.6102 314.812 98.4019V89.5269L309.234 79.0269C309.182 78.9019 309.156 78.8289 309.156 78.8081C309.156 78.6414 309.276 78.5581 309.516 78.5581H313.062L313.344 78.7456L316.391 85.0112C316.453 85.1675 316.547 85.2456 316.672 85.2456C316.807 85.2456 316.906 85.1675 316.969 85.0112L320 78.7456L320.297 78.5581H323.812C324.052 78.5581 324.172 78.6414 324.172 78.8081C324.172 78.8289 324.146 78.9019 324.094 79.0269ZM342.078 98.4019C342.078 98.6102 341.974 98.7144 341.766 98.7144H338.812C338.604 98.7144 338.5 98.6102 338.5 98.4019L338.781 85.9175L335.172 95.7769C335.036 95.9019 334.938 95.9644 334.875 95.9644H333.25C333.125 95.9644 333.026 95.9019 332.953 95.7769L329.344 85.9175L329.625 98.4019C329.625 98.6102 329.521 98.7144 329.312 98.7144H326.328C326.12 98.7144 326.016 98.6102 326.016 98.4019V78.8706C326.016 78.6623 326.12 78.5581 326.328 78.5581H329.094C329.198 78.5789 329.292 78.6414 329.375 78.7456L334.047 91.4175L338.719 78.7456C338.823 78.6414 338.917 78.5789 339 78.5581H341.766C341.974 78.5581 342.078 78.6623 342.078 78.8706V98.4019ZM358.328 98.4019C358.328 98.6102 358.219 98.7144 358 98.7144H346.703C346.495 98.7144 346.391 98.6102 346.391 98.4019V78.8706C346.391 78.6623 346.495 78.5581 346.703 78.5581H358C358.219 78.5581 358.328 78.6623 358.328 78.8706V81.5894C358.328 81.8081 358.219 81.9175 358 81.9175H350.391C350.182 81.9175 350.078 82.0216 350.078 82.23V86.4956C350.078 86.7039 350.182 86.8081 350.391 86.8081H356.625C356.844 86.8081 356.953 86.9175 356.953 87.1362V89.855C356.953 90.0633 356.844 90.1675 356.625 90.1675H350.391C350.182 90.1675 350.078 90.2769 350.078 90.4956V95.0269C350.078 95.2456 350.182 95.355 350.391 95.355H358C358.219 95.355 358.328 95.4591 358.328 95.6675V98.4019ZM374.953 98.4019C374.953 98.6102 374.844 98.7144 374.625 98.7144H371.969L371.688 98.5581L365.125 85.6831L365.188 98.4019C365.188 98.6102 365.115 98.7144 364.969 98.7144H361.984C361.776 98.7144 361.672 98.6102 361.672 98.4019V78.8706C361.672 78.6623 361.776 78.5581 361.984 78.5581H364.688L364.969 78.7144L371.5 91.6987L371.438 78.8706C371.438 78.6623 371.521 78.5581 371.688 78.5581H374.625C374.844 78.5581 374.953 78.6623 374.953 78.8706V98.4019ZM389.5 81.5894C389.5 81.8081 389.391 81.9175 389.172 81.9175H385.688C385.479 81.9175 385.375 82.0216 385.375 82.23V98.4019C385.375 98.6102 385.266 98.7144 385.047 98.7144H382.047C381.828 98.7144 381.719 98.6102 381.719 98.4019V82.23C381.719 82.0216 381.615 81.9175 381.406 81.9175H377.906C377.698 81.9175 377.594 81.8081 377.594 81.5894V78.8706C377.594 78.6623 377.698 78.5581 377.906 78.5581H389.172C389.391 78.5581 389.5 78.6623 389.5 78.8706V81.5894Z" fill="white"/>
</g>
</g>
<rect x="93" y="310.5" width="434" height="596" stroke="black" stroke-width="4"/>
<rect x="95" y="312.654" width="430" height="592" fill="#D0D0D0"/>
<path d="M310 519.88C262.063 521.022 223.545 560.247 223.464 608.5H95V312.5H310V519.88Z" fill="#A72222"/>
<ellipse cx="312.15" cy="608.654" rx="88.6875" ry="88.8" fill="#D0D0D0" stroke="black" stroke-opacity="0.25" stroke-dasharray="2 2"/>
<path d="M525 904.654H310V697.427C310.715 697.444 311.432 697.453 312.15 697.453C360.748 697.453 400.217 658.315 400.83 609.801L400.838 608.654H525V904.654Z" fill="#3C722E"/>
<ellipse cx="191.75" cy="451.505" rx="38.1625" ry="38.2109" fill="#0D4D6B"/>
<ellipse cx="191.75" cy="451.505" rx="8.0625" ry="8.07273" fill="black"/>
<path d="M191.944 446.665C192.777 446.702 194.698 446.993 195.35 448.848C195.903 450.431 194.855 452.218 195.074 452.461C195.926 453.424 194.768 454.957 194.606 455.085C194.319 455.31 193.411 454.849 193.554 455.089C193.659 455.268 193.76 456.609 193.762 456.639H193.479L193.343 456.162L193.1 456.158L193.056 456.636H192.565L192.52 456.178L192.356 456.155L192.333 456.633H191.94L191.92 456.141H191.595L191.575 456.633H191.175L191.152 456.155L190.988 456.178L190.944 456.636H190.452L190.408 456.158L190.166 456.162L190.029 456.639H189.746C189.748 456.61 189.846 455.268 189.954 455.089C190.097 454.849 189.19 455.313 188.903 455.085C188.743 454.962 187.579 453.428 188.435 452.461C188.65 452.221 187.596 450.434 188.152 448.848C188.8 446.993 190.725 446.702 191.554 446.665C191.554 446.665 191.623 446.661 191.746 446.661H191.753C191.872 446.661 191.944 446.665 191.944 446.665ZM191.787 453.954C191.715 453.991 191.653 454.032 191.609 454.077C191.251 454.425 191.241 454.901 191.255 455.136C191.255 455.167 191.296 455.181 191.316 455.157C191.364 455.095 191.432 455.024 191.524 454.959C191.62 454.89 191.715 454.845 191.787 454.818C191.858 454.845 191.954 454.887 192.049 454.959C192.138 455.024 192.21 455.095 192.257 455.157C192.278 455.181 192.315 455.17 192.319 455.136C192.333 454.904 192.326 454.422 191.964 454.077C191.917 454.032 191.858 453.991 191.787 453.954ZM189.281 452.782C189.039 452.867 188.963 453.008 188.943 453.049C188.81 453.325 188.985 453.769 189.442 454.052C189.452 454.059 189.466 454.063 189.479 454.066C189.687 454.094 190.206 454.138 190.732 453.847C190.95 453.728 191.111 453.585 191.223 453.462C191.264 453.414 191.251 453.342 191.196 453.311C190.974 453.199 190.698 453.079 190.374 452.98C189.974 452.857 189.612 452.802 189.322 452.775C189.308 452.775 189.294 452.779 189.281 452.782ZM194.196 452.778C193.906 452.805 193.544 452.86 193.145 452.983C192.821 453.079 192.547 453.199 192.322 453.315C192.268 453.343 192.254 453.414 192.295 453.462C192.407 453.581 192.568 453.729 192.787 453.848C193.308 454.138 193.827 454.094 194.039 454.067C194.052 454.064 194.063 454.06 194.077 454.053C194.538 453.773 194.711 453.328 194.575 453.052C194.554 453.01 194.475 452.87 194.237 452.785C194.223 452.778 194.209 452.775 194.196 452.778Z" fill="white"/>
<ellipse cx="428.25" cy="765.803" rx="38.1625" ry="38.2109" fill="#0D4D6B"/>
<ellipse cx="428.25" cy="765.803" rx="8.0625" ry="8.07273" fill="black"/>
<path d="M428.444 760.963C429.277 761.001 431.198 761.291 431.85 763.147C432.403 764.729 431.355 766.516 431.574 766.759C432.426 767.722 431.268 769.255 431.106 769.383C430.819 769.608 429.911 769.148 430.054 769.387C430.159 769.566 430.26 770.908 430.262 770.938H429.979L429.843 770.46L429.6 770.456L429.556 770.935H429.065L429.02 770.477L428.856 770.453L428.833 770.931H428.44L428.42 770.44H428.095L428.075 770.931H427.675L427.652 770.453L427.488 770.477L427.444 770.935H426.952L426.908 770.456L426.666 770.46L426.529 770.938H426.246C426.248 770.908 426.346 769.567 426.454 769.387C426.597 769.148 425.69 769.612 425.403 769.383C425.243 769.26 424.079 767.726 424.935 766.759C425.15 766.52 424.096 764.732 424.652 763.147C425.3 761.291 427.225 761.001 428.054 760.963C428.054 760.963 428.123 760.959 428.246 760.959H428.253C428.372 760.959 428.444 760.963 428.444 760.963ZM428.287 768.252C428.215 768.29 428.153 768.331 428.109 768.375C427.751 768.724 427.741 769.199 427.755 769.435C427.755 769.465 427.796 769.479 427.816 769.455C427.864 769.394 427.932 769.322 428.024 769.257C428.12 769.189 428.215 769.144 428.287 769.116C428.358 769.144 428.454 769.185 428.549 769.257C428.638 769.322 428.71 769.394 428.757 769.455C428.778 769.479 428.815 769.469 428.819 769.435C428.833 769.202 428.826 768.72 428.464 768.375C428.417 768.331 428.358 768.29 428.287 768.252ZM425.781 767.08C425.539 767.166 425.463 767.306 425.443 767.347C425.31 767.624 425.485 768.067 425.942 768.351C425.952 768.357 425.966 768.361 425.979 768.364C426.187 768.392 426.706 768.436 427.232 768.146C427.45 768.026 427.611 767.883 427.723 767.76C427.764 767.712 427.751 767.64 427.696 767.609C427.474 767.497 427.198 767.378 426.874 767.278C426.474 767.155 426.112 767.101 425.822 767.073C425.808 767.073 425.794 767.077 425.781 767.08ZM430.696 767.076C430.406 767.104 430.044 767.158 429.645 767.281C429.321 767.377 429.047 767.497 428.822 767.613C428.768 767.641 428.754 767.712 428.795 767.76C428.907 767.879 429.068 768.027 429.287 768.147C429.808 768.437 430.327 768.393 430.539 768.365C430.552 768.362 430.563 768.358 430.577 768.352C431.038 768.071 431.211 767.627 431.075 767.35C431.054 767.308 430.975 767.168 430.737 767.083C430.723 767.076 430.709 767.073 430.696 767.076Z" fill="white"/>
<ellipse cx="310.538" cy="608.116" rx="38.1625" ry="38.2109" fill="#0D4D6B"/>
<ellipse cx="310.537" cy="608.116" rx="8.0625" ry="8.07273" fill="black"/>
<path d="M310.731 603.276C311.564 603.313 313.486 603.604 314.138 605.459C314.69 607.042 313.643 608.829 313.861 609.072C314.713 610.035 313.555 611.568 313.394 611.696C313.107 611.921 312.198 611.46 312.342 611.7C312.446 611.879 312.548 613.22 312.55 613.25H312.267L312.131 612.773L311.888 612.769L311.844 613.247H311.353L311.308 612.789L311.144 612.766L311.12 613.244H310.728L310.707 612.752H310.383L310.362 613.244H309.963L309.939 612.766L309.775 612.789L309.731 613.247H309.239L309.195 612.769L308.953 612.773L308.816 613.25H308.533C308.535 613.221 308.633 611.879 308.741 611.7C308.885 611.46 307.977 611.924 307.69 611.696C307.53 611.573 306.366 610.039 307.223 609.072C307.438 608.832 306.383 607.045 306.939 605.459C307.588 603.604 309.512 603.313 310.342 603.276C310.342 603.276 310.41 603.272 310.533 603.272H310.54C310.659 603.272 310.731 603.276 310.731 603.276ZM310.574 610.565C310.503 610.602 310.441 610.643 310.396 610.688C310.038 611.036 310.028 611.512 310.042 611.747C310.042 611.778 310.083 611.792 310.104 611.768C310.151 611.706 310.219 611.635 310.312 611.57C310.407 611.501 310.503 611.456 310.574 611.429C310.646 611.456 310.741 611.498 310.837 611.57C310.926 611.635 310.997 611.706 311.045 611.768C311.065 611.792 311.103 611.781 311.106 611.747C311.12 611.515 311.114 611.033 310.752 610.688C310.704 610.643 310.646 610.602 310.574 610.565ZM308.068 609.393C307.826 609.478 307.751 609.619 307.73 609.66C307.598 609.936 307.772 610.38 308.229 610.663C308.24 610.67 308.253 610.674 308.267 610.677C308.475 610.704 308.994 610.749 309.52 610.458C309.738 610.339 309.898 610.196 310.011 610.073C310.052 610.025 310.038 609.953 309.983 609.922C309.762 609.81 309.485 609.69 309.161 609.591C308.762 609.468 308.399 609.413 308.109 609.386C308.096 609.386 308.082 609.39 308.068 609.393ZM312.983 609.389C312.693 609.416 312.332 609.471 311.933 609.594C311.608 609.69 311.335 609.81 311.109 609.926C311.055 609.954 311.041 610.025 311.082 610.073C311.195 610.192 311.356 610.34 311.574 610.459C312.096 610.749 312.614 610.705 312.826 610.678C312.84 610.675 312.851 610.671 312.864 610.664C313.325 610.384 313.499 609.939 313.362 609.662C313.342 609.621 313.263 609.481 313.024 609.396C313.011 609.389 312.997 609.386 312.983 609.389Z" fill="white"/>
<ellipse cx="191.75" cy="765.803" rx="38.1625" ry="38.2109" fill="#0D4D6B"/>
<ellipse cx="191.75" cy="765.803" rx="8.0625" ry="8.07273" fill="black"/>
<path d="M191.944 760.963C192.777 761.001 194.698 761.291 195.35 763.147C195.903 764.729 194.855 766.516 195.074 766.759C195.926 767.722 194.768 769.255 194.606 769.383C194.319 769.608 193.411 769.148 193.554 769.387C193.659 769.566 193.76 770.908 193.762 770.938H193.479L193.343 770.46L193.1 770.456L193.056 770.935H192.565L192.52 770.477L192.356 770.453L192.333 770.931H191.94L191.92 770.44H191.595L191.575 770.931H191.175L191.152 770.453L190.988 770.477L190.944 770.935H190.452L190.408 770.456L190.166 770.46L190.029 770.938H189.746C189.748 770.908 189.846 769.567 189.954 769.387C190.097 769.148 189.19 769.612 188.903 769.383C188.743 769.26 187.579 767.726 188.435 766.759C188.65 766.52 187.596 764.732 188.152 763.147C188.8 761.291 190.725 761.001 191.554 760.963C191.554 760.963 191.623 760.959 191.746 760.959H191.753C191.872 760.959 191.944 760.963 191.944 760.963ZM191.787 768.252C191.715 768.29 191.653 768.331 191.609 768.375C191.251 768.724 191.241 769.199 191.255 769.435C191.255 769.465 191.296 769.479 191.316 769.455C191.364 769.394 191.432 769.322 191.524 769.257C191.62 769.189 191.715 769.144 191.787 769.116C191.858 769.144 191.954 769.185 192.049 769.257C192.138 769.322 192.21 769.394 192.257 769.455C192.278 769.479 192.315 769.469 192.319 769.435C192.333 769.202 192.326 768.72 191.964 768.375C191.917 768.331 191.858 768.29 191.787 768.252ZM189.281 767.08C189.039 767.166 188.963 767.306 188.943 767.347C188.81 767.624 188.985 768.067 189.442 768.351C189.452 768.357 189.466 768.361 189.479 768.364C189.687 768.392 190.206 768.436 190.732 768.146C190.95 768.026 191.111 767.883 191.223 767.76C191.264 767.712 191.251 767.64 191.196 767.609C190.974 767.497 190.698 767.378 190.374 767.278C189.974 767.155 189.612 767.101 189.322 767.073C189.308 767.073 189.294 767.077 189.281 767.08ZM194.196 767.076C193.906 767.104 193.544 767.158 193.145 767.281C192.821 767.377 192.547 767.497 192.322 767.613C192.268 767.641 192.254 767.712 192.295 767.76C192.407 767.879 192.568 768.027 192.787 768.147C193.308 768.437 193.827 768.393 194.039 768.365C194.052 768.362 194.063 768.358 194.077 768.352C194.538 768.071 194.711 767.627 194.575 767.35C194.554 767.308 194.475 767.168 194.237 767.083C194.223 767.076 194.209 767.073 194.196 767.076Z" fill="white"/>
<ellipse cx="428.25" cy="451.505" rx="38.1625" ry="38.2109" fill="#0D4D6B"/>
<ellipse cx="428.25" cy="451.505" rx="8.0625" ry="8.07273" fill="black"/>
<path d="M428.444 446.665C429.277 446.702 431.198 446.993 431.85 448.848C432.403 450.431 431.355 452.218 431.574 452.461C432.426 453.424 431.268 454.957 431.106 455.085C430.819 455.31 429.911 454.849 430.054 455.089C430.159 455.268 430.26 456.609 430.262 456.639H429.979L429.843 456.162L429.6 456.158L429.556 456.636H429.065L429.02 456.178L428.856 456.155L428.833 456.633H428.44L428.42 456.141H428.095L428.075 456.633H427.675L427.652 456.155L427.488 456.178L427.444 456.636H426.952L426.908 456.158L426.666 456.162L426.529 456.639H426.246C426.248 456.61 426.346 455.268 426.454 455.089C426.597 454.849 425.69 455.313 425.403 455.085C425.243 454.962 424.079 453.428 424.935 452.461C425.15 452.221 424.096 450.434 424.652 448.848C425.3 446.993 427.225 446.702 428.054 446.665C428.054 446.665 428.123 446.661 428.246 446.661H428.253C428.372 446.661 428.444 446.665 428.444 446.665ZM428.287 453.954C428.215 453.991 428.153 454.032 428.109 454.077C427.751 454.425 427.741 454.901 427.755 455.136C427.755 455.167 427.796 455.181 427.816 455.157C427.864 455.095 427.932 455.024 428.024 454.959C428.12 454.89 428.215 454.845 428.287 454.818C428.358 454.845 428.454 454.887 428.549 454.959C428.638 455.024 428.71 455.095 428.757 455.157C428.778 455.181 428.815 455.17 428.819 455.136C428.833 454.904 428.826 454.422 428.464 454.077C428.417 454.032 428.358 453.991 428.287 453.954ZM425.781 452.782C425.539 452.867 425.463 453.008 425.443 453.049C425.31 453.325 425.485 453.769 425.942 454.052C425.952 454.059 425.966 454.063 425.979 454.066C426.187 454.094 426.706 454.138 427.232 453.847C427.45 453.728 427.611 453.585 427.723 453.462C427.764 453.414 427.751 453.342 427.696 453.311C427.474 453.199 427.198 453.079 426.874 452.98C426.474 452.857 426.112 452.802 425.822 452.775C425.808 452.775 425.794 452.779 425.781 452.782ZM430.696 452.778C430.406 452.805 430.044 452.86 429.645 452.983C429.321 453.079 429.047 453.199 428.822 453.315C428.768 453.343 428.754 453.414 428.795 453.462C428.907 453.581 429.068 453.729 429.287 453.848C429.808 454.138 430.327 454.094 430.539 454.067C430.552 454.064 430.563 454.06 430.577 454.053C431.038 453.773 431.211 453.328 431.075 453.052C431.054 453.01 430.975 452.87 430.737 452.785C430.723 452.778 430.709 452.775 430.696 452.778Z" fill="white"/>
<line x1="310.5" y1="312.654" x2="310.5" y2="520.392" stroke="black" stroke-opacity="0.25" stroke-dasharray="2 2"/>
<line x1="310.5" y1="696.916" x2="310.5" y2="904.654" stroke="black" stroke-opacity="0.25" stroke-dasharray="2 2"/>
<line x1="95" y1="608.154" x2="222.925" y2="608.154" stroke="black" stroke-opacity="0.25" stroke-dasharray="2 2"/>
<line x1="401.375" y1="608.154" x2="525" y2="608.154" stroke="black" stroke-opacity="0.25" stroke-dasharray="2 2"/>
<path d="M428 313L422.226 323L433.774 323L428 313ZM428 444L433.773 434L422.226 434L428 444ZM428 322L427 322L427 435L428 435L429 435L429 322L428 322Z" fill="black"/>
<path d="M443.793 388.408C443.793 388.565 443.715 388.643 443.559 388.643H435.801C435.645 388.643 435.566 388.565 435.566 388.408V386.358C435.566 386.201 435.645 386.123 435.801 386.123H438.062C438.219 386.123 438.297 386.041 438.297 385.877V378.846C438.297 378.674 438.227 378.588 438.086 378.588C438.016 378.588 437.949 378.619 437.887 378.682L437.172 379.432C437.109 379.494 437.055 379.526 437.008 379.526C436.953 379.526 436.895 379.494 436.832 379.432L435.344 377.967C435.281 377.897 435.25 377.838 435.25 377.791C435.25 377.744 435.281 377.69 435.344 377.627L439.352 373.596L439.527 373.526H440.816C440.98 373.526 441.062 373.604 441.062 373.76V385.877C441.062 386.041 441.141 386.123 441.297 386.123H443.559C443.715 386.123 443.793 386.201 443.793 386.358V388.408ZM456.918 385.092C456.918 385.248 456.836 385.326 456.672 385.326H455.113C454.957 385.326 454.879 385.408 454.879 385.573V388.408C454.879 388.565 454.797 388.643 454.633 388.643H452.359C452.195 388.643 452.113 388.565 452.113 388.408V385.573C452.113 385.408 452.035 385.326 451.879 385.326H446.207C446.051 385.326 445.973 385.248 445.973 385.092V383.053L452.43 373.526H454.633C454.797 373.526 454.879 373.604 454.879 373.76V382.573C454.879 382.729 454.957 382.807 455.113 382.807H456.672C456.836 382.807 456.918 382.889 456.918 383.053V385.092ZM452.113 382.573V378.846C452.113 378.658 452.043 378.565 451.902 378.565C451.824 378.565 451.75 378.612 451.68 378.705L449.207 382.432C449.16 382.51 449.137 382.573 449.137 382.619C449.137 382.744 449.227 382.807 449.406 382.807H451.879C452.035 382.807 452.113 382.729 452.113 382.573ZM465.004 375.424C465.004 376.713 464.715 377.694 464.137 378.365C463.527 379.092 463.031 379.455 462.648 379.455C462.586 379.455 462.531 379.405 462.484 379.303L461.816 378.084C461.777 378.022 461.758 377.983 461.758 377.967C461.758 377.897 461.816 377.823 461.934 377.744C462.527 377.299 462.824 376.877 462.824 376.479C462.824 376.299 462.742 376.209 462.578 376.209H462.367C462.203 376.209 462.121 376.131 462.121 375.975V373.76C462.121 373.604 462.203 373.526 462.367 373.526H464.758C464.922 373.526 465.004 373.604 465.004 373.76V375.424ZM461.23 375.424C461.23 376.713 460.93 377.709 460.328 378.412C459.734 379.108 459.246 379.455 458.863 379.455C458.793 379.455 458.734 379.405 458.688 379.303L458.066 378.108C458.035 378.045 458.02 377.998 458.02 377.967C458.02 377.951 458.191 377.795 458.535 377.498C458.879 377.201 459.051 376.862 459.051 376.479C459.051 376.299 458.973 376.209 458.816 376.209H458.617C458.461 376.209 458.383 376.131 458.383 375.975V373.76C458.383 373.604 458.461 373.526 458.617 373.526H460.996C461.152 373.526 461.23 373.604 461.23 373.76V375.424Z" fill="black"/>
<path d="M192 313L186.226 323L197.774 323L192 313ZM192 444L197.773 434L186.226 434L192 444ZM192 322L191 322L191 435L192 435L193 435L193 322L192 322Z" fill="white"/>
<path d="M207.793 388.408C207.793 388.565 207.715 388.643 207.559 388.643L199.801 388.643C199.645 388.643 199.566 388.565 199.566 388.408L199.566 386.358C199.566 386.201 199.645 386.123 199.801 386.123L202.063 386.123C202.219 386.123 202.297 386.041 202.297 385.877L202.297 378.846C202.297 378.674 202.227 378.588 202.086 378.588C202.016 378.588 201.949 378.619 201.887 378.682L201.172 379.432C201.109 379.494 201.055 379.526 201.008 379.526C200.953 379.526 200.895 379.494 200.832 379.432L199.344 377.967C199.281 377.897 199.25 377.838 199.25 377.791C199.25 377.744 199.281 377.69 199.344 377.627L203.352 373.596L203.527 373.526L204.816 373.526C204.98 373.526 205.063 373.604 205.063 373.76L205.063 385.877C205.063 386.041 205.141 386.123 205.297 386.123L207.559 386.123C207.715 386.123 207.793 386.201 207.793 386.358L207.793 388.408ZM220.918 385.092C220.918 385.248 220.836 385.326 220.672 385.326L219.113 385.326C218.957 385.326 218.879 385.408 218.879 385.573L218.879 388.408C218.879 388.565 218.797 388.643 218.633 388.643L216.359 388.643C216.195 388.643 216.113 388.565 216.113 388.408L216.113 385.573C216.113 385.408 216.035 385.326 215.879 385.326L210.207 385.326C210.051 385.326 209.973 385.248 209.973 385.092L209.973 383.053L216.43 373.526L218.633 373.526C218.797 373.526 218.879 373.604 218.879 373.76L218.879 382.573C218.879 382.729 218.957 382.807 219.113 382.807L220.672 382.807C220.836 382.807 220.918 382.889 220.918 383.053L220.918 385.092ZM216.113 382.573L216.113 378.846C216.113 378.658 216.043 378.565 215.902 378.565C215.824 378.565 215.75 378.612 215.68 378.705L213.207 382.432C213.16 382.51 213.137 382.573 213.137 382.619C213.137 382.744 213.227 382.807 213.406 382.807L215.879 382.807C216.035 382.807 216.113 382.729 216.113 382.573ZM229.004 375.424C229.004 376.713 228.715 377.694 228.137 378.365C227.527 379.092 227.031 379.455 226.648 379.455C226.586 379.455 226.531 379.405 226.484 379.303L225.816 378.084C225.777 378.022 225.758 377.983 225.758 377.967C225.758 377.897 225.816 377.823 225.934 377.744C226.527 377.299 226.824 376.877 226.824 376.479C226.824 376.299 226.742 376.209 226.578 376.209L226.367 376.209C226.203 376.209 226.121 376.131 226.121 375.975L226.121 373.76C226.121 373.604 226.203 373.526 226.367 373.526L228.758 373.526C228.922 373.526 229.004 373.604 229.004 373.76L229.004 375.424ZM225.23 375.424C225.23 376.713 224.93 377.709 224.328 378.412C223.734 379.108 223.246 379.455 222.863 379.455C222.793 379.455 222.734 379.405 222.688 379.303L222.066 378.108C222.035 378.045 222.02 377.998 222.02 377.967C222.02 377.951 222.191 377.795 222.535 377.498C222.879 377.201 223.051 376.862 223.051 376.479C223.051 376.299 222.973 376.209 222.816 376.209L222.617 376.209C222.461 376.209 222.383 376.131 222.383 375.975L222.383 373.76C222.383 373.604 222.461 373.526 222.617 373.526L224.996 373.526C225.152 373.526 225.23 373.604 225.23 373.76L225.23 375.424Z" fill="white"/>
<path d="M428 774L422.226 784L433.774 784L428 774ZM428 905L433.773 895L422.226 895L428 905ZM428 783L427 783L427 896L428 896L429 896L429 783L428 783Z" fill="white"/>
<path d="M443.793 844.408C443.793 844.565 443.715 844.643 443.559 844.643H435.801C435.645 844.643 435.566 844.565 435.566 844.408V842.358C435.566 842.201 435.645 842.123 435.801 842.123H438.062C438.219 842.123 438.297 842.041 438.297 841.877V834.846C438.297 834.674 438.227 834.588 438.086 834.588C438.016 834.588 437.949 834.619 437.887 834.682L437.172 835.432C437.109 835.494 437.055 835.526 437.008 835.526C436.953 835.526 436.895 835.494 436.832 835.432L435.344 833.967C435.281 833.897 435.25 833.838 435.25 833.791C435.25 833.744 435.281 833.69 435.344 833.627L439.352 829.596L439.527 829.526H440.816C440.98 829.526 441.062 829.604 441.062 829.76V841.877C441.062 842.041 441.141 842.123 441.297 842.123H443.559C443.715 842.123 443.793 842.201 443.793 842.358V844.408ZM456.918 841.092C456.918 841.248 456.836 841.326 456.672 841.326H455.113C454.957 841.326 454.879 841.408 454.879 841.573V844.408C454.879 844.565 454.797 844.643 454.633 844.643H452.359C452.195 844.643 452.113 844.565 452.113 844.408V841.573C452.113 841.408 452.035 841.326 451.879 841.326H446.207C446.051 841.326 445.973 841.248 445.973 841.092V839.053L452.43 829.526H454.633C454.797 829.526 454.879 829.604 454.879 829.76V838.573C454.879 838.729 454.957 838.807 455.113 838.807H456.672C456.836 838.807 456.918 838.889 456.918 839.053V841.092ZM452.113 838.573V834.846C452.113 834.658 452.043 834.565 451.902 834.565C451.824 834.565 451.75 834.612 451.68 834.705L449.207 838.432C449.16 838.51 449.137 838.573 449.137 838.619C449.137 838.744 449.227 838.807 449.406 838.807H451.879C452.035 838.807 452.113 838.729 452.113 838.573ZM465.004 831.424C465.004 832.713 464.715 833.694 464.137 834.365C463.527 835.092 463.031 835.455 462.648 835.455C462.586 835.455 462.531 835.405 462.484 835.303L461.816 834.084C461.777 834.022 461.758 833.983 461.758 833.967C461.758 833.897 461.816 833.823 461.934 833.744C462.527 833.299 462.824 832.877 462.824 832.479C462.824 832.299 462.742 832.209 462.578 832.209H462.367C462.203 832.209 462.121 832.131 462.121 831.975V829.76C462.121 829.604 462.203 829.526 462.367 829.526H464.758C464.922 829.526 465.004 829.604 465.004 829.76V831.424ZM461.23 831.424C461.23 832.713 460.93 833.709 460.328 834.412C459.734 835.108 459.246 835.455 458.863 835.455C458.793 835.455 458.734 835.405 458.688 835.303L458.066 834.108C458.035 834.045 458.02 833.998 458.02 833.967C458.02 833.951 458.191 833.795 458.535 833.498C458.879 833.201 459.051 832.862 459.051 832.479C459.051 832.299 458.973 832.209 458.816 832.209H458.617C458.461 832.209 458.383 832.131 458.383 831.975V829.76C458.383 829.604 458.461 829.526 458.617 829.526H460.996C461.152 829.526 461.23 829.604 461.23 829.76V831.424Z" fill="white"/>
<path d="M192 774L186.226 784L197.774 784L192 774ZM192 905L197.773 895L186.226 895L192 905ZM192 783L191 783L191 896L192 896L193 896L193 783L192 783Z" fill="black"/>
<path d="M207.793 844.408C207.793 844.565 207.715 844.643 207.559 844.643H199.801C199.645 844.643 199.566 844.565 199.566 844.408V842.358C199.566 842.201 199.645 842.123 199.801 842.123H202.062C202.219 842.123 202.297 842.041 202.297 841.877V834.846C202.297 834.674 202.227 834.588 202.086 834.588C202.016 834.588 201.949 834.619 201.887 834.682L201.172 835.432C201.109 835.494 201.055 835.526 201.008 835.526C200.953 835.526 200.895 835.494 200.832 835.432L199.344 833.967C199.281 833.897 199.25 833.838 199.25 833.791C199.25 833.744 199.281 833.69 199.344 833.627L203.352 829.596L203.527 829.526H204.816C204.98 829.526 205.062 829.604 205.062 829.76V841.877C205.062 842.041 205.141 842.123 205.297 842.123H207.559C207.715 842.123 207.793 842.201 207.793 842.358V844.408ZM220.918 841.092C220.918 841.248 220.836 841.326 220.672 841.326H219.113C218.957 841.326 218.879 841.408 218.879 841.573V844.408C218.879 844.565 218.797 844.643 218.633 844.643H216.359C216.195 844.643 216.113 844.565 216.113 844.408V841.573C216.113 841.408 216.035 841.326 215.879 841.326H210.207C210.051 841.326 209.973 841.248 209.973 841.092V839.053L216.43 829.526H218.633C218.797 829.526 218.879 829.604 218.879 829.76V838.573C218.879 838.729 218.957 838.807 219.113 838.807H220.672C220.836 838.807 220.918 838.889 220.918 839.053V841.092ZM216.113 838.573V834.846C216.113 834.658 216.043 834.565 215.902 834.565C215.824 834.565 215.75 834.612 215.68 834.705L213.207 838.432C213.16 838.51 213.137 838.573 213.137 838.619C213.137 838.744 213.227 838.807 213.406 838.807H215.879C216.035 838.807 216.113 838.729 216.113 838.573ZM229.004 831.424C229.004 832.713 228.715 833.694 228.137 834.365C227.527 835.092 227.031 835.455 226.648 835.455C226.586 835.455 226.531 835.405 226.484 835.303L225.816 834.084C225.777 834.022 225.758 833.983 225.758 833.967C225.758 833.897 225.816 833.823 225.934 833.744C226.527 833.299 226.824 832.877 226.824 832.479C226.824 832.299 226.742 832.209 226.578 832.209H226.367C226.203 832.209 226.121 832.131 226.121 831.975V829.76C226.121 829.604 226.203 829.526 226.367 829.526H228.758C228.922 829.526 229.004 829.604 229.004 829.76V831.424ZM225.23 831.424C225.23 832.713 224.93 833.709 224.328 834.412C223.734 835.108 223.246 835.455 222.863 835.455C222.793 835.455 222.734 835.405 222.688 835.303L222.066 834.108C222.035 834.045 222.02 833.998 222.02 833.967C222.02 833.951 222.191 833.795 222.535 833.498C222.879 833.201 223.051 832.862 223.051 832.479C223.051 832.299 222.973 832.209 222.816 832.209H222.617C222.461 832.209 222.383 832.131 222.383 831.975V829.76C222.383 829.604 222.461 829.526 222.617 829.526H224.996C225.152 829.526 225.23 829.604 225.23 829.76V831.424Z" fill="black"/>
<path d="M436 766L446 771.774V760.226L436 766ZM525 766L515 760.226V771.774L525 766ZM445 766V767H516V766V765H445V766Z" fill="white"/>
<path d="M476.793 761.766C476.793 761.922 476.715 762 476.559 762H468.801C468.645 762 468.566 761.922 468.566 761.766V759.715C468.566 759.559 468.645 759.48 468.801 759.48H471.062C471.219 759.48 471.297 759.398 471.297 759.234V752.203C471.297 752.031 471.227 751.945 471.086 751.945C471.016 751.945 470.949 751.977 470.887 752.039L470.172 752.789C470.109 752.852 470.055 752.883 470.008 752.883C469.953 752.883 469.895 752.852 469.832 752.789L468.344 751.324C468.281 751.254 468.25 751.195 468.25 751.148C468.25 751.102 468.281 751.047 468.344 750.984L472.352 746.953L472.527 746.883H473.816C473.98 746.883 474.062 746.961 474.062 747.117V759.234C474.062 759.398 474.141 759.48 474.297 759.48H476.559C476.715 759.48 476.793 759.559 476.793 759.715V761.766ZM489.238 757.992C489.238 759.258 488.828 760.281 488.008 761.062C487.195 761.844 486.117 762.234 484.773 762.234H484.082C482.738 762.234 481.656 761.848 480.836 761.074C480.023 760.301 479.617 759.273 479.617 757.992V750.891C479.617 749.609 480.023 748.582 480.836 747.809C481.656 747.027 482.738 746.637 484.082 746.637H484.773C486.117 746.637 487.195 747.027 488.008 747.809C488.828 748.582 489.238 749.609 489.238 750.891V757.992ZM486.484 757.992V750.891C486.484 750.391 486.32 749.977 485.992 749.648C485.664 749.32 485.258 749.156 484.773 749.156H484.082C483.598 749.156 483.188 749.324 482.852 749.66C482.516 749.996 482.348 750.406 482.348 750.891V757.992C482.348 758.469 482.516 758.875 482.852 759.211C483.188 759.547 483.598 759.715 484.082 759.715H484.773C485.258 759.715 485.664 759.551 485.992 759.223C486.32 758.895 486.484 758.484 486.484 757.992ZM498.004 748.781C498.004 750.07 497.715 751.051 497.137 751.723C496.527 752.449 496.031 752.812 495.648 752.812C495.586 752.812 495.531 752.762 495.484 752.66L494.816 751.441C494.777 751.379 494.758 751.34 494.758 751.324C494.758 751.254 494.816 751.18 494.934 751.102C495.527 750.656 495.824 750.234 495.824 749.836C495.824 749.656 495.742 749.566 495.578 749.566H495.367C495.203 749.566 495.121 749.488 495.121 749.332V747.117C495.121 746.961 495.203 746.883 495.367 746.883H497.758C497.922 746.883 498.004 746.961 498.004 747.117V748.781ZM494.23 748.781C494.23 750.07 493.93 751.066 493.328 751.77C492.734 752.465 492.246 752.812 491.863 752.812C491.793 752.812 491.734 752.762 491.688 752.66L491.066 751.465C491.035 751.402 491.02 751.355 491.02 751.324C491.02 751.309 491.191 751.152 491.535 750.855C491.879 750.559 492.051 750.219 492.051 749.836C492.051 749.656 491.973 749.566 491.816 749.566H491.617C491.461 749.566 491.383 749.488 491.383 749.332V747.117C491.383 746.961 491.461 746.883 491.617 746.883H493.996C494.152 746.883 494.23 746.961 494.23 747.117V748.781Z" fill="white"/>
<path d="M95 452L105 457.774L105 446.226L95 452ZM184 452L174 446.227L174 457.774L184 452ZM104 452L104 453L175 453L175 452L175 451L104 451L104 452Z" fill="white"/>
<path d="M131.793 447.766C131.793 447.922 131.715 448 131.559 448H123.801C123.645 448 123.566 447.922 123.566 447.766V445.715C123.566 445.559 123.645 445.48 123.801 445.48H126.062C126.219 445.48 126.297 445.398 126.297 445.234V438.203C126.297 438.031 126.227 437.945 126.086 437.945C126.016 437.945 125.949 437.977 125.887 438.039L125.172 438.789C125.109 438.852 125.055 438.883 125.008 438.883C124.953 438.883 124.895 438.852 124.832 438.789L123.344 437.324C123.281 437.254 123.25 437.195 123.25 437.148C123.25 437.102 123.281 437.047 123.344 436.984L127.352 432.953L127.527 432.883H128.816C128.98 432.883 129.062 432.961 129.062 433.117V445.234C129.062 445.398 129.141 445.48 129.297 445.48H131.559C131.715 445.48 131.793 445.559 131.793 445.715V447.766ZM144.238 443.992C144.238 445.258 143.828 446.281 143.008 447.062C142.195 447.844 141.117 448.234 139.773 448.234H139.082C137.738 448.234 136.656 447.848 135.836 447.074C135.023 446.301 134.617 445.273 134.617 443.992V436.891C134.617 435.609 135.023 434.582 135.836 433.809C136.656 433.027 137.738 432.637 139.082 432.637H139.773C141.117 432.637 142.195 433.027 143.008 433.809C143.828 434.582 144.238 435.609 144.238 436.891V443.992ZM141.484 443.992V436.891C141.484 436.391 141.32 435.977 140.992 435.648C140.664 435.32 140.258 435.156 139.773 435.156H139.082C138.598 435.156 138.188 435.324 137.852 435.66C137.516 435.996 137.348 436.406 137.348 436.891V443.992C137.348 444.469 137.516 444.875 137.852 445.211C138.188 445.547 138.598 445.715 139.082 445.715H139.773C140.258 445.715 140.664 445.551 140.992 445.223C141.32 444.895 141.484 444.484 141.484 443.992ZM153.004 434.781C153.004 436.07 152.715 437.051 152.137 437.723C151.527 438.449 151.031 438.812 150.648 438.812C150.586 438.812 150.531 438.762 150.484 438.66L149.816 437.441C149.777 437.379 149.758 437.34 149.758 437.324C149.758 437.254 149.816 437.18 149.934 437.102C150.527 436.656 150.824 436.234 150.824 435.836C150.824 435.656 150.742 435.566 150.578 435.566H150.367C150.203 435.566 150.121 435.488 150.121 435.332V433.117C150.121 432.961 150.203 432.883 150.367 432.883H152.758C152.922 432.883 153.004 432.961 153.004 433.117V434.781ZM149.23 434.781C149.23 436.07 148.93 437.066 148.328 437.77C147.734 438.465 147.246 438.812 146.863 438.812C146.793 438.812 146.734 438.762 146.688 438.66L146.066 437.465C146.035 437.402 146.02 437.355 146.02 437.324C146.02 437.309 146.191 437.152 146.535 436.855C146.879 436.559 147.051 436.219 147.051 435.836C147.051 435.656 146.973 435.566 146.816 435.566H146.617C146.461 435.566 146.383 435.488 146.383 435.332V433.117C146.383 432.961 146.461 432.883 146.617 432.883H148.996C149.152 432.883 149.23 432.961 149.23 433.117V434.781Z" fill="white"/>
<path d="M250 545L252.789 556.205L261.098 548.187L250 545ZM305 602L302.211 590.795L293.902 598.813L305 602ZM256.249 551.477L255.53 552.171L298.031 596.218L298.751 595.523L299.47 594.829L256.969 550.782L256.249 551.477Z" fill="black"/>
<path d="M284.203 562.992C284.203 564.273 283.793 565.301 282.973 566.074C282.16 566.848 281.074 567.234 279.715 567.234H279C277.656 567.234 276.621 566.863 275.895 566.121C275.168 565.379 274.805 564.793 274.805 564.363C274.805 564.301 274.852 564.242 274.945 564.188L277.008 563.156C277.039 563.141 277.078 563.133 277.125 563.133C277.188 563.133 277.352 563.398 277.617 563.93C277.883 564.453 278.344 564.715 279 564.715H279.715C280.199 564.715 280.609 564.547 280.945 564.211C281.281 563.875 281.449 563.469 281.449 562.992V561.621C281.449 561.449 281.391 561.363 281.273 561.363C281.227 561.363 281.008 561.445 280.617 561.609C280.227 561.766 279.855 561.844 279.504 561.844H278.777C277.551 561.844 276.535 561.449 275.73 560.66C274.934 559.863 274.535 558.848 274.535 557.613V555.891C274.535 554.609 274.941 553.582 275.754 552.809C276.574 552.027 277.656 551.637 279 551.637H279.715C281.074 551.637 282.16 552.027 282.973 552.809C283.793 553.582 284.203 554.609 284.203 555.891V562.992ZM281.449 557.613V555.891C281.449 555.406 281.281 554.996 280.945 554.66C280.609 554.324 280.199 554.156 279.715 554.156H279C278.516 554.156 278.109 554.32 277.781 554.648C277.461 554.977 277.301 555.391 277.301 555.891V557.613C277.301 558.113 277.457 558.523 277.77 558.844C278.09 559.164 278.5 559.324 279 559.324H279.715C280.215 559.324 280.629 559.16 280.957 558.832C281.285 558.504 281.449 558.098 281.449 557.613ZM292.922 553.781C292.922 555.07 292.633 556.051 292.055 556.723C291.445 557.449 290.949 557.812 290.566 557.812C290.504 557.812 290.449 557.762 290.402 557.66L289.734 556.441C289.695 556.379 289.676 556.34 289.676 556.324C289.676 556.254 289.734 556.18 289.852 556.102C290.445 555.656 290.742 555.234 290.742 554.836C290.742 554.656 290.66 554.566 290.496 554.566H290.285C290.121 554.566 290.039 554.488 290.039 554.332V552.117C290.039 551.961 290.121 551.883 290.285 551.883H292.676C292.84 551.883 292.922 551.961 292.922 552.117V553.781ZM289.148 553.781C289.148 555.07 288.848 556.066 288.246 556.77C287.652 557.465 287.164 557.812 286.781 557.812C286.711 557.812 286.652 557.762 286.605 557.66L285.984 556.465C285.953 556.402 285.938 556.355 285.938 556.324C285.938 556.309 286.109 556.152 286.453 555.855C286.797 555.559 286.969 555.219 286.969 554.836C286.969 554.656 286.891 554.566 286.734 554.566H286.535C286.379 554.566 286.301 554.488 286.301 554.332V552.117C286.301 551.961 286.379 551.883 286.535 551.883H288.914C289.07 551.883 289.148 551.961 289.148 552.117V553.781Z" fill="black"/>
<path d="M95 766L105 771.774L105 760.226L95 766ZM184 766L174 760.227L174 771.774L184 766ZM104 766L104 767L175 767L175 766L175 765L104 765L104 766Z" fill="black"/>
<path d="M131.793 761.766C131.793 761.922 131.715 762 131.559 762H123.801C123.645 762 123.566 761.922 123.566 761.766V759.715C123.566 759.559 123.645 759.48 123.801 759.48H126.062C126.219 759.48 126.297 759.398 126.297 759.234V752.203C126.297 752.031 126.227 751.945 126.086 751.945C126.016 751.945 125.949 751.977 125.887 752.039L125.172 752.789C125.109 752.852 125.055 752.883 125.008 752.883C124.953 752.883 124.895 752.852 124.832 752.789L123.344 751.324C123.281 751.254 123.25 751.195 123.25 751.148C123.25 751.102 123.281 751.047 123.344 750.984L127.352 746.953L127.527 746.883H128.816C128.98 746.883 129.062 746.961 129.062 747.117V759.234C129.062 759.398 129.141 759.48 129.297 759.48H131.559C131.715 759.48 131.793 759.559 131.793 759.715V761.766ZM144.238 757.992C144.238 759.258 143.828 760.281 143.008 761.062C142.195 761.844 141.117 762.234 139.773 762.234H139.082C137.738 762.234 136.656 761.848 135.836 761.074C135.023 760.301 134.617 759.273 134.617 757.992V750.891C134.617 749.609 135.023 748.582 135.836 747.809C136.656 747.027 137.738 746.637 139.082 746.637H139.773C141.117 746.637 142.195 747.027 143.008 747.809C143.828 748.582 144.238 749.609 144.238 750.891V757.992ZM141.484 757.992V750.891C141.484 750.391 141.32 749.977 140.992 749.648C140.664 749.32 140.258 749.156 139.773 749.156H139.082C138.598 749.156 138.188 749.324 137.852 749.66C137.516 749.996 137.348 750.406 137.348 750.891V757.992C137.348 758.469 137.516 758.875 137.852 759.211C138.188 759.547 138.598 759.715 139.082 759.715H139.773C140.258 759.715 140.664 759.551 140.992 759.223C141.32 758.895 141.484 758.484 141.484 757.992ZM153.004 748.781C153.004 750.07 152.715 751.051 152.137 751.723C151.527 752.449 151.031 752.812 150.648 752.812C150.586 752.812 150.531 752.762 150.484 752.66L149.816 751.441C149.777 751.379 149.758 751.34 149.758 751.324C149.758 751.254 149.816 751.18 149.934 751.102C150.527 750.656 150.824 750.234 150.824 749.836C150.824 749.656 150.742 749.566 150.578 749.566H150.367C150.203 749.566 150.121 749.488 150.121 749.332V747.117C150.121 746.961 150.203 746.883 150.367 746.883H152.758C152.922 746.883 153.004 746.961 153.004 747.117V748.781ZM149.23 748.781C149.23 750.07 148.93 751.066 148.328 751.77C147.734 752.465 147.246 752.812 146.863 752.812C146.793 752.812 146.734 752.762 146.688 752.66L146.066 751.465C146.035 751.402 146.02 751.355 146.02 751.324C146.02 751.309 146.191 751.152 146.535 750.855C146.879 750.559 147.051 750.219 147.051 749.836C147.051 749.656 146.973 749.566 146.816 749.566H146.617C146.461 749.566 146.383 749.488 146.383 749.332V747.117C146.383 746.961 146.461 746.883 146.617 746.883H148.996C149.152 746.883 149.23 746.961 149.23 747.117V748.781Z" fill="black"/>
<path d="M436 452L446 457.774V446.226L436 452ZM525 452L515 446.226V457.774L525 452ZM445 452V453H516V452V451H445V452Z" fill="black"/>
<path d="M476.793 447.766C476.793 447.922 476.715 448 476.559 448H468.801C468.645 448 468.566 447.922 468.566 447.766V445.715C468.566 445.559 468.645 445.48 468.801 445.48H471.062C471.219 445.48 471.297 445.398 471.297 445.234V438.203C471.297 438.031 471.227 437.945 471.086 437.945C471.016 437.945 470.949 437.977 470.887 438.039L470.172 438.789C470.109 438.852 470.055 438.883 470.008 438.883C469.953 438.883 469.895 438.852 469.832 438.789L468.344 437.324C468.281 437.254 468.25 437.195 468.25 437.148C468.25 437.102 468.281 437.047 468.344 436.984L472.352 432.953L472.527 432.883H473.816C473.98 432.883 474.062 432.961 474.062 433.117V445.234C474.062 445.398 474.141 445.48 474.297 445.48H476.559C476.715 445.48 476.793 445.559 476.793 445.715V447.766ZM489.238 443.992C489.238 445.258 488.828 446.281 488.008 447.062C487.195 447.844 486.117 448.234 484.773 448.234H484.082C482.738 448.234 481.656 447.848 480.836 447.074C480.023 446.301 479.617 445.273 479.617 443.992V436.891C479.617 435.609 480.023 434.582 480.836 433.809C481.656 433.027 482.738 432.637 484.082 432.637H484.773C486.117 432.637 487.195 433.027 488.008 433.809C488.828 434.582 489.238 435.609 489.238 436.891V443.992ZM486.484 443.992V436.891C486.484 436.391 486.32 435.977 485.992 435.648C485.664 435.32 485.258 435.156 484.773 435.156H484.082C483.598 435.156 483.188 435.324 482.852 435.66C482.516 435.996 482.348 436.406 482.348 436.891V443.992C482.348 444.469 482.516 444.875 482.852 445.211C483.188 445.547 483.598 445.715 484.082 445.715H484.773C485.258 445.715 485.664 445.551 485.992 445.223C486.32 444.895 486.484 444.484 486.484 443.992ZM498.004 434.781C498.004 436.07 497.715 437.051 497.137 437.723C496.527 438.449 496.031 438.812 495.648 438.812C495.586 438.812 495.531 438.762 495.484 438.66L494.816 437.441C494.777 437.379 494.758 437.34 494.758 437.324C494.758 437.254 494.816 437.18 494.934 437.102C495.527 436.656 495.824 436.234 495.824 435.836C495.824 435.656 495.742 435.566 495.578 435.566H495.367C495.203 435.566 495.121 435.488 495.121 435.332V433.117C495.121 432.961 495.203 432.883 495.367 432.883H497.758C497.922 432.883 498.004 432.961 498.004 433.117V434.781ZM494.23 434.781C494.23 436.07 493.93 437.066 493.328 437.77C492.734 438.465 492.246 438.812 491.863 438.812C491.793 438.812 491.734 438.762 491.688 438.66L491.066 437.465C491.035 437.402 491.02 437.355 491.02 437.324C491.02 437.309 491.191 437.152 491.535 436.855C491.879 436.559 492.051 436.219 492.051 435.836C492.051 435.656 491.973 435.566 491.816 435.566H491.617C491.461 435.566 491.383 435.488 491.383 435.332V433.117C491.383 432.961 491.461 432.883 491.617 432.883H493.996C494.152 432.883 494.23 432.961 494.23 433.117V434.781Z" fill="black"/>
<path d="M577.181 752L561.548 745.487C561.071 745.289 560.561 745.188 560.045 745.188C559.53 745.188 559.019 745.289 558.543 745.487L542.91 752C541.453 752.603 540.5 754.028 540.5 755.607C540.5 771.77 549.823 782.941 558.535 786.572C559.496 786.971 560.579 786.971 561.539 786.572C568.517 783.665 579.583 773.626 579.583 755.607C579.583 754.028 578.63 752.603 577.181 752ZM560.049 781.524L560.041 750.502L574.363 756.471C574.095 768.798 567.679 777.73 560.049 781.524Z" fill="#3C722E"/>
<g clip-path="url(#clip2_121_6600)">
<path d="M47.828 432.5L56.5868 441.259L49.2589 448.587L40.5 439.828V432.5H47.828Z" fill="#A72222"/>
<path d="M56.8832 462.527L60.5471 466.191L57.0927 469.646L51.492 464.045L47.8224 467.715C47.8261 467.782 47.828 467.85 47.828 467.919C47.828 469.942 46.1876 471.583 44.164 471.583C42.1404 471.583 40.5 469.942 40.5 467.919C40.5 465.895 42.1404 464.255 44.164 464.255C44.2324 464.255 44.3004 464.256 44.3679 464.26L48.0375 460.591L42.4368 454.99L45.8912 451.535L49.5552 455.199L72.2545 432.5H79.5825V439.828L56.8832 462.527Z" fill="#A72222"/>
<path d="M75.9185 471.582C73.895 471.582 72.2545 469.942 72.2545 467.919C72.2545 467.85 72.2565 467.782 72.2601 467.715L65.1361 460.591L74.1913 451.535L77.6457 454.99L72.0449 460.591L75.7145 464.26C75.7819 464.256 75.8501 464.255 75.9185 464.255C77.942 464.255 79.5825 465.895 79.5825 467.919C79.5825 469.942 77.942 471.582 75.9185 471.582Z" fill="#A72222"/>
</g>
<defs>
<clipPath id="clip0_121_6600">
<rect width="620" height="1063" fill="white"/>
</clipPath>
<clipPath id="clip1_121_6600">
<rect width="620" height="197" fill="white"/>
</clipPath>
<clipPath id="clip2_121_6600">
<rect width="39.0825" height="39.0825" fill="white" transform="translate(40.5 432.5)"/>
</clipPath>
</defs>
</svg>
