<svg width="620" height="1063" viewBox="0 0 620 1063" fill="none" xmlns="http://www.w3.org/2000/svg">
<g clip-path="url(#clip0_121_6704)">
<rect y="197" width="620" height="866" fill="#DEDEDE"/>
<g clip-path="url(#clip1_121_6704)">
<rect width="620" height="197" fill="#0D4D6B"/>
<path d="M199.57 126.312C199.57 126.641 199.406 126.805 199.078 126.805H193.852C193.539 126.805 193.383 126.961 193.383 127.273V151.531C193.383 151.844 193.219 152 192.891 152H188.391C188.062 152 187.898 151.844 187.898 151.531V127.273C187.898 126.961 187.742 126.805 187.43 126.805H182.18C181.867 126.805 181.711 126.641 181.711 126.312V122.234C181.711 121.922 181.867 121.766 182.18 121.766H199.078C199.406 121.766 199.57 121.922 199.57 122.234V126.312ZM209.062 151.531C209.062 151.844 208.898 152 208.57 152H204C203.688 152 203.531 151.844 203.531 151.531V122.234C203.531 121.922 203.688 121.766 204 121.766H208.57C208.898 121.766 209.062 121.922 209.062 122.234V151.531ZM225.797 121.766C228.516 121.766 230.68 122.578 232.289 124.203C233.914 125.812 234.727 127.977 234.727 130.695C234.727 133.18 233.898 135.219 232.242 136.812C230.602 138.391 228.453 139.18 225.797 139.18H221.484C221.172 139.18 221.016 139.344 221.016 139.672V151.531C221.016 151.844 220.852 152 220.523 152H215.953C215.641 152 215.484 151.844 215.484 151.531V122.234C215.484 121.922 215.641 121.766 215.953 121.766H225.797ZM229.266 130.695V130.25C229.266 129.328 228.93 128.523 228.258 127.836C227.586 127.148 226.766 126.805 225.797 126.805H221.484C221.172 126.805 221.016 126.961 221.016 127.273V133.672C221.016 133.984 221.172 134.141 221.484 134.141H225.797C226.766 134.141 227.586 133.805 228.258 133.133C228.93 132.461 229.266 131.648 229.266 130.695ZM249 121.766C251.719 121.766 253.883 122.578 255.492 124.203C257.117 125.812 257.93 127.977 257.93 130.695C257.93 133.18 257.102 135.219 255.445 136.812C253.805 138.391 251.656 139.18 249 139.18H244.688C244.375 139.18 244.219 139.344 244.219 139.672V151.531C244.219 151.844 244.055 152 243.727 152H239.156C238.844 152 238.688 151.844 238.688 151.531V122.234C238.688 121.922 238.844 121.766 239.156 121.766H249ZM252.469 130.695V130.25C252.469 129.328 252.133 128.523 251.461 127.836C250.789 127.148 249.969 126.805 249 126.805H244.688C244.375 126.805 244.219 126.961 244.219 127.273V133.672C244.219 133.984 244.375 134.141 244.688 134.141H249C249.969 134.141 250.789 133.805 251.461 133.133C252.133 132.461 252.469 131.648 252.469 130.695ZM267.422 151.531C267.422 151.844 267.258 152 266.93 152H262.359C262.047 152 261.891 151.844 261.891 151.531V122.234C261.891 121.922 262.047 121.766 262.359 121.766H266.93C267.258 121.766 267.422 121.922 267.422 122.234V151.531ZM293.766 151.531C293.766 151.844 293.602 152 293.273 152H289.289L288.867 151.766L279.023 132.453L279.117 151.531C279.117 151.844 279.008 152 278.789 152H274.312C274 152 273.844 151.844 273.844 151.531V122.234C273.844 121.922 274 121.766 274.312 121.766H278.367L278.789 122L288.586 141.477L288.492 122.234C288.492 121.922 288.617 121.766 288.867 121.766H293.273C293.602 121.766 293.766 121.922 293.766 122.234V151.531ZM311.648 121.273C313.82 121.273 315.648 121.805 317.133 122.867C317.961 123.477 318.695 124.242 319.336 125.164C319.883 125.992 320.156 126.586 320.156 126.945C320.156 127.102 320.055 127.227 319.852 127.32L315.68 129.383C315.617 129.414 315.539 129.43 315.445 129.43C315.289 129.43 315.062 129.164 314.766 128.633C313.938 127.086 312.898 126.312 311.648 126.312H308.484C307.516 126.312 306.695 126.648 306.023 127.32C305.352 127.992 305.016 128.812 305.016 129.781V143.984C305.016 144.938 305.352 145.75 306.023 146.422C306.695 147.094 307.516 147.43 308.484 147.43H310.828C311.797 147.43 312.609 147.102 313.266 146.445C313.922 145.789 314.25 144.969 314.25 143.984V141.734C314.25 141.406 314.086 141.242 313.758 141.242H309.258C308.93 141.242 308.766 141.086 308.766 140.773V136.695C308.766 136.367 308.93 136.203 309.258 136.203H319.289C319.602 136.203 319.758 136.367 319.758 136.695V143.984C319.758 146.547 318.938 148.602 317.297 150.148C315.672 151.695 313.516 152.469 310.828 152.469H308.484C305.797 152.469 303.633 151.695 301.992 150.148C300.367 148.602 299.555 146.547 299.555 143.984V129.781C299.555 127.219 300.367 125.164 301.992 123.617C303.633 122.055 305.797 121.273 308.484 121.273H311.648ZM344.344 121.766C347.062 121.766 349.227 122.578 350.836 124.203C352.461 125.812 353.273 127.977 353.273 130.695C353.273 133.18 352.445 135.219 350.789 136.812C349.148 138.391 347 139.18 344.344 139.18H340.031C339.719 139.18 339.562 139.344 339.562 139.672V151.531C339.562 151.844 339.398 152 339.07 152H334.5C334.188 152 334.031 151.844 334.031 151.531V122.234C334.031 121.922 334.188 121.766 334.5 121.766H344.344ZM347.812 130.695V130.25C347.812 129.328 347.477 128.523 346.805 127.836C346.133 127.148 345.312 126.805 344.344 126.805H340.031C339.719 126.805 339.562 126.961 339.562 127.273V133.672C339.562 133.984 339.719 134.141 340.031 134.141H344.344C345.312 134.141 346.133 133.805 346.805 133.133C347.477 132.461 347.812 131.648 347.812 130.695ZM376.758 143.984C376.758 146.547 375.938 148.602 374.297 150.148C372.672 151.695 370.516 152.469 367.828 152.469H365.484C362.797 152.469 360.633 151.695 358.992 150.148C357.367 148.602 356.555 146.547 356.555 143.984V129.781C356.555 127.219 357.367 125.164 358.992 123.617C360.633 122.055 362.797 121.273 365.484 121.273H367.828C370.516 121.273 372.672 122.055 374.297 123.617C375.938 125.164 376.758 127.219 376.758 129.781V143.984ZM371.25 143.984V129.781C371.25 128.781 370.922 127.953 370.266 127.297C369.609 126.641 368.797 126.312 367.828 126.312H365.484C364.516 126.312 363.695 126.648 363.023 127.32C362.352 127.992 362.016 128.812 362.016 129.781V143.984C362.016 144.938 362.352 145.75 363.023 146.422C363.695 147.094 364.516 147.43 365.484 147.43H367.828C368.797 147.43 369.609 147.102 370.266 146.445C370.922 145.789 371.25 144.969 371.25 143.984ZM388.078 151.531C388.078 151.844 387.914 152 387.586 152H383.016C382.703 152 382.547 151.844 382.547 151.531V122.234C382.547 121.922 382.703 121.766 383.016 121.766H387.586C387.914 121.766 388.078 121.922 388.078 122.234V151.531ZM414.422 151.531C414.422 151.844 414.258 152 413.93 152H409.945L409.523 151.766L399.68 132.453L399.773 151.531C399.773 151.844 399.664 152 399.445 152H394.969C394.656 152 394.5 151.844 394.5 151.531V122.234C394.5 121.922 394.656 121.766 394.969 121.766H399.023L399.445 122L409.242 141.477L409.148 122.234C409.148 121.922 409.273 121.766 409.523 121.766H413.93C414.258 121.766 414.422 121.922 414.422 122.234V151.531ZM436.242 126.312C436.242 126.641 436.078 126.805 435.75 126.805H430.523C430.211 126.805 430.055 126.961 430.055 127.273V151.531C430.055 151.844 429.891 152 429.562 152H425.062C424.734 152 424.57 151.844 424.57 151.531V127.273C424.57 126.961 424.414 126.805 424.102 126.805H418.852C418.539 126.805 418.383 126.641 418.383 126.312V122.234C418.383 121.922 418.539 121.766 418.852 121.766H435.75C436.078 121.766 436.242 121.922 436.242 122.234V126.312Z" fill="white"/>
<line x1="26" y1="173.001" x2="594" y2="173.001" stroke="white" stroke-width="5"/>
<path d="M245.609 92.7612C245.609 94.5737 245.073 96.0216 244 97.105C242.938 98.1779 241.49 98.7144 239.656 98.7144H232.453C232.245 98.7144 232.141 98.6102 232.141 98.4019V78.8706C232.141 78.6623 232.245 78.5581 232.453 78.5581H239.656C241.49 78.5581 242.938 79.0946 244 80.1675C245.073 81.23 245.609 82.6779 245.609 84.5112V92.7612ZM241.969 93.0581V84.2144C241.969 83.5998 241.74 83.0633 241.281 82.605C240.823 82.1466 240.281 81.9175 239.656 81.9175H236.141C235.932 81.9175 235.828 82.0216 235.828 82.23V95.0269C235.828 95.2456 235.932 95.355 236.141 95.355H239.656C240.302 95.355 240.849 95.131 241.297 94.6831C241.745 94.2352 241.969 93.6935 241.969 93.0581ZM261.391 98.4019C261.391 98.6102 261.281 98.7144 261.062 98.7144H249.766C249.557 98.7144 249.453 98.6102 249.453 98.4019V78.8706C249.453 78.6623 249.557 78.5581 249.766 78.5581H261.062C261.281 78.5581 261.391 78.6623 261.391 78.8706V81.5894C261.391 81.8081 261.281 81.9175 261.062 81.9175H253.453C253.245 81.9175 253.141 82.0216 253.141 82.23V86.4956C253.141 86.7039 253.245 86.8081 253.453 86.8081H259.688C259.906 86.8081 260.016 86.9175 260.016 87.1362V89.855C260.016 90.0633 259.906 90.1675 259.688 90.1675H253.453C253.245 90.1675 253.141 90.2769 253.141 90.4956V95.0269C253.141 95.2456 253.245 95.355 253.453 95.355H261.062C261.281 95.355 261.391 95.4591 261.391 95.6675V98.4019ZM271.609 78.5581C273.422 78.5581 274.865 79.0998 275.938 80.1831C277.021 81.256 277.562 82.6987 277.562 84.5112C277.562 86.1675 277.01 87.5269 275.906 88.5894C274.812 89.6414 273.38 90.1675 271.609 90.1675H268.734C268.526 90.1675 268.422 90.2769 268.422 90.4956V98.4019C268.422 98.6102 268.312 98.7144 268.094 98.7144H265.047C264.839 98.7144 264.734 98.6102 264.734 98.4019V78.8706C264.734 78.6623 264.839 78.5581 265.047 78.5581H271.609ZM273.922 84.5112V84.2144C273.922 83.5998 273.698 83.0633 273.25 82.605C272.802 82.1466 272.255 81.9175 271.609 81.9175H268.734C268.526 81.9175 268.422 82.0216 268.422 82.23V86.4956C268.422 86.7039 268.526 86.8081 268.734 86.8081H271.609C272.255 86.8081 272.802 86.5841 273.25 86.1362C273.698 85.6883 273.922 85.1466 273.922 84.5112ZM292.141 98.4019C292.141 98.6102 292.031 98.7144 291.812 98.7144H280.516C280.307 98.7144 280.203 98.6102 280.203 98.4019V78.8706C280.203 78.6623 280.307 78.5581 280.516 78.5581H283.562C283.781 78.5581 283.891 78.6623 283.891 78.8706V95.0269C283.891 95.2456 283.995 95.355 284.203 95.355H291.812C292.031 95.355 292.141 95.4591 292.141 95.6675V98.4019ZM307.75 93.3706C307.75 95.0789 307.203 96.4487 306.109 97.48C305.026 98.5112 303.589 99.0269 301.797 99.0269H300.234C298.443 99.0269 297 98.5112 295.906 97.48C294.823 96.4487 294.281 95.0789 294.281 93.3706V83.9019C294.281 82.1935 294.823 80.8237 295.906 79.7925C297 78.7508 298.443 78.23 300.234 78.23H301.797C303.589 78.23 305.026 78.7508 306.109 79.7925C307.203 80.8237 307.75 82.1935 307.75 83.9019V93.3706ZM304.078 93.3706V83.9019C304.078 83.2352 303.859 82.6831 303.422 82.2456C302.984 81.8081 302.443 81.5894 301.797 81.5894H300.234C299.589 81.5894 299.042 81.8133 298.594 82.2612C298.146 82.7091 297.922 83.256 297.922 83.9019V93.3706C297.922 94.006 298.146 94.5477 298.594 94.9956C299.042 95.4435 299.589 95.6675 300.234 95.6675H301.797C302.443 95.6675 302.984 95.4487 303.422 95.0112C303.859 94.5737 304.078 94.0269 304.078 93.3706ZM324.094 79.0269L318.5 89.5269V98.4019C318.5 98.6102 318.396 98.7144 318.188 98.7144H315.141C314.922 98.7144 314.812 98.6102 314.812 98.4019V89.5269L309.234 79.0269C309.182 78.9019 309.156 78.8289 309.156 78.8081C309.156 78.6414 309.276 78.5581 309.516 78.5581H313.062L313.344 78.7456L316.391 85.0112C316.453 85.1675 316.547 85.2456 316.672 85.2456C316.807 85.2456 316.906 85.1675 316.969 85.0112L320 78.7456L320.297 78.5581H323.812C324.052 78.5581 324.172 78.6414 324.172 78.8081C324.172 78.8289 324.146 78.9019 324.094 79.0269ZM342.078 98.4019C342.078 98.6102 341.974 98.7144 341.766 98.7144H338.812C338.604 98.7144 338.5 98.6102 338.5 98.4019L338.781 85.9175L335.172 95.7769C335.036 95.9019 334.938 95.9644 334.875 95.9644H333.25C333.125 95.9644 333.026 95.9019 332.953 95.7769L329.344 85.9175L329.625 98.4019C329.625 98.6102 329.521 98.7144 329.312 98.7144H326.328C326.12 98.7144 326.016 98.6102 326.016 98.4019V78.8706C326.016 78.6623 326.12 78.5581 326.328 78.5581H329.094C329.198 78.5789 329.292 78.6414 329.375 78.7456L334.047 91.4175L338.719 78.7456C338.823 78.6414 338.917 78.5789 339 78.5581H341.766C341.974 78.5581 342.078 78.6623 342.078 78.8706V98.4019ZM358.328 98.4019C358.328 98.6102 358.219 98.7144 358 98.7144H346.703C346.495 98.7144 346.391 98.6102 346.391 98.4019V78.8706C346.391 78.6623 346.495 78.5581 346.703 78.5581H358C358.219 78.5581 358.328 78.6623 358.328 78.8706V81.5894C358.328 81.8081 358.219 81.9175 358 81.9175H350.391C350.182 81.9175 350.078 82.0216 350.078 82.23V86.4956C350.078 86.7039 350.182 86.8081 350.391 86.8081H356.625C356.844 86.8081 356.953 86.9175 356.953 87.1362V89.855C356.953 90.0633 356.844 90.1675 356.625 90.1675H350.391C350.182 90.1675 350.078 90.2769 350.078 90.4956V95.0269C350.078 95.2456 350.182 95.355 350.391 95.355H358C358.219 95.355 358.328 95.4591 358.328 95.6675V98.4019ZM374.953 98.4019C374.953 98.6102 374.844 98.7144 374.625 98.7144H371.969L371.688 98.5581L365.125 85.6831L365.188 98.4019C365.188 98.6102 365.115 98.7144 364.969 98.7144H361.984C361.776 98.7144 361.672 98.6102 361.672 98.4019V78.8706C361.672 78.6623 361.776 78.5581 361.984 78.5581H364.688L364.969 78.7144L371.5 91.6987L371.438 78.8706C371.438 78.6623 371.521 78.5581 371.688 78.5581H374.625C374.844 78.5581 374.953 78.6623 374.953 78.8706V98.4019ZM389.5 81.5894C389.5 81.8081 389.391 81.9175 389.172 81.9175H385.688C385.479 81.9175 385.375 82.0216 385.375 82.23V98.4019C385.375 98.6102 385.266 98.7144 385.047 98.7144H382.047C381.828 98.7144 381.719 98.6102 381.719 98.4019V82.23C381.719 82.0216 381.615 81.9175 381.406 81.9175H377.906C377.698 81.9175 377.594 81.8081 377.594 81.5894V78.8706C377.594 78.6623 377.698 78.5581 377.906 78.5581H389.172C389.391 78.5581 389.5 78.6623 389.5 78.8706V81.5894Z" fill="white"/>
</g>
</g>
<rect x="93" y="311" width="434" height="595" stroke="black" stroke-width="4"/>
<rect x="95" y="313.154" width="430" height="591" fill="#D0D0D0"/>
<rect x="95" y="313" width="215" height="195" fill="#A72222"/>
<rect x="310" y="313" width="215" height="116" fill="#A72222"/>
<rect x="310" y="712" width="215" height="194" fill="#3C722E"/>
<rect x="95" y="790" width="215" height="116" fill="#3C722E"/>
<line x1="310.5" y1="313.153" x2="310.5" y2="904.154" stroke="black" stroke-opacity="0.25" stroke-dasharray="2 2"/>
<line x1="95" y1="608.153" x2="525" y2="608.153" stroke="black" stroke-opacity="0.25" stroke-dasharray="2 2"/>
<circle cx="181.5" cy="669.643" r="35.5" fill="#0D4D6B"/>
<circle cx="181.5" cy="669.643" r="7.5" fill="black"/>
<path fill-rule="evenodd" clip-rule="evenodd" d="M184.157 672.969C184.306 672.852 185.385 671.426 184.591 670.531C184.521 670.452 184.593 670.199 184.695 669.841C184.887 669.171 185.184 668.132 184.849 667.175C184.242 665.451 182.455 665.181 181.68 665.146C181.68 665.146 181.613 665.143 181.502 665.143H181.499H181.496C181.382 665.143 181.318 665.146 181.318 665.146C180.547 665.181 178.756 665.451 178.153 667.175C177.814 668.138 178.117 669.182 178.311 669.851C178.413 670.205 178.485 670.454 178.416 670.531C177.619 671.429 178.702 672.855 178.851 672.969C178.997 673.085 179.315 673.009 179.552 672.952C179.749 672.905 179.889 672.872 179.829 672.972C179.727 673.141 179.635 674.414 179.635 674.414H179.899L180.026 673.969L180.251 673.966L180.293 674.411H180.75L180.791 673.985L180.943 673.963L180.966 674.407H181.337L181.356 673.95H181.658L181.677 674.407H182.042L182.064 673.963L182.217 673.985L182.258 674.411H182.715L182.756 673.966L182.982 673.969L183.109 674.414H183.372C183.372 674.414 183.277 673.141 183.179 672.972C183.118 672.871 183.26 672.905 183.458 672.952C183.694 673.008 184.011 673.083 184.157 672.969ZM180.219 671.013C180.521 671.105 180.778 671.217 180.985 671.321C181.035 671.35 181.048 671.417 181.01 671.461C180.905 671.575 180.756 671.709 180.553 671.82C180.064 672.09 179.581 672.048 179.388 672.023C179.375 672.02 179.362 672.017 179.353 672.01C178.927 671.747 178.765 671.334 178.889 671.077C178.908 671.039 178.978 670.909 179.203 670.829C179.216 670.826 179.229 670.823 179.242 670.823C179.511 670.848 179.848 670.899 180.219 671.013ZM183.814 670.832C183.801 670.826 183.788 670.823 183.775 670.826C183.506 670.852 183.169 670.902 182.798 671.017C182.496 671.106 182.242 671.217 182.032 671.325C181.982 671.35 181.969 671.417 182.007 671.461C182.112 671.572 182.261 671.709 182.464 671.82C182.95 672.09 183.433 672.048 183.629 672.023C183.642 672.02 183.652 672.017 183.664 672.01C184.093 671.75 184.255 671.337 184.128 671.08C184.109 671.042 184.036 670.912 183.814 670.832ZM181.534 671.918C181.601 671.953 181.655 671.991 181.699 672.033C182.036 672.353 182.042 672.801 182.029 673.017C182.026 673.049 181.991 673.058 181.972 673.036C181.928 672.979 181.861 672.912 181.779 672.852C181.69 672.785 181.601 672.747 181.534 672.722C181.467 672.747 181.378 672.788 181.29 672.852C181.204 672.912 181.14 672.979 181.096 673.036C181.077 673.058 181.039 673.045 181.039 673.017C181.026 672.798 181.036 672.356 181.369 672.033C181.41 671.991 181.467 671.953 181.534 671.918Z" fill="white"/>
<circle cx="420" cy="734.14" r="35.5" fill="#0D4D6B"/>
<circle cx="420" cy="734.14" r="7.5" fill="black"/>
<path fill-rule="evenodd" clip-rule="evenodd" d="M422.657 737.466C422.806 737.349 423.885 735.923 423.091 735.028C423.021 734.949 423.093 734.696 423.195 734.338C423.387 733.668 423.684 732.63 423.349 731.672C422.742 729.948 420.955 729.678 420.18 729.643C420.18 729.643 420.113 729.64 420.002 729.64H419.999H419.996C419.882 729.64 419.818 729.643 419.818 729.643C419.047 729.678 417.256 729.948 416.653 731.672C416.314 732.635 416.617 733.679 416.811 734.348C416.913 734.702 416.985 734.951 416.916 735.028C416.119 735.926 417.202 737.352 417.351 737.466C417.497 737.583 417.815 737.506 418.052 737.45C418.249 737.402 418.389 737.369 418.329 737.47C418.227 737.638 418.135 738.911 418.135 738.911H418.399L418.526 738.466L418.751 738.463L418.793 738.908H419.25L419.291 738.482L419.443 738.46L419.466 738.905H419.837L419.856 738.447H420.158L420.177 738.905H420.542L420.564 738.46L420.717 738.482L420.758 738.908H421.215L421.256 738.463L421.482 738.466L421.609 738.911H421.872C421.872 738.911 421.777 737.638 421.679 737.47C421.618 737.368 421.76 737.402 421.958 737.449C422.194 737.505 422.511 737.581 422.657 737.466ZM418.719 735.511C419.021 735.603 419.278 735.714 419.485 735.819C419.535 735.847 419.548 735.914 419.51 735.958C419.405 736.073 419.256 736.206 419.053 736.317C418.564 736.587 418.081 736.546 417.888 736.52C417.875 736.517 417.862 736.514 417.853 736.508C417.427 736.244 417.265 735.831 417.389 735.574C417.408 735.536 417.478 735.406 417.703 735.326C417.716 735.323 417.729 735.32 417.742 735.32C418.011 735.345 418.348 735.396 418.719 735.511ZM422.314 735.33C422.301 735.323 422.288 735.32 422.275 735.323C422.006 735.349 421.669 735.4 421.298 735.514C420.996 735.603 420.742 735.714 420.532 735.822C420.482 735.847 420.469 735.914 420.507 735.958C420.612 736.069 420.761 736.206 420.964 736.317C421.45 736.587 421.933 736.546 422.129 736.52C422.142 736.517 422.152 736.514 422.164 736.508C422.593 736.247 422.755 735.834 422.628 735.577C422.609 735.539 422.536 735.409 422.314 735.33ZM420.034 736.415C420.101 736.45 420.155 736.488 420.199 736.53C420.536 736.85 420.542 737.298 420.529 737.514C420.526 737.546 420.491 737.555 420.472 737.533C420.428 737.476 420.361 737.409 420.279 737.349C420.19 737.282 420.101 737.244 420.034 737.219C419.967 737.244 419.878 737.285 419.79 737.349C419.704 737.409 419.64 737.476 419.596 737.533C419.577 737.555 419.539 737.543 419.539 737.514C419.526 737.295 419.536 736.854 419.869 736.53C419.91 736.488 419.967 736.45 420.034 736.415Z" fill="white"/>
<circle cx="311.5" cy="608.643" r="35.5" fill="#0D4D6B"/>
<circle cx="310.5" cy="608.643" r="7.5" fill="black"/>
<path fill-rule="evenodd" clip-rule="evenodd" d="M313.157 611.969C313.306 611.852 314.385 610.426 313.591 609.531C313.521 609.452 313.593 609.199 313.695 608.841C313.887 608.171 314.184 607.132 313.849 606.175C313.242 604.451 311.455 604.181 310.68 604.146C310.68 604.146 310.613 604.143 310.502 604.143H310.499H310.496C310.382 604.143 310.318 604.146 310.318 604.146C309.547 604.181 307.756 604.451 307.153 606.175C306.814 607.138 307.117 608.182 307.311 608.851C307.413 609.205 307.485 609.454 307.416 609.531C306.619 610.429 307.702 611.855 307.851 611.969C307.997 612.085 308.315 612.009 308.552 611.952C308.749 611.905 308.889 611.872 308.829 611.972C308.727 612.141 308.635 613.414 308.635 613.414H308.899L309.026 612.969L309.251 612.966L309.293 613.411H309.75L309.791 612.985L309.943 612.963L309.966 613.407H310.337L310.356 612.95H310.658L310.677 613.407H311.042L311.064 612.963L311.217 612.985L311.258 613.411H311.715L311.756 612.966L311.982 612.969L312.109 613.414H312.372C312.372 613.414 312.277 612.141 312.179 611.972C312.118 611.871 312.26 611.905 312.458 611.952C312.694 612.008 313.011 612.083 313.157 611.969ZM309.219 610.013C309.521 610.105 309.778 610.217 309.985 610.321C310.035 610.35 310.048 610.417 310.01 610.461C309.905 610.575 309.756 610.709 309.553 610.82C309.064 611.09 308.581 611.048 308.388 611.023C308.375 611.02 308.362 611.017 308.353 611.01C307.927 610.747 307.765 610.334 307.889 610.077C307.908 610.039 307.978 609.909 308.203 609.829C308.216 609.826 308.229 609.823 308.242 609.823C308.511 609.848 308.848 609.899 309.219 610.013ZM312.814 609.832C312.801 609.826 312.788 609.823 312.775 609.826C312.506 609.852 312.169 609.902 311.798 610.017C311.496 610.106 311.242 610.217 311.032 610.325C310.982 610.35 310.969 610.417 311.007 610.461C311.112 610.572 311.261 610.709 311.464 610.82C311.95 611.09 312.433 611.048 312.629 611.023C312.642 611.02 312.652 611.017 312.664 611.01C313.093 610.75 313.255 610.337 313.128 610.08C313.109 610.042 313.036 609.912 312.814 609.832ZM310.534 610.918C310.601 610.953 310.655 610.991 310.699 611.033C311.036 611.353 311.042 611.801 311.029 612.017C311.026 612.049 310.991 612.058 310.972 612.036C310.928 611.979 310.861 611.912 310.779 611.852C310.69 611.785 310.601 611.747 310.534 611.722C310.467 611.747 310.378 611.788 310.29 611.852C310.204 611.912 310.14 611.979 310.096 612.036C310.077 612.058 310.039 612.045 310.039 612.017C310.026 611.798 310.036 611.356 310.369 611.033C310.41 610.991 310.467 610.953 310.534 610.918Z" fill="white"/>
<circle cx="438.5" cy="508.643" r="35.5" fill="#0D4D6B"/>
<circle cx="438.5" cy="508.643" r="7.5" fill="black"/>
<path fill-rule="evenodd" clip-rule="evenodd" d="M441.157 511.969C441.306 511.852 442.385 510.426 441.591 509.531C441.521 509.452 441.593 509.199 441.695 508.841C441.887 508.171 442.184 507.132 441.849 506.175C441.242 504.451 439.455 504.181 438.68 504.146C438.68 504.146 438.613 504.143 438.502 504.143H438.499H438.496C438.382 504.143 438.318 504.146 438.318 504.146C437.547 504.181 435.756 504.451 435.153 506.175C434.814 507.138 435.117 508.182 435.311 508.851C435.413 509.205 435.485 509.454 435.416 509.531C434.619 510.429 435.702 511.855 435.851 511.969C435.997 512.085 436.315 512.009 436.552 511.952C436.749 511.905 436.889 511.872 436.829 511.972C436.727 512.141 436.635 513.414 436.635 513.414H436.899L437.026 512.969L437.251 512.966L437.293 513.411H437.75L437.791 512.985L437.943 512.963L437.966 513.407H438.337L438.356 512.95H438.658L438.677 513.407H439.042L439.064 512.963L439.217 512.985L439.258 513.411H439.715L439.756 512.966L439.982 512.969L440.109 513.414H440.372C440.372 513.414 440.277 512.141 440.179 511.972C440.118 511.871 440.26 511.905 440.458 511.952C440.694 512.008 441.011 512.083 441.157 511.969ZM437.219 510.013C437.521 510.105 437.778 510.217 437.985 510.321C438.035 510.35 438.048 510.417 438.01 510.461C437.905 510.575 437.756 510.709 437.553 510.82C437.064 511.09 436.581 511.048 436.388 511.023C436.375 511.02 436.362 511.017 436.353 511.01C435.927 510.747 435.765 510.334 435.889 510.077C435.908 510.039 435.978 509.909 436.203 509.829C436.216 509.826 436.229 509.823 436.242 509.823C436.511 509.848 436.848 509.899 437.219 510.013ZM440.814 509.832C440.801 509.826 440.788 509.823 440.775 509.826C440.506 509.852 440.169 509.902 439.798 510.017C439.496 510.106 439.242 510.217 439.032 510.325C438.982 510.35 438.969 510.417 439.007 510.461C439.112 510.572 439.261 510.709 439.464 510.82C439.95 511.09 440.433 511.048 440.629 511.023C440.642 511.02 440.652 511.017 440.664 511.01C441.093 510.75 441.255 510.337 441.128 510.08C441.109 510.042 441.036 509.912 440.814 509.832ZM438.534 510.918C438.601 510.953 438.655 510.991 438.699 511.033C439.036 511.353 439.042 511.801 439.029 512.017C439.026 512.049 438.991 512.058 438.972 512.036C438.928 511.979 438.861 511.912 438.779 511.852C438.69 511.785 438.601 511.747 438.534 511.722C438.467 511.747 438.378 511.788 438.29 511.852C438.204 511.912 438.14 511.979 438.096 512.036C438.077 512.058 438.039 512.045 438.039 512.017C438.026 511.798 438.036 511.356 438.369 511.033C438.41 510.991 438.467 510.953 438.534 510.918Z" fill="white"/>
<circle cx="199.5" cy="442.14" r="35.5" fill="#0D4D6B"/>
<circle cx="199.5" cy="442.14" r="7.5" fill="black"/>
<path fill-rule="evenodd" clip-rule="evenodd" d="M202.157 445.466C202.306 445.349 203.385 443.923 202.591 443.028C202.521 442.949 202.593 442.696 202.695 442.338C202.887 441.668 203.184 440.63 202.849 439.672C202.242 437.948 200.455 437.678 199.68 437.643C199.68 437.643 199.613 437.64 199.502 437.64H199.499H199.496C199.382 437.64 199.318 437.643 199.318 437.643C198.547 437.678 196.756 437.948 196.153 439.672C195.814 440.635 196.117 441.679 196.311 442.348C196.413 442.702 196.485 442.951 196.416 443.028C195.619 443.926 196.702 445.352 196.851 445.466C196.997 445.583 197.315 445.506 197.552 445.45C197.749 445.402 197.889 445.369 197.829 445.47C197.727 445.638 197.635 446.911 197.635 446.911H197.899L198.026 446.466L198.251 446.463L198.293 446.908H198.75L198.791 446.482L198.943 446.46L198.966 446.905H199.337L199.356 446.447H199.658L199.677 446.905H200.042L200.064 446.46L200.217 446.482L200.258 446.908H200.715L200.756 446.463L200.982 446.466L201.109 446.911H201.372C201.372 446.911 201.277 445.638 201.179 445.47C201.118 445.368 201.26 445.402 201.458 445.449C201.694 445.505 202.011 445.581 202.157 445.466ZM198.219 443.511C198.521 443.603 198.778 443.714 198.985 443.819C199.035 443.847 199.048 443.914 199.01 443.958C198.905 444.073 198.756 444.206 198.553 444.317C198.064 444.587 197.581 444.546 197.388 444.52C197.375 444.517 197.362 444.514 197.353 444.508C196.927 444.244 196.765 443.831 196.889 443.574C196.908 443.536 196.978 443.406 197.203 443.326C197.216 443.323 197.229 443.32 197.242 443.32C197.511 443.345 197.848 443.396 198.219 443.511ZM201.814 443.33C201.801 443.323 201.788 443.32 201.775 443.323C201.506 443.349 201.169 443.4 200.798 443.514C200.496 443.603 200.242 443.714 200.032 443.822C199.982 443.847 199.969 443.914 200.007 443.958C200.112 444.069 200.261 444.206 200.464 444.317C200.95 444.587 201.433 444.546 201.629 444.52C201.642 444.517 201.652 444.514 201.664 444.508C202.093 444.247 202.255 443.834 202.128 443.577C202.109 443.539 202.036 443.409 201.814 443.33ZM199.534 444.415C199.601 444.45 199.655 444.488 199.699 444.53C200.036 444.85 200.042 445.298 200.029 445.514C200.026 445.546 199.991 445.555 199.972 445.533C199.928 445.476 199.861 445.409 199.779 445.349C199.69 445.282 199.601 445.244 199.534 445.219C199.467 445.244 199.378 445.285 199.29 445.349C199.204 445.409 199.14 445.476 199.096 445.533C199.077 445.555 199.039 445.543 199.039 445.514C199.026 445.295 199.036 444.854 199.369 444.53C199.41 444.488 199.467 444.45 199.534 444.415Z" fill="white"/>
<path d="M420 742L414.226 752L425.774 752L420 742ZM420 906L425.773 896L414.226 896L420 906ZM420 751L419 751L419 897L420 897L421 897L421 751L420 751Z" fill="white"/>
<path d="M435.793 812.408C435.793 812.565 435.715 812.643 435.559 812.643H427.801C427.645 812.643 427.566 812.565 427.566 812.408V810.358C427.566 810.201 427.645 810.123 427.801 810.123H430.062C430.219 810.123 430.297 810.041 430.297 809.877V802.846C430.297 802.674 430.227 802.588 430.086 802.588C430.016 802.588 429.949 802.619 429.887 802.682L429.172 803.432C429.109 803.494 429.055 803.526 429.008 803.526C428.953 803.526 428.895 803.494 428.832 803.432L427.344 801.967C427.281 801.897 427.25 801.838 427.25 801.791C427.25 801.744 427.281 801.69 427.344 801.627L431.352 797.596L431.527 797.526H432.816C432.98 797.526 433.062 797.604 433.062 797.76V809.877C433.062 810.041 433.141 810.123 433.297 810.123H435.559C435.715 810.123 435.793 810.201 435.793 810.358V812.408ZM448.918 809.092C448.918 809.248 448.836 809.326 448.672 809.326H447.113C446.957 809.326 446.879 809.408 446.879 809.573V812.408C446.879 812.565 446.797 812.643 446.633 812.643H444.359C444.195 812.643 444.113 812.565 444.113 812.408V809.573C444.113 809.408 444.035 809.326 443.879 809.326H438.207C438.051 809.326 437.973 809.248 437.973 809.092V807.053L444.43 797.526H446.633C446.797 797.526 446.879 797.604 446.879 797.76V806.573C446.879 806.729 446.957 806.807 447.113 806.807H448.672C448.836 806.807 448.918 806.889 448.918 807.053V809.092ZM444.113 806.573V802.846C444.113 802.658 444.043 802.565 443.902 802.565C443.824 802.565 443.75 802.612 443.68 802.705L441.207 806.432C441.16 806.51 441.137 806.573 441.137 806.619C441.137 806.744 441.227 806.807 441.406 806.807H443.879C444.035 806.807 444.113 806.729 444.113 806.573ZM457.004 799.424C457.004 800.713 456.715 801.694 456.137 802.365C455.527 803.092 455.031 803.455 454.648 803.455C454.586 803.455 454.531 803.405 454.484 803.303L453.816 802.084C453.777 802.022 453.758 801.983 453.758 801.967C453.758 801.897 453.816 801.823 453.934 801.744C454.527 801.299 454.824 800.877 454.824 800.479C454.824 800.299 454.742 800.209 454.578 800.209H454.367C454.203 800.209 454.121 800.131 454.121 799.975V797.76C454.121 797.604 454.203 797.526 454.367 797.526H456.758C456.922 797.526 457.004 797.604 457.004 797.76V799.424ZM453.23 799.424C453.23 800.713 452.93 801.709 452.328 802.412C451.734 803.108 451.246 803.455 450.863 803.455C450.793 803.455 450.734 803.405 450.688 803.303L450.066 802.108C450.035 802.045 450.02 801.998 450.02 801.967C450.02 801.951 450.191 801.795 450.535 801.498C450.879 801.201 451.051 800.862 451.051 800.479C451.051 800.299 450.973 800.209 450.816 800.209H450.617C450.461 800.209 450.383 800.131 450.383 799.975V797.76C450.383 797.604 450.461 797.526 450.617 797.526H452.996C453.152 797.526 453.23 797.604 453.23 797.76V799.424Z" fill="white"/>
<path d="M428 734L438 739.774V728.226L428 734ZM525 734L515 728.226V739.774L525 734ZM437 734V735H516V734V733H437V734Z" fill="white"/>
<path d="M464.793 729.766C464.793 729.922 464.715 730 464.559 730H456.801C456.645 730 456.566 729.922 456.566 729.766V727.715C456.566 727.559 456.645 727.48 456.801 727.48H459.062C459.219 727.48 459.297 727.398 459.297 727.234V720.203C459.297 720.031 459.227 719.945 459.086 719.945C459.016 719.945 458.949 719.977 458.887 720.039L458.172 720.789C458.109 720.852 458.055 720.883 458.008 720.883C457.953 720.883 457.895 720.852 457.832 720.789L456.344 719.324C456.281 719.254 456.25 719.195 456.25 719.148C456.25 719.102 456.281 719.047 456.344 718.984L460.352 714.953L460.527 714.883H461.816C461.98 714.883 462.062 714.961 462.062 715.117V727.234C462.062 727.398 462.141 727.48 462.297 727.48H464.559C464.715 727.48 464.793 727.559 464.793 727.715V729.766ZM477.238 725.992C477.238 727.258 476.828 728.281 476.008 729.062C475.195 729.844 474.117 730.234 472.773 730.234H472.082C470.738 730.234 469.656 729.848 468.836 729.074C468.023 728.301 467.617 727.273 467.617 725.992V718.891C467.617 717.609 468.023 716.582 468.836 715.809C469.656 715.027 470.738 714.637 472.082 714.637H472.773C474.117 714.637 475.195 715.027 476.008 715.809C476.828 716.582 477.238 717.609 477.238 718.891V725.992ZM474.484 725.992V718.891C474.484 718.391 474.32 717.977 473.992 717.648C473.664 717.32 473.258 717.156 472.773 717.156H472.082C471.598 717.156 471.188 717.324 470.852 717.66C470.516 717.996 470.348 718.406 470.348 718.891V725.992C470.348 726.469 470.516 726.875 470.852 727.211C471.188 727.547 471.598 727.715 472.082 727.715H472.773C473.258 727.715 473.664 727.551 473.992 727.223C474.32 726.895 474.484 726.484 474.484 725.992ZM486.004 716.781C486.004 718.07 485.715 719.051 485.137 719.723C484.527 720.449 484.031 720.812 483.648 720.812C483.586 720.812 483.531 720.762 483.484 720.66L482.816 719.441C482.777 719.379 482.758 719.34 482.758 719.324C482.758 719.254 482.816 719.18 482.934 719.102C483.527 718.656 483.824 718.234 483.824 717.836C483.824 717.656 483.742 717.566 483.578 717.566H483.367C483.203 717.566 483.121 717.488 483.121 717.332V715.117C483.121 714.961 483.203 714.883 483.367 714.883H485.758C485.922 714.883 486.004 714.961 486.004 715.117V716.781ZM482.23 716.781C482.23 718.07 481.93 719.066 481.328 719.77C480.734 720.465 480.246 720.812 479.863 720.812C479.793 720.812 479.734 720.762 479.688 720.66L479.066 719.465C479.035 719.402 479.02 719.355 479.02 719.324C479.02 719.309 479.191 719.152 479.535 718.855C479.879 718.559 480.051 718.219 480.051 717.836C480.051 717.656 479.973 717.566 479.816 717.566H479.617C479.461 717.566 479.383 717.488 479.383 717.332V715.117C479.383 714.961 479.461 714.883 479.617 714.883H481.996C482.152 714.883 482.23 714.961 482.23 715.117V716.781Z" fill="white"/>
<path d="M199 313.643L193.226 323.643L204.774 323.643L199 313.643ZM199 434.643L204.774 424.643L193.227 424.643L199 434.643ZM198 322.643L198 425.643L200 425.643L200 322.643L198 322.643Z" fill="white"/>
<path d="M214.793 384.408C214.793 384.565 214.715 384.643 214.559 384.643H206.801C206.645 384.643 206.566 384.565 206.566 384.408V382.358C206.566 382.201 206.645 382.123 206.801 382.123H209.062C209.219 382.123 209.297 382.041 209.297 381.877V374.846C209.297 374.674 209.227 374.588 209.086 374.588C209.016 374.588 208.949 374.619 208.887 374.682L208.172 375.432C208.109 375.494 208.055 375.526 208.008 375.526C207.953 375.526 207.895 375.494 207.832 375.432L206.344 373.967C206.281 373.897 206.25 373.838 206.25 373.791C206.25 373.744 206.281 373.69 206.344 373.627L210.352 369.596L210.527 369.526H211.816C211.98 369.526 212.062 369.604 212.062 369.76V381.877C212.062 382.041 212.141 382.123 212.297 382.123H214.559C214.715 382.123 214.793 382.201 214.793 382.358V384.408ZM227.918 381.092C227.918 381.248 227.836 381.326 227.672 381.326H226.113C225.957 381.326 225.879 381.408 225.879 381.573V384.408C225.879 384.565 225.797 384.643 225.633 384.643H223.359C223.195 384.643 223.113 384.565 223.113 384.408V381.573C223.113 381.408 223.035 381.326 222.879 381.326H217.207C217.051 381.326 216.973 381.248 216.973 381.092V379.053L223.43 369.526H225.633C225.797 369.526 225.879 369.604 225.879 369.76V378.573C225.879 378.729 225.957 378.807 226.113 378.807H227.672C227.836 378.807 227.918 378.889 227.918 379.053V381.092ZM223.113 378.573V374.846C223.113 374.658 223.043 374.565 222.902 374.565C222.824 374.565 222.75 374.612 222.68 374.705L220.207 378.432C220.16 378.51 220.137 378.573 220.137 378.619C220.137 378.744 220.227 378.807 220.406 378.807H222.879C223.035 378.807 223.113 378.729 223.113 378.573ZM236.004 371.424C236.004 372.713 235.715 373.694 235.137 374.365C234.527 375.092 234.031 375.455 233.648 375.455C233.586 375.455 233.531 375.405 233.484 375.303L232.816 374.084C232.777 374.022 232.758 373.983 232.758 373.967C232.758 373.897 232.816 373.823 232.934 373.744C233.527 373.299 233.824 372.877 233.824 372.479C233.824 372.299 233.742 372.209 233.578 372.209H233.367C233.203 372.209 233.121 372.131 233.121 371.975V369.76C233.121 369.604 233.203 369.526 233.367 369.526H235.758C235.922 369.526 236.004 369.604 236.004 369.76V371.424ZM232.23 371.424C232.23 372.713 231.93 373.709 231.328 374.412C230.734 375.108 230.246 375.455 229.863 375.455C229.793 375.455 229.734 375.405 229.688 375.303L229.066 374.108C229.035 374.045 229.02 373.998 229.02 373.967C229.02 373.951 229.191 373.795 229.535 373.498C229.879 373.201 230.051 372.862 230.051 372.479C230.051 372.299 229.973 372.209 229.816 372.209H229.617C229.461 372.209 229.383 372.131 229.383 371.975V369.76C229.383 369.604 229.461 369.526 229.617 369.526H231.996C232.152 369.526 232.23 369.604 232.23 369.76V371.424Z" fill="white"/>
<path d="M339 313L333.226 323L344.774 323L339 313ZM339 429L344.774 419L333.227 419L339 429ZM339 322L338 322L338 420L339 420L340 420L340 322L339 322Z" fill="white"/>
<path d="M354.793 384.408C354.793 384.565 354.715 384.643 354.559 384.643H346.801C346.645 384.643 346.566 384.565 346.566 384.408V382.358C346.566 382.201 346.645 382.123 346.801 382.123H349.062C349.219 382.123 349.297 382.041 349.297 381.877V374.846C349.297 374.674 349.227 374.588 349.086 374.588C349.016 374.588 348.949 374.619 348.887 374.682L348.172 375.432C348.109 375.494 348.055 375.526 348.008 375.526C347.953 375.526 347.895 375.494 347.832 375.432L346.344 373.967C346.281 373.897 346.25 373.838 346.25 373.791C346.25 373.744 346.281 373.69 346.344 373.627L350.352 369.596L350.527 369.526H351.816C351.98 369.526 352.062 369.604 352.062 369.76V381.877C352.062 382.041 352.141 382.123 352.297 382.123H354.559C354.715 382.123 354.793 382.201 354.793 382.358V384.408ZM362.609 369.28C363.953 369.28 365.031 369.67 365.844 370.451C366.664 371.225 367.074 372.252 367.074 373.533C367.074 374.666 366.738 375.635 366.066 376.44C365.559 377.041 364.613 377.776 363.23 378.643C362.309 379.221 361.695 379.67 361.391 379.99C360.938 380.467 360.711 381.018 360.711 381.643V381.877C360.711 382.041 360.793 382.123 360.957 382.123H366.664C366.828 382.123 366.91 382.201 366.91 382.358V384.408C366.91 384.565 366.828 384.643 366.664 384.643H358.191C358.035 384.643 357.957 384.565 357.957 384.408V381.643C357.957 380.424 358.309 379.369 359.012 378.479C359.637 377.674 360.676 376.85 362.129 376.006C362.934 375.537 363.48 375.151 363.77 374.846C364.152 374.463 364.344 374.026 364.344 373.533C364.344 373.049 364.172 372.639 363.828 372.303C363.484 371.967 363.078 371.799 362.609 371.799H361.742C361.188 371.799 360.742 372.057 360.406 372.573C360.359 372.651 360.246 372.842 360.066 373.147C359.988 373.303 359.918 373.381 359.855 373.381C359.855 373.381 359.805 373.365 359.703 373.334L357.641 372.28C357.547 372.233 357.5 372.178 357.5 372.115C357.5 371.733 357.867 371.166 358.602 370.416C359.336 369.658 360.383 369.28 361.742 369.28H362.609ZM376.004 371.424C376.004 372.713 375.715 373.694 375.137 374.365C374.527 375.092 374.031 375.455 373.648 375.455C373.586 375.455 373.531 375.405 373.484 375.303L372.816 374.084C372.777 374.022 372.758 373.983 372.758 373.967C372.758 373.897 372.816 373.823 372.934 373.744C373.527 373.299 373.824 372.877 373.824 372.479C373.824 372.299 373.742 372.209 373.578 372.209H373.367C373.203 372.209 373.121 372.131 373.121 371.975V369.76C373.121 369.604 373.203 369.526 373.367 369.526H375.758C375.922 369.526 376.004 369.604 376.004 369.76V371.424ZM372.23 371.424C372.23 372.713 371.93 373.709 371.328 374.412C370.734 375.108 370.246 375.455 369.863 375.455C369.793 375.455 369.734 375.405 369.688 375.303L369.066 374.108C369.035 374.045 369.02 373.998 369.02 373.967C369.02 373.951 369.191 373.795 369.535 373.498C369.879 373.201 370.051 372.862 370.051 372.479C370.051 372.299 369.973 372.209 369.816 372.209H369.617C369.461 372.209 369.383 372.131 369.383 371.975V369.76C369.383 369.604 369.461 369.526 369.617 369.526H371.996C372.152 369.526 372.23 369.604 372.23 369.76V371.424Z" fill="white"/>
<path d="M95 442L105 447.774L105 436.226L95 442ZM192 442L182 436.227L182 447.774L192 442ZM104 442L104 443L183 443L183 442L183 441L104 441L104 442Z" fill="white"/>
<path d="M145.793 437.766C145.793 437.922 145.715 438 145.559 438H137.801C137.645 438 137.566 437.922 137.566 437.766V435.715C137.566 435.559 137.645 435.48 137.801 435.48H140.062C140.219 435.48 140.297 435.398 140.297 435.234V428.203C140.297 428.031 140.227 427.945 140.086 427.945C140.016 427.945 139.949 427.977 139.887 428.039L139.172 428.789C139.109 428.852 139.055 428.883 139.008 428.883C138.953 428.883 138.895 428.852 138.832 428.789L137.344 427.324C137.281 427.254 137.25 427.195 137.25 427.148C137.25 427.102 137.281 427.047 137.344 426.984L141.352 422.953L141.527 422.883H142.816C142.98 422.883 143.062 422.961 143.062 423.117V435.234C143.062 435.398 143.141 435.48 143.297 435.48H145.559C145.715 435.48 145.793 435.559 145.793 435.715V437.766ZM158.238 433.992C158.238 435.258 157.828 436.281 157.008 437.062C156.195 437.844 155.117 438.234 153.773 438.234H153.082C151.738 438.234 150.656 437.848 149.836 437.074C149.023 436.301 148.617 435.273 148.617 433.992V426.891C148.617 425.609 149.023 424.582 149.836 423.809C150.656 423.027 151.738 422.637 153.082 422.637H153.773C155.117 422.637 156.195 423.027 157.008 423.809C157.828 424.582 158.238 425.609 158.238 426.891V433.992ZM155.484 433.992V426.891C155.484 426.391 155.32 425.977 154.992 425.648C154.664 425.32 154.258 425.156 153.773 425.156H153.082C152.598 425.156 152.188 425.324 151.852 425.66C151.516 425.996 151.348 426.406 151.348 426.891V433.992C151.348 434.469 151.516 434.875 151.852 435.211C152.188 435.547 152.598 435.715 153.082 435.715H153.773C154.258 435.715 154.664 435.551 154.992 435.223C155.32 434.895 155.484 434.484 155.484 433.992ZM167.004 424.781C167.004 426.07 166.715 427.051 166.137 427.723C165.527 428.449 165.031 428.812 164.648 428.812C164.586 428.812 164.531 428.762 164.484 428.66L163.816 427.441C163.777 427.379 163.758 427.34 163.758 427.324C163.758 427.254 163.816 427.18 163.934 427.102C164.527 426.656 164.824 426.234 164.824 425.836C164.824 425.656 164.742 425.566 164.578 425.566H164.367C164.203 425.566 164.121 425.488 164.121 425.332V423.117C164.121 422.961 164.203 422.883 164.367 422.883H166.758C166.922 422.883 167.004 422.961 167.004 423.117V424.781ZM163.23 424.781C163.23 426.07 162.93 427.066 162.328 427.77C161.734 428.465 161.246 428.812 160.863 428.812C160.793 428.812 160.734 428.762 160.688 428.66L160.066 427.465C160.035 427.402 160.02 427.355 160.02 427.324C160.02 427.309 160.191 427.152 160.535 426.855C160.879 426.559 161.051 426.219 161.051 425.836C161.051 425.656 160.973 425.566 160.816 425.566H160.617C160.461 425.566 160.383 425.488 160.383 425.332V423.117C160.383 422.961 160.461 422.883 160.617 422.883H162.996C163.152 422.883 163.23 422.961 163.23 423.117V424.781Z" fill="white"/>
<path d="M270 313L264.226 323H275.774L270 313ZM270 508L275.774 498H264.226L270 508ZM270 322H269L269 499H270H271L271 322H270Z" fill="white"/>
<path d="M281.445 423.28C282.789 423.28 283.867 423.67 284.68 424.451C285.5 425.225 285.91 426.252 285.91 427.533C285.91 428.666 285.574 429.635 284.902 430.44C284.395 431.041 283.449 431.776 282.066 432.643C281.145 433.221 280.531 433.67 280.227 433.99C279.773 434.467 279.547 435.018 279.547 435.643L279.547 435.877C279.547 436.041 279.629 436.123 279.793 436.123L285.5 436.123C285.664 436.123 285.746 436.201 285.746 436.358L285.746 438.408C285.746 438.565 285.664 438.643 285.5 438.643L277.027 438.643C276.871 438.643 276.793 438.565 276.793 438.408L276.793 435.643C276.793 434.424 277.145 433.369 277.848 432.479C278.473 431.674 279.512 430.85 280.965 430.006C281.77 429.537 282.316 429.151 282.605 428.846C282.988 428.463 283.18 428.026 283.18 427.533C283.18 427.049 283.008 426.639 282.664 426.303C282.32 425.967 281.914 425.799 281.445 425.799L280.578 425.799C280.023 425.799 279.578 426.057 279.242 426.573C279.195 426.651 279.082 426.842 278.902 427.147C278.824 427.303 278.754 427.381 278.691 427.381C278.691 427.381 278.641 427.365 278.539 427.334L276.477 426.28C276.383 426.233 276.336 426.178 276.336 426.115C276.336 425.733 276.703 425.166 277.438 424.416C278.172 423.658 279.219 423.28 280.578 423.28L281.445 423.28ZM298.238 434.635C298.238 435.901 297.828 436.924 297.008 437.705C296.195 438.487 295.117 438.877 293.773 438.877L293.082 438.877C291.738 438.877 290.656 438.49 289.836 437.717C289.023 436.944 288.617 435.916 288.617 434.635L288.617 427.533C288.617 426.252 289.023 425.225 289.836 424.451C290.656 423.67 291.738 423.28 293.082 423.28L293.773 423.28C295.117 423.28 296.195 423.67 297.008 424.451C297.828 425.225 298.238 426.252 298.238 427.533L298.238 434.635ZM295.484 434.635L295.484 427.533C295.484 427.033 295.32 426.619 294.992 426.291C294.664 425.963 294.258 425.799 293.773 425.799L293.082 425.799C292.598 425.799 292.188 425.967 291.852 426.303C291.516 426.639 291.348 427.049 291.348 427.533L291.348 434.635C291.348 435.112 291.516 435.518 291.852 435.854C292.188 436.19 292.598 436.358 293.082 436.358L293.773 436.358C294.258 436.358 294.664 436.194 294.992 435.865C295.32 435.537 295.484 435.127 295.484 434.635ZM307.004 425.424C307.004 426.713 306.715 427.694 306.137 428.365C305.527 429.092 305.031 429.455 304.648 429.455C304.586 429.455 304.531 429.405 304.484 429.303L303.816 428.084C303.777 428.022 303.758 427.983 303.758 427.967C303.758 427.897 303.816 427.823 303.934 427.744C304.527 427.299 304.824 426.877 304.824 426.479C304.824 426.299 304.742 426.209 304.578 426.209L304.367 426.209C304.203 426.209 304.121 426.131 304.121 425.975L304.121 423.76C304.121 423.604 304.203 423.526 304.367 423.526L306.758 423.526C306.922 423.526 307.004 423.604 307.004 423.76L307.004 425.424ZM303.23 425.424C303.23 426.713 302.93 427.709 302.328 428.412C301.734 429.108 301.246 429.455 300.863 429.455C300.793 429.455 300.734 429.405 300.688 429.303L300.066 428.108C300.035 428.045 300.02 427.998 300.02 427.967C300.02 427.951 300.191 427.795 300.535 427.498C300.879 427.201 301.051 426.862 301.051 426.479C301.051 426.299 300.973 426.209 300.816 426.209L300.617 426.209C300.461 426.209 300.383 426.131 300.383 425.975L300.383 423.76C300.383 423.604 300.461 423.526 300.617 423.526L302.996 423.526C303.152 423.526 303.23 423.604 303.23 423.76L303.23 425.424Z" fill="white"/>
<path d="M270 790L264.226 800L275.774 800L270 790ZM270 906L275.773 896L264.226 896L270 906ZM270 799L269 799L269 897L270 897L271 897L271 799L270 799Z" fill="white"/>
<path d="M285.793 841.408C285.793 841.565 285.715 841.643 285.559 841.643H277.801C277.645 841.643 277.566 841.565 277.566 841.408V839.358C277.566 839.201 277.645 839.123 277.801 839.123H280.062C280.219 839.123 280.297 839.041 280.297 838.877V831.846C280.297 831.674 280.227 831.588 280.086 831.588C280.016 831.588 279.949 831.619 279.887 831.682L279.172 832.432C279.109 832.494 279.055 832.526 279.008 832.526C278.953 832.526 278.895 832.494 278.832 832.432L277.344 830.967C277.281 830.897 277.25 830.838 277.25 830.791C277.25 830.744 277.281 830.69 277.344 830.627L281.352 826.596L281.527 826.526H282.816C282.98 826.526 283.062 826.604 283.062 826.76V838.877C283.062 839.041 283.141 839.123 283.297 839.123H285.559C285.715 839.123 285.793 839.201 285.793 839.358V841.408ZM293.609 826.28C294.953 826.28 296.031 826.67 296.844 827.451C297.664 828.225 298.074 829.252 298.074 830.533C298.074 831.666 297.738 832.635 297.066 833.44C296.559 834.041 295.613 834.776 294.23 835.643C293.309 836.221 292.695 836.67 292.391 836.99C291.938 837.467 291.711 838.018 291.711 838.643V838.877C291.711 839.041 291.793 839.123 291.957 839.123H297.664C297.828 839.123 297.91 839.201 297.91 839.358V841.408C297.91 841.565 297.828 841.643 297.664 841.643H289.191C289.035 841.643 288.957 841.565 288.957 841.408V838.643C288.957 837.424 289.309 836.369 290.012 835.479C290.637 834.674 291.676 833.85 293.129 833.006C293.934 832.537 294.48 832.151 294.77 831.846C295.152 831.463 295.344 831.026 295.344 830.533C295.344 830.049 295.172 829.639 294.828 829.303C294.484 828.967 294.078 828.799 293.609 828.799H292.742C292.188 828.799 291.742 829.057 291.406 829.573C291.359 829.651 291.246 829.842 291.066 830.147C290.988 830.303 290.918 830.381 290.855 830.381C290.855 830.381 290.805 830.365 290.703 830.334L288.641 829.28C288.547 829.233 288.5 829.178 288.5 829.115C288.5 828.733 288.867 828.166 289.602 827.416C290.336 826.658 291.383 826.28 292.742 826.28H293.609ZM307.004 828.424C307.004 829.713 306.715 830.694 306.137 831.365C305.527 832.092 305.031 832.455 304.648 832.455C304.586 832.455 304.531 832.405 304.484 832.303L303.816 831.084C303.777 831.022 303.758 830.983 303.758 830.967C303.758 830.897 303.816 830.823 303.934 830.744C304.527 830.299 304.824 829.877 304.824 829.479C304.824 829.299 304.742 829.209 304.578 829.209H304.367C304.203 829.209 304.121 829.131 304.121 828.975V826.76C304.121 826.604 304.203 826.526 304.367 826.526H306.758C306.922 826.526 307.004 826.604 307.004 826.76V828.424ZM303.23 828.424C303.23 829.713 302.93 830.709 302.328 831.412C301.734 832.108 301.246 832.455 300.863 832.455C300.793 832.455 300.734 832.405 300.688 832.303L300.066 831.108C300.035 831.045 300.02 830.998 300.02 830.967C300.02 830.951 300.191 830.795 300.535 830.498C300.879 830.201 301.051 829.862 301.051 829.479C301.051 829.299 300.973 829.209 300.816 829.209H300.617C300.461 829.209 300.383 829.131 300.383 828.975V826.76C300.383 826.604 300.461 826.526 300.617 826.526H302.996C303.152 826.526 303.23 826.604 303.23 826.76V828.424Z" fill="white"/>
<path d="M339 712L333.226 722L344.774 722L339 712ZM339 906L344.773 896L333.226 896L339 906ZM339 721L338 721L338 897L339 897L340 897L340 721L339 721Z" fill="white"/>
<path d="M350.445 765.28C351.789 765.28 352.867 765.67 353.68 766.451C354.5 767.225 354.91 768.252 354.91 769.533C354.91 770.666 354.574 771.635 353.902 772.44C353.395 773.041 352.449 773.776 351.066 774.643C350.145 775.221 349.531 775.67 349.227 775.99C348.773 776.467 348.547 777.018 348.547 777.643V777.877C348.547 778.041 348.629 778.123 348.793 778.123H354.5C354.664 778.123 354.746 778.201 354.746 778.358V780.408C354.746 780.565 354.664 780.643 354.5 780.643H346.027C345.871 780.643 345.793 780.565 345.793 780.408V777.643C345.793 776.424 346.145 775.369 346.848 774.479C347.473 773.674 348.512 772.85 349.965 772.006C350.77 771.537 351.316 771.151 351.605 770.846C351.988 770.463 352.18 770.026 352.18 769.533C352.18 769.049 352.008 768.639 351.664 768.303C351.32 767.967 350.914 767.799 350.445 767.799H349.578C349.023 767.799 348.578 768.057 348.242 768.573C348.195 768.651 348.082 768.842 347.902 769.147C347.824 769.303 347.754 769.381 347.691 769.381C347.691 769.381 347.641 769.365 347.539 769.334L345.477 768.28C345.383 768.233 345.336 768.178 345.336 768.115C345.336 767.733 345.703 767.166 346.438 766.416C347.172 765.658 348.219 765.28 349.578 765.28H350.445ZM367.238 776.635C367.238 777.901 366.828 778.924 366.008 779.705C365.195 780.487 364.117 780.877 362.773 780.877H362.082C360.738 780.877 359.656 780.49 358.836 779.717C358.023 778.944 357.617 777.916 357.617 776.635V769.533C357.617 768.252 358.023 767.225 358.836 766.451C359.656 765.67 360.738 765.28 362.082 765.28H362.773C364.117 765.28 365.195 765.67 366.008 766.451C366.828 767.225 367.238 768.252 367.238 769.533V776.635ZM364.484 776.635V769.533C364.484 769.033 364.32 768.619 363.992 768.291C363.664 767.963 363.258 767.799 362.773 767.799H362.082C361.598 767.799 361.188 767.967 360.852 768.303C360.516 768.639 360.348 769.049 360.348 769.533V776.635C360.348 777.112 360.516 777.518 360.852 777.854C361.188 778.19 361.598 778.358 362.082 778.358H362.773C363.258 778.358 363.664 778.194 363.992 777.865C364.32 777.537 364.484 777.127 364.484 776.635ZM376.004 767.424C376.004 768.713 375.715 769.694 375.137 770.365C374.527 771.092 374.031 771.455 373.648 771.455C373.586 771.455 373.531 771.405 373.484 771.303L372.816 770.084C372.777 770.022 372.758 769.983 372.758 769.967C372.758 769.897 372.816 769.823 372.934 769.744C373.527 769.299 373.824 768.877 373.824 768.479C373.824 768.299 373.742 768.209 373.578 768.209H373.367C373.203 768.209 373.121 768.131 373.121 767.975V765.76C373.121 765.604 373.203 765.526 373.367 765.526H375.758C375.922 765.526 376.004 765.604 376.004 765.76V767.424ZM372.23 767.424C372.23 768.713 371.93 769.709 371.328 770.412C370.734 771.108 370.246 771.455 369.863 771.455C369.793 771.455 369.734 771.405 369.688 771.303L369.066 770.108C369.035 770.045 369.02 769.998 369.02 769.967C369.02 769.951 369.191 769.795 369.535 769.498C369.879 769.201 370.051 768.862 370.051 768.479C370.051 768.299 369.973 768.209 369.816 768.209H369.617C369.461 768.209 369.383 768.131 369.383 767.975V765.76C369.383 765.604 369.461 765.526 369.617 765.526H371.996C372.152 765.526 372.23 765.604 372.23 765.76V767.424Z" fill="white"/>
<path d="M438 313L432.226 323L443.774 323L438 313ZM438 501L443.774 491L432.227 491L438 501ZM438 322L437 322L437 492L438 492L439 492L439 322L438 322Z" fill="black"/>
<path d="M449.445 424.28C450.789 424.28 451.867 424.67 452.68 425.451C453.5 426.225 453.91 427.252 453.91 428.533C453.91 429.666 453.574 430.635 452.902 431.44C452.395 432.041 451.449 432.776 450.066 433.643C449.145 434.221 448.531 434.67 448.227 434.99C447.773 435.467 447.547 436.018 447.547 436.643V436.877C447.547 437.041 447.629 437.123 447.793 437.123H453.5C453.664 437.123 453.746 437.201 453.746 437.358V439.408C453.746 439.565 453.664 439.643 453.5 439.643H445.027C444.871 439.643 444.793 439.565 444.793 439.408V436.643C444.793 435.424 445.145 434.369 445.848 433.479C446.473 432.674 447.512 431.85 448.965 431.006C449.77 430.537 450.316 430.151 450.605 429.846C450.988 429.463 451.18 429.026 451.18 428.533C451.18 428.049 451.008 427.639 450.664 427.303C450.32 426.967 449.914 426.799 449.445 426.799H448.578C448.023 426.799 447.578 427.057 447.242 427.573C447.195 427.651 447.082 427.842 446.902 428.147C446.824 428.303 446.754 428.381 446.691 428.381C446.691 428.381 446.641 428.365 446.539 428.334L444.477 427.28C444.383 427.233 444.336 427.178 444.336 427.115C444.336 426.733 444.703 426.166 445.438 425.416C446.172 424.658 447.219 424.28 448.578 424.28H449.445ZM461.609 424.28C462.953 424.28 464.031 424.67 464.844 425.451C465.664 426.225 466.074 427.252 466.074 428.533C466.074 429.666 465.738 430.635 465.066 431.44C464.559 432.041 463.613 432.776 462.23 433.643C461.309 434.221 460.695 434.67 460.391 434.99C459.938 435.467 459.711 436.018 459.711 436.643V436.877C459.711 437.041 459.793 437.123 459.957 437.123H465.664C465.828 437.123 465.91 437.201 465.91 437.358V439.408C465.91 439.565 465.828 439.643 465.664 439.643H457.191C457.035 439.643 456.957 439.565 456.957 439.408V436.643C456.957 435.424 457.309 434.369 458.012 433.479C458.637 432.674 459.676 431.85 461.129 431.006C461.934 430.537 462.48 430.151 462.77 429.846C463.152 429.463 463.344 429.026 463.344 428.533C463.344 428.049 463.172 427.639 462.828 427.303C462.484 426.967 462.078 426.799 461.609 426.799H460.742C460.188 426.799 459.742 427.057 459.406 427.573C459.359 427.651 459.246 427.842 459.066 428.147C458.988 428.303 458.918 428.381 458.855 428.381C458.855 428.381 458.805 428.365 458.703 428.334L456.641 427.28C456.547 427.233 456.5 427.178 456.5 427.115C456.5 426.733 456.867 426.166 457.602 425.416C458.336 424.658 459.383 424.28 460.742 424.28H461.609ZM475.004 426.424C475.004 427.713 474.715 428.694 474.137 429.365C473.527 430.092 473.031 430.455 472.648 430.455C472.586 430.455 472.531 430.405 472.484 430.303L471.816 429.084C471.777 429.022 471.758 428.983 471.758 428.967C471.758 428.897 471.816 428.823 471.934 428.744C472.527 428.299 472.824 427.877 472.824 427.479C472.824 427.299 472.742 427.209 472.578 427.209H472.367C472.203 427.209 472.121 427.131 472.121 426.975V424.76C472.121 424.604 472.203 424.526 472.367 424.526H474.758C474.922 424.526 475.004 424.604 475.004 424.76V426.424ZM471.23 426.424C471.23 427.713 470.93 428.709 470.328 429.412C469.734 430.108 469.246 430.455 468.863 430.455C468.793 430.455 468.734 430.405 468.688 430.303L468.066 429.108C468.035 429.045 468.02 428.998 468.02 428.967C468.02 428.951 468.191 428.795 468.535 428.498C468.879 428.201 469.051 427.862 469.051 427.479C469.051 427.299 468.973 427.209 468.816 427.209H468.617C468.461 427.209 468.383 427.131 468.383 426.975V424.76C468.383 424.604 468.461 424.526 468.617 424.526H470.996C471.152 424.526 471.23 424.604 471.23 424.76V426.424Z" fill="black"/>
<path d="M446 509L456 514.774L456 503.226L446 509ZM525 509L515 503.227L515 514.774L525 509ZM455 509L455 510L516 510L516 509L516 508L455 508L455 509Z" fill="black"/>
<path d="M489.156 500.805C489.156 502.164 488.75 503.242 487.938 504.039C487.133 504.836 486.051 505.234 484.691 505.234H484C482.625 505.234 481.535 504.84 480.73 504.051C479.934 503.262 479.535 502.18 479.535 500.805V500.219C479.535 499.586 479.734 498.98 480.133 498.402C480.648 497.668 480.906 497.316 480.906 497.348C480.906 497.348 480.633 496.977 480.086 496.234C479.719 495.742 479.535 495.191 479.535 494.582V494.125C479.535 492.75 479.934 491.66 480.73 490.855C481.535 490.043 482.625 489.637 484 489.637H484.691C486.051 489.637 487.133 490.047 487.938 490.867C488.75 491.68 489.156 492.766 489.156 494.125V494.582C489.156 495.191 488.973 495.742 488.605 496.234C488.066 496.977 487.797 497.348 487.797 497.348C487.797 497.316 488.051 497.668 488.559 498.402C488.957 498.98 489.156 499.586 489.156 500.219V500.805ZM486.402 494.348V493.891C486.402 493.391 486.238 492.977 485.91 492.648C485.582 492.32 485.176 492.156 484.691 492.156H484C483.516 492.156 483.105 492.324 482.77 492.66C482.434 492.996 482.266 493.406 482.266 493.891V494.348C482.266 494.824 482.434 495.23 482.77 495.566C483.105 495.902 483.516 496.07 484 496.07H484.691C485.176 496.07 485.582 495.906 485.91 495.578C486.238 495.25 486.402 494.84 486.402 494.348ZM486.402 500.992V500.301C486.402 499.816 486.238 499.41 485.91 499.082C485.582 498.754 485.176 498.59 484.691 498.59H484C483.5 498.59 483.086 498.754 482.758 499.082C482.43 499.41 482.266 499.816 482.266 500.301V500.992C482.266 501.469 482.434 501.875 482.77 502.211C483.105 502.547 483.516 502.715 484 502.715H484.691C485.176 502.715 485.582 502.551 485.91 502.223C486.238 501.895 486.402 501.484 486.402 500.992ZM497.922 491.781C497.922 493.07 497.633 494.051 497.055 494.723C496.445 495.449 495.949 495.812 495.566 495.812C495.504 495.812 495.449 495.762 495.402 495.66L494.734 494.441C494.695 494.379 494.676 494.34 494.676 494.324C494.676 494.254 494.734 494.18 494.852 494.102C495.445 493.656 495.742 493.234 495.742 492.836C495.742 492.656 495.66 492.566 495.496 492.566H495.285C495.121 492.566 495.039 492.488 495.039 492.332V490.117C495.039 489.961 495.121 489.883 495.285 489.883H497.676C497.84 489.883 497.922 489.961 497.922 490.117V491.781ZM494.148 491.781C494.148 493.07 493.848 494.066 493.246 494.77C492.652 495.465 492.164 495.812 491.781 495.812C491.711 495.812 491.652 495.762 491.605 495.66L490.984 494.465C490.953 494.402 490.938 494.355 490.938 494.324C490.938 494.309 491.109 494.152 491.453 493.855C491.797 493.559 491.969 493.219 491.969 492.836C491.969 492.656 491.891 492.566 491.734 492.566H491.535C491.379 492.566 491.301 492.488 491.301 492.332V490.117C491.301 489.961 491.379 489.883 491.535 489.883H493.914C494.07 489.883 494.148 489.961 494.148 490.117V491.781Z" fill="black"/>
<path d="M182 677L176.226 687L187.774 687L182 677ZM182 906L187.774 896L176.227 896L182 906ZM182 686L181 686L181 897L182 897L183 897L183 686L182 686Z" fill="black"/>
<path d="M193.445 739.28C194.789 739.28 195.867 739.67 196.68 740.451C197.5 741.225 197.91 742.252 197.91 743.533C197.91 744.666 197.574 745.635 196.902 746.44C196.395 747.041 195.449 747.776 194.066 748.643C193.145 749.221 192.531 749.67 192.227 749.99C191.773 750.467 191.547 751.018 191.547 751.643V751.877C191.547 752.041 191.629 752.123 191.793 752.123H197.5C197.664 752.123 197.746 752.201 197.746 752.358V754.408C197.746 754.565 197.664 754.643 197.5 754.643H189.027C188.871 754.643 188.793 754.565 188.793 754.408V751.643C188.793 750.424 189.145 749.369 189.848 748.479C190.473 747.674 191.512 746.85 192.965 746.006C193.77 745.537 194.316 745.151 194.605 744.846C194.988 744.463 195.18 744.026 195.18 743.533C195.18 743.049 195.008 742.639 194.664 742.303C194.32 741.967 193.914 741.799 193.445 741.799H192.578C192.023 741.799 191.578 742.057 191.242 742.573C191.195 742.651 191.082 742.842 190.902 743.147C190.824 743.303 190.754 743.381 190.691 743.381C190.691 743.381 190.641 743.365 190.539 743.334L188.477 742.28C188.383 742.233 188.336 742.178 188.336 742.115C188.336 741.733 188.703 741.166 189.438 740.416C190.172 739.658 191.219 739.28 192.578 739.28H193.445ZM205.609 739.28C206.953 739.28 208.031 739.67 208.844 740.451C209.664 741.225 210.074 742.252 210.074 743.533C210.074 744.666 209.738 745.635 209.066 746.44C208.559 747.041 207.613 747.776 206.23 748.643C205.309 749.221 204.695 749.67 204.391 749.99C203.938 750.467 203.711 751.018 203.711 751.643V751.877C203.711 752.041 203.793 752.123 203.957 752.123H209.664C209.828 752.123 209.91 752.201 209.91 752.358V754.408C209.91 754.565 209.828 754.643 209.664 754.643H201.191C201.035 754.643 200.957 754.565 200.957 754.408V751.643C200.957 750.424 201.309 749.369 202.012 748.479C202.637 747.674 203.676 746.85 205.129 746.006C205.934 745.537 206.48 745.151 206.77 744.846C207.152 744.463 207.344 744.026 207.344 743.533C207.344 743.049 207.172 742.639 206.828 742.303C206.484 741.967 206.078 741.799 205.609 741.799H204.742C204.188 741.799 203.742 742.057 203.406 742.573C203.359 742.651 203.246 742.842 203.066 743.147C202.988 743.303 202.918 743.381 202.855 743.381C202.855 743.381 202.805 743.365 202.703 743.334L200.641 742.28C200.547 742.233 200.5 742.178 200.5 742.115C200.5 741.733 200.867 741.166 201.602 740.416C202.336 739.658 203.383 739.28 204.742 739.28H205.609ZM219.004 741.424C219.004 742.713 218.715 743.694 218.137 744.365C217.527 745.092 217.031 745.455 216.648 745.455C216.586 745.455 216.531 745.405 216.484 745.303L215.816 744.084C215.777 744.022 215.758 743.983 215.758 743.967C215.758 743.897 215.816 743.823 215.934 743.744C216.527 743.299 216.824 742.877 216.824 742.479C216.824 742.299 216.742 742.209 216.578 742.209H216.367C216.203 742.209 216.121 742.131 216.121 741.975V739.76C216.121 739.604 216.203 739.526 216.367 739.526H218.758C218.922 739.526 219.004 739.604 219.004 739.76V741.424ZM215.23 741.424C215.23 742.713 214.93 743.709 214.328 744.412C213.734 745.108 213.246 745.455 212.863 745.455C212.793 745.455 212.734 745.405 212.688 745.303L212.066 744.108C212.035 744.045 212.02 743.998 212.02 743.967C212.02 743.951 212.191 743.795 212.535 743.498C212.879 743.201 213.051 742.862 213.051 742.479C213.051 742.299 212.973 742.209 212.816 742.209H212.617C212.461 742.209 212.383 742.131 212.383 741.975V739.76C212.383 739.604 212.461 739.526 212.617 739.526H214.996C215.152 739.526 215.23 739.604 215.23 739.76V741.424Z" fill="black"/>
<path d="M95 670L105 675.774L105 664.226L95 670ZM174 670L164 664.227L164 675.774L174 670ZM104 670L104 671L165 671L165 670L165 669L104 669L104 670Z" fill="black"/>
<path d="M134.156 661.805C134.156 663.164 133.75 664.242 132.938 665.039C132.133 665.836 131.051 666.234 129.691 666.234H129C127.625 666.234 126.535 665.84 125.73 665.051C124.934 664.262 124.535 663.18 124.535 661.805V661.219C124.535 660.586 124.734 659.98 125.133 659.402C125.648 658.668 125.906 658.316 125.906 658.348C125.906 658.348 125.633 657.977 125.086 657.234C124.719 656.742 124.535 656.191 124.535 655.582V655.125C124.535 653.75 124.934 652.66 125.73 651.855C126.535 651.043 127.625 650.637 129 650.637H129.691C131.051 650.637 132.133 651.047 132.938 651.867C133.75 652.68 134.156 653.766 134.156 655.125V655.582C134.156 656.191 133.973 656.742 133.605 657.234C133.066 657.977 132.797 658.348 132.797 658.348C132.797 658.316 133.051 658.668 133.559 659.402C133.957 659.98 134.156 660.586 134.156 661.219V661.805ZM131.402 655.348V654.891C131.402 654.391 131.238 653.977 130.91 653.648C130.582 653.32 130.176 653.156 129.691 653.156H129C128.516 653.156 128.105 653.324 127.77 653.66C127.434 653.996 127.266 654.406 127.266 654.891V655.348C127.266 655.824 127.434 656.23 127.77 656.566C128.105 656.902 128.516 657.07 129 657.07H129.691C130.176 657.07 130.582 656.906 130.91 656.578C131.238 656.25 131.402 655.84 131.402 655.348ZM131.402 661.992V661.301C131.402 660.816 131.238 660.41 130.91 660.082C130.582 659.754 130.176 659.59 129.691 659.59H129C128.5 659.59 128.086 659.754 127.758 660.082C127.43 660.41 127.266 660.816 127.266 661.301V661.992C127.266 662.469 127.434 662.875 127.77 663.211C128.105 663.547 128.516 663.715 129 663.715H129.691C130.176 663.715 130.582 663.551 130.91 663.223C131.238 662.895 131.402 662.484 131.402 661.992ZM142.922 652.781C142.922 654.07 142.633 655.051 142.055 655.723C141.445 656.449 140.949 656.812 140.566 656.812C140.504 656.812 140.449 656.762 140.402 656.66L139.734 655.441C139.695 655.379 139.676 655.34 139.676 655.324C139.676 655.254 139.734 655.18 139.852 655.102C140.445 654.656 140.742 654.234 140.742 653.836C140.742 653.656 140.66 653.566 140.496 653.566H140.285C140.121 653.566 140.039 653.488 140.039 653.332V651.117C140.039 650.961 140.121 650.883 140.285 650.883H142.676C142.84 650.883 142.922 650.961 142.922 651.117V652.781ZM139.148 652.781C139.148 654.07 138.848 655.066 138.246 655.77C137.652 656.465 137.164 656.812 136.781 656.812C136.711 656.812 136.652 656.762 136.605 656.66L135.984 655.465C135.953 655.402 135.938 655.355 135.938 655.324C135.938 655.309 136.109 655.152 136.453 654.855C136.797 654.559 136.969 654.219 136.969 653.836C136.969 653.656 136.891 653.566 136.734 653.566H136.535C136.379 653.566 136.301 653.488 136.301 653.332V651.117C136.301 650.961 136.379 650.883 136.535 650.883H138.914C139.07 650.883 139.148 650.961 139.148 651.117V652.781Z" fill="black"/>
<path d="M327.181 926L311.548 919.487C311.071 919.289 310.561 919.188 310.045 919.188C309.53 919.188 309.019 919.289 308.543 919.487L292.91 926C291.453 926.603 290.5 928.028 290.5 929.607C290.5 945.77 299.823 956.941 308.535 960.572C309.496 960.971 310.579 960.971 311.539 960.572C318.517 957.665 329.583 947.626 329.583 929.607C329.583 928.028 328.63 926.603 327.181 926ZM310.049 955.524L310.041 924.502L324.363 930.471C324.095 942.798 317.679 951.73 310.049 955.524Z" fill="#3C722E"/>
<g clip-path="url(#clip2_121_6704)">
<path d="M297.828 257.5L306.587 266.259L299.259 273.587L290.5 264.828V257.5H297.828Z" fill="#A72222"/>
<path d="M306.883 287.527L310.547 291.191L307.093 294.646L301.492 289.045L297.822 292.715C297.826 292.782 297.828 292.85 297.828 292.919C297.828 294.942 296.188 296.583 294.164 296.583C292.14 296.583 290.5 294.942 290.5 292.919C290.5 290.895 292.14 289.255 294.164 289.255C294.232 289.255 294.3 289.256 294.368 289.26L298.038 285.591L292.437 279.99L295.891 276.535L299.555 280.199L322.255 257.5H329.583V264.828L306.883 287.527Z" fill="#A72222"/>
<path d="M325.919 296.582C323.895 296.582 322.255 294.942 322.255 292.919C322.255 292.85 322.256 292.782 322.26 292.715L315.136 285.591L324.191 276.535L327.646 279.99L322.045 285.591L325.715 289.26C325.782 289.256 325.85 289.255 325.919 289.255C327.942 289.255 329.583 290.895 329.583 292.919C329.583 294.942 327.942 296.582 325.919 296.582Z" fill="#A72222"/>
</g>
<defs>
<clipPath id="clip0_121_6704">
<rect width="620" height="1063" fill="white"/>
</clipPath>
<clipPath id="clip1_121_6704">
<rect width="620" height="197" fill="white"/>
</clipPath>
<clipPath id="clip2_121_6704">
<rect width="39.0825" height="39.0825" fill="white" transform="translate(290.5 257.5)"/>
</clipPath>
</defs>
</svg>
