<svg width="620" height="1063" viewBox="0 0 620 1063" fill="none" xmlns="http://www.w3.org/2000/svg">
<g clip-path="url(#clip0_2013_3820)">
<rect y="197" width="620" height="866" fill="#DEDEDE"/>
<path d="M483.394 482.903C480.51 452.89 469.903 424.135 452.606 399.438C435.309 374.742 411.911 354.945 384.691 341.977C357.472 329.008 327.357 323.309 297.281 325.435C267.204 327.56 238.191 337.438 213.066 354.107C191.481 368.54 173.36 387.575 160.006 409.844C146.651 432.113 138.395 457.063 135.829 482.903C133.313 508.573 136.542 534.481 145.282 558.748C154.022 583.015 168.055 605.032 186.362 623.202L295.233 732.279C297.142 734.204 299.414 735.732 301.917 736.775C304.421 737.818 307.105 738.355 309.817 738.355C312.529 738.355 315.214 737.818 317.717 736.775C320.22 735.732 322.492 734.204 324.402 732.279L432.862 623.202C451.168 605.032 465.201 583.015 473.942 558.748C482.682 534.481 485.911 508.573 483.394 482.903ZM404.103 594.239L309.612 688.73L215.12 594.239C201.195 580.312 190.528 563.474 183.886 544.934C177.244 526.393 174.792 506.612 176.707 487.011C178.634 467.108 184.96 447.882 195.227 430.724C205.494 413.565 219.445 398.902 236.073 387.795C257.866 373.318 283.448 365.595 309.612 365.595C335.776 365.595 361.357 373.318 383.151 387.795C399.728 398.859 413.648 413.457 423.913 430.541C434.177 447.624 440.53 466.769 442.516 486.6C444.493 506.267 442.073 526.128 435.429 544.744C428.785 563.361 418.085 580.267 404.103 594.239Z" fill="white" fill-opacity="0.4"/>
<path d="M317.944 424C316.057 423.992 314.171 424.061 312.289 424.206C305.782 424.706 299.433 426.115 293.347 428.307C274.487 451.741 265.61 473.966 266.066 490.61C266.304 499.315 268.974 506.45 273.994 511.913C276.524 514.665 279.685 517.018 283.521 518.886C282.907 515.753 283.283 512.244 284.5 508.657L284.463 508.648C293.176 471.19 326.656 445.937 364.022 445.428C364.455 445.422 364.888 445.42 365.322 445.421C365.416 445.421 365.51 445.423 365.605 445.424C353.704 432.102 336.959 424.085 317.944 424ZM280.915 434.07C254.829 449.002 235.987 478.831 235.034 511.85C234.618 526.28 237.605 539.505 243.195 550.726C270.406 555.474 297.532 545.48 314.709 525.416C306.055 530.062 297.248 531.012 291.143 528.349C281.92 526.148 274.535 522.033 269.245 516.277C263.083 509.571 259.891 500.74 259.618 490.787C259.168 474.342 266.369 454.714 280.915 434.07ZM365.628 451.866C337.615 451.672 311.882 466.515 298.455 490.281C299.118 489.771 299.795 489.278 300.485 488.804C305.224 485.559 310.142 483.44 314.757 482.444C321.776 480.426 328.787 479.357 335.65 479.168C336.33 479.149 337.009 479.139 337.686 479.138C354.937 479.099 371.163 484.614 384.151 494.504C383.694 478.225 378.856 463.671 370.84 452.075C369.106 451.948 367.367 451.878 365.628 451.866ZM337.235 485.573C335.935 485.585 334.627 485.632 333.315 485.714C341.655 488.88 348.14 493.586 352.576 499.575C357.997 506.894 360.24 516.012 359.46 525.939C358.156 542.571 348.682 561.63 331.592 580.898C360.252 567.884 381.861 537.271 384.009 502.724C371.505 491.663 355.019 485.404 337.235 485.573ZM335.931 493.918C336.303 497.26 335.662 500.966 334.141 504.707C320.969 540.805 284.578 561.954 247.233 557.806C260.053 577.542 281.798 589.272 306.901 587.34C310.755 587.041 314.579 586.428 318.335 585.508C340.21 563.858 351.708 542.292 353.031 525.434C353.712 516.753 351.81 509.377 347.394 503.415C344.635 499.691 340.85 496.473 335.931 493.918Z" fill="white" fill-opacity="0.4"/>
<g clip-path="url(#clip1_2013_3820)">
<rect width="620" height="197" fill="#206258"/>
<path d="M204.914 121.766C207.633 121.766 209.797 122.578 211.406 124.203C213.031 125.812 213.844 127.977 213.844 130.695C213.844 133.18 213.016 135.219 211.359 136.812C209.719 138.391 207.57 139.18 204.914 139.18H200.602C200.289 139.18 200.133 139.344 200.133 139.672V151.531C200.133 151.844 199.969 152 199.641 152H195.07C194.758 152 194.602 151.844 194.602 151.531V122.234C194.602 121.922 194.758 121.766 195.07 121.766H204.914ZM208.383 130.695V130.25C208.383 129.328 208.047 128.523 207.375 127.836C206.703 127.148 205.883 126.805 204.914 126.805H200.602C200.289 126.805 200.133 126.961 200.133 127.273V133.672C200.133 133.984 200.289 134.141 200.602 134.141H204.914C205.883 134.141 206.703 133.805 207.375 133.133C208.047 132.461 208.383 131.648 208.383 130.695ZM237.328 143.984C237.328 146.547 236.508 148.602 234.867 150.148C233.242 151.695 231.086 152.469 228.398 152.469H226.055C223.367 152.469 221.203 151.695 219.562 150.148C217.938 148.602 217.125 146.547 217.125 143.984V129.781C217.125 127.219 217.938 125.164 219.562 123.617C221.203 122.055 223.367 121.273 226.055 121.273H228.398C231.086 121.273 233.242 122.055 234.867 123.617C236.508 125.164 237.328 127.219 237.328 129.781V143.984ZM231.82 143.984V129.781C231.82 128.781 231.492 127.953 230.836 127.297C230.18 126.641 229.367 126.312 228.398 126.312H226.055C225.086 126.312 224.266 126.648 223.594 127.32C222.922 127.992 222.586 128.812 222.586 129.781V143.984C222.586 144.938 222.922 145.75 223.594 146.422C224.266 147.094 225.086 147.43 226.055 147.43H228.398C229.367 147.43 230.18 147.102 230.836 146.445C231.492 145.789 231.82 144.969 231.82 143.984ZM248.648 151.531C248.648 151.844 248.484 152 248.156 152H243.586C243.273 152 243.117 151.844 243.117 151.531V122.234C243.117 121.922 243.273 121.766 243.586 121.766H248.156C248.484 121.766 248.648 121.922 248.648 122.234V151.531ZM274.992 151.531C274.992 151.844 274.828 152 274.5 152H270.516L270.094 151.766L260.25 132.453L260.344 151.531C260.344 151.844 260.234 152 260.016 152H255.539C255.227 152 255.07 151.844 255.07 151.531V122.234C255.07 121.922 255.227 121.766 255.539 121.766H259.594L260.016 122L269.812 141.477L269.719 122.234C269.719 121.922 269.844 121.766 270.094 121.766H274.5C274.828 121.766 274.992 121.922 274.992 122.234V151.531ZM296.812 126.312C296.812 126.641 296.648 126.805 296.32 126.805H291.094C290.781 126.805 290.625 126.961 290.625 127.273V151.531C290.625 151.844 290.461 152 290.133 152H285.633C285.305 152 285.141 151.844 285.141 151.531V127.273C285.141 126.961 284.984 126.805 284.672 126.805H279.422C279.109 126.805 278.953 126.641 278.953 126.312V122.234C278.953 121.922 279.109 121.766 279.422 121.766H296.32C296.648 121.766 296.812 121.922 296.812 122.234V126.312ZM329.461 143.164C329.461 145.883 328.656 148.039 327.047 149.633C325.453 151.211 323.281 152 320.531 152H309.727C309.414 152 309.258 151.844 309.258 151.531V122.234C309.258 121.922 309.414 121.766 309.727 121.766H320.531C323.281 121.766 325.453 122.57 327.047 124.18C328.656 125.773 329.461 127.945 329.461 130.695V131.164C329.461 132.383 329.109 133.469 328.406 134.422C327.281 135.938 326.719 136.695 326.719 136.695C326.719 136.602 327.25 137.32 328.312 138.852C329.078 139.977 329.461 141.172 329.461 142.438V143.164ZM324 130.695V130.25C324 129.328 323.656 128.523 322.969 127.836C322.281 127.148 321.469 126.805 320.531 126.805H315.258C314.945 126.805 314.789 126.961 314.789 127.273V133.672C314.789 133.984 314.945 134.141 315.258 134.141H320.531C321.469 134.141 322.281 133.805 322.969 133.133C323.656 132.461 324 131.648 324 130.695ZM324 143.516V142.602C324 141.633 323.672 140.82 323.016 140.164C322.359 139.508 321.531 139.18 320.531 139.18H315.258C314.945 139.18 314.789 139.344 314.789 139.672V146.469C314.789 146.797 314.945 146.961 315.258 146.961H320.531C321.5 146.961 322.32 146.625 322.992 145.953C323.664 145.281 324 144.469 324 143.516ZM352.898 151.531C352.898 151.844 352.734 152 352.406 152H335.461C335.148 152 334.992 151.844 334.992 151.531V122.234C334.992 121.922 335.148 121.766 335.461 121.766H340.031C340.359 121.766 340.523 121.922 340.523 122.234V146.469C340.523 146.797 340.68 146.961 340.992 146.961H352.406C352.734 146.961 352.898 147.117 352.898 147.43V151.531ZM375.516 151.367C375.516 151.305 375.531 151.375 375.562 151.578C375.562 151.859 375.391 152 375.047 152H370.195C369.945 152 369.789 151.891 369.727 151.672L368.273 146.633C368.211 146.43 368.055 146.328 367.805 146.328H360.938C360.672 146.328 360.508 146.43 360.445 146.633L359.016 151.672C358.953 151.891 358.789 152 358.523 152H353.742C353.383 152 353.203 151.859 353.203 151.578C353.25 151.406 353.273 151.336 353.273 151.367L362.18 122.094C362.242 121.875 362.398 121.766 362.648 121.766H366.117C366.367 121.766 366.523 121.875 366.586 122.094L375.516 151.367ZM366.586 140.68L365.016 134.328C364.953 134.141 364.773 133.266 364.477 131.703H364.336C364.211 132.281 364.023 133.156 363.773 134.328L362.133 140.68C362.133 140.711 362.133 140.742 362.133 140.773C362.102 140.805 362.086 140.836 362.086 140.867C362.086 141.148 362.258 141.289 362.602 141.289H366.117C366.461 141.289 366.633 141.148 366.633 140.867C366.633 140.836 366.633 140.805 366.633 140.773C366.602 140.742 366.586 140.711 366.586 140.68ZM398.32 151.531C398.32 151.844 398.156 152 397.828 152H393.844L393.422 151.766L383.578 132.453L383.672 151.531C383.672 151.844 383.562 152 383.344 152H378.867C378.555 152 378.398 151.844 378.398 151.531V122.234C378.398 121.922 378.555 121.766 378.867 121.766H382.922L383.344 122L393.141 141.477L393.047 122.234C393.047 121.922 393.172 121.766 393.422 121.766H397.828C398.156 121.766 398.32 121.922 398.32 122.234V151.531ZM427.008 151.273C427.07 151.398 427.102 151.516 427.102 151.625C427.102 151.875 426.93 152 426.586 152H420.961L420.586 151.766L413.039 139.719C412.914 139.516 412.789 139.414 412.664 139.414C412.477 139.414 412.328 139.484 412.219 139.625L410.32 142.156V151.531C410.32 151.844 410.156 152 409.828 152H405.258C404.945 152 404.789 151.844 404.789 151.531V122.234C404.789 121.922 404.945 121.766 405.258 121.766H409.828C410.156 121.766 410.32 121.922 410.32 122.234V132.898C410.32 133.273 410.461 133.461 410.742 133.461C410.867 133.461 411.008 133.367 411.164 133.18L419.719 121.953L420.094 121.766H425.625C425.969 121.766 426.141 121.891 426.141 122.141C426.141 122.234 426.094 122.367 426 122.539L416.695 134.047C416.633 134.172 416.602 134.25 416.602 134.281C416.602 134.344 416.633 134.445 416.695 134.586L427.008 151.273Z" fill="white"/>
<line x1="26" y1="173.001" x2="594" y2="173.001" stroke="white" stroke-width="5"/>
<path d="M287.875 81.5894C287.875 81.8081 287.766 81.9175 287.547 81.9175H284.062C283.854 81.9175 283.75 82.0216 283.75 82.23V98.4019C283.75 98.6102 283.641 98.7144 283.422 98.7144H280.422C280.203 98.7144 280.094 98.6102 280.094 98.4019V82.23C280.094 82.0216 279.99 81.9175 279.781 81.9175H276.281C276.073 81.9175 275.969 81.8081 275.969 81.5894V78.8706C275.969 78.6623 276.073 78.5581 276.281 78.5581H287.547C287.766 78.5581 287.875 78.6623 287.875 78.8706V81.5894ZM309.297 78.9331L305.078 98.4644C305.036 98.631 304.927 98.7144 304.75 98.7144H302.422C302.255 98.7144 302.146 98.6414 302.094 98.4956L298.875 85.8237L295.672 98.4956C295.63 98.6414 295.521 98.7144 295.344 98.7144H293.016C292.839 98.7144 292.729 98.631 292.688 98.4644L288.469 78.9331C288.469 78.9123 288.469 78.8914 288.469 78.8706C288.448 78.8498 288.438 78.8289 288.438 78.8081C288.438 78.6414 288.557 78.5581 288.797 78.5581H292.047C292.245 78.5581 292.354 78.6414 292.375 78.8081L294.703 91.8394L297.75 78.7144C297.792 78.5685 297.896 78.4956 298.062 78.4956H299.672C299.839 78.4956 299.943 78.5685 299.984 78.7144L303.031 91.8394L305.391 78.8081C305.411 78.6414 305.521 78.5581 305.719 78.5581H308.984C309.214 78.5581 309.328 78.6414 309.328 78.8081C309.328 78.8289 309.328 78.8498 309.328 78.8706C309.307 78.8914 309.297 78.9123 309.297 78.9331ZM315.234 98.4019C315.234 98.6102 315.125 98.7144 314.906 98.7144H311.859C311.651 98.7144 311.547 98.6102 311.547 98.4019V78.8706C311.547 78.6623 311.651 78.5581 311.859 78.5581H314.906C315.125 78.5581 315.234 78.6623 315.234 78.8706V98.4019ZM324.406 81.5894C323.76 81.5894 323.214 81.8133 322.766 82.2612C322.318 82.7091 322.094 83.256 322.094 83.9019C322.094 84.5581 322.438 85.1102 323.125 85.5581C323.354 85.7352 324.25 86.1727 325.812 86.8706C327.583 87.6831 328.849 88.5685 329.609 89.5269C330.422 90.5581 330.828 91.8394 330.828 93.3706C330.828 95.0789 330.281 96.4487 329.188 97.48C328.104 98.5112 326.667 99.0269 324.875 99.0269H323.594C321.802 99.0269 320.417 98.5269 319.438 97.5269C318.458 96.5269 317.969 95.7508 317.969 95.1987C317.969 95.1154 318.031 95.0373 318.156 94.9644L320.938 93.5894C320.99 93.5685 321.047 93.5581 321.109 93.5581C321.193 93.5581 321.396 93.881 321.719 94.5269C322.094 95.2873 322.719 95.6675 323.594 95.6675H324.875C325.5 95.6675 326.042 95.4435 326.5 94.9956C326.958 94.5477 327.188 94.006 327.188 93.3706C327.188 92.6414 326.875 92.0321 326.25 91.5425C325.896 91.2716 325.068 90.8237 323.766 90.1987C321.859 89.2821 320.536 88.4175 319.797 87.605C318.901 86.6258 318.453 85.3914 318.453 83.9019C318.453 82.1935 318.995 80.8237 320.078 79.7925C321.172 78.7508 322.615 78.23 324.406 78.23H324.875C326.333 78.23 327.552 78.5841 328.531 79.2925C329.083 79.6987 329.583 80.2196 330.031 80.855C330.396 81.3862 330.578 81.7716 330.578 82.0112C330.578 82.1154 330.516 82.1987 330.391 82.2612L327.594 83.6362C327.552 83.6571 327.5 83.6675 327.438 83.6675C327.354 83.6675 327.219 83.5112 327.031 83.1987C326.385 82.1258 325.667 81.5894 324.875 81.5894H324.406ZM343.844 81.5894C343.844 81.8081 343.734 81.9175 343.516 81.9175H340.031C339.823 81.9175 339.719 82.0216 339.719 82.23V98.4019C339.719 98.6102 339.609 98.7144 339.391 98.7144H336.391C336.172 98.7144 336.062 98.6102 336.062 98.4019V82.23C336.062 82.0216 335.958 81.9175 335.75 81.9175H332.25C332.042 81.9175 331.938 81.8081 331.938 81.5894V78.8706C331.938 78.6623 332.042 78.5581 332.25 78.5581H343.516C343.734 78.5581 343.844 78.6623 343.844 78.8706V81.5894Z" fill="white"/>
</g>
</g>
<path d="M61.032 220.952C61.032 220.541 60.948 220.159 60.78 219.804C60.6307 219.431 60.416 219.113 60.136 218.852C59.8747 218.591 59.5573 218.385 59.184 218.236C58.8107 218.068 58.4187 217.984 58.008 217.984H54.452C54.2653 217.984 54.172 218.077 54.172 218.264V223.976C54.172 224.163 54.2653 224.256 54.452 224.256H58.008C58.8667 224.256 59.5853 223.967 60.164 223.388C60.7427 222.809 61.032 222.091 61.032 221.232V220.952ZM62.908 233.636C62.9267 233.673 62.936 233.72 62.936 233.776C62.936 233.925 62.8427 234 62.656 234H61.144C60.9947 233.944 60.9107 233.879 60.892 233.804L58.204 226.02C58.1667 225.964 58.092 225.908 57.98 225.852H54.452C54.2653 225.852 54.172 225.945 54.172 226.132V233.72C54.172 233.907 54.0787 234 53.892 234H52.576C52.3893 234 52.296 233.907 52.296 233.72V216.668C52.296 216.481 52.3893 216.388 52.576 216.388H58.008C59.52 216.388 60.7147 216.827 61.592 217.704C62.4693 218.581 62.908 219.757 62.908 221.232V221.54C62.908 222.025 62.7587 222.548 62.46 223.108C62.18 223.649 61.7693 224.153 61.228 224.62C60.9107 224.881 60.64 225.049 60.416 225.124C60.192 225.199 60.08 225.311 60.08 225.46C60.08 225.479 60.08 225.497 60.08 225.516C60.0987 225.516 60.108 225.525 60.108 225.544L62.908 233.636ZM72.2191 228.904C72.2191 228.717 72.1258 228.624 71.9391 228.624H68.2431C67.7764 228.624 67.3844 228.783 67.0671 229.1C66.7498 229.417 66.5911 229.809 66.5911 230.276V230.724C66.5911 231.191 66.7498 231.592 67.0671 231.928C67.4031 232.245 67.7951 232.404 68.2431 232.404H69.3631C70.4831 232.404 71.4258 231.601 72.1911 229.996L72.2191 229.408V228.904ZM74.1231 233.72C74.1231 233.907 74.0298 234 73.8431 234H72.8071C72.6204 234 72.5271 233.907 72.5271 233.72V232.516C72.5271 232.292 72.4524 232.18 72.3031 232.18C72.1538 232.18 71.9484 232.311 71.6871 232.572C71.4444 232.833 71.0991 233.151 70.6511 233.524C70.4644 233.673 70.2498 233.795 70.0071 233.888C69.7644 233.963 69.5498 234 69.3631 234H68.2431C67.1791 234 66.3204 233.692 65.6671 233.076C65.0324 232.46 64.7151 231.676 64.7151 230.724V230.556C64.7151 229.604 65.0324 228.829 65.6671 228.232C66.3204 227.616 67.1791 227.308 68.2431 227.308H71.9391C72.1258 227.308 72.2191 227.215 72.2191 227.028L72.1911 225.908C72.1724 225.068 71.8831 224.377 71.3231 223.836C70.7818 223.276 70.0818 222.996 69.2231 222.996C68.4951 222.996 67.8698 223.239 67.3471 223.724C67.0484 223.985 66.8338 224.209 66.7031 224.396C66.5724 224.583 66.4604 224.676 66.3671 224.676C66.3111 224.676 66.2644 224.667 66.2271 224.648L65.0511 224.032C64.9391 223.976 64.8831 223.911 64.8831 223.836C64.8831 223.612 64.9858 223.36 65.1911 223.08C65.3964 222.8 65.6858 222.539 66.0591 222.296C66.4324 222.035 66.8804 221.82 67.4031 221.652C67.9444 221.484 68.5511 221.4 69.2231 221.4C70.7351 221.4 71.9298 221.811 72.8071 222.632C73.6844 223.453 74.1231 224.545 74.1231 225.908V233.72ZM87.8459 233.72C87.8459 233.907 87.7526 234 87.5659 234H86.2219C86.0353 234 85.9419 233.907 85.9419 233.72V226.188C85.9419 225.796 85.8579 225.423 85.6899 225.068C85.5406 224.695 85.3353 224.377 85.0739 224.116C84.8126 223.836 84.4953 223.621 84.1219 223.472C83.7486 223.304 83.3566 223.22 82.9459 223.22C82.5166 223.22 82.1153 223.304 81.7419 223.472C81.3873 223.621 81.0793 223.827 80.8179 224.088C80.5566 224.349 80.3513 224.667 80.2019 225.04C80.0526 225.395 79.9779 225.777 79.9779 226.188V233.72C79.9779 233.907 79.8846 234 79.6979 234H78.3539C78.1673 234 78.0739 233.907 78.0739 233.72V221.904C78.0739 221.717 78.1673 221.624 78.3539 221.624H79.3899C79.5766 221.624 79.6699 221.717 79.6699 221.904V223.024C79.6699 223.229 79.7446 223.332 79.8939 223.332C79.9873 223.332 80.0993 223.276 80.2299 223.164C80.3606 223.033 80.5286 222.875 80.7339 222.688C81.0513 222.427 81.3686 222.184 81.6859 221.96C82.0219 221.736 82.5259 221.624 83.1979 221.624C83.8513 221.624 84.4579 221.736 85.0179 221.96C85.5779 222.184 86.0633 222.501 86.4739 222.912C86.9033 223.304 87.2393 223.78 87.4819 224.34C87.7246 224.9 87.8459 225.516 87.8459 226.188V233.72ZM98.2276 238.704C98.6943 238.704 99.0863 238.536 99.4036 238.2C99.7396 237.883 99.9076 237.481 99.9076 236.996C99.9076 236.511 99.7396 236.109 99.4036 235.792C99.0863 235.475 98.6943 235.316 98.2276 235.316H94.2796C93.8129 235.316 93.4209 235.475 93.1036 235.792C92.7863 236.109 92.6276 236.511 92.6276 236.996C92.6276 237.5 92.7863 237.911 93.1036 238.228C93.4209 238.545 93.8129 238.704 94.2796 238.704H98.2276ZM98.5916 226.188C98.5916 225.796 98.5076 225.423 98.3396 225.068C98.1903 224.695 97.9849 224.377 97.7236 224.116C97.4623 223.836 97.1449 223.621 96.7716 223.472C96.3983 223.304 96.0063 223.22 95.5956 223.22C95.1663 223.22 94.7649 223.304 94.3916 223.472C94.0369 223.621 93.7289 223.827 93.4676 224.088C93.2063 224.349 93.0009 224.667 92.8516 225.04C92.7023 225.395 92.6276 225.777 92.6276 226.188V226.468C92.6276 226.879 92.7023 227.271 92.8516 227.644C93.0009 227.999 93.2063 228.316 93.4676 228.596C93.7476 228.857 94.0649 229.072 94.4196 229.24C94.7743 229.389 95.1663 229.464 95.5956 229.464C96.0063 229.464 96.3983 229.389 96.7716 229.24C97.1449 229.072 97.4623 228.857 97.7236 228.596C97.9849 228.316 98.1903 227.999 98.3396 227.644C98.5076 227.271 98.5916 226.879 98.5916 226.468V226.188ZM98.2276 233.692C99.2916 233.692 100.15 234 100.804 234.616C101.476 235.251 101.812 236.044 101.812 236.996C101.812 237.481 101.718 237.92 101.532 238.312C101.364 238.723 101.121 239.068 100.804 239.348C100.486 239.647 100.104 239.88 99.6556 240.048C99.2263 240.216 98.7503 240.3 98.2276 240.3H94.2796C93.7756 240.3 93.2996 240.216 92.8516 240.048C92.4223 239.88 92.0489 239.647 91.7316 239.348C91.4329 239.068 91.1903 238.732 91.0036 238.34C90.8356 237.948 90.7516 237.528 90.7516 237.08C90.7516 236.707 90.8076 236.352 90.9196 236.016C91.0503 235.68 91.2276 235.409 91.4516 235.204C91.8063 234.849 92.0863 234.588 92.2916 234.42C92.5156 234.271 92.6276 234.149 92.6276 234.056C92.6276 233.907 92.5343 233.692 92.3476 233.412C92.1609 233.132 92.0676 232.777 92.0676 232.348C92.0676 232.068 92.1049 231.825 92.1796 231.62C92.2543 231.396 92.3289 231.209 92.4036 231.06C92.4969 230.892 92.5809 230.761 92.6556 230.668C92.7303 230.556 92.7676 230.463 92.7676 230.388C92.7676 230.332 92.6463 230.173 92.4036 229.912C92.1609 229.651 91.8063 229.249 91.3396 228.708C91.1903 228.54 91.0503 228.26 90.9196 227.868C90.8076 227.476 90.7516 227.009 90.7516 226.468V226.188C90.7516 225.553 90.8729 224.956 91.1156 224.396C91.3583 223.836 91.6849 223.351 92.0956 222.94C92.5249 222.529 93.0196 222.212 93.5796 221.988C94.1396 221.745 94.7369 221.624 95.3716 221.624C96.0623 221.624 96.5663 221.736 96.8836 221.96C97.4063 222.296 97.7983 222.623 98.0596 222.94C98.3209 223.239 98.5263 223.388 98.6756 223.388C98.8249 223.388 98.8996 223.285 98.8996 223.08V221.904C98.8996 221.717 98.9929 221.624 99.1796 221.624H100.216C100.402 221.624 100.496 221.717 100.496 221.904V226.468C100.496 227.121 100.374 227.728 100.132 228.288C99.8889 228.829 99.5529 229.315 99.1236 229.744C98.6943 230.155 98.1809 230.481 97.5836 230.724C96.9863 230.948 96.3236 231.06 95.5956 231.06C95.4463 231.06 95.2969 231.06 95.1476 231.06C94.9983 231.041 94.8489 231.023 94.6996 231.004C94.0089 231.359 93.6636 231.807 93.6636 232.348C93.6636 232.945 93.9996 233.393 94.6716 233.692H98.2276ZM111.033 225.908C111.033 225.516 110.949 225.143 110.781 224.788C110.632 224.415 110.426 224.097 110.165 223.836C109.904 223.556 109.586 223.341 109.213 223.192C108.84 223.024 108.448 222.94 108.037 222.94C107.608 222.94 107.206 223.024 106.833 223.192C106.478 223.341 106.17 223.547 105.909 223.808C105.648 224.069 105.442 224.387 105.293 224.76C105.144 225.115 105.069 225.497 105.069 225.908V226.3C105.069 226.487 105.162 226.58 105.349 226.58H110.753C110.94 226.58 111.033 226.487 111.033 226.3V225.908ZM112.937 227.616C112.937 227.803 112.844 227.896 112.657 227.896H105.349C105.162 227.896 105.069 227.989 105.069 228.176V229.688C105.069 230.099 105.144 230.491 105.293 230.864C105.442 231.219 105.648 231.536 105.909 231.816C106.189 232.077 106.506 232.292 106.861 232.46C107.216 232.609 107.608 232.684 108.037 232.684C108.728 232.684 109.344 232.432 109.885 231.928C110.184 231.648 110.398 231.424 110.529 231.256C110.678 231.069 110.8 230.976 110.893 230.976C110.949 230.976 110.996 230.985 111.033 231.004L112.209 231.592C112.321 231.629 112.377 231.704 112.377 231.816C112.377 232.04 112.274 232.301 112.069 232.6C111.864 232.88 111.565 233.151 111.173 233.412C110.8 233.655 110.342 233.86 109.801 234.028C109.278 234.196 108.69 234.28 108.037 234.28C106.544 234.28 105.358 233.869 104.481 233.048C103.622 232.208 103.193 231.088 103.193 229.688V225.908C103.193 225.385 103.305 224.853 103.529 224.312C103.753 223.771 104.08 223.276 104.509 222.828C105.442 221.839 106.618 221.344 108.037 221.344C108.709 221.344 109.344 221.475 109.941 221.736C110.538 221.979 111.061 222.315 111.509 222.744C111.957 223.155 112.302 223.64 112.545 224.2C112.806 224.741 112.937 225.311 112.937 225.908V227.616ZM123.474 226.188C123.474 225.796 123.39 225.423 123.222 225.068C123.073 224.695 122.868 224.377 122.606 224.116C122.345 223.836 122.028 223.621 121.654 223.472C121.281 223.304 120.889 223.22 120.478 223.22C120.049 223.22 119.648 223.304 119.274 223.472C118.92 223.621 118.612 223.827 118.35 224.088C118.089 224.349 117.884 224.667 117.734 225.04C117.585 225.395 117.51 225.777 117.51 226.188V229.408C117.51 229.819 117.585 230.211 117.734 230.584C117.884 230.939 118.089 231.256 118.35 231.536C118.63 231.797 118.948 232.012 119.302 232.18C119.657 232.329 120.049 232.404 120.478 232.404C120.889 232.404 121.281 232.329 121.654 232.18C122.028 232.012 122.345 231.797 122.606 231.536C122.868 231.256 123.073 230.939 123.222 230.584C123.39 230.211 123.474 229.819 123.474 229.408V226.188ZM125.378 233.72C125.378 233.907 125.285 234 125.098 234H124.062C123.876 234 123.782 233.907 123.782 233.72V232.516C123.782 232.311 123.708 232.208 123.558 232.208C123.465 232.208 123.353 232.273 123.222 232.404C123.092 232.535 122.914 232.703 122.69 232.908C122.373 233.188 122.046 233.44 121.71 233.664C121.374 233.888 120.87 234 120.198 234C119.545 234 118.938 233.888 118.378 233.664C117.837 233.44 117.361 233.132 116.95 232.74C116.54 232.329 116.213 231.844 115.97 231.284C115.746 230.705 115.634 230.08 115.634 229.408V226.188C115.634 225.535 115.746 224.928 115.97 224.368C116.194 223.808 116.502 223.332 116.894 222.94C117.286 222.529 117.744 222.212 118.266 221.988C118.808 221.745 119.386 221.624 120.002 221.624C120.338 221.624 120.628 221.661 120.87 221.736C121.132 221.792 121.337 221.867 121.486 221.96C121.99 222.296 122.373 222.613 122.634 222.912C122.896 223.211 123.101 223.36 123.25 223.36C123.4 223.36 123.474 223.257 123.474 223.052V216.668C123.474 216.481 123.568 216.388 123.754 216.388H125.098C125.285 216.388 125.378 216.481 125.378 216.668V233.72ZM145.131 233.804C145.075 233.935 144.982 234 144.851 234H143.843C143.713 234 143.619 233.935 143.563 233.804C143.227 232.684 142.835 231.34 142.387 229.772C141.939 228.204 141.417 226.403 140.819 224.368H140.707C140.222 225.955 139.821 227.345 139.503 228.54C139.186 229.735 138.915 230.743 138.691 231.564C138.486 232.367 138.299 232.973 138.131 233.384C137.982 233.795 137.823 234 137.655 234H136.647C136.479 234 136.386 233.935 136.367 233.804L132.755 221.988C132.755 221.951 132.746 221.932 132.727 221.932C132.727 221.913 132.727 221.895 132.727 221.876C132.727 221.708 132.83 221.624 133.035 221.624H134.491C134.659 221.624 134.809 221.829 134.939 222.24C135.089 222.632 135.257 223.229 135.443 224.032C135.63 224.835 135.854 225.824 136.115 227C136.377 228.176 136.713 229.548 137.123 231.116H137.179C137.59 229.548 137.935 228.176 138.215 227C138.514 225.805 138.766 224.816 138.971 224.032C139.177 223.229 139.354 222.632 139.503 222.24C139.671 221.829 139.83 221.624 139.979 221.624H141.547C141.715 221.624 141.874 221.829 142.023 222.24C142.173 222.632 142.341 223.229 142.527 224.032C142.733 224.816 142.975 225.805 143.255 227C143.535 228.176 143.89 229.548 144.319 231.116H144.375C144.786 229.548 145.122 228.176 145.383 227C145.645 225.805 145.869 224.816 146.055 224.032C146.242 223.229 146.401 222.632 146.531 222.24C146.681 221.829 146.839 221.624 147.007 221.624H148.463C148.669 221.624 148.771 221.708 148.771 221.876C148.771 221.895 148.762 221.913 148.743 221.932C148.743 221.932 148.743 221.951 148.743 221.988L145.131 233.804ZM158.392 225.908C158.392 225.516 158.308 225.143 158.14 224.788C157.991 224.415 157.786 224.097 157.524 223.836C157.263 223.556 156.946 223.341 156.572 223.192C156.199 223.024 155.807 222.94 155.396 222.94C154.967 222.94 154.566 223.024 154.192 223.192C153.838 223.341 153.53 223.547 153.268 223.808C153.007 224.069 152.802 224.387 152.652 224.76C152.503 225.115 152.428 225.497 152.428 225.908V226.3C152.428 226.487 152.522 226.58 152.708 226.58H158.112C158.299 226.58 158.392 226.487 158.392 226.3V225.908ZM160.296 227.616C160.296 227.803 160.203 227.896 160.016 227.896H152.708C152.522 227.896 152.428 227.989 152.428 228.176V229.688C152.428 230.099 152.503 230.491 152.652 230.864C152.802 231.219 153.007 231.536 153.268 231.816C153.548 232.077 153.866 232.292 154.22 232.46C154.575 232.609 154.967 232.684 155.396 232.684C156.087 232.684 156.703 232.432 157.244 231.928C157.543 231.648 157.758 231.424 157.888 231.256C158.038 231.069 158.159 230.976 158.252 230.976C158.308 230.976 158.355 230.985 158.392 231.004L159.568 231.592C159.68 231.629 159.736 231.704 159.736 231.816C159.736 232.04 159.634 232.301 159.428 232.6C159.223 232.88 158.924 233.151 158.532 233.412C158.159 233.655 157.702 233.86 157.16 234.028C156.638 234.196 156.05 234.28 155.396 234.28C153.903 234.28 152.718 233.869 151.84 233.048C150.982 232.208 150.552 231.088 150.552 229.688V225.908C150.552 225.385 150.664 224.853 150.888 224.312C151.112 223.771 151.439 223.276 151.868 222.828C152.802 221.839 153.978 221.344 155.396 221.344C156.068 221.344 156.703 221.475 157.3 221.736C157.898 221.979 158.42 222.315 158.868 222.744C159.316 223.155 159.662 223.64 159.904 224.2C160.166 224.741 160.296 225.311 160.296 225.908V227.616ZM169.727 228.904C169.727 228.717 169.634 228.624 169.447 228.624H165.751C165.284 228.624 164.892 228.783 164.575 229.1C164.258 229.417 164.099 229.809 164.099 230.276V230.724C164.099 231.191 164.258 231.592 164.575 231.928C164.911 232.245 165.303 232.404 165.751 232.404H166.871C167.991 232.404 168.934 231.601 169.699 229.996L169.727 229.408V228.904ZM171.631 233.72C171.631 233.907 171.538 234 171.351 234H170.315C170.128 234 170.035 233.907 170.035 233.72V232.516C170.035 232.292 169.96 232.18 169.811 232.18C169.662 232.18 169.456 232.311 169.195 232.572C168.952 232.833 168.607 233.151 168.159 233.524C167.972 233.673 167.758 233.795 167.515 233.888C167.272 233.963 167.058 234 166.871 234H165.751C164.687 234 163.828 233.692 163.175 233.076C162.54 232.46 162.223 231.676 162.223 230.724V230.556C162.223 229.604 162.54 228.829 163.175 228.232C163.828 227.616 164.687 227.308 165.751 227.308H169.447C169.634 227.308 169.727 227.215 169.727 227.028L169.699 225.908C169.68 225.068 169.391 224.377 168.831 223.836C168.29 223.276 167.59 222.996 166.731 222.996C166.003 222.996 165.378 223.239 164.855 223.724C164.556 223.985 164.342 224.209 164.211 224.396C164.08 224.583 163.968 224.676 163.875 224.676C163.819 224.676 163.772 224.667 163.735 224.648L162.559 224.032C162.447 223.976 162.391 223.911 162.391 223.836C162.391 223.612 162.494 223.36 162.699 223.08C162.904 222.8 163.194 222.539 163.567 222.296C163.94 222.035 164.388 221.82 164.911 221.652C165.452 221.484 166.059 221.4 166.731 221.4C168.243 221.4 169.438 221.811 170.315 222.632C171.192 223.453 171.631 224.545 171.631 225.908V233.72ZM182.903 226.188C182.903 225.796 182.819 225.423 182.651 225.068C182.502 224.695 182.296 224.377 182.035 224.116C181.774 223.836 181.456 223.621 181.083 223.472C180.71 223.304 180.318 223.22 179.907 223.22C179.478 223.22 179.076 223.304 178.703 223.472C178.348 223.621 178.04 223.827 177.779 224.088C177.518 224.349 177.312 224.667 177.163 225.04C177.014 225.395 176.939 225.777 176.939 226.188V229.408C176.939 229.819 177.014 230.211 177.163 230.584C177.312 230.939 177.518 231.256 177.779 231.536C178.059 231.797 178.376 232.012 178.731 232.18C179.086 232.329 179.478 232.404 179.907 232.404C180.318 232.404 180.71 232.329 181.083 232.18C181.456 232.012 181.774 231.797 182.035 231.536C182.296 231.256 182.502 230.939 182.651 230.584C182.819 230.211 182.903 229.819 182.903 229.408V226.188ZM184.807 229.408C184.807 230.659 184.359 231.76 183.463 232.712C182.642 233.571 181.643 234 180.467 234C180.112 234 179.795 233.963 179.515 233.888C179.254 233.813 179.048 233.729 178.899 233.636C178.414 233.319 178.031 233.011 177.751 232.712C177.49 232.413 177.284 232.264 177.135 232.264C177.004 232.264 176.939 232.376 176.939 232.6V240.02C176.939 240.207 176.846 240.3 176.659 240.3H175.315C175.128 240.3 175.035 240.207 175.035 240.02V221.904C175.035 221.717 175.128 221.624 175.315 221.624H176.351C176.538 221.624 176.631 221.717 176.631 221.904V223.024C176.631 223.229 176.706 223.332 176.855 223.332C176.948 223.332 177.06 223.276 177.191 223.164C177.322 223.033 177.49 222.875 177.695 222.688C178.012 222.427 178.33 222.184 178.647 221.96C178.983 221.736 179.487 221.624 180.159 221.624C180.812 221.624 181.419 221.736 181.979 221.96C182.539 222.184 183.024 222.501 183.435 222.912C183.864 223.304 184.2 223.78 184.443 224.34C184.686 224.9 184.807 225.516 184.807 226.188V229.408ZM195.334 225.908C195.334 225.516 195.25 225.143 195.082 224.788C194.932 224.415 194.727 224.097 194.466 223.836C194.204 223.556 193.887 223.341 193.514 223.192C193.14 223.024 192.748 222.94 192.338 222.94C191.908 222.94 191.507 223.024 191.134 223.192C190.779 223.341 190.471 223.547 190.21 223.808C189.948 224.069 189.743 224.387 189.594 224.76C189.444 225.115 189.37 225.497 189.37 225.908V229.688C189.37 230.099 189.444 230.491 189.594 230.864C189.743 231.219 189.948 231.536 190.21 231.816C190.49 232.077 190.807 232.292 191.162 232.46C191.516 232.609 191.908 232.684 192.338 232.684C192.748 232.684 193.14 232.609 193.514 232.46C193.887 232.292 194.204 232.077 194.466 231.816C194.727 231.536 194.932 231.219 195.082 230.864C195.25 230.491 195.334 230.099 195.334 229.688V225.908ZM197.238 229.688C197.238 231.069 196.79 232.18 195.894 233.02C195.016 233.86 193.831 234.28 192.338 234.28C190.844 234.28 189.659 233.869 188.782 233.048C187.923 232.208 187.494 231.088 187.494 229.688V225.908C187.494 224.508 187.923 223.397 188.782 222.576C189.659 221.755 190.844 221.344 192.338 221.344C193.084 221.344 193.756 221.456 194.354 221.68C194.951 221.904 195.464 222.221 195.894 222.632C196.323 223.024 196.65 223.5 196.874 224.06C197.116 224.62 197.238 225.236 197.238 225.908V229.688ZM210.1 233.72C210.1 233.907 210.007 234 209.82 234H208.476C208.289 234 208.196 233.907 208.196 233.72V226.188C208.196 225.796 208.112 225.423 207.944 225.068C207.795 224.695 207.589 224.377 207.328 224.116C207.067 223.836 206.749 223.621 206.376 223.472C206.003 223.304 205.611 223.22 205.2 223.22C204.771 223.22 204.369 223.304 203.996 223.472C203.641 223.621 203.333 223.827 203.072 224.088C202.811 224.349 202.605 224.667 202.456 225.04C202.307 225.395 202.232 225.777 202.232 226.188V233.72C202.232 233.907 202.139 234 201.952 234H200.608C200.421 234 200.328 233.907 200.328 233.72V221.904C200.328 221.717 200.421 221.624 200.608 221.624H201.644C201.831 221.624 201.924 221.717 201.924 221.904V223.024C201.924 223.229 201.999 223.332 202.148 223.332C202.241 223.332 202.353 223.276 202.484 223.164C202.615 223.033 202.783 222.875 202.988 222.688C203.305 222.427 203.623 222.184 203.94 221.96C204.276 221.736 204.78 221.624 205.452 221.624C206.105 221.624 206.712 221.736 207.272 221.96C207.832 222.184 208.317 222.501 208.728 222.912C209.157 223.304 209.493 223.78 209.736 224.34C209.979 224.9 210.1 225.516 210.1 226.188V233.72ZM217.202 222.828C216.38 222.828 215.755 222.996 215.326 223.332C214.915 223.649 214.71 224.097 214.71 224.676C214.71 225.255 214.934 225.703 215.382 226.02C215.83 226.319 216.539 226.571 217.51 226.776C218.312 226.944 219.022 227.112 219.638 227.28C220.272 227.448 220.795 227.653 221.206 227.896C221.635 228.139 221.962 228.447 222.186 228.82C222.41 229.193 222.522 229.669 222.522 230.248C222.522 231.443 222.12 232.413 221.318 233.16C220.515 233.907 219.432 234.28 218.07 234.28H217.202C216.548 234.28 215.951 234.196 215.41 234.028C214.887 233.86 214.439 233.655 214.066 233.412C213.692 233.151 213.403 232.88 213.198 232.6C212.992 232.32 212.89 232.068 212.89 231.844C212.89 231.769 212.955 231.704 213.086 231.648L214.178 231.116C214.215 231.097 214.262 231.088 214.318 231.088C214.374 231.088 214.448 231.135 214.542 231.228C214.728 231.433 214.906 231.629 215.074 231.816C215.242 232.003 215.428 232.171 215.634 232.32C215.839 232.469 216.063 232.591 216.306 232.684C216.567 232.759 216.866 232.796 217.202 232.796H218.07C218.854 232.796 219.479 232.6 219.946 232.208C220.412 231.816 220.646 231.331 220.646 230.752C220.646 229.763 219.731 229.081 217.902 228.708C217.08 228.54 216.362 228.381 215.746 228.232C215.13 228.083 214.607 227.887 214.178 227.644C213.748 227.401 213.422 227.093 213.198 226.72C212.992 226.347 212.89 225.852 212.89 225.236C212.89 224.079 213.282 223.145 214.066 222.436C214.85 221.708 215.895 221.344 217.202 221.344H218.07C218.704 221.344 219.283 221.428 219.806 221.596C220.328 221.764 220.776 221.969 221.15 222.212C221.542 222.455 221.84 222.716 222.046 222.996C222.251 223.276 222.354 223.519 222.354 223.724C222.354 223.799 222.288 223.864 222.158 223.92L221.094 224.452C221.056 224.471 221.019 224.48 220.982 224.48C220.926 224.48 220.851 224.433 220.758 224.34C220.366 223.911 219.974 223.556 219.582 223.276C219.208 222.977 218.704 222.828 218.07 222.828H217.202ZM235.97 238.928C235.97 239.115 235.867 239.208 235.662 239.208C235.177 239.208 234.645 239.059 234.066 238.76C233.506 238.461 233.011 238.069 232.582 237.584C231.835 236.725 231.462 235.643 231.462 234.336V218.32C231.462 217.013 231.835 215.931 232.582 215.072C232.993 214.587 233.487 214.204 234.066 213.924C234.645 213.644 235.177 213.504 235.662 213.504C235.867 213.504 235.97 213.597 235.97 213.784V214.876C235.97 215.007 235.895 215.1 235.746 215.156C235.317 215.361 234.953 215.539 234.654 215.688C234.355 215.837 234.131 216.005 233.982 216.192C233.571 216.771 233.366 217.387 233.366 218.04V234.644C233.366 235.297 233.571 235.913 233.982 236.492C234.131 236.697 234.355 236.875 234.654 237.024C234.971 237.173 235.335 237.351 235.746 237.556C235.895 237.612 235.97 237.705 235.97 237.836V238.928ZM248.053 225.908C248.053 225.516 247.969 225.143 247.801 224.788C247.651 224.415 247.446 224.097 247.185 223.836C246.923 223.556 246.606 223.341 246.233 223.192C245.859 223.024 245.467 222.94 245.057 222.94C244.627 222.94 244.226 223.024 243.853 223.192C243.498 223.341 243.19 223.547 242.929 223.808C242.667 224.069 242.462 224.387 242.313 224.76C242.163 225.115 242.089 225.497 242.089 225.908V226.3C242.089 226.487 242.182 226.58 242.369 226.58H247.773C247.959 226.58 248.053 226.487 248.053 226.3V225.908ZM249.957 227.616C249.957 227.803 249.863 227.896 249.677 227.896H242.369C242.182 227.896 242.089 227.989 242.089 228.176V229.688C242.089 230.099 242.163 230.491 242.313 230.864C242.462 231.219 242.667 231.536 242.929 231.816C243.209 232.077 243.526 232.292 243.881 232.46C244.235 232.609 244.627 232.684 245.057 232.684C245.747 232.684 246.363 232.432 246.905 231.928C247.203 231.648 247.418 231.424 247.549 231.256C247.698 231.069 247.819 230.976 247.913 230.976C247.969 230.976 248.015 230.985 248.053 231.004L249.229 231.592C249.341 231.629 249.397 231.704 249.397 231.816C249.397 232.04 249.294 232.301 249.089 232.6C248.883 232.88 248.585 233.151 248.193 233.412C247.819 233.655 247.362 233.86 246.821 234.028C246.298 234.196 245.71 234.28 245.057 234.28C243.563 234.28 242.378 233.869 241.501 233.048C240.642 232.208 240.213 231.088 240.213 229.688V225.908C240.213 225.385 240.325 224.853 240.549 224.312C240.773 223.771 241.099 223.276 241.529 222.828C242.462 221.839 243.638 221.344 245.057 221.344C245.729 221.344 246.363 221.475 246.961 221.736C247.558 221.979 248.081 222.315 248.529 222.744C248.977 223.155 249.322 223.64 249.565 224.2C249.826 224.741 249.957 225.311 249.957 225.908V227.616ZM261.509 233.58C261.546 233.636 261.565 233.701 261.565 233.776C261.565 233.925 261.471 234 261.285 234H259.745L259.493 233.86L256.693 229.324C256.637 229.231 256.562 229.184 256.469 229.184C256.357 229.184 256.282 229.231 256.245 229.324L253.417 233.86L253.193 234H251.625C251.419 234 251.317 233.925 251.317 233.776C251.317 233.739 251.345 233.673 251.401 233.58L255.097 227.896V227.588L251.457 222.044C251.401 221.988 251.373 221.923 251.373 221.848C251.373 221.699 251.475 221.624 251.681 221.624H253.193L253.417 221.764L256.245 226.272C256.301 226.365 256.385 226.412 256.497 226.412C256.59 226.412 256.665 226.365 256.721 226.272L259.521 221.764L259.745 221.624H261.257C261.443 221.624 261.537 221.699 261.537 221.848C261.537 221.923 261.518 221.988 261.481 222.044L257.841 227.616V227.896L261.509 233.58ZM272.525 231.592C272.637 231.629 272.693 231.704 272.693 231.816C272.693 232.04 272.591 232.301 272.385 232.6C272.18 232.88 271.881 233.151 271.489 233.412C271.116 233.655 270.659 233.86 270.117 234.028C269.595 234.196 269.007 234.28 268.353 234.28C266.86 234.28 265.675 233.869 264.797 233.048C263.939 232.208 263.509 231.088 263.509 229.688V225.908C263.509 224.508 263.939 223.397 264.797 222.576C265.675 221.755 266.86 221.344 268.353 221.344C269.007 221.344 269.595 221.428 270.117 221.596C270.659 221.764 271.116 221.969 271.489 222.212C271.881 222.455 272.18 222.716 272.385 222.996C272.609 223.276 272.721 223.528 272.721 223.752C272.721 223.845 272.656 223.92 272.525 223.976L271.349 224.564C271.312 224.583 271.275 224.592 271.237 224.592C271.163 224.592 271.088 224.555 271.013 224.48C270.808 224.293 270.612 224.107 270.425 223.92C270.239 223.733 270.043 223.565 269.837 223.416C269.632 223.267 269.408 223.155 269.165 223.08C268.941 222.987 268.671 222.94 268.353 222.94C267.924 222.94 267.523 223.024 267.149 223.192C266.795 223.341 266.487 223.547 266.225 223.808C265.964 224.069 265.759 224.387 265.609 224.76C265.46 225.115 265.385 225.497 265.385 225.908V229.688C265.385 230.099 265.46 230.491 265.609 230.864C265.759 231.219 265.964 231.536 266.225 231.816C266.505 232.077 266.823 232.292 267.177 232.46C267.532 232.609 267.924 232.684 268.353 232.684C269.044 232.684 269.66 232.432 270.201 231.928C270.5 231.648 270.715 231.424 270.845 231.256C270.995 231.069 271.116 230.976 271.209 230.976C271.265 230.976 271.312 230.985 271.349 231.004L272.525 231.592ZM277.345 233.72C277.345 233.907 277.252 234 277.065 234H275.721C275.534 234 275.441 233.907 275.441 233.72V216.668C275.441 216.481 275.534 216.388 275.721 216.388H277.065C277.252 216.388 277.345 216.481 277.345 216.668V233.72ZM290.757 233.72C290.757 233.907 290.663 234 290.477 234H289.441C289.254 234 289.161 233.907 289.161 233.72V232.516C289.161 232.311 289.086 232.208 288.937 232.208C288.806 232.208 288.666 232.301 288.517 232.488C288.367 232.675 288.162 232.899 287.901 233.16C287.303 233.72 286.529 234 285.577 234C284.942 234 284.345 233.888 283.785 233.664C283.225 233.44 282.739 233.132 282.329 232.74C281.918 232.329 281.591 231.844 281.349 231.284C281.125 230.705 281.013 230.08 281.013 229.408V221.904C281.013 221.717 281.106 221.624 281.293 221.624H282.609C282.795 221.624 282.889 221.717 282.889 221.904V229.408C282.889 229.819 282.963 230.211 283.113 230.584C283.281 230.939 283.495 231.256 283.757 231.536C284.018 231.797 284.326 232.012 284.681 232.18C285.054 232.329 285.446 232.404 285.857 232.404C286.286 232.404 286.687 232.329 287.061 232.18C287.434 232.012 287.751 231.797 288.013 231.536C288.293 231.256 288.507 230.939 288.657 230.584C288.806 230.211 288.881 229.819 288.881 229.408V221.904C288.881 221.717 288.974 221.624 289.161 221.624H290.477C290.663 221.624 290.757 221.717 290.757 221.904V233.72ZM301.646 226.188C301.646 225.796 301.562 225.423 301.394 225.068C301.245 224.695 301.04 224.377 300.778 224.116C300.517 223.836 300.2 223.621 299.826 223.472C299.453 223.304 299.061 223.22 298.65 223.22C298.221 223.22 297.82 223.304 297.446 223.472C297.092 223.621 296.784 223.827 296.522 224.088C296.261 224.349 296.056 224.667 295.906 225.04C295.757 225.395 295.682 225.777 295.682 226.188V229.408C295.682 229.819 295.757 230.211 295.906 230.584C296.056 230.939 296.261 231.256 296.522 231.536C296.802 231.797 297.12 232.012 297.474 232.18C297.829 232.329 298.221 232.404 298.65 232.404C299.061 232.404 299.453 232.329 299.826 232.18C300.2 232.012 300.517 231.797 300.778 231.536C301.04 231.256 301.245 230.939 301.394 230.584C301.562 230.211 301.646 229.819 301.646 229.408V226.188ZM303.55 233.72C303.55 233.907 303.457 234 303.27 234H302.234C302.048 234 301.954 233.907 301.954 233.72V232.516C301.954 232.311 301.88 232.208 301.73 232.208C301.637 232.208 301.525 232.273 301.394 232.404C301.264 232.535 301.086 232.703 300.862 232.908C300.545 233.188 300.218 233.44 299.882 233.664C299.546 233.888 299.042 234 298.37 234C297.717 234 297.11 233.888 296.55 233.664C296.009 233.44 295.533 233.132 295.122 232.74C294.712 232.329 294.385 231.844 294.142 231.284C293.918 230.705 293.806 230.08 293.806 229.408V226.188C293.806 225.535 293.918 224.928 294.142 224.368C294.366 223.808 294.674 223.332 295.066 222.94C295.458 222.529 295.916 222.212 296.438 221.988C296.98 221.745 297.558 221.624 298.174 221.624C298.51 221.624 298.8 221.661 299.042 221.736C299.304 221.792 299.509 221.867 299.658 221.96C300.162 222.296 300.545 222.613 300.806 222.912C301.068 223.211 301.273 223.36 301.422 223.36C301.572 223.36 301.646 223.257 301.646 223.052V216.668C301.646 216.481 301.74 216.388 301.926 216.388H303.27C303.457 216.388 303.55 216.481 303.55 216.668V233.72ZM309.392 233.72C309.392 233.907 309.299 234 309.112 234H307.768C307.581 234 307.488 233.907 307.488 233.72V221.904C307.488 221.717 307.581 221.624 307.768 221.624H309.112C309.299 221.624 309.392 221.717 309.392 221.904V233.72ZM309.672 217.312C309.672 217.648 309.551 217.947 309.308 218.208C309.065 218.451 308.767 218.572 308.412 218.572C308.076 218.572 307.787 218.46 307.544 218.236C307.32 217.993 307.208 217.685 307.208 217.312C307.208 216.976 307.329 216.687 307.572 216.444C307.815 216.201 308.095 216.08 308.412 216.08C308.785 216.08 309.084 216.201 309.308 216.444C309.551 216.668 309.672 216.957 309.672 217.312ZM323.112 233.72C323.112 233.907 323.018 234 322.832 234H321.488C321.301 234 321.208 233.907 321.208 233.72V226.188C321.208 225.796 321.124 225.423 320.956 225.068C320.806 224.695 320.601 224.377 320.34 224.116C320.078 223.836 319.761 223.621 319.388 223.472C319.014 223.304 318.622 223.22 318.212 223.22C317.782 223.22 317.381 223.304 317.008 223.472C316.653 223.621 316.345 223.827 316.084 224.088C315.822 224.349 315.617 224.667 315.468 225.04C315.318 225.395 315.244 225.777 315.244 226.188V233.72C315.244 233.907 315.15 234 314.964 234H313.62C313.433 234 313.34 233.907 313.34 233.72V221.904C313.34 221.717 313.433 221.624 313.62 221.624H314.656C314.842 221.624 314.936 221.717 314.936 221.904V223.024C314.936 223.229 315.01 223.332 315.16 223.332C315.253 223.332 315.365 223.276 315.496 223.164C315.626 223.033 315.794 222.875 316 222.688C316.317 222.427 316.634 222.184 316.952 221.96C317.288 221.736 317.792 221.624 318.464 221.624C319.117 221.624 319.724 221.736 320.284 221.96C320.844 222.184 321.329 222.501 321.74 222.912C322.169 223.304 322.505 223.78 322.748 224.34C322.99 224.9 323.112 225.516 323.112 226.188V233.72ZM333.493 238.704C333.96 238.704 334.352 238.536 334.669 238.2C335.005 237.883 335.173 237.481 335.173 236.996C335.173 236.511 335.005 236.109 334.669 235.792C334.352 235.475 333.96 235.316 333.493 235.316H329.545C329.079 235.316 328.687 235.475 328.369 235.792C328.052 236.109 327.893 236.511 327.893 236.996C327.893 237.5 328.052 237.911 328.369 238.228C328.687 238.545 329.079 238.704 329.545 238.704H333.493ZM333.857 226.188C333.857 225.796 333.773 225.423 333.605 225.068C333.456 224.695 333.251 224.377 332.989 224.116C332.728 223.836 332.411 223.621 332.037 223.472C331.664 223.304 331.272 223.22 330.861 223.22C330.432 223.22 330.031 223.304 329.657 223.472C329.303 223.621 328.995 223.827 328.733 224.088C328.472 224.349 328.267 224.667 328.117 225.04C327.968 225.395 327.893 225.777 327.893 226.188V226.468C327.893 226.879 327.968 227.271 328.117 227.644C328.267 227.999 328.472 228.316 328.733 228.596C329.013 228.857 329.331 229.072 329.685 229.24C330.04 229.389 330.432 229.464 330.861 229.464C331.272 229.464 331.664 229.389 332.037 229.24C332.411 229.072 332.728 228.857 332.989 228.596C333.251 228.316 333.456 227.999 333.605 227.644C333.773 227.271 333.857 226.879 333.857 226.468V226.188ZM333.493 233.692C334.557 233.692 335.416 234 336.069 234.616C336.741 235.251 337.077 236.044 337.077 236.996C337.077 237.481 336.984 237.92 336.797 238.312C336.629 238.723 336.387 239.068 336.069 239.348C335.752 239.647 335.369 239.88 334.921 240.048C334.492 240.216 334.016 240.3 333.493 240.3H329.545C329.041 240.3 328.565 240.216 328.117 240.048C327.688 239.88 327.315 239.647 326.997 239.348C326.699 239.068 326.456 238.732 326.269 238.34C326.101 237.948 326.017 237.528 326.017 237.08C326.017 236.707 326.073 236.352 326.185 236.016C326.316 235.68 326.493 235.409 326.717 235.204C327.072 234.849 327.352 234.588 327.557 234.42C327.781 234.271 327.893 234.149 327.893 234.056C327.893 233.907 327.8 233.692 327.613 233.412C327.427 233.132 327.333 232.777 327.333 232.348C327.333 232.068 327.371 231.825 327.445 231.62C327.52 231.396 327.595 231.209 327.669 231.06C327.763 230.892 327.847 230.761 327.921 230.668C327.996 230.556 328.033 230.463 328.033 230.388C328.033 230.332 327.912 230.173 327.669 229.912C327.427 229.651 327.072 229.249 326.605 228.708C326.456 228.54 326.316 228.26 326.185 227.868C326.073 227.476 326.017 227.009 326.017 226.468V226.188C326.017 225.553 326.139 224.956 326.381 224.396C326.624 223.836 326.951 223.351 327.361 222.94C327.791 222.529 328.285 222.212 328.845 221.988C329.405 221.745 330.003 221.624 330.637 221.624C331.328 221.624 331.832 221.736 332.149 221.96C332.672 222.296 333.064 222.623 333.325 222.94C333.587 223.239 333.792 223.388 333.941 223.388C334.091 223.388 334.165 223.285 334.165 223.08V221.904C334.165 221.717 334.259 221.624 334.445 221.624H335.481C335.668 221.624 335.761 221.717 335.761 221.904V226.468C335.761 227.121 335.64 227.728 335.397 228.288C335.155 228.829 334.819 229.315 334.389 229.744C333.96 230.155 333.447 230.481 332.849 230.724C332.252 230.948 331.589 231.06 330.861 231.06C330.712 231.06 330.563 231.06 330.413 231.06C330.264 231.041 330.115 231.023 329.965 231.004C329.275 231.359 328.929 231.807 328.929 232.348C328.929 232.945 329.265 233.393 329.937 233.692H333.493ZM353.173 228.82C353.173 228.409 353.089 228.027 352.921 227.672C352.771 227.299 352.557 226.981 352.277 226.72C352.015 226.459 351.698 226.253 351.325 226.104C350.951 225.936 350.559 225.852 350.149 225.852H346.593C346.406 225.852 346.313 225.945 346.313 226.132V232.124C346.313 232.311 346.406 232.404 346.593 232.404H350.149C350.578 232.404 350.97 232.329 351.325 232.18C351.698 232.012 352.015 231.797 352.277 231.536C352.557 231.275 352.771 230.967 352.921 230.612C353.089 230.239 353.173 229.837 353.173 229.408V228.82ZM353.173 220.952C353.173 220.541 353.089 220.159 352.921 219.804C352.771 219.431 352.557 219.113 352.277 218.852C352.015 218.591 351.698 218.385 351.325 218.236C350.951 218.068 350.559 217.984 350.149 217.984H346.593C346.406 217.984 346.313 218.077 346.313 218.264V223.976C346.313 224.163 346.406 224.256 346.593 224.256H350.149C351.007 224.256 351.726 223.967 352.305 223.388C352.883 222.809 353.173 222.091 353.173 221.232V220.952ZM355.049 229.156C355.049 230.649 354.61 231.835 353.733 232.712C352.855 233.571 351.661 234 350.149 234H344.717C344.53 234 344.437 233.907 344.437 233.72V216.668C344.437 216.481 344.53 216.388 344.717 216.388H350.149C351.661 216.388 352.855 216.827 353.733 217.704C354.61 218.581 355.049 219.757 355.049 221.232V221.54C355.049 221.876 354.974 222.249 354.825 222.66C354.675 223.052 354.442 223.453 354.125 223.864C353.826 224.237 353.518 224.499 353.201 224.648C352.902 224.797 352.753 224.928 352.753 225.04C352.753 225.115 352.771 225.171 352.809 225.208C352.846 225.227 352.883 225.255 352.921 225.292C353.238 225.535 353.527 225.768 353.789 225.992C354.05 226.216 354.274 226.468 354.461 226.748C354.647 227.009 354.787 227.299 354.881 227.616C354.993 227.933 355.049 228.307 355.049 228.736V229.156ZM360.634 233.72C360.634 233.907 360.541 234 360.354 234H359.01C358.824 234 358.73 233.907 358.73 233.72V216.668C358.73 216.481 358.824 216.388 359.01 216.388H360.354C360.541 216.388 360.634 216.481 360.634 216.668V233.72ZM370.95 228.904C370.95 228.717 370.856 228.624 370.67 228.624H366.974C366.507 228.624 366.115 228.783 365.798 229.1C365.48 229.417 365.322 229.809 365.322 230.276V230.724C365.322 231.191 365.48 231.592 365.798 231.928C366.134 232.245 366.526 232.404 366.974 232.404H368.094C369.214 232.404 370.156 231.601 370.922 229.996L370.95 229.408V228.904ZM372.854 233.72C372.854 233.907 372.76 234 372.574 234H371.538C371.351 234 371.258 233.907 371.258 233.72V232.516C371.258 232.292 371.183 232.18 371.034 232.18C370.884 232.18 370.679 232.311 370.418 232.572C370.175 232.833 369.83 233.151 369.382 233.524C369.195 233.673 368.98 233.795 368.738 233.888C368.495 233.963 368.28 234 368.094 234H366.974C365.91 234 365.051 233.692 364.398 233.076C363.763 232.46 363.446 231.676 363.446 230.724V230.556C363.446 229.604 363.763 228.829 364.398 228.232C365.051 227.616 365.91 227.308 366.974 227.308H370.67C370.856 227.308 370.95 227.215 370.95 227.028L370.922 225.908C370.903 225.068 370.614 224.377 370.054 223.836C369.512 223.276 368.812 222.996 367.954 222.996C367.226 222.996 366.6 223.239 366.078 223.724C365.779 223.985 365.564 224.209 365.434 224.396C365.303 224.583 365.191 224.676 365.098 224.676C365.042 224.676 364.995 224.667 364.958 224.648L363.782 224.032C363.67 223.976 363.614 223.911 363.614 223.836C363.614 223.612 363.716 223.36 363.922 223.08C364.127 222.8 364.416 222.539 364.79 222.296C365.163 222.035 365.611 221.82 366.134 221.652C366.675 221.484 367.282 221.4 367.954 221.4C369.466 221.4 370.66 221.811 371.538 222.632C372.415 223.453 372.854 224.545 372.854 225.908V233.72ZM379.952 222.828C379.13 222.828 378.505 222.996 378.076 223.332C377.665 223.649 377.46 224.097 377.46 224.676C377.46 225.255 377.684 225.703 378.132 226.02C378.58 226.319 379.289 226.571 380.26 226.776C381.062 226.944 381.772 227.112 382.388 227.28C383.022 227.448 383.545 227.653 383.956 227.896C384.385 228.139 384.712 228.447 384.936 228.82C385.16 229.193 385.272 229.669 385.272 230.248C385.272 231.443 384.87 232.413 384.068 233.16C383.265 233.907 382.182 234.28 380.82 234.28H379.952C379.298 234.28 378.701 234.196 378.16 234.028C377.637 233.86 377.189 233.655 376.816 233.412C376.442 233.151 376.153 232.88 375.948 232.6C375.742 232.32 375.64 232.068 375.64 231.844C375.64 231.769 375.705 231.704 375.836 231.648L376.928 231.116C376.965 231.097 377.012 231.088 377.068 231.088C377.124 231.088 377.198 231.135 377.292 231.228C377.478 231.433 377.656 231.629 377.824 231.816C377.992 232.003 378.178 232.171 378.384 232.32C378.589 232.469 378.813 232.591 379.056 232.684C379.317 232.759 379.616 232.796 379.952 232.796H380.82C381.604 232.796 382.229 232.6 382.696 232.208C383.162 231.816 383.396 231.331 383.396 230.752C383.396 229.763 382.481 229.081 380.652 228.708C379.83 228.54 379.112 228.381 378.496 228.232C377.88 228.083 377.357 227.887 376.928 227.644C376.498 227.401 376.172 227.093 375.948 226.72C375.742 226.347 375.64 225.852 375.64 225.236C375.64 224.079 376.032 223.145 376.816 222.436C377.6 221.708 378.645 221.344 379.952 221.344H380.82C381.454 221.344 382.033 221.428 382.556 221.596C383.078 221.764 383.526 221.969 383.9 222.212C384.292 222.455 384.59 222.716 384.796 222.996C385.001 223.276 385.104 223.519 385.104 223.724C385.104 223.799 385.038 223.864 384.908 223.92L383.844 224.452C383.806 224.471 383.769 224.48 383.732 224.48C383.676 224.48 383.601 224.433 383.508 224.34C383.116 223.911 382.724 223.556 382.332 223.276C381.958 222.977 381.454 222.828 380.82 222.828H379.952ZM393.522 233.972C393.522 234.159 393.419 234.252 393.214 234.252C392.691 234.252 392.178 234.14 391.674 233.916C391.17 233.692 390.722 233.384 390.33 232.992C389.938 232.581 389.62 232.096 389.378 231.536C389.135 230.976 389.014 230.36 389.014 229.688V223.5C389.014 223.313 388.92 223.22 388.734 223.22H387.11C386.923 223.22 386.83 223.127 386.83 222.94V222.408L389.994 219.076L390.19 218.992H390.638C390.824 218.992 390.918 219.085 390.918 219.272V221.344C390.918 221.531 391.011 221.624 391.198 221.624H393.242C393.428 221.624 393.522 221.717 393.522 221.904V222.94C393.522 223.127 393.428 223.22 393.242 223.22H391.198C391.011 223.22 390.918 223.313 390.918 223.5V229.688C390.918 230.341 391.123 230.957 391.534 231.536C391.683 231.741 391.907 231.919 392.206 232.068C392.523 232.217 392.887 232.395 393.298 232.6C393.447 232.656 393.522 232.749 393.522 232.88V233.972ZM412.854 233.804C412.798 233.935 412.705 234 412.574 234H411.566C411.435 234 411.342 233.935 411.286 233.804C410.95 232.684 410.558 231.34 410.11 229.772C409.662 228.204 409.139 226.403 408.542 224.368H408.43C407.945 225.955 407.543 227.345 407.226 228.54C406.909 229.735 406.638 230.743 406.414 231.564C406.209 232.367 406.022 232.973 405.854 233.384C405.705 233.795 405.546 234 405.378 234H404.37C404.202 234 404.109 233.935 404.09 233.804L400.478 221.988C400.478 221.951 400.469 221.932 400.45 221.932C400.45 221.913 400.45 221.895 400.45 221.876C400.45 221.708 400.553 221.624 400.758 221.624H402.214C402.382 221.624 402.531 221.829 402.662 222.24C402.811 222.632 402.979 223.229 403.166 224.032C403.353 224.835 403.577 225.824 403.838 227C404.099 228.176 404.435 229.548 404.846 231.116H404.902C405.313 229.548 405.658 228.176 405.938 227C406.237 225.805 406.489 224.816 406.694 224.032C406.899 223.229 407.077 222.632 407.226 222.24C407.394 221.829 407.553 221.624 407.702 221.624H409.27C409.438 221.624 409.597 221.829 409.746 222.24C409.895 222.632 410.063 223.229 410.25 224.032C410.455 224.816 410.698 225.805 410.978 227C411.258 228.176 411.613 229.548 412.042 231.116H412.098C412.509 229.548 412.845 228.176 413.106 227C413.367 225.805 413.591 224.816 413.778 224.032C413.965 223.229 414.123 222.632 414.254 222.24C414.403 221.829 414.562 221.624 414.73 221.624H416.186C416.391 221.624 416.494 221.708 416.494 221.876C416.494 221.895 416.485 221.913 416.466 221.932C416.466 221.932 416.466 221.951 416.466 221.988L412.854 233.804ZM426.115 225.908C426.115 225.516 426.031 225.143 425.863 224.788C425.714 224.415 425.508 224.097 425.247 223.836C424.986 223.556 424.668 223.341 424.295 223.192C423.922 223.024 423.53 222.94 423.119 222.94C422.69 222.94 422.288 223.024 421.915 223.192C421.56 223.341 421.252 223.547 420.991 223.808C420.73 224.069 420.524 224.387 420.375 224.76C420.226 225.115 420.151 225.497 420.151 225.908V226.3C420.151 226.487 420.244 226.58 420.431 226.58H425.835C426.022 226.58 426.115 226.487 426.115 226.3V225.908ZM428.019 227.616C428.019 227.803 427.926 227.896 427.739 227.896H420.431C420.244 227.896 420.151 227.989 420.151 228.176V229.688C420.151 230.099 420.226 230.491 420.375 230.864C420.524 231.219 420.73 231.536 420.991 231.816C421.271 232.077 421.588 232.292 421.943 232.46C422.298 232.609 422.69 232.684 423.119 232.684C423.81 232.684 424.426 232.432 424.967 231.928C425.266 231.648 425.48 231.424 425.611 231.256C425.76 231.069 425.882 230.976 425.975 230.976C426.031 230.976 426.078 230.985 426.115 231.004L427.291 231.592C427.403 231.629 427.459 231.704 427.459 231.816C427.459 232.04 427.356 232.301 427.151 232.6C426.946 232.88 426.647 233.151 426.255 233.412C425.882 233.655 425.424 233.86 424.883 234.028C424.36 234.196 423.772 234.28 423.119 234.28C421.626 234.28 420.44 233.869 419.563 233.048C418.704 232.208 418.275 231.088 418.275 229.688V225.908C418.275 225.385 418.387 224.853 418.611 224.312C418.835 223.771 419.162 223.276 419.591 222.828C420.524 221.839 421.7 221.344 423.119 221.344C423.791 221.344 424.426 221.475 425.023 221.736C425.62 221.979 426.143 222.315 426.591 222.744C427.039 223.155 427.384 223.64 427.627 224.2C427.888 224.741 428.019 225.311 428.019 225.908V227.616ZM437.45 228.904C437.45 228.717 437.356 228.624 437.17 228.624H433.474C433.007 228.624 432.615 228.783 432.298 229.1C431.98 229.417 431.822 229.809 431.822 230.276V230.724C431.822 231.191 431.98 231.592 432.298 231.928C432.634 232.245 433.026 232.404 433.474 232.404H434.594C435.714 232.404 436.656 231.601 437.422 229.996L437.45 229.408V228.904ZM439.354 233.72C439.354 233.907 439.26 234 439.074 234H438.038C437.851 234 437.758 233.907 437.758 233.72V232.516C437.758 232.292 437.683 232.18 437.534 232.18C437.384 232.18 437.179 232.311 436.918 232.572C436.675 232.833 436.33 233.151 435.882 233.524C435.695 233.673 435.48 233.795 435.238 233.888C434.995 233.963 434.78 234 434.594 234H433.474C432.41 234 431.551 233.692 430.898 233.076C430.263 232.46 429.946 231.676 429.946 230.724V230.556C429.946 229.604 430.263 228.829 430.898 228.232C431.551 227.616 432.41 227.308 433.474 227.308H437.17C437.356 227.308 437.45 227.215 437.45 227.028L437.422 225.908C437.403 225.068 437.114 224.377 436.554 223.836C436.012 223.276 435.312 222.996 434.454 222.996C433.726 222.996 433.1 223.239 432.578 223.724C432.279 223.985 432.064 224.209 431.934 224.396C431.803 224.583 431.691 224.676 431.598 224.676C431.542 224.676 431.495 224.667 431.458 224.648L430.282 224.032C430.17 223.976 430.114 223.911 430.114 223.836C430.114 223.612 430.216 223.36 430.422 223.08C430.627 222.8 430.916 222.539 431.29 222.296C431.663 222.035 432.111 221.82 432.634 221.652C433.175 221.484 433.782 221.4 434.454 221.4C435.966 221.4 437.16 221.811 438.038 222.632C438.915 223.453 439.354 224.545 439.354 225.908V233.72ZM450.626 226.188C450.626 225.796 450.542 225.423 450.374 225.068C450.224 224.695 450.019 224.377 449.758 224.116C449.496 223.836 449.179 223.621 448.806 223.472C448.432 223.304 448.04 223.22 447.63 223.22C447.2 223.22 446.799 223.304 446.426 223.472C446.071 223.621 445.763 223.827 445.502 224.088C445.24 224.349 445.035 224.667 444.886 225.04C444.736 225.395 444.662 225.777 444.662 226.188V229.408C444.662 229.819 444.736 230.211 444.886 230.584C445.035 230.939 445.24 231.256 445.502 231.536C445.782 231.797 446.099 232.012 446.454 232.18C446.808 232.329 447.2 232.404 447.63 232.404C448.04 232.404 448.432 232.329 448.806 232.18C449.179 232.012 449.496 231.797 449.758 231.536C450.019 231.256 450.224 230.939 450.374 230.584C450.542 230.211 450.626 229.819 450.626 229.408V226.188ZM452.53 229.408C452.53 230.659 452.082 231.76 451.186 232.712C450.364 233.571 449.366 234 448.19 234C447.835 234 447.518 233.963 447.238 233.888C446.976 233.813 446.771 233.729 446.622 233.636C446.136 233.319 445.754 233.011 445.474 232.712C445.212 232.413 445.007 232.264 444.858 232.264C444.727 232.264 444.662 232.376 444.662 232.6V240.02C444.662 240.207 444.568 240.3 444.382 240.3H443.038C442.851 240.3 442.758 240.207 442.758 240.02V221.904C442.758 221.717 442.851 221.624 443.038 221.624H444.074C444.26 221.624 444.354 221.717 444.354 221.904V223.024C444.354 223.229 444.428 223.332 444.578 223.332C444.671 223.332 444.783 223.276 444.914 223.164C445.044 223.033 445.212 222.875 445.418 222.688C445.735 222.427 446.052 222.184 446.37 221.96C446.706 221.736 447.21 221.624 447.882 221.624C448.535 221.624 449.142 221.736 449.702 221.96C450.262 222.184 450.747 222.501 451.158 222.912C451.587 223.304 451.923 223.78 452.166 224.34C452.408 224.9 452.53 225.516 452.53 226.188V229.408ZM463.056 225.908C463.056 225.516 462.972 225.143 462.804 224.788C462.655 224.415 462.45 224.097 462.188 223.836C461.927 223.556 461.61 223.341 461.236 223.192C460.863 223.024 460.471 222.94 460.06 222.94C459.631 222.94 459.23 223.024 458.856 223.192C458.502 223.341 458.194 223.547 457.932 223.808C457.671 224.069 457.466 224.387 457.316 224.76C457.167 225.115 457.092 225.497 457.092 225.908V229.688C457.092 230.099 457.167 230.491 457.316 230.864C457.466 231.219 457.671 231.536 457.932 231.816C458.212 232.077 458.53 232.292 458.884 232.46C459.239 232.609 459.631 232.684 460.06 232.684C460.471 232.684 460.863 232.609 461.236 232.46C461.61 232.292 461.927 232.077 462.188 231.816C462.45 231.536 462.655 231.219 462.804 230.864C462.972 230.491 463.056 230.099 463.056 229.688V225.908ZM464.96 229.688C464.96 231.069 464.512 232.18 463.616 233.02C462.739 233.86 461.554 234.28 460.06 234.28C458.567 234.28 457.382 233.869 456.504 233.048C455.646 232.208 455.216 231.088 455.216 229.688V225.908C455.216 224.508 455.646 223.397 456.504 222.576C457.382 221.755 458.567 221.344 460.06 221.344C460.807 221.344 461.479 221.456 462.076 221.68C462.674 221.904 463.187 222.221 463.616 222.632C464.046 223.024 464.372 223.5 464.596 224.06C464.839 224.62 464.96 225.236 464.96 225.908V229.688ZM477.823 233.72C477.823 233.907 477.729 234 477.543 234H476.199C476.012 234 475.919 233.907 475.919 233.72V226.188C475.919 225.796 475.835 225.423 475.667 225.068C475.517 224.695 475.312 224.377 475.051 224.116C474.789 223.836 474.472 223.621 474.099 223.472C473.725 223.304 473.333 223.22 472.923 223.22C472.493 223.22 472.092 223.304 471.719 223.472C471.364 223.621 471.056 223.827 470.795 224.088C470.533 224.349 470.328 224.667 470.178 225.04C470.029 225.395 469.955 225.777 469.955 226.188V233.72C469.955 233.907 469.861 234 469.675 234H468.331C468.144 234 468.051 233.907 468.051 233.72V221.904C468.051 221.717 468.144 221.624 468.331 221.624H469.367C469.553 221.624 469.647 221.717 469.647 221.904V223.024C469.647 223.229 469.721 223.332 469.871 223.332C469.964 223.332 470.076 223.276 470.207 223.164C470.337 223.033 470.505 222.875 470.711 222.688C471.028 222.427 471.345 222.184 471.663 221.96C471.999 221.736 472.503 221.624 473.175 221.624C473.828 221.624 474.435 221.736 474.995 221.96C475.555 222.184 476.04 222.501 476.451 222.912C476.88 223.304 477.216 223.78 477.459 224.34C477.701 224.9 477.823 225.516 477.823 226.188V233.72ZM484.924 222.828C484.103 222.828 483.478 222.996 483.048 223.332C482.638 223.649 482.432 224.097 482.432 224.676C482.432 225.255 482.656 225.703 483.104 226.02C483.552 226.319 484.262 226.571 485.232 226.776C486.035 226.944 486.744 227.112 487.36 227.28C487.995 227.448 488.518 227.653 488.928 227.896C489.358 228.139 489.684 228.447 489.908 228.82C490.132 229.193 490.244 229.669 490.244 230.248C490.244 231.443 489.843 232.413 489.04 233.16C488.238 233.907 487.155 234.28 485.792 234.28H484.924C484.271 234.28 483.674 234.196 483.132 234.028C482.61 233.86 482.162 233.655 481.788 233.412C481.415 233.151 481.126 232.88 480.92 232.6C480.715 232.32 480.612 232.068 480.612 231.844C480.612 231.769 480.678 231.704 480.808 231.648L481.9 231.116C481.938 231.097 481.984 231.088 482.04 231.088C482.096 231.088 482.171 231.135 482.264 231.228C482.451 231.433 482.628 231.629 482.796 231.816C482.964 232.003 483.151 232.171 483.356 232.32C483.562 232.469 483.786 232.591 484.028 232.684C484.29 232.759 484.588 232.796 484.924 232.796H485.792C486.576 232.796 487.202 232.6 487.668 232.208C488.135 231.816 488.368 231.331 488.368 230.752C488.368 229.763 487.454 229.081 485.624 228.708C484.803 228.54 484.084 228.381 483.468 228.232C482.852 228.083 482.33 227.887 481.9 227.644C481.471 227.401 481.144 227.093 480.92 226.72C480.715 226.347 480.612 225.852 480.612 225.236C480.612 224.079 481.004 223.145 481.788 222.436C482.572 221.708 483.618 221.344 484.924 221.344H485.792C486.427 221.344 487.006 221.428 487.528 221.596C488.051 221.764 488.499 221.969 488.872 222.212C489.264 222.455 489.563 222.716 489.768 222.996C489.974 223.276 490.076 223.519 490.076 223.724C490.076 223.799 490.011 223.864 489.88 223.92L488.816 224.452C488.779 224.471 488.742 224.48 488.704 224.48C488.648 224.48 488.574 224.433 488.48 224.34C488.088 223.911 487.696 223.556 487.304 223.276C486.931 222.977 486.427 222.828 485.792 222.828H484.924ZM498.826 234.336C498.826 235.661 498.462 236.744 497.734 237.584C497.304 238.069 496.791 238.461 496.194 238.76C495.615 239.059 495.102 239.208 494.654 239.208C494.523 239.208 494.43 239.189 494.374 239.152C494.336 239.133 494.318 239.059 494.318 238.928V237.836C494.318 237.743 494.336 237.677 494.374 237.64C494.411 237.621 494.467 237.593 494.542 237.556C494.934 237.351 495.279 237.173 495.578 237.024C495.895 236.893 496.138 236.716 496.306 236.492C496.735 235.932 496.95 235.316 496.95 234.644V218.04C496.95 217.368 496.735 216.752 496.306 216.192C496.138 215.968 495.895 215.791 495.578 215.66C495.279 215.529 494.934 215.361 494.542 215.156C494.467 215.119 494.411 215.091 494.374 215.072C494.336 215.035 494.318 214.969 494.318 214.876V213.784C494.318 213.597 494.43 213.504 494.654 213.504C495.102 213.504 495.615 213.653 496.194 213.952C496.791 214.232 497.304 214.615 497.734 215.1C498.462 215.94 498.826 217.013 498.826 218.32V234.336ZM518.127 233.72C518.127 233.907 518.034 234 517.847 234H516.503C516.317 234 516.223 233.907 516.223 233.72V226.188C516.223 225.796 516.139 225.423 515.971 225.068C515.822 224.695 515.617 224.377 515.355 224.116C515.094 223.836 514.777 223.621 514.403 223.472C514.03 223.304 513.638 223.22 513.227 223.22C512.798 223.22 512.397 223.304 512.023 223.472C511.669 223.621 511.361 223.827 511.099 224.088C510.838 224.349 510.633 224.667 510.483 225.04C510.334 225.395 510.259 225.777 510.259 226.188V233.72C510.259 233.907 510.166 234 509.979 234H508.635C508.449 234 508.355 233.907 508.355 233.72V216.668C508.355 216.481 508.449 216.388 508.635 216.388H509.979C510.166 216.388 510.259 216.481 510.259 216.668V222.996C510.259 223.201 510.325 223.304 510.455 223.304C510.549 223.304 510.661 223.248 510.791 223.136C510.922 223.005 511.09 222.847 511.295 222.66C511.463 222.529 511.622 222.408 511.771 222.296C511.921 222.165 512.079 222.053 512.247 221.96C512.434 221.867 512.639 221.792 512.863 221.736C513.106 221.661 513.386 221.624 513.703 221.624C514.319 221.624 514.898 221.745 515.439 221.988C515.981 222.212 516.447 222.529 516.839 222.94C517.231 223.332 517.539 223.808 517.763 224.368C518.006 224.928 518.127 225.535 518.127 226.188V233.72ZM528.121 228.904C528.121 228.717 528.028 228.624 527.841 228.624H524.145C523.679 228.624 523.287 228.783 522.969 229.1C522.652 229.417 522.493 229.809 522.493 230.276V230.724C522.493 231.191 522.652 231.592 522.969 231.928C523.305 232.245 523.697 232.404 524.145 232.404H525.265C526.385 232.404 527.328 231.601 528.093 229.996L528.121 229.408V228.904ZM530.025 233.72C530.025 233.907 529.932 234 529.745 234H528.709C528.523 234 528.429 233.907 528.429 233.72V232.516C528.429 232.292 528.355 232.18 528.205 232.18C528.056 232.18 527.851 232.311 527.589 232.572C527.347 232.833 527.001 233.151 526.553 233.524C526.367 233.673 526.152 233.795 525.909 233.888C525.667 233.963 525.452 234 525.265 234H524.145C523.081 234 522.223 233.692 521.569 233.076C520.935 232.46 520.617 231.676 520.617 230.724V230.556C520.617 229.604 520.935 228.829 521.569 228.232C522.223 227.616 523.081 227.308 524.145 227.308H527.841C528.028 227.308 528.121 227.215 528.121 227.028L528.093 225.908C528.075 225.068 527.785 224.377 527.225 223.836C526.684 223.276 525.984 222.996 525.125 222.996C524.397 222.996 523.772 223.239 523.249 223.724C522.951 223.985 522.736 224.209 522.605 224.396C522.475 224.583 522.363 224.676 522.269 224.676C522.213 224.676 522.167 224.667 522.129 224.648L520.953 224.032C520.841 223.976 520.785 223.911 520.785 223.836C520.785 223.612 520.888 223.36 521.093 223.08C521.299 222.8 521.588 222.539 521.961 222.296C522.335 222.035 522.783 221.82 523.305 221.652C523.847 221.484 524.453 221.4 525.125 221.4C526.637 221.4 527.832 221.811 528.709 222.632C529.587 223.453 530.025 224.545 530.025 225.908V233.72ZM538.273 233.832C538.18 233.925 538.096 233.981 538.021 234H536.845C536.733 234 536.649 233.944 536.593 233.832L531.833 222.016C531.796 221.941 531.777 221.885 531.777 221.848C531.777 221.699 531.88 221.624 532.085 221.624H533.457C533.513 221.624 533.597 221.68 533.709 221.792L537.377 231.144H537.489L541.129 221.792C541.148 221.68 541.232 221.624 541.381 221.624H542.781C542.987 221.624 543.089 221.699 543.089 221.848C543.089 221.885 543.071 221.941 543.033 222.016L538.273 233.832ZM552.471 225.908C552.471 225.516 552.387 225.143 552.219 224.788C552.069 224.415 551.864 224.097 551.603 223.836C551.341 223.556 551.024 223.341 550.651 223.192C550.277 223.024 549.885 222.94 549.475 222.94C549.045 222.94 548.644 223.024 548.271 223.192C547.916 223.341 547.608 223.547 547.347 223.808C547.085 224.069 546.88 224.387 546.731 224.76C546.581 225.115 546.507 225.497 546.507 225.908V226.3C546.507 226.487 546.6 226.58 546.787 226.58H552.191C552.377 226.58 552.471 226.487 552.471 226.3V225.908ZM554.375 227.616C554.375 227.803 554.281 227.896 554.095 227.896H546.787C546.6 227.896 546.507 227.989 546.507 228.176V229.688C546.507 230.099 546.581 230.491 546.731 230.864C546.88 231.219 547.085 231.536 547.347 231.816C547.627 232.077 547.944 232.292 548.299 232.46C548.653 232.609 549.045 232.684 549.475 232.684C550.165 232.684 550.781 232.432 551.323 231.928C551.621 231.648 551.836 231.424 551.967 231.256C552.116 231.069 552.237 230.976 552.331 230.976C552.387 230.976 552.433 230.985 552.471 231.004L553.647 231.592C553.759 231.629 553.815 231.704 553.815 231.816C553.815 232.04 553.712 232.301 553.507 232.6C553.301 232.88 553.003 233.151 552.611 233.412C552.237 233.655 551.78 233.86 551.239 234.028C550.716 234.196 550.128 234.28 549.475 234.28C547.981 234.28 546.796 233.869 545.919 233.048C545.06 232.208 544.631 231.088 544.631 229.688V225.908C544.631 225.385 544.743 224.853 544.967 224.312C545.191 223.771 545.517 223.276 545.947 222.828C546.88 221.839 548.056 221.344 549.475 221.344C550.147 221.344 550.781 221.475 551.379 221.736C551.976 221.979 552.499 222.315 552.947 222.744C553.395 223.155 553.74 223.64 553.983 224.2C554.244 224.741 554.375 225.311 554.375 225.908V227.616ZM57.084 265.972C57.084 266.159 56.9813 266.252 56.776 266.252C56.2533 266.252 55.74 266.14 55.236 265.916C54.732 265.692 54.284 265.384 53.892 264.992C53.5 264.581 53.1827 264.096 52.94 263.536C52.6973 262.976 52.576 262.36 52.576 261.688V255.5C52.576 255.313 52.4827 255.22 52.296 255.22H50.672C50.4853 255.22 50.392 255.127 50.392 254.94V254.408L53.556 251.076L53.752 250.992H54.2C54.3867 250.992 54.48 251.085 54.48 251.272V253.344C54.48 253.531 54.5733 253.624 54.76 253.624H56.804C56.9907 253.624 57.084 253.717 57.084 253.904V254.94C57.084 255.127 56.9907 255.22 56.804 255.22H54.76C54.5733 255.22 54.48 255.313 54.48 255.5V261.688C54.48 262.341 54.6853 262.957 55.096 263.536C55.2453 263.741 55.4693 263.919 55.768 264.068C56.0853 264.217 56.4493 264.395 56.86 264.6C57.0093 264.656 57.084 264.749 57.084 264.88V265.972ZM69.6897 265.72C69.6897 265.907 69.5964 266 69.4097 266H68.0657C67.879 266 67.7857 265.907 67.7857 265.72V258.188C67.7857 257.796 67.7017 257.423 67.5337 257.068C67.3844 256.695 67.179 256.377 66.9177 256.116C66.6564 255.836 66.339 255.621 65.9657 255.472C65.5924 255.304 65.2004 255.22 64.7897 255.22C64.3604 255.22 63.959 255.304 63.5857 255.472C63.231 255.621 62.923 255.827 62.6617 256.088C62.4004 256.349 62.195 256.667 62.0457 257.04C61.8964 257.395 61.8217 257.777 61.8217 258.188V265.72C61.8217 265.907 61.7284 266 61.5417 266H60.1977C60.011 266 59.9177 265.907 59.9177 265.72V248.668C59.9177 248.481 60.011 248.388 60.1977 248.388H61.5417C61.7284 248.388 61.8217 248.481 61.8217 248.668V254.996C61.8217 255.201 61.887 255.304 62.0177 255.304C62.111 255.304 62.223 255.248 62.3537 255.136C62.4844 255.005 62.6524 254.847 62.8577 254.66C63.0257 254.529 63.1844 254.408 63.3337 254.296C63.483 254.165 63.6417 254.053 63.8097 253.96C63.9964 253.867 64.2017 253.792 64.4257 253.736C64.6684 253.661 64.9484 253.624 65.2657 253.624C65.8817 253.624 66.4604 253.745 67.0017 253.988C67.543 254.212 68.0097 254.529 68.4017 254.94C68.7937 255.332 69.1017 255.808 69.3257 256.368C69.5684 256.928 69.6897 257.535 69.6897 258.188V265.72ZM80.4353 257.908C80.4353 257.516 80.3513 257.143 80.1833 256.788C80.034 256.415 79.8287 256.097 79.5673 255.836C79.306 255.556 78.9887 255.341 78.6153 255.192C78.242 255.024 77.85 254.94 77.4393 254.94C77.01 254.94 76.6087 255.024 76.2353 255.192C75.8807 255.341 75.5727 255.547 75.3113 255.808C75.05 256.069 74.8447 256.387 74.6953 256.76C74.546 257.115 74.4713 257.497 74.4713 257.908V258.3C74.4713 258.487 74.5647 258.58 74.7513 258.58H80.1553C80.342 258.58 80.4353 258.487 80.4353 258.3V257.908ZM82.3393 259.616C82.3393 259.803 82.246 259.896 82.0593 259.896H74.7513C74.5647 259.896 74.4713 259.989 74.4713 260.176V261.688C74.4713 262.099 74.546 262.491 74.6953 262.864C74.8447 263.219 75.05 263.536 75.3113 263.816C75.5913 264.077 75.9087 264.292 76.2633 264.46C76.618 264.609 77.01 264.684 77.4393 264.684C78.13 264.684 78.746 264.432 79.2873 263.928C79.586 263.648 79.8007 263.424 79.9313 263.256C80.0807 263.069 80.202 262.976 80.2953 262.976C80.3513 262.976 80.398 262.985 80.4353 263.004L81.6113 263.592C81.7233 263.629 81.7793 263.704 81.7793 263.816C81.7793 264.04 81.6767 264.301 81.4713 264.6C81.266 264.88 80.9673 265.151 80.5753 265.412C80.202 265.655 79.7447 265.86 79.2033 266.028C78.6807 266.196 78.0927 266.28 77.4393 266.28C75.946 266.28 74.7607 265.869 73.8833 265.048C73.0247 264.208 72.5953 263.088 72.5953 261.688V257.908C72.5953 257.385 72.7073 256.853 72.9313 256.312C73.1553 255.771 73.482 255.276 73.9113 254.828C74.8447 253.839 76.0207 253.344 77.4393 253.344C78.1113 253.344 78.746 253.475 79.3433 253.736C79.9407 253.979 80.4633 254.315 80.9113 254.744C81.3593 255.155 81.7047 255.64 81.9473 256.2C82.2087 256.741 82.3393 257.311 82.3393 257.908V259.616ZM96.6074 270.525C96.6074 270.717 96.5117 270.812 96.3203 270.812H91.2754C91.0931 270.812 91.002 270.717 91.002 270.525V245.984C91.002 245.793 91.0931 245.697 91.2754 245.697H96.3203C96.5117 245.697 96.6074 245.793 96.6074 245.984V248.363C96.6074 248.546 96.5117 248.637 96.3203 248.637H94.4746C94.2832 248.637 94.1875 248.732 94.1875 248.924V267.586C94.1875 267.777 94.2832 267.873 94.4746 267.873H96.3203C96.5117 267.873 96.6074 267.964 96.6074 268.146V270.525ZM106.807 248.363C108.393 248.363 109.655 248.837 110.594 249.785C111.542 250.724 112.016 251.986 112.016 253.572C112.016 255.021 111.533 256.211 110.566 257.141C109.609 258.061 108.356 258.521 106.807 258.521H104.291C104.109 258.521 104.018 258.617 104.018 258.809V265.727C104.018 265.909 103.922 266 103.73 266H101.064C100.882 266 100.791 265.909 100.791 265.727V248.637C100.791 248.454 100.882 248.363 101.064 248.363H106.807ZM108.83 253.572V253.312C108.83 252.775 108.634 252.305 108.242 251.904C107.85 251.503 107.372 251.303 106.807 251.303H104.291C104.109 251.303 104.018 251.394 104.018 251.576V255.309C104.018 255.491 104.109 255.582 104.291 255.582H106.807C107.372 255.582 107.85 255.386 108.242 254.994C108.634 254.602 108.83 254.128 108.83 253.572ZM117.553 265.727C117.553 265.909 117.457 266 117.266 266H114.6C114.417 266 114.326 265.909 114.326 265.727V248.637C114.326 248.454 114.417 248.363 114.6 248.363H117.266C117.457 248.363 117.553 248.454 117.553 248.637V265.727ZM125.578 251.016C125.013 251.016 124.535 251.212 124.143 251.604C123.751 251.995 123.555 252.474 123.555 253.039C123.555 253.613 123.855 254.096 124.457 254.488C124.658 254.643 125.441 255.026 126.809 255.637C128.358 256.348 129.465 257.122 130.131 257.961C130.842 258.863 131.197 259.984 131.197 261.324C131.197 262.819 130.719 264.018 129.762 264.92C128.814 265.822 127.556 266.273 125.988 266.273H124.867C123.299 266.273 122.087 265.836 121.23 264.961C120.374 264.086 119.945 263.407 119.945 262.924C119.945 262.851 120 262.783 120.109 262.719L122.543 261.516C122.589 261.497 122.639 261.488 122.693 261.488C122.766 261.488 122.944 261.771 123.227 262.336C123.555 263.001 124.102 263.334 124.867 263.334H125.988C126.535 263.334 127.009 263.138 127.41 262.746C127.811 262.354 128.012 261.88 128.012 261.324C128.012 260.686 127.738 260.153 127.191 259.725C126.882 259.488 126.157 259.096 125.018 258.549C123.35 257.747 122.192 256.99 121.545 256.279C120.761 255.423 120.369 254.342 120.369 253.039C120.369 251.544 120.843 250.346 121.791 249.443C122.748 248.532 124.01 248.076 125.578 248.076H125.988C127.264 248.076 128.331 248.386 129.188 249.006C129.671 249.361 130.108 249.817 130.5 250.373C130.819 250.838 130.979 251.175 130.979 251.385C130.979 251.476 130.924 251.549 130.814 251.604L128.367 252.807C128.331 252.825 128.285 252.834 128.23 252.834C128.158 252.834 128.039 252.697 127.875 252.424C127.31 251.485 126.681 251.016 125.988 251.016H125.578ZM142.586 251.016C142.586 251.207 142.49 251.303 142.299 251.303H139.25C139.068 251.303 138.977 251.394 138.977 251.576V265.727C138.977 265.909 138.881 266 138.689 266H136.064C135.873 266 135.777 265.909 135.777 265.727V251.576C135.777 251.394 135.686 251.303 135.504 251.303H132.441C132.259 251.303 132.168 251.207 132.168 251.016V248.637C132.168 248.454 132.259 248.363 132.441 248.363H142.299C142.49 248.363 142.586 248.454 142.586 248.637V251.016ZM156.285 261.324C156.285 262.819 155.807 264.018 154.85 264.92C153.902 265.822 152.644 266.273 151.076 266.273H149.709C148.141 266.273 146.879 265.822 145.922 264.92C144.974 264.018 144.5 262.819 144.5 261.324V253.039C144.5 251.544 144.974 250.346 145.922 249.443C146.879 248.532 148.141 248.076 149.709 248.076H151.076C152.644 248.076 153.902 248.532 154.85 249.443C155.807 250.346 156.285 251.544 156.285 253.039V261.324ZM153.072 261.324V253.039C153.072 252.456 152.881 251.973 152.498 251.59C152.115 251.207 151.641 251.016 151.076 251.016H149.709C149.144 251.016 148.665 251.212 148.273 251.604C147.882 251.995 147.686 252.474 147.686 253.039V261.324C147.686 261.88 147.882 262.354 148.273 262.746C148.665 263.138 149.144 263.334 149.709 263.334H151.076C151.641 263.334 152.115 263.143 152.498 262.76C152.881 262.377 153.072 261.898 153.072 261.324ZM170.107 265.727C170.107 265.909 170.012 266 169.82 266H159.936C159.753 266 159.662 265.909 159.662 265.727V248.637C159.662 248.454 159.753 248.363 159.936 248.363H162.602C162.793 248.363 162.889 248.454 162.889 248.637V262.773C162.889 262.965 162.98 263.061 163.162 263.061H169.82C170.012 263.061 170.107 263.152 170.107 263.334V265.727ZM178.393 270.525C178.393 270.717 178.297 270.812 178.105 270.812H173.061C172.878 270.812 172.787 270.717 172.787 270.525V268.146C172.787 267.964 172.878 267.873 173.061 267.873H174.893C175.075 267.873 175.166 267.777 175.166 267.586V248.924C175.166 248.732 175.075 248.637 174.893 248.637H173.061C172.878 248.637 172.787 248.546 172.787 248.363V245.984C172.787 245.793 172.878 245.697 173.061 245.697H178.105C178.297 245.697 178.393 245.793 178.393 245.984V270.525ZM194.418 260.904C194.418 260.717 194.325 260.624 194.138 260.624H190.442C189.976 260.624 189.584 260.783 189.266 261.1C188.949 261.417 188.79 261.809 188.79 262.276V262.724C188.79 263.191 188.949 263.592 189.266 263.928C189.602 264.245 189.994 264.404 190.442 264.404H191.562C192.682 264.404 193.625 263.601 194.39 261.996L194.418 261.408V260.904ZM196.322 265.72C196.322 265.907 196.229 266 196.042 266H195.006C194.82 266 194.726 265.907 194.726 265.72V264.516C194.726 264.292 194.652 264.18 194.502 264.18C194.353 264.18 194.148 264.311 193.886 264.572C193.644 264.833 193.298 265.151 192.85 265.524C192.664 265.673 192.449 265.795 192.206 265.888C191.964 265.963 191.749 266 191.562 266H190.442C189.378 266 188.52 265.692 187.866 265.076C187.232 264.46 186.914 263.676 186.914 262.724V262.556C186.914 261.604 187.232 260.829 187.866 260.232C188.52 259.616 189.378 259.308 190.442 259.308H194.138C194.325 259.308 194.418 259.215 194.418 259.028L194.39 257.908C194.372 257.068 194.082 256.377 193.522 255.836C192.981 255.276 192.281 254.996 191.422 254.996C190.694 254.996 190.069 255.239 189.546 255.724C189.248 255.985 189.033 256.209 188.902 256.396C188.772 256.583 188.66 256.676 188.566 256.676C188.51 256.676 188.464 256.667 188.426 256.648L187.25 256.032C187.138 255.976 187.082 255.911 187.082 255.836C187.082 255.612 187.185 255.36 187.39 255.08C187.596 254.8 187.885 254.539 188.258 254.296C188.632 254.035 189.08 253.82 189.602 253.652C190.144 253.484 190.75 253.4 191.422 253.4C192.934 253.4 194.129 253.811 195.006 254.632C195.884 255.453 196.322 256.545 196.322 257.908V265.72ZM207.54 258.188C207.54 257.796 207.456 257.423 207.288 257.068C207.138 256.695 206.933 256.377 206.672 256.116C206.41 255.836 206.093 255.621 205.72 255.472C205.346 255.304 204.954 255.22 204.544 255.22C204.114 255.22 203.713 255.304 203.34 255.472C202.985 255.621 202.677 255.827 202.416 256.088C202.154 256.349 201.949 256.667 201.8 257.04C201.65 257.395 201.576 257.777 201.576 258.188V261.408C201.576 261.819 201.65 262.211 201.8 262.584C201.949 262.939 202.154 263.256 202.416 263.536C202.696 263.797 203.013 264.012 203.368 264.18C203.722 264.329 204.114 264.404 204.544 264.404C204.954 264.404 205.346 264.329 205.72 264.18C206.093 264.012 206.41 263.797 206.672 263.536C206.933 263.256 207.138 262.939 207.288 262.584C207.456 262.211 207.54 261.819 207.54 261.408V258.188ZM209.444 261.408C209.444 262.08 209.322 262.696 209.08 263.256C208.837 263.816 208.501 264.301 208.072 264.712C207.661 265.123 207.176 265.44 206.616 265.664C206.056 265.888 205.449 266 204.796 266C204.422 266 204.105 265.972 203.844 265.916C203.601 265.841 203.405 265.757 203.256 265.664C202.752 265.347 202.369 265.039 202.108 264.74C201.846 264.423 201.641 264.264 201.492 264.264C201.342 264.264 201.268 264.367 201.268 264.572V265.72C201.268 265.907 201.174 266 200.988 266H199.952C199.765 266 199.672 265.907 199.672 265.72V248.668C199.672 248.481 199.765 248.388 199.952 248.388H201.296C201.482 248.388 201.576 248.481 201.576 248.668V254.996C201.576 255.201 201.641 255.304 201.772 255.304C201.865 255.304 201.977 255.248 202.108 255.136C202.238 255.005 202.406 254.847 202.612 254.66C202.929 254.399 203.246 254.165 203.564 253.96C203.9 253.736 204.394 253.624 205.048 253.624C206.28 253.624 207.297 254.053 208.1 254.912C208.996 255.864 209.444 256.956 209.444 258.188V261.408ZM214.208 265.72C214.208 265.907 214.115 266 213.928 266H212.584C212.398 266 212.304 265.907 212.304 265.72V253.904C212.304 253.717 212.398 253.624 212.584 253.624H213.928C214.115 253.624 214.208 253.717 214.208 253.904V265.72ZM214.488 249.312C214.488 249.648 214.367 249.947 214.124 250.208C213.882 250.451 213.583 250.572 213.228 250.572C212.892 250.572 212.603 250.46 212.36 250.236C212.136 249.993 212.024 249.685 212.024 249.312C212.024 248.976 212.146 248.687 212.388 248.444C212.631 248.201 212.911 248.08 213.228 248.08C213.602 248.08 213.9 248.201 214.124 248.444C214.367 248.668 214.488 248.957 214.488 249.312ZM220.06 265.72C220.06 265.907 219.967 266 219.78 266H218.436C218.249 266 218.156 265.907 218.156 265.72V248.668C218.156 248.481 218.249 248.388 218.436 248.388H219.78C219.967 248.388 220.06 248.481 220.06 248.668V265.72ZM225.912 265.72C225.912 265.907 225.818 266 225.632 266H224.288C224.101 266 224.008 265.907 224.008 265.72V253.904C224.008 253.717 224.101 253.624 224.288 253.624H225.632C225.818 253.624 225.912 253.717 225.912 253.904V265.72ZM226.192 249.312C226.192 249.648 226.07 249.947 225.828 250.208C225.585 250.451 225.286 250.572 224.932 250.572C224.596 250.572 224.306 250.46 224.064 250.236C223.84 249.993 223.728 249.685 223.728 249.312C223.728 248.976 223.849 248.687 224.092 248.444C224.334 248.201 224.614 248.08 224.932 248.08C225.305 248.08 225.604 248.201 225.828 248.444C226.07 248.668 226.192 248.957 226.192 249.312ZM234.627 265.972C234.627 266.159 234.524 266.252 234.319 266.252C233.796 266.252 233.283 266.14 232.779 265.916C232.275 265.692 231.827 265.384 231.435 264.992C231.043 264.581 230.726 264.096 230.483 263.536C230.24 262.976 230.119 262.36 230.119 261.688V255.5C230.119 255.313 230.026 255.22 229.839 255.22H228.215C228.028 255.22 227.935 255.127 227.935 254.94V254.408L231.099 251.076L231.295 250.992H231.743C231.93 250.992 232.023 251.085 232.023 251.272V253.344C232.023 253.531 232.116 253.624 232.303 253.624H234.347C234.534 253.624 234.627 253.717 234.627 253.904V254.94C234.627 255.127 234.534 255.22 234.347 255.22H232.303C232.116 255.22 232.023 255.313 232.023 255.5V261.688C232.023 262.341 232.228 262.957 232.639 263.536C232.788 263.741 233.012 263.919 233.311 264.068C233.628 264.217 233.992 264.395 234.403 264.6C234.552 264.656 234.627 264.749 234.627 264.88V265.972ZM246.679 267.68C246.679 269.211 246.24 270.405 245.363 271.264C244.504 272.141 243.309 272.58 241.779 272.58C241.125 272.58 240.528 272.496 239.987 272.328C239.464 272.16 239.016 271.945 238.643 271.684C238.269 271.441 237.98 271.171 237.775 270.872C237.569 270.592 237.467 270.34 237.467 270.116C237.467 270.004 237.523 269.929 237.635 269.892L238.811 269.304C238.848 269.285 238.895 269.276 238.951 269.276C238.988 269.276 239.053 269.323 239.147 269.416C239.539 269.845 239.921 270.209 240.295 270.508C240.668 270.825 241.163 270.984 241.779 270.984C242.208 270.984 242.609 270.9 242.983 270.732C243.356 270.583 243.673 270.368 243.935 270.088C244.215 269.827 244.429 269.509 244.579 269.136C244.728 268.781 244.803 268.399 244.803 267.988V264.656C244.803 264.451 244.728 264.348 244.579 264.348C244.485 264.348 244.373 264.413 244.243 264.544C244.131 264.656 243.972 264.805 243.767 264.992C243.617 265.123 243.468 265.253 243.319 265.384C243.169 265.496 243.011 265.599 242.843 265.692C242.675 265.785 242.479 265.86 242.255 265.916C242.031 265.972 241.769 266 241.471 266C240.855 266 240.267 265.888 239.707 265.664C239.165 265.44 238.689 265.132 238.279 264.74C237.868 264.329 237.541 263.844 237.299 263.284C237.056 262.705 236.935 262.08 236.935 261.408V253.904C236.935 253.717 237.028 253.624 237.215 253.624H238.531C238.717 253.624 238.811 253.717 238.811 253.904V261.408C238.811 261.819 238.885 262.211 239.035 262.584C239.203 262.939 239.417 263.256 239.679 263.536C239.94 263.797 240.248 264.012 240.603 264.18C240.976 264.329 241.368 264.404 241.779 264.404C242.208 264.404 242.609 264.329 242.983 264.18C243.356 264.012 243.673 263.797 243.935 263.536C244.215 263.256 244.429 262.939 244.579 262.584C244.728 262.211 244.803 261.819 244.803 261.408V253.904C244.803 253.717 244.896 253.624 245.083 253.624H246.399C246.585 253.624 246.679 253.717 246.679 253.904V267.68ZM252.554 265.048C252.554 265.44 252.424 265.767 252.162 266.028C251.901 266.289 251.565 266.42 251.154 266.42C250.781 266.42 250.464 266.28 250.202 266C249.941 265.739 249.81 265.421 249.81 265.048C249.81 264.675 249.941 264.357 250.202 264.096C250.464 263.816 250.781 263.676 251.154 263.676C251.565 263.676 251.901 263.807 252.162 264.068C252.424 264.329 252.554 264.656 252.554 265.048Z" fill="black"/>
<defs>
<clipPath id="clip0_2013_3820">
<rect width="620" height="1063" fill="white"/>
</clipPath>
<clipPath id="clip1_2013_3820">
<rect width="620" height="197" fill="white"/>
</clipPath>
</defs>
</svg>
